<?xml version="1.0" encoding="UTF-8" standalone="no"?>
<!-- Created with Inkscape (http://www.inkscape.org/) -->

<svg
   xmlns:dc="http://purl.org/dc/elements/1.1/"
   xmlns:cc="http://creativecommons.org/ns#"
   xmlns:rdf="http://www.w3.org/1999/02/22-rdf-syntax-ns#"
   xmlns:svg="http://www.w3.org/2000/svg"
   xmlns="http://www.w3.org/2000/svg"
   xmlns:sodipodi="http://sodipodi.sourceforge.net/DTD/sodipodi-0.dtd"
   xmlns:inkscape="http://www.inkscape.org/namespaces/inkscape"
   width="210mm"
   height="297mm"
   viewBox="0 0 210 297"
   version="1.1"
   id="svg8"
   inkscape:version="0.92.3 (2405546, 2018-03-11)"
   sodipodi:docname="tardis_icone_laterale.svg">
  <defs
     id="defs2" />
  <sodipodi:namedview
     id="base"
     pagecolor="#ffffff"
     bordercolor="#666666"
     borderopacity="1.0"
     inkscape:pageopacity="0.0"
     inkscape:pageshadow="2"
     inkscape:zoom="0.35"
     inkscape:cx="400"
     inkscape:cy="560"
     inkscape:document-units="mm"
     inkscape:current-layer="layer1"
     showgrid="false"
     inkscape:window-width="1853"
     inkscape:window-height="1025"
     inkscape:window-x="67"
     inkscape:window-y="27"
     inkscape:window-maximized="1" />
  <metadata
     id="metadata5">
    <rdf:RDF>
      <cc:Work
         rdf:about="">
        <dc:format>image/svg+xml</dc:format>
        <dc:type
           rdf:resource="http://purl.org/dc/dcmitype/StillImage" />
        <dc:title></dc:title>
      </cc:Work>
    </rdf:RDF>
  </metadata>
  <g
     inkscape:label="Calque 1"
     inkscape:groupmode="layer"
     id="layer1">
    <path
       style="fill:#0000ff;stroke-width:0.23196796"
       d="m 14.561802,282.20145 c -0.289609,-3.21761 -0.125148,-3.86548 1.258821,-4.95885 0.707418,-0.55889 1.190983,-1.17612 1.424744,-1.81858 0.322005,-0.88498 0.353859,-8.68953 0.353859,-86.68854 0,-77.93739 -0.03177,-85.7294 -0.349897,-85.86366 -0.192443,-0.0812 -0.665272,-0.14914 -1.050726,-0.15097 -0.385455,-0.002 -0.924801,-0.0693 -1.198542,-0.15 l -0.49771,-0.14668 v -7.252848 c 0,-8.064809 -0.15416,-7.303163 1.548437,-7.650516 1.649099,-0.33643 1.530362,-0.05065 1.597748,-3.845545 l 0.06128,-3.452068 1.824955,-0.206787 1.824945,-0.206788 7.75e-4,-2.955508 7.75e-4,-2.955508 20.184276,-4.104646 c 11.101359,-2.257557 20.265816,-4.186214 20.365474,-4.285921 0.09966,-0.0997 0.32948,-0.896133 0.510711,-1.769861 0.321311,-1.549043 0.349854,-1.592778 1.146045,-1.756382 1.369163,-0.28135 1.369523,-0.282582 1.369523,-4.654236 0,-4.793386 -0.06036,-4.676772 2.756558,-5.326836 1.641164,-0.378736 2.167818,-0.406091 3.389147,-0.176033 2.405703,0.453152 2.676542,1.111303 2.692885,6.544008 l 0.0096,3.200634 1.10425,0.311219 c 1.155933,0.325785 1.200329,0.390795 1.444349,2.114906 0.09689,0.684602 0.311587,1.156817 0.624474,1.373514 0.262247,0.181634 8.78862,2.040721 18.947499,4.13131 10.158873,2.090588 19.067933,3.996507 19.797913,4.235391 l 1.32724,0.434317 0.0621,2.816019 0.0621,2.816018 1.87345,0.171613 1.87344,0.171612 v 3.458576 3.458577 l 1.60375,0.356886 1.60374,0.356888 0.0585,7.320041 0.0585,7.320024 -1.30911,0.28321 c -0.72,0.15578 -1.44312,0.46082 -1.60694,0.67787 -0.42776,0.56678 -0.5587,170.05434 -0.13248,171.48637 0.20954,0.70397 0.573,1.15211 1.46851,1.81056 1.66975,1.22774 1.7778,1.53153 1.78698,5.02388 l 0.008,2.97985 H 69.612896 14.784444 Z m 43.518082,-27.0788 V 236.51373 H 43.369701 28.659518 v 18.60892 18.60891 h 14.710183 14.710183 z m -27.429514,0.12163 v -16.54127 h 12.719331 12.719331 v 16.54127 16.54124 H 43.369701 30.65037 Z m 79.80136,-0.0607 -0.0567,-18.54809 -14.765488,-0.0626 -14.765486,-0.0626 v 18.61063 18.61064 h 14.822171 14.822163 z m -27.596802,0.0607 v -16.54127 h 12.829942 12.82992 v 16.54127 16.54124 H 95.68487 82.854928 Z M 70.688609,190.29553 v -82.94954 h -1.106027 -1.106026 v 82.94954 82.94952 h 1.106026 1.106027 z M 58.079884,210.9721 V 192.24156 H 43.369701 28.659518 v 18.73054 18.73053 h 14.710183 14.710183 z m -27.429514,0 v -16.54126 h 12.829932 12.829932 v 16.54126 16.54125 H 43.480302 30.65037 Z m 79.63407,-0.002 v -18.73227 l -14.654884,0.0626 -14.654882,0.0626 -0.05718,18.36566 c -0.03142,10.10112 -0.0097,18.5025 0.0483,18.66973 0.08294,0.23901 3.230623,0.30407 14.71208,0.30407 H 110.2844 v -18.7323 z m -27.429512,0.002 v -16.54126 h 12.829942 12.82992 v 16.54126 16.54125 H 95.68487 82.854928 Z M 110.28444,166.82154 V 148.21263 H 95.574254 80.86407 v 18.60891 18.60891 h 14.710184 14.710186 z m -27.429512,0 v -16.66289 h 12.719326 12.719336 v 16.66289 16.66288 H 95.574254 82.854928 Z m -26.544694,0 V 150.15865 H 43.259099 30.207955 v 16.66289 16.66288 H 43.259099 56.310234 Z M 36.844129,133.25252 v -7.90576 h -4.092306 -4.092305 v 7.90576 7.90575 h 4.092305 4.092306 z m 10.617878,0 v -7.90576 h -4.092306 -4.092305 v 7.90576 7.90575 h 4.092305 4.092306 z m 10.617877,0 v -7.90576 h -4.092306 -4.092305 v 7.90576 7.90575 h 4.092305 4.092306 z m 31.190009,0.12161 v -7.78411 H 85.066988 80.86407 v 7.78411 7.78414 h 4.202918 4.202905 z m 10.396669,0 v -7.78411 h -4.092308 -4.092307 v 7.78411 7.78414 h 4.092307 4.092308 z m 10.617878,0 v -7.78411 h -3.9817 -3.98171 v 7.78411 7.78414 h 3.98171 3.9817 z M 89.048685,115.13012 v -8.02739 H 84.956378 80.86407 v 8.02739 8.02737 h 4.092308 4.092307 z m 10.617877,0 v -8.02739 h -4.092308 -4.092307 v 8.02739 8.02737 h 4.092307 4.092308 z m 10.617878,0.12162 v -7.90575 h -3.9817 -3.98171 v 7.90575 7.90575 h 3.98171 3.9817 z m -73.492547,-0.30406 0.05835,-7.84495 h -4.095374 -4.095366 v 7.91125 7.91123 l 4.037001,-0.0663 4.037008,-0.0662 z m 10.670114,0.0607 v -7.90575 h -4.092306 -4.092305 v 7.90575 7.90574 h 4.092305 4.092306 z m 10.617877,0 v -7.90575 h -4.092306 -4.092305 v 7.90575 7.90574 h 4.092305 4.092306 z M 118.91146,94.940014 V 88.858667 H 69.361381 19.81129 v 6.081347 6.081346 h 49.550091 49.550079 z m -96.888115,0 v -4.135315 h 47.448634 47.448631 v 4.135315 4.135313 H 69.471979 22.023345 Z m 48.444062,-33.658241 1.216625,-0.311874 0.06121,-3.569887 0.06119,-3.569886 h -2.566493 -2.566505 l 0.07207,3.380797 c 0.06212,2.914613 0.130125,3.451304 0.493412,3.892066 0.491785,0.596663 1.401712,0.647054 3.2285,0.178784 z"
       id="path94"
       inkscape:connector-curvature="0" />
  </g>
</svg>
