<?xml version="1.0" encoding="UTF-8" standalone="no"?>
<!-- Created with Inkscape (http://www.inkscape.org/) -->

<svg
   xmlns:dc="http://purl.org/dc/elements/1.1/"
   xmlns:cc="http://creativecommons.org/ns#"
   xmlns:rdf="http://www.w3.org/1999/02/22-rdf-syntax-ns#"
   xmlns:svg="http://www.w3.org/2000/svg"
   xmlns="http://www.w3.org/2000/svg"
   xmlns:sodipodi="http://sodipodi.sourceforge.net/DTD/sodipodi-0.dtd"
   xmlns:inkscape="http://www.inkscape.org/namespaces/inkscape"
   width="210mm"
   height="297mm"
   viewBox="0 0 210 297"
   version="1.1"
   id="svg8"
   inkscape:version="0.92.3 (2405546, 2018-03-11)"
   sodipodi:docname="tardis_icone_cote.svg">
  <defs
     id="defs2" />
  <sodipodi:namedview
     id="base"
     pagecolor="#ffffff"
     bordercolor="#666666"
     borderopacity="1.0"
     inkscape:pageopacity="0.0"
     inkscape:pageshadow="2"
     inkscape:zoom="0.35"
     inkscape:cx="400"
     inkscape:cy="560"
     inkscape:document-units="mm"
     inkscape:current-layer="layer1"
     showgrid="false"
     inkscape:window-width="1853"
     inkscape:window-height="1025"
     inkscape:window-x="67"
     inkscape:window-y="27"
     inkscape:window-maximized="1" />
  <metadata
     id="metadata5">
    <rdf:RDF>
      <cc:Work
         rdf:about="">
        <dc:format>image/svg+xml</dc:format>
        <dc:type
           rdf:resource="http://purl.org/dc/dcmitype/StillImage" />
        <dc:title></dc:title>
      </cc:Work>
    </rdf:RDF>
  </metadata>
  <g
     inkscape:label="Calque 1"
     inkscape:groupmode="layer"
     id="layer1">
    <path
       style="fill:#0000ff;stroke-width:0.28237462"
       d="m 18.399542,272.37406 c -0.429148,-3.21761 -0.185448,-3.86546 1.865344,-4.95884 1.048266,-0.55889 1.764822,-1.17612 2.111213,-1.81858 0.477155,-0.88498 0.524356,-8.68952 0.524356,-86.68855 0,-77.93738 -0.04708,-85.72939 -0.518484,-85.86365 -0.285165,-0.0812 -0.985814,-0.14914 -1.556987,-0.15097 -0.571173,-0.002 -1.370387,-0.0693 -1.776021,-0.15 L 18.311445,92.5968 v -7.25285 c 0,-8.064812 -0.228437,-7.303175 2.294505,-7.650519 2.443666,-0.336432 2.267721,-0.05066 2.367574,-3.845548 l 0.09081,-3.452064 2.704253,-0.206791 2.70424,-0.206787 0.0011,-2.955511 0.0011,-2.955509 29.909453,-4.104644 c 16.45021,-2.257555 30.030283,-4.186217 30.177953,-4.285917 0.14768,-0.0997 0.48823,-0.896141 0.75678,-1.769869 0.47613,-1.549042 0.51842,-1.592774 1.69824,-1.756381 2.02885,-0.281349 2.02938,-0.282576 2.02938,-4.654229 0,-4.793389 -0.0894,-4.676776 4.08472,-5.32684 2.43191,-0.378736 3.212317,-0.40609 5.022117,-0.176034 3.5648,0.453154 3.96614,1.111303 3.99036,6.544007 l 0.0142,3.200633 1.6363,0.311219 c 1.71289,0.325786 1.77868,0.390797 2.14027,2.114912 0.14357,0.684598 0.46172,1.156813 0.92536,1.373515 0.38861,0.181632 13.02315,2.040719 28.07677,4.131306 15.05362,2.090586 28.25524,3.996511 29.33695,4.235388 l 1.96672,0.43432 0.0921,2.816018 0.0921,2.816016 2.77612,0.171611 2.7761,0.171613 v 3.45858 3.458577 l 2.37646,0.35689 2.37646,0.356886 0.0867,7.320032 0.0867,7.32003 -1.93986,0.28322 c -1.06691,0.15577 -2.13846,0.4608 -2.38119,0.67785 -0.63388,0.56679 -0.8279,170.05434 -0.19632,171.48637 0.31049,0.70398 0.8491,1.15212 2.17607,1.81057 2.47426,1.22774 2.63437,1.53152 2.64799,5.02387 l 0.0112,2.97986 H 99.975723 18.729852 Z M 82.885483,245.29527 V 226.68636 H 61.087647 39.289811 v 18.60891 18.60891 h 21.797836 21.797836 z m -40.645588,0.12162 V 228.87564 H 61.087647 79.9354 v 16.54125 16.54126 H 61.087647 42.239895 Z m 118.251205,-0.0608 -0.084,-18.5481 -21.87979,-0.0625 -21.87979,-0.0625 v 18.61064 18.61063 h 21.96378 21.96378 z m -40.89349,0.0608 v -16.54125 h 19.01166 19.01164 v 16.54125 16.54126 H 138.60927 119.59761 Z M 101.56934,180.46814 V 97.51861 h -1.638937 -1.63893 v 82.94953 82.94953 h 1.63893 1.638937 z M 82.885483,201.14471 V 182.41417 H 61.087647 39.289811 v 18.73054 18.73054 h 21.797836 21.797836 z m -40.645588,0 v -16.54125 h 19.011644 19.011644 v 16.54125 16.54125 H 61.251539 42.239895 Z m 118.003305,-0.002 v -18.73227 l -21.71588,0.0625 -21.7159,0.0625 -0.0847,18.36566 c -0.0466,10.10112 -0.0144,18.50249 0.0716,18.66972 0.1229,0.23902 4.78721,0.30407 21.80065,0.30407 h 21.64423 v -18.73227 z m -40.64559,0.002 v -16.54125 h 19.01166 19.01164 v 16.54125 16.54125 h -19.01164 -19.01166 z m 40.64559,-44.15056 v -18.6089 h -21.79783 -21.79784 v 18.6089 18.60892 h 21.79784 21.79783 z m -40.64559,0 v -16.66288 h 18.84776 18.84775 v 16.66288 16.66289 h -18.84775 -18.84776 z m -39.334427,0 V 140.33127 H 60.923756 41.584316 v 16.66288 16.66289 h 19.33944 19.339427 z M 51.417928,123.42514 v -7.90575 h -6.064059 -6.064058 v 7.90575 7.90575 h 6.064058 6.064059 z m 15.733777,0 v -7.90575 h -6.064058 -6.064058 v 7.90575 7.90575 h 6.064058 6.064058 z m 15.733778,0 v -7.90575 h -6.064058 -6.064058 v 7.90575 7.90575 h 6.064058 6.064058 z m 46.217957,0.12162 v -7.78412 h -6.22795 -6.22796 v 7.78412 7.78413 h 6.22796 6.22795 z m 15.40598,0 v -7.78412 h -6.06405 -6.06406 v 7.78412 7.78413 h 6.06406 6.06405 z m 15.73378,0 v -7.78412 h -5.90016 -5.90017 v 7.78412 7.78413 h 5.90017 5.90016 z m -31.46754,-18.24403 v -8.02737 h -6.06407 -6.06406 v 8.02737 8.02737 h 6.06406 6.06407 z m 15.73376,0 v -8.02737 h -6.06405 -6.06406 v 8.02737 8.02737 h 6.06406 6.06405 z m 15.73378,0.12163 v -7.90575 h -5.90016 -5.90017 v 7.90575 7.90574 h 5.90017 5.90016 z m -108.902678,-0.30407 0.08647,-7.84493 h -6.068605 -6.068592 v 7.91123 7.91124 l 5.982106,-0.0663 5.982119,-0.0663 z m 15.811183,0.0608 v -7.90575 h -6.064058 -6.064058 v 7.90575 7.90575 h 6.064058 6.064058 z m 15.733778,0 v -7.90575 h -6.064058 -6.064058 v 7.90575 7.90575 h 6.064058 6.064058 z M 173.0269,85.11265 V 79.031326 H 99.602623 26.178334 v 6.081344 6.08134 H 99.602623 173.0269 Z m -143.5707,0 v -4.135313 h 70.310313 70.310297 v 4.135313 4.13531 H 99.766513 29.4562 Z m 71.78536,-33.658244 1.80281,-0.311868 0.0907,-3.569886 0.0907,-3.569886 h -3.803077 -3.80309 l 0.10679,3.380797 c 0.0921,2.914609 0.19282,3.451298 0.73115,3.892061 0.72873,0.596668 2.07708,0.647056 4.784057,0.178782 z"
       id="path75"
       inkscape:connector-curvature="0" />
  </g>
</svg>
