999
dxfrw 0.6.3
  0
SECTION
  2
HEADER
  9
$ACADVER
  1
AC1021
  9
$DWGCODEPAGE
  3
ANSI_1252
  9
$INSBASE
 10
0
 20
0
 30
0
  9
$EXTMIN
 10
0
 20
0
 30
0
  9
$EXTMAX
 10
5260
 20
4374
 30
0
  9
$LIMMIN
 10
0
 20
0
  9
$LIMMAX
 10
420
 20
297
  9
$ORTHOMODE
 70
    0
  9
$REGENMODE
 70
    1
  9
$FILLMODE
 70
    1
  9
$QTEXTMODE
 70
    0
  9
$MIRRTEXT
 70
    0
  9
$LTSCALE
 40
1
  9
$ATTMODE
 70
    0
  9
$TEXTSIZE
 40
2.5
  9
$TRACEWID
 40
15.68
  9
$TEXTSTYLE
  7
STANDARD
  9
$CLAYER
  8
0
  9
$CELTYPE
  6
BYLAYER
  9
$CECOLOR
 62
  256
  9
$CELTSCALE
 40
1
  9
$DISPSILH
 70
    0
  9
$DIMSCALE
 40
2.5
  9
$DIMASZ
 40
2.5
  9
$DIMEXO
 40
0.625
  9
$DIMDLI
 40
3.75
  9
$DIMRND
 40
0
  9
$DIMDLE
 40
0
  9
$DIMEXE
 40
1.25
  9
$DIMTP
 40
0
  9
$DIMTM
 40
0
  9
$DIMTXT
 40
2.5
  9
$DIMCEN
 40
2.5
  9
$DIMTSZ
 40
0
  9
$DIMTOL
 70
    0
  9
$DIMLIM
 70
    0
  9
$DIMTIH
 70
    0
  9
$DIMTOH
 70
    0
  9
$DIMSE1
 70
    0
  9
$DIMSE2
 70
    0
  9
$DIMTAD
 70
    1
  9
$DIMZIN
 70
    8
  9
$DIMBLK
  1

  9
$DIMASO
 70
    1
  9
$DIMSHO
 70
    1
  9
$DIMPOST
  1

  9
$DIMAPOST
  1

  9
$DIMALT
 70
    0
  9
$DIMALTD
 70
    3
  9
$DIMALTF
 40
0.03937
  9
$DIMLFAC
 40
1
  9
$DIMTOFL
 70
    1
  9
$DIMTVP
 40
0
  9
$DIMTIX
 70
    0
  9
$DIMSOXD
 70
    0
  9
$DIMSAH
 70
    0
  9
$DIMBLK1
  1

  9
$DIMBLK2
  1

  9
$DIMSTYLE
  2
Standard
  9
$DIMCLRD
 70
    0
  9
$DIMCLRE
 70
    0
  9
$DIMCLRT
 70
    0
  9
$DIMTFAC
 40
1
  9
$DIMGAP
 40
0.625
  9
$DIMJUST
 70
    0
  9
$DIMSD1
 70
    0
  9
$DIMSD2
 70
    0
  9
$DIMTOLJ
 70
    0
  9
$DIMTZIN
 70
    8
  9
$DIMALTZ
 70
    0
  9
$DIMALTTZ
 70
    0
  9
$DIMUPT
 70
    0
  9
$DIMDEC
 70
    2
  9
$DIMTDEC
 70
    2
  9
$DIMALTU
 70
    2
  9
$DIMALTTD
 70
    3
  9
$DIMTXSTY
  7
STANDARD
  9
$DIMAUNIT
 70
    0
  9
$DIMADEC
 70
    0
  9
$DIMALTRND
 40
0
  9
$DIMAZIN
 70
    0
  9
$DIMDSEP
 70
   44
  9
$DIMATFIT
 70
    3
  9
$DIMFRAC
 70
    0
  9
$DIMLDRBLK
  1
STANDARD
  9
$DIMLUNIT
 70
    2
  9
$DIMLWD
 70
   -2
  9
$DIMLWE
 70
   -2
  9
$DIMTMOVE
 70
    0
  9
$DIMFXL
 40
1
  9
$DIMFXLON
 70
    0
  9
$DIMJOGANG
 40
0.7854
  9
$DIMTFILL
 70
    0
  9
$DIMTFILLCLR
 70
    0
  9
$DIMARCSYM
 70
    0
  9
$DIMLTYPE
  6

  9
$DIMLTEX1
  6

  9
$DIMLTEX2
  6

  9
$LUNITS
 70
    2
  9
$LUPREC
 70
    4
  9
$SKETCHINC
 40
1
  9
$FILLETRAD
 40
0
  9
$AUNITS
 70
    0
  9
$AUPREC
 70
    2
  9
$MENU
  1
.
  9
$ELEVATION
 40
0
  9
$PELEVATION
 40
0
  9
$THICKNESS
 40
0
  9
$LIMCHECK
 70
    0
  9
$CHAMFERA
 40
0
  9
$CHAMFERB
 40
0
  9
$CHAMFERC
 40
0
  9
$CHAMFERD
 40
0
  9
$SKPOLY
 70
    0
  9
$USRTIMER
 70
    1
  9
$ANGBASE
 50
0
  9
$ANGDIR
 70
    0
  9
$PDMODE
 70
   34
  9
$PDSIZE
 40
0
  9
$PLINEWID
 40
0
  9
$SPLFRAME
 70
    0
  9
$SPLINETYPE
 70
    2
  9
$SPLINESEGS
 70
    8
  9
$HANDSEED
  5
20000
  9
$SURFTAB1
 70
    6
  9
$SURFTAB2
 70
    6
  9
$SURFTYPE
 70
    6
  9
$SURFU
 70
    6
  9
$SURFV
 70
    6
  9
$UCSBASE
  2

  9
$UCSNAME
  2

  9
$UCSORG
 10
0
 20
0
 30
0
  9
$UCSXDIR
 10
1
 20
0
 30
0
  9
$UCSYDIR
 10
0
 20
1
 30
0
  9
$UCSORTHOREF
  2

  9
$UCSORTHOVIEW
 70
    0
  9
$UCSORGTOP
 10
0
 20
0
 30
0
  9
$UCSORGBOTTOM
 10
0
 20
0
 30
0
  9
$UCSORGLEFT
 10
0
 20
0
 30
0
  9
$UCSORGRIGHT
 10
0
 20
0
 30
0
  9
$UCSORGFRONT
 10
0
 20
0
 30
0
  9
$UCSORGBACK
 10
0
 20
0
 30
0
  9
$PUCSBASE
  2

  9
$PUCSNAME
  2

  9
$PUCSORG
 10
0
 20
0
 30
0
  9
$PUCSXDIR
 10
1
 20
0
 30
0
  9
$PUCSYDIR
 10
0
 20
1
 30
0
  9
$PUCSORTHOREF
  2

  9
$PUCSORTHOVIEW
 70
    0
  9
$PUCSORGTOP
 10
0
 20
0
 30
0
  9
$PUCSORGBOTTOM
 10
0
 20
0
 30
0
  9
$PUCSORGLEFT
 10
0
 20
0
 30
0
  9
$PUCSORGRIGHT
 10
0
 20
0
 30
0
  9
$PUCSORGFRONT
 10
0
 20
0
 30
0
  9
$PUCSORGBACK
 10
0
 20
0
 30
0
  9
$USERI1
 70
    0
  9
$USERI2
 70
    0
  9
$USERI3
 70
    0
  9
$USERI4
 70
    0
  9
$USERI5
 70
    0
  9
$USERR1
 40
0
  9
$USERR2
 40
0
  9
$USERR3
 40
0
  9
$USERR4
 40
0
  9
$USERR5
 40
0
  9
$WORLDVIEW
 70
    1
  9
$SHADEDGE
 70
    3
  9
$SHADEDIF
 70
   70
  9
$TILEMODE
 70
    1
  9
$MAXACTVP
 70
   64
  9
$PINSBASE
 10
0
 20
0
 30
0
  9
$PLIMCHECK
 70
    0
  9
$PEXTMIN
 10
0
 20
0
 30
0
  9
$PEXTMAX
 10
0
 20
0
 30
0
  9
$SNAPSTYLE
 70
    0
  9
$PLIMMIN
 10
0
 20
0
  9
$PLIMMAX
 10
210
 20
297
  9
$UNITMODE
 70
    0
  9
$VISRETAIN
 70
    1
  9
$PLINEGEN
 70
    0
  9
$PSLTSCALE
 70
    1
  9
$TREEDEPTH
 70
 3020
  9
$CMLSTYLE
  2
Standard
  9
$CMLJUST
 70
    0
  9
$CMLSCALE
 40
20
  9
$PROXYGRAPHICS
 70
    1
  9
$MEASUREMENT
 70
    1
  9
$CELWEIGHT
370
   -1
  9
$ENDCAPS
280
    0
  9
$JOINSTYLE
280
    0
  9
$LWDISPLAY
290
    0
  9
$INSUNITS
 70
    0
  9
$HYPERLINKBASE
  1

  9
$STYLESHEET
  1

  9
$XEDIT
290
    1
  9
$CEPSNTYPE
380
    0
  9
$PSTYLEMODE
290
    1
  9
$EXTNAMES
290
    1
  9
$PSVPSCALE
 40
1
  9
$OLESTARTUP
290
    0
  9
$SORTENTS
280
  127
  9
$INDEXCTL
280
    0
  9
$HIDETEXT
280
    1
  9
$XCLIPFRAME
290
    0
  9
$HALOGAP
280
    0
  9
$OBSCOLOR
 70
  257
  9
$OBSLTYPE
280
    0
  9
$INTERSECTIONDISPLAY
280
    0
  9
$INTERSECTIONCOLOR
 70
  257
  9
$DIMASSOC
280
    1
  9
$PROJECTNAME
  1

  9
$CAMERADISPLAY
290
    0
  9
$LENSLENGTH
 40
50
  9
$CAMERAHEIGHT
 40
0
  9
$STEPSPERSEC
 40
2
  9
$STEPSIZE
 40
50
  9
$3DDWFPREC
 40
2
  9
$PSOLWIDTH
 40
5
  9
$PSOLHEIGHT
 40
80
  9
$LOFTANG1
 40
1.570796326794897
  9
$LOFTANG2
 40
1.570796326794897
  9
$LOFTMAG1
 40
0
  9
$LOFTMAG2
 40
0
  9
$LOFTPARAM
 70
    7
  9
$LOFTNORMALS
280
    1
  9
$LATITUDE
 40
1
  9
$LONGITUDE
 40
1
  9
$NORTHDIRECTION
 40
0
  9
$TIMEZONE
 70
-8000
  9
$LIGHTGLYPHDISPLAY
280
    1
  9
$TILEMODELIGHTSYNCH
280
    1
  9
$SOLIDHIST
280
    1
  9
$SHOWHIST
280
    1
  9
$DWFFRAME
280
    2
  9
$DGNFRAME
280
    0
  9
$REALWORLDSCALE
290
    1
  9
$INTERFERECOLOR
 62
    1
  9
$CSHADOW
280
    0
  9
$SHADOWPLANELOCATION
 40
0
  0
ENDSEC
  0
SECTION
  2
CLASSES
  0
ENDSEC
  0
SECTION
  2
TABLES
  0
TABLE
  2
VPORT
  5
8
330
0
100
AcDbSymbolTable
 70
    1
  0
VPORT
  5
31
330
2
100
AcDbSymbolTableRecord
100
AcDbViewportTableRecord
  2
*ACTIVE
 70
    0
 10
0
 20
0
 11
1
 21
1
 12
4285.21555915092
 22
2707.749190622068
 13
0
 23
0
 14
10
 24
10
 15
10
 25
10
 16
0
 26
0
 36
1
 17
0
 27
0
 37
0
 40
5739.442367638454
 41
1.988957055214724
 42
50
 43
0
 44
0
 50
0
 51
0
 71
    0
 72
  100
 73
    1
 74
    3
 75
    0
 76
    1
 77
    0
 78
    0
281
    0
 65
    1
110
0
120
0
130
0
111
1
121
0
131
0
112
0
122
1
132
0
 79
    0
146
0
348
10020
 60
    7
 61
    5
292
1
282
    1
141
0
142
0
 63
  250
421
3358443
  0
ENDTAB
  0
TABLE
  2
LTYPE
  5
5
330
0
100
AcDbSymbolTable
 70
    4
  0
LTYPE
  5
14
330
5
100
AcDbSymbolTableRecord
100
AcDbLinetypeTableRecord
  2
ByBlock
 70
    0
  3

 72
   65
 73
    0
 40
0
  0
LTYPE
  5
15
330
5
100
AcDbSymbolTableRecord
100
AcDbLinetypeTableRecord
  2
ByLayer
 70
    0
  3

 72
   65
 73
    0
 40
0
  0
LTYPE
  5
16
330
5
100
AcDbSymbolTableRecord
100
AcDbLinetypeTableRecord
  2
Continuous
 70
    0
  3
Solid line
 72
   65
 73
    0
 40
0
  0
LTYPE
  5
32
330
5
100
AcDbSymbolTableRecord
100
AcDbLinetypeTableRecord
  2
DOT
 70
    0
  3
Dot . . . . . . . . . . . . . . . . . . . . . .
 72
   65
 73
    2
 40
6.35
 49
0
 74
    0
 49
-6.35
 74
    0
  0
LTYPE
  5
33
330
5
100
AcDbSymbolTableRecord
100
AcDbLinetypeTableRecord
  2
DOTTINY
 70
    0
  3
Dot (.15x) .....................................
 72
   65
 73
    2
 40
0.9525
 49
0
 74
    0
 49
-0.9525
 74
    0
  0
LTYPE
  5
34
330
5
100
AcDbSymbolTableRecord
100
AcDbLinetypeTableRecord
  2
DOT2
 70
    0
  3
Dot (.5x) .....................................
 72
   65
 73
    2
 40
3.175
 49
0
 74
    0
 49
-3.175
 74
    0
  0
LTYPE
  5
35
330
5
100
AcDbSymbolTableRecord
100
AcDbLinetypeTableRecord
  2
DOTX2
 70
    0
  3
Dot (2x) .  .  .  .  .  .  .  .  .  .  .  .  .
 72
   65
 73
    2
 40
12.7
 49
0
 74
    0
 49
-12.7
 74
    0
  0
LTYPE
  5
36
330
5
100
AcDbSymbolTableRecord
100
AcDbLinetypeTableRecord
  2
DASHED
 70
    0
  3
Dashed _ _ _ _ _ _ _ _ _ _ _ _ _ _ _ _ _
 72
   65
 73
    2
 40
19.05
 49
12.7
 74
    0
 49
-6.35
 74
    0
  0
LTYPE
  5
37
330
5
100
AcDbSymbolTableRecord
100
AcDbLinetypeTableRecord
  2
DASHEDTINY
 70
    0
  3
Dashed (.15x) _ _ _ _ _ _ _ _ _ _ _ _ _ _ _ _ _
 72
   65
 73
    2
 40
2.8575
 49
1.905
 74
    0
 49
-0.9525
 74
    0
  0
LTYPE
  5
38
330
5
100
AcDbSymbolTableRecord
100
AcDbLinetypeTableRecord
  2
DASHED2
 70
    0
  3
Dashed (.5x) _ _ _ _ _ _ _ _ _ _ _ _ _ _ _ _ _
 72
   65
 73
    2
 40
9.524999999999999
 49
6.35
 74
    0
 49
-3.175
 74
    0
  0
LTYPE
  5
39
330
5
100
AcDbSymbolTableRecord
100
AcDbLinetypeTableRecord
  2
DASHEDX2
 70
    0
  3
Dashed (2x) ____  ____  ____  ____  ____  ___
 72
   65
 73
    2
 40
38.09999999999999
 49
25.4
 74
    0
 49
-12.7
 74
    0
  0
LTYPE
  5
3A
330
5
100
AcDbSymbolTableRecord
100
AcDbLinetypeTableRecord
  2
DASHDOT
 70
    0
  3
Dash dot __ . __ . __ . __ . __ . __ . __ . __
 72
   65
 73
    4
 40
25.4
 49
12.7
 74
    0
 49
-6.35
 74
    0
 49
0
 74
    0
 49
-6.35
 74
    0
  0
LTYPE
  5
3B
330
5
100
AcDbSymbolTableRecord
100
AcDbLinetypeTableRecord
  2
DASHDOTTINY
 70
    0
  3
Dash dot (.15x) _._._._._._._._._._._._._._._.
 72
   65
 73
    4
 40
3.81
 49
1.905
 74
    0
 49
-0.9525
 74
    0
 49
0
 74
    0
 49
-0.9525
 74
    0
  0
LTYPE
  5
3C
330
5
100
AcDbSymbolTableRecord
100
AcDbLinetypeTableRecord
  2
DASHDOT2
 70
    0
  3
Dash dot (.5x) _._._._._._._._._._._._._._._.
 72
   65
 73
    4
 40
12.7
 49
6.35
 74
    0
 49
-3.175
 74
    0
 49
0
 74
    0
 49
-3.175
 74
    0
  0
LTYPE
  5
3D
330
5
100
AcDbSymbolTableRecord
100
AcDbLinetypeTableRecord
  2
DASHDOTX2
 70
    0
  3
Dash dot (2x) ____  .  ____  .  ____  .  ___
 72
   65
 73
    4
 40
50.8
 49
25.4
 74
    0
 49
-12.7
 74
    0
 49
0
 74
    0
 49
-12.7
 74
    0
  0
LTYPE
  5
3E
330
5
100
AcDbSymbolTableRecord
100
AcDbLinetypeTableRecord
  2
DIVIDE
 70
    0
  3
Divide ____ . . ____ . . ____ . . ____ . . ____
 72
   65
 73
    6
 40
31.75
 49
12.7
 74
    0
 49
-6.35
 74
    0
 49
0
 74
    0
 49
-6.35
 74
    0
 49
0
 74
    0
 49
-6.35
 74
    0
  0
LTYPE
  5
3F
330
5
100
AcDbSymbolTableRecord
100
AcDbLinetypeTableRecord
  2
DIVIDETINY
 70
    0
  3
Divide (.15x) __..__..__..__..__..__..__..__.._
 72
   65
 73
    6
 40
4.7625
 49
1.905
 74
    0
 49
-0.9525
 74
    0
 49
0
 74
    0
 49
-0.9525
 74
    0
 49
0
 74
    0
 49
-0.9525
 74
    0
  0
LTYPE
  5
40
330
5
100
AcDbSymbolTableRecord
100
AcDbLinetypeTableRecord
  2
DIVIDE2
 70
    0
  3
Divide (.5x) __..__..__..__..__..__..__..__.._
 72
   65
 73
    6
 40
15.875
 49
6.35
 74
    0
 49
-3.175
 74
    0
 49
0
 74
    0
 49
-3.175
 74
    0
 49
0
 74
    0
 49
-3.175
 74
    0
  0
LTYPE
  5
41
330
5
100
AcDbSymbolTableRecord
100
AcDbLinetypeTableRecord
  2
DIVIDEX2
 70
    0
  3
Divide (2x) ________  .  .  ________  .  .  _
 72
   65
 73
    6
 40
63.5
 49
25.4
 74
    0
 49
-12.7
 74
    0
 49
0
 74
    0
 49
-12.7
 74
    0
 49
0
 74
    0
 49
-12.7
 74
    0
  0
LTYPE
  5
42
330
5
100
AcDbSymbolTableRecord
100
AcDbLinetypeTableRecord
  2
BORDER
 70
    0
  3
Border __ __ . __ __ . __ __ . __ __ . __ __ .
 72
   65
 73
    6
 40
44.45
 49
12.7
 74
    0
 49
-6.35
 74
    0
 49
12.7
 74
    0
 49
-6.35
 74
    0
 49
0
 74
    0
 49
-6.35
 74
    0
  0
LTYPE
  5
43
330
5
100
AcDbSymbolTableRecord
100
AcDbLinetypeTableRecord
  2
BORDERTINY
 70
    0
  3
Border (.15x) __.__.__.__.__.__.__.__.__.__.__.
 72
   65
 73
    6
 40
6.6675
 49
1.905
 74
    0
 49
-0.9525
 74
    0
 49
1.905
 74
    0
 49
-0.9525
 74
    0
 49
0
 74
    0
 49
-0.9525
 74
    0
  0
LTYPE
  5
44
330
5
100
AcDbSymbolTableRecord
100
AcDbLinetypeTableRecord
  2
BORDER2
 70
    0
  3
Border (.5x) __.__.__.__.__.__.__.__.__.__.__.
 72
   65
 73
    6
 40
22.225
 49
6.35
 74
    0
 49
-3.175
 74
    0
 49
6.35
 74
    0
 49
-3.175
 74
    0
 49
0
 74
    0
 49
-3.175
 74
    0
  0
LTYPE
  5
45
330
5
100
AcDbSymbolTableRecord
100
AcDbLinetypeTableRecord
  2
BORDERX2
 70
    0
  3
Border (2x) ____  ____  .  ____  ____  .  ___
 72
   65
 73
    6
 40
88.89999999999999
 49
25.4
 74
    0
 49
-12.7
 74
    0
 49
25.4
 74
    0
 49
-12.7
 74
    0
 49
0
 74
    0
 49
-12.7
 74
    0
  0
LTYPE
  5
46
330
5
100
AcDbSymbolTableRecord
100
AcDbLinetypeTableRecord
  2
CENTER
 70
    0
  3
Center ____ _ ____ _ ____ _ ____ _ ____ _ ____
 72
   65
 73
    4
 40
50.8
 49
31.75
 74
    0
 49
-6.35
 74
    0
 49
6.35
 74
    0
 49
-6.35
 74
    0
  0
LTYPE
  5
47
330
5
100
AcDbSymbolTableRecord
100
AcDbLinetypeTableRecord
  2
CENTERTINY
 70
    0
  3
Center (.15x) ___ _ ___ _ ___ _ ___ _ ___ _ ___
 72
   65
 73
    4
 40
7.619999999999999
 49
4.7625
 74
    0
 49
-0.9525
 74
    0
 49
0.9525
 74
    0
 49
-0.9525
 74
    0
  0
LTYPE
  5
48
330
5
100
AcDbSymbolTableRecord
100
AcDbLinetypeTableRecord
  2
CENTER2
 70
    0
  3
Center (.5x) ___ _ ___ _ ___ _ ___ _ ___ _ ___
 72
   65
 73
    4
 40
28.575
 49
19.05
 74
    0
 49
-3.175
 74
    0
 49
3.175
 74
    0
 49
-3.175
 74
    0
  0
LTYPE
  5
49
330
5
100
AcDbSymbolTableRecord
100
AcDbLinetypeTableRecord
  2
CENTERX2
 70
    0
  3
Center (2x) ________  __  ________  __  _____
 72
   65
 73
    4
 40
101.6
 49
63.5
 74
    0
 49
-12.7
 74
    0
 49
12.7
 74
    0
 49
-12.7
 74
    0
  0
ENDTAB
  0
TABLE
  2
LAYER
  5
2
330
0
100
AcDbSymbolTable
 70
    1
  0
LAYER
  5
10
330
2
100
AcDbSymbolTableRecord
100
AcDbLayerTableRecord
  2
0
 70
    0
 62
    7
  6
CONTINUOUS
370
    0
390
F
  0
ENDTAB
  0
TABLE
  2
STYLE
  5
3
330
0
100
AcDbSymbolTable
 70
    3
  0
STYLE
  5
4A
330
2
100
AcDbSymbolTableRecord
100
AcDbTextStyleTableRecord
  2
Standard
 70
    0
 40
0
 41
1
 50
0
 71
    0
 42
1
  3
txt
  4

  0
ENDTAB
  0
TABLE
  2
VIEW
  5
6
330
0
100
AcDbSymbolTable
 70
    0
  0
ENDTAB
  0
TABLE
  2
UCS
  5
7
330
0
100
AcDbSymbolTable
 70
    0
  0
ENDTAB
  0
TABLE
  2
APPID
  5
9
330
0
100
AcDbSymbolTable
 70
    1
  0
APPID
  5
12
330
9
100
AcDbSymbolTableRecord
100
AcDbRegAppTableRecord
  2
ACAD
 70
    0
  0
APPID
  5
4B
330
9
100
AcDbSymbolTableRecord
100
AcDbRegAppTableRecord
  2
LibreCad
 70
    0
  0
ENDTAB
  0
TABLE
  2
DIMSTYLE
  5
A
330
0
100
AcDbSymbolTable
 70
    1
100
AcDbDimStyleTable
 71
    1
  0
DIMSTYLE
105
4C
330
A
100
AcDbSymbolTableRecord
100
AcDbDimStyleTableRecord
  2
Standard
 70
    0
 40
1
 41
2.5
 42
0.625
 43
0.38
 44
1.25
 45
0
 46
0
 47
0
 48
0
 49
1
140
2.5
141
0.09
142
2.5
143
25.4
144
1
145
0
146
1
147
0.625
148
0
 71
    0
 72
    0
 73
    0
 74
    1
 75
    0
 76
    0
 77
    0
 78
    1
 79
    0
170
    0
171
    2
172
    0
173
    0
174
    0
175
    0
176
    0
177
    0
178
    0
179
    0
271
    2
272
    4
273
    2
274
    2
275
    0
276
    0
277
    2
278
    0
279
    0
280
    0
281
    0
282
    0
283
    1
284
    0
285
    0
286
    0
288
    0
289
    3
340
standard
341

371
   -2
372
   -2
  0
ENDTAB
  0
TABLE
  2
BLOCK_RECORD
  5
1
330
0
100
AcDbSymbolTable
 70
    2
  0
BLOCK_RECORD
  5
1F
330
1
100
AcDbSymbolTableRecord
100
AcDbBlockTableRecord
  2
*Model_Space
 70
    0
280
    1
281
    0
  0
BLOCK_RECORD
  5
1E
330
1
100
AcDbSymbolTableRecord
100
AcDbBlockTableRecord
  2
*Paper_Space
 70
    0
280
    1
281
    0
  0
ENDTAB
  0
ENDSEC
  0
SECTION
  2
BLOCKS
  0
BLOCK
  5
20
330
1F
100
AcDbEntity
  8
0
100
AcDbBlockBegin
  2
*Model_Space
 70
    0
 10
0
 20
0
 30
0
  3
*Model_Space
  1

  0
ENDBLK
  5
21
330
1F
100
AcDbEntity
  8
0
100
AcDbBlockEnd
  0
BLOCK
  5
1C
330
1B
100
AcDbEntity
  8
0
100
AcDbBlockBegin
  2
*Paper_Space
 70
    0
 10
0
 20
0
 30
0
  3
*Paper_Space
  1

  0
ENDBLK
  5
1D
330
1F
100
AcDbEntity
  8
0
100
AcDbBlockEnd
  0
ENDSEC
  0
SECTION
  2
ENTITIES
  0
LWPOLYLINE
  5
4D
100
AcDbEntity
  8
0
  6
ByLayer
 62
  256
370
   -1
100
AcDbPolyline
 90
    8
 70
    1
 43
0
 10
0
 20
2187
 10
0
 20
0
 10
2630
 20
0
 10
5260
 20
0
 10
5260
 20
2187
 10
5260
 20
4374
 10
2630
 20
4374
 10
0
 20
4374
  0
LWPOLYLINE
  5
4E
100
AcDbEntity
  8
0
  6
ByLayer
 62
  256
370
   -1
100
AcDbPolyline
 90
  600
 70
    1
 43
0
 10
89
 20
4322.5
 10
89
 20
4306
 10
119
 20
4306
 10
149
 20
4306
 10
149
 20
4322.5
 10
149
 20
4339
 10
176.5
 20
4339
 10
204
 20
4339
 10
204
 20
4322.5
 10
204
 20
4306
 10
234
 20
4306
 10
264
 20
4306
 10
264
 20
4322.5
 10
264
 20
4339
 10
291.5
 20
4339
 10
319
 20
4339
 10
319
 20
4322.5
 10
319
 20
4306
 10
348.5
 20
4306
 10
378
 20
4306
 10
378
 20
4322.5
 10
378
 20
4339
 10
405.5
 20
4339
 10
433
 20
4339
 10
433
 20
4322.5
 10
433
 20
4306
 10
463
 20
4306
 10
493
 20
4306
 10
493
 20
4322.5
 10
493
 20
4339
 10
520.5
 20
4339
 10
548
 20
4339
 10
548
 20
4322.5
 10
548
 20
4306
 10
578
 20
4306
 10
608
 20
4306
 10
608
 20
4322.5
 10
608
 20
4339
 10
635.5
 20
4339
 10
663
 20
4339
 10
663
 20
4322.5
 10
663
 20
4306
 10
692.5
 20
4306
 10
722
 20
4306
 10
722
 20
4322.5
 10
722
 20
4339
 10
750
 20
4339
 10
778
 20
4339
 10
778
 20
4322.5
 10
778
 20
4306
 10
807.5
 20
4306
 10
837
 20
4306
 10
837
 20
4322.5
 10
837
 20
4339
 10
864.5
 20
4339
 10
892
 20
4339
 10
892
 20
4322.5
 10
892
 20
4306
 10
922
 20
4306
 10
952
 20
4306
 10
952
 20
4322.5
 10
952
 20
4339
 10
979.5
 20
4339
 10
1007
 20
4339
 10
1007
 20
4322.5
 10
1007
 20
4306
 10
1036.5
 20
4306
 10
1066
 20
4306
 10
1066
 20
4322.5
 10
1066
 20
4339
 10
1094
 20
4339
 10
1122
 20
4339
 10
1122
 20
4322.5
 10
1122
 20
4306
 10
1151.5
 20
4306
 10
1181
 20
4306
 10
1181
 20
4322.5
 10
1181
 20
4339
 10
1208.5
 20
4339
 10
1236
 20
4339
 10
1236
 20
4322.5
 10
1236
 20
4306
 10
1266
 20
4306
 10
1296
 20
4306
 10
1296
 20
4322.5
 10
1296
 20
4339
 10
1323.5
 20
4339
 10
1351
 20
4339
 10
1351
 20
4322.5
 10
1351
 20
4306
 10
1380.5
 20
4306
 10
1410
 20
4306
 10
1410
 20
4322.5
 10
1410
 20
4339
 10
1438
 20
4339
 10
1466
 20
4339
 10
1466
 20
4322.5
 10
1466
 20
4306
 10
1495.5
 20
4306
 10
1525
 20
4306
 10
1525
 20
4322.5
 10
1525
 20
4339
 10
1552.5
 20
4339
 10
1580
 20
4339
 10
1580
 20
4322.5
 10
1580
 20
4306
 10
1610
 20
4306
 10
1640
 20
4306
 10
1640
 20
4322.5
 10
1640
 20
4339
 10
1667.5
 20
4339
 10
1695
 20
4339
 10
1695
 20
4322.5
 10
1695
 20
4306
 10
1724.5
 20
4306
 10
1754
 20
4306
 10
1754
 20
4322.5
 10
1754
 20
4339
 10
1782
 20
4339
 10
1810
 20
4339
 10
1810
 20
4322.5
 10
1810
 20
4306
 10
1839.5
 20
4306
 10
1869
 20
4306
 10
1869
 20
4322.5
 10
1869
 20
4339
 10
1896.5
 20
4339
 10
1924
 20
4339
 10
1924
 20
4322.5
 10
1924
 20
4306
 10
1954
 20
4306
 10
1984
 20
4306
 10
1984
 20
4322.5
 10
1984
 20
4339
 10
2011.5
 20
4339
 10
2039
 20
4339
 10
2039
 20
4322.5
 10
2039
 20
4306
 10
2068.5
 20
4306
 10
2098
 20
4306
 10
2098
 20
4322.5
 10
2098
 20
4339
 10
2126
 20
4339
 10
2154
 20
4339
 10
2154
 20
4322.5
 10
2154
 20
4306
 10
2183.5
 20
4306
 10
2213
 20
4306
 10
2213
 20
4322.5
 10
2213
 20
4339
 10
2240.5
 20
4339
 10
2268
 20
4339
 10
2268
 20
4322.5
 10
2268
 20
4306
 10
2298
 20
4306
 10
2328
 20
4306
 10
2328
 20
4322.5
 10
2328
 20
4339
 10
2355.5
 20
4339
 10
2383
 20
4339
 10
2383
 20
4322.5
 10
2383
 20
4306
 10
2412.5
 20
4306
 10
2442
 20
4306
 10
2442
 20
4322.5
 10
2442
 20
4339
 10
2470
 20
4339
 10
2498
 20
4339
 10
2498
 20
4322.5
 10
2498
 20
4306
 10
2527.5
 20
4306
 10
2557
 20
4306
 10
2557
 20
4322.5
 10
2557
 20
4339
 10
2584.5
 20
4339
 10
2612
 20
4339
 10
2612
 20
4311.5
 10
2612
 20
4284
 10
2595.5
 20
4284
 10
2579
 20
4284
 10
2579
 20
4253.5
 10
2579
 20
4223
 10
2595.5
 20
4223
 10
2612
 20
4223
 10
2612
 20
4195
 10
2612
 20
4167
 10
2595.5
 20
4167
 10
2579
 20
4167
 10
2579
 20
4137
 10
2579
 20
4107
 10
2595.5
 20
4107
 10
2612
 20
4107
 10
2612
 20
4079
 10
2612
 20
4051
 10
2595.5
 20
4051
 10
2579
 20
4051
 10
2579
 20
4020.5
 10
2579
 20
3990
 10
2595.5
 20
3990
 10
2612
 20
3990
 10
2612
 20
3962
 10
2612
 20
3934
 10
2595.5
 20
3934
 10
2579
 20
3934
 10
2579
 20
3904
 10
2579
 20
3874
 10
2595.5
 20
3874
 10
2612
 20
3874
 10
2612
 20
3846
 10
2612
 20
3818
 10
2595.5
 20
3818
 10
2579
 20
3818
 10
2579
 20
3787.5
 10
2579
 20
3757
 10
2595.515819
 20
3757
 10
2612.031637
 20
3757
 10
2611.765819
 20
3729.25
 10
2611.5
 20
3701.5
 10
2595.25
 20
3701.225229
 10
2579
 20
3700.950457
 10
2579
 20
3670.975229
 10
2579
 20
3641
 10
2595.5
 20
3641
 10
2612
 20
3641
 10
2612
 20
3613
 10
2612
 20
3585
 10
2595.5
 20
3585
 10
2579
 20
3585
 10
2579
 20
3555.024771
 10
2579
 20
3525.049543
 10
2595.25
 20
3524.774771
 10
2611.5
 20
3524.5
 10
2611.5
 20
3496.5
 10
2611.5
 20
3468.5
 10
2595.25
 20
3468.225229
 10
2579
 20
3467.950457
 10
2579
 20
3437.975229
 10
2579
 20
3408
 10
2595.5
 20
3408
 10
2612
 20
3408
 10
2612
 20
3380
 10
2612
 20
3352
 10
2595.5
 20
3352
 10
2579
 20
3352
 10
2579
 20
3322
 10
2579
 20
3292
 10
2595.5
 20
3292
 10
2612
 20
3292
 10
2612
 20
3264
 10
2612
 20
3236
 10
2595.5
 20
3236
 10
2579
 20
3236
 10
2579
 20
3205.5
 10
2579
 20
3175
 10
2595.5
 20
3175
 10
2612
 20
3175
 10
2612
 20
3147
 10
2612
 20
3119
 10
2595.5
 20
3119
 10
2579
 20
3119
 10
2579
 20
3089
 10
2579
 20
3059
 10
2595.5
 20
3059
 10
2612
 20
3059
 10
2612
 20
3031
 10
2612
 20
3003
 10
2595.5
 20
3003
 10
2579
 20
3003
 10
2579
 20
2972.5
 10
2579
 20
2942
 10
2595.5
 20
2942
 10
2612
 20
2942
 10
2612
 20
2914
 10
2612
 20
2886
 10
2595.5
 20
2886
 10
2579
 20
2886
 10
2579
 20
2856
 10
2579
 20
2826
 10
2595.5
 20
2826
 10
2612
 20
2826
 10
2612
 20
2798
 10
2612
 20
2770
 10
2595.5
 20
2770
 10
2579
 20
2770
 10
2579
 20
2739.5
 10
2579
 20
2709
 10
2595.5
 20
2709
 10
2612
 20
2709
 10
2612
 20
2681
 10
2612
 20
2653
 10
2595.5
 20
2653
 10
2579
 20
2653
 10
2579
 20
2623
 10
2579
 20
2593
 10
2595.515819
 20
2593
 10
2612.031637
 20
2593
 10
2611.765819
 20
2565.25
 10
2611.5
 20
2537.5
 10
2584.25
 20
2537.233928
 10
2557
 20
2536.967856
 10
2557
 20
2553.983928
 10
2557
 20
2571
 10
2527.524179
 20
2571
 10
2498.048358
 20
2571
 10
2497.774179
 20
2554.25
 10
2497.5
 20
2537.5
 10
2470
 20
2537.5
 10
2442.5
 20
2537.5
 10
2442.225821
 20
2554.25
 10
2441.951642
 20
2571
 10
2412.475821
 20
2571
 10
2383
 20
2571
 10
2383
 20
2554
 10
2383
 20
2537
 10
2355.524179
 20
2537
 10
2328.048358
 20
2537
 10
2327.774179
 20
2553.75
 10
2327.5
 20
2570.5
 10
2298
 20
2570.5
 10
2268.5
 20
2570.5
 10
2268.225821
 20
2553.75
 10
2267.951642
 20
2537
 10
2240.475821
 20
2537
 10
2213
 20
2537
 10
2213
 20
2554
 10
2213
 20
2571
 10
2183.524179
 20
2571
 10
2154.048358
 20
2571
 10
2153.774179
 20
2554.25
 10
2153.5
 20
2537.5
 10
2126
 20
2537.5
 10
2098.5
 20
2537.5
 10
2098.225821
 20
2554.25
 10
2097.951642
 20
2571
 10
2068.475821
 20
2571
 10
2039
 20
2571
 10
2039
 20
2554
 10
2039
 20
2537
 10
2011.524179
 20
2537
 10
1984.048358
 20
2537
 10
1983.774179
 20
2553.75
 10
1983.5
 20
2570.5
 10
1954
 20
2570.5
 10
1924.5
 20
2570.5
 10
1924.225821
 20
2553.75
 10
1923.951642
 20
2537
 10
1896.475821
 20
2537
 10
1869
 20
2537
 10
1869
 20
2554
 10
1869
 20
2571
 10
1839.524179
 20
2571
 10
1810.048358
 20
2571
 10
1809.774179
 20
2554.25
 10
1809.5
 20
2537.5
 10
1782
 20
2537.5
 10
1754.5
 20
2537.5
 10
1754.225821
 20
2554.25
 10
1753.951642
 20
2571
 10
1724.475821
 20
2571
 10
1695
 20
2571
 10
1695
 20
2554
 10
1695
 20
2537
 10
1667.524179
 20
2537
 10
1640.048358
 20
2537
 10
1639.774179
 20
2553.75
 10
1639.5
 20
2570.5
 10
1610
 20
2570.5
 10
1580.5
 20
2570.5
 10
1580.225821
 20
2553.75
 10
1579.951642
 20
2537
 10
1552.475821
 20
2537
 10
1525
 20
2537
 10
1525
 20
2554
 10
1525
 20
2571
 10
1495.524179
 20
2571
 10
1466.048358
 20
2571
 10
1465.774179
 20
2554.25
 10
1465.5
 20
2537.5
 10
1438
 20
2537.5
 10
1410.5
 20
2537.5
 10
1410.225821
 20
2554.25
 10
1409.951642
 20
2571
 10
1380.475821
 20
2571
 10
1351
 20
2571
 10
1351
 20
2554
 10
1351
 20
2537
 10
1323.524179
 20
2537
 10
1296.048358
 20
2537
 10
1295.774179
 20
2553.75
 10
1295.5
 20
2570.5
 10
1266
 20
2570.5
 10
1236.5
 20
2570.5
 10
1236.225821
 20
2553.75
 10
1235.951642
 20
2537
 10
1208.475821
 20
2537
 10
1181
 20
2537
 10
1181
 20
2554
 10
1181
 20
2571
 10
1151.524179
 20
2571
 10
1122.048358
 20
2571
 10
1121.774179
 20
2554.25
 10
1121.5
 20
2537.5
 10
1094
 20
2537.5
 10
1066.5
 20
2537.5
 10
1066.225821
 20
2554.25
 10
1065.951642
 20
2571
 10
1036.475821
 20
2571
 10
1007
 20
2571
 10
1007
 20
2554
 10
1007
 20
2537
 10
979.524179
 20
2537
 10
952.048358
 20
2537
 10
951.774179
 20
2553.75
 10
951.5
 20
2570.5
 10
921.75
 20
2570.764881
 10
892
 20
2571.029761
 10
892
 20
2554.014881
 10
892
 20
2537
 10
864.5
 20
2537
 10
837
 20
2537
 10
837
 20
2554
 10
837
 20
2571
 10
807.524179
 20
2571
 10
778.048358
 20
2571
 10
777.774179
 20
2554.25
 10
777.5
 20
2537.5
 10
750
 20
2537.5
 10
722.5
 20
2537.5
 10
722.225821
 20
2554.25
 10
721.951642
 20
2571
 10
692.475821
 20
2571
 10
663
 20
2571
 10
663
 20
2554
 10
663
 20
2537
 10
635.524179
 20
2537
 10
608.048358
 20
2537
 10
607.774179
 20
2553.75
 10
607.5
 20
2570.5
 10
577.75
 20
2570.764881
 10
548
 20
2571.029761
 10
548
 20
2554.014881
 10
548
 20
2537
 10
520.5
 20
2537
 10
493
 20
2537
 10
493
 20
2554.014881
 10
493
 20
2571.029761
 10
463.25
 20
2570.764881
 10
433.5
 20
2570.5
 10
433.225748
 20
2553.733972
 10
432.951497
 20
2536.967944
 10
405.725748
 20
2537.233972
 10
378.5
 20
2537.5
 10
378.225821
 20
2554.25
 10
377.951642
 20
2571
 10
348.5
 20
2571
 10
319.048358
 20
2571
 10
318.774179
 20
2554.25
 10
318.5
 20
2537.5
 10
291.274252
 20
2537.233972
 10
264.048503
 20
2536.967944
 10
263.774252
 20
2553.733972
 10
263.5
 20
2570.5
 10
233.75
 20
2570.764881
 10
204
 20
2571.029761
 10
204
 20
2554.014881
 10
204
 20
2537
 10
176.5
 20
2537
 10
149
 20
2537
 10
149
 20
2554.014881
 10
149
 20
2571.029761
 10
119.25
 20
2570.764881
 10
89.5
 20
2570.5
 10
89.225821
 20
2553.75
 10
88.95164200000001
 20
2537
 10
61.975821
 20
2537
 10
35
 20
2537
 10
35
 20
2565
 10
35
 20
2593
 10
51.5
 20
2593
 10
68
 20
2593
 10
68
 20
2623
 10
68
 20
2653
 10
51.5
 20
2653
 10
35
 20
2653
 10
35
 20
2681
 10
35
 20
2709
 10
51.5
 20
2709
 10
68
 20
2709
 10
68
 20
2739.5
 10
68
 20
2770
 10
51.5
 20
2770
 10
35
 20
2770
 10
35
 20
2798
 10
35
 20
2826
 10
51.5
 20
2826
 10
68
 20
2826
 10
68
 20
2856
 10
68
 20
2886
 10
51.5
 20
2886
 10
35
 20
2886
 10
35
 20
2914
 10
35
 20
2942
 10
51.5
 20
2942
 10
68
 20
2942
 10
68
 20
2972.5
 10
68
 20
3003
 10
51.5
 20
3003
 10
35
 20
3003
 10
35
 20
3031
 10
35
 20
3059
 10
51.5
 20
3059
 10
68
 20
3059
 10
68
 20
3089
 10
68
 20
3119
 10
51.5
 20
3119
 10
35
 20
3119
 10
35
 20
3147
 10
35
 20
3175
 10
51.5
 20
3175
 10
68
 20
3175
 10
68
 20
3205.5
 10
68
 20
3236
 10
51.5
 20
3236
 10
35
 20
3236
 10
35
 20
3264
 10
35
 20
3292
 10
51.5
 20
3292
 10
68
 20
3292
 10
68
 20
3322
 10
68
 20
3352
 10
51.5
 20
3352
 10
35
 20
3352
 10
35
 20
3380
 10
35
 20
3408
 10
51.5
 20
3408
 10
68
 20
3408
 10
68
 20
3438
 10
68
 20
3468
 10
51.5
 20
3468
 10
35
 20
3468
 10
35
 20
3496.5
 10
35
 20
3525
 10
51.5
 20
3525
 10
68
 20
3525
 10
68
 20
3555
 10
68
 20
3585
 10
51.5
 20
3585
 10
35
 20
3585
 10
35
 20
3613
 10
35
 20
3641
 10
51.5
 20
3641
 10
68
 20
3641
 10
68
 20
3671
 10
68
 20
3701
 10
51.5
 20
3701
 10
35
 20
3701
 10
35
 20
3729
 10
35
 20
3757
 10
51.5
 20
3757
 10
68
 20
3757
 10
68
 20
3787.5
 10
68
 20
3818
 10
51.5
 20
3818
 10
35
 20
3818
 10
35
 20
3846
 10
35
 20
3874
 10
51.5
 20
3874
 10
68
 20
3874
 10
68
 20
3904
 10
68
 20
3934
 10
51.5
 20
3934
 10
35
 20
3934
 10
35
 20
3962
 10
35
 20
3990
 10
51.5
 20
3990
 10
68
 20
3990
 10
68
 20
4020.5
 10
68
 20
4051
 10
51.5
 20
4051
 10
35
 20
4051
 10
35
 20
4079
 10
35
 20
4107
 10
51.5
 20
4107
 10
68
 20
4107
 10
68
 20
4137
 10
68
 20
4167
 10
51.5
 20
4167
 10
35
 20
4167
 10
35
 20
4195
 10
35
 20
4223
 10
51.5
 20
4223
 10
68
 20
4223
 10
68
 20
4253.5
 10
68
 20
4284
 10
51.5
 20
4284
 10
35
 20
4284
 10
35
 20
4311.5
 10
35
 20
4339
 10
62
 20
4339
 10
89
 20
4339
  0
LWPOLYLINE
  5
4F
100
AcDbEntity
  8
0
  6
ByLayer
 62
  256
370
   -1
100
AcDbPolyline
 90
  600
 70
    1
 43
0
 10
2703
 20
4322.5
 10
2703
 20
4306
 10
2732.5
 20
4306
 10
2762
 20
4306
 10
2762
 20
4322.5
 10
2762
 20
4339
 10
2790
 20
4339
 10
2818
 20
4339
 10
2818
 20
4322.5
 10
2818
 20
4306
 10
2847.5
 20
4306
 10
2877
 20
4306
 10
2877
 20
4322.5
 10
2877
 20
4339
 10
2904.5
 20
4339
 10
2932
 20
4339
 10
2932
 20
4322.5
 10
2932
 20
4306
 10
2962
 20
4306
 10
2992
 20
4306
 10
2992
 20
4322.5
 10
2992
 20
4339
 10
3019.5
 20
4339
 10
3047
 20
4339
 10
3047
 20
4322.5
 10
3047
 20
4306
 10
3076.5
 20
4306
 10
3106
 20
4306
 10
3106
 20
4322.5
 10
3106
 20
4339
 10
3134
 20
4339
 10
3162
 20
4339
 10
3162
 20
4322.5
 10
3162
 20
4306
 10
3191.5
 20
4306
 10
3221
 20
4306
 10
3221
 20
4322.5
 10
3221
 20
4339
 10
3248.5
 20
4339
 10
3276
 20
4339
 10
3276
 20
4322.5
 10
3276
 20
4306
 10
3306
 20
4306
 10
3336
 20
4306
 10
3336
 20
4322.5
 10
3336
 20
4339
 10
3363.5
 20
4339
 10
3391
 20
4339
 10
3391
 20
4322.5
 10
3391
 20
4306
 10
3420.5
 20
4306
 10
3450
 20
4306
 10
3450
 20
4322.5
 10
3450
 20
4339
 10
3478
 20
4339
 10
3506
 20
4339
 10
3506
 20
4322.5
 10
3506
 20
4306
 10
3535.5
 20
4306
 10
3565
 20
4306
 10
3565
 20
4322.5
 10
3565
 20
4339
 10
3592.5
 20
4339
 10
3620
 20
4339
 10
3620
 20
4322.5
 10
3620
 20
4306
 10
3650
 20
4306
 10
3680
 20
4306
 10
3680
 20
4322.5
 10
3680
 20
4339
 10
3707.5
 20
4339
 10
3735
 20
4339
 10
3735
 20
4322.5
 10
3735
 20
4306
 10
3764.5
 20
4306
 10
3794
 20
4306
 10
3794
 20
4322.5
 10
3794
 20
4339
 10
3822
 20
4339
 10
3850
 20
4339
 10
3850
 20
4322.5
 10
3850
 20
4306
 10
3879.5
 20
4306
 10
3909
 20
4306
 10
3909
 20
4322.5
 10
3909
 20
4339
 10
3936.5
 20
4339
 10
3964
 20
4339
 10
3964
 20
4322.5
 10
3964
 20
4306
 10
3994
 20
4306
 10
4024
 20
4306
 10
4024
 20
4322.5
 10
4024
 20
4339
 10
4051.5
 20
4339
 10
4079
 20
4339
 10
4079
 20
4322.5
 10
4079
 20
4306
 10
4108.5
 20
4306
 10
4138
 20
4306
 10
4138
 20
4322.5
 10
4138
 20
4339
 10
4166
 20
4339
 10
4194
 20
4339
 10
4194
 20
4322.5
 10
4194
 20
4306
 10
4223.5
 20
4306
 10
4253
 20
4306
 10
4253
 20
4322.5
 10
4253
 20
4339
 10
4280.5
 20
4339
 10
4308
 20
4339
 10
4308
 20
4322.5
 10
4308
 20
4306
 10
4338
 20
4306
 10
4368
 20
4306
 10
4368
 20
4322.5
 10
4368
 20
4339
 10
4395.5
 20
4339
 10
4423
 20
4339
 10
4423
 20
4322.5
 10
4423
 20
4306
 10
4452.5
 20
4306
 10
4482
 20
4306
 10
4482
 20
4322.5
 10
4482
 20
4339
 10
4510
 20
4339
 10
4538
 20
4339
 10
4538
 20
4322.5
 10
4538
 20
4306
 10
4567.5
 20
4306
 10
4597
 20
4306
 10
4597
 20
4322.5
 10
4597
 20
4339
 10
4624.5
 20
4339
 10
4652
 20
4339
 10
4652
 20
4322.5
 10
4652
 20
4306
 10
4682
 20
4306
 10
4712
 20
4306
 10
4712
 20
4322.5
 10
4712
 20
4339
 10
4739.5
 20
4339
 10
4767
 20
4339
 10
4767
 20
4322.5
 10
4767
 20
4306
 10
4797
 20
4306
 10
4827
 20
4306
 10
4827
 20
4322.5
 10
4827
 20
4339
 10
4854.5
 20
4339
 10
4882
 20
4339
 10
4882
 20
4322.5
 10
4882
 20
4306
 10
4911.5
 20
4306
 10
4941
 20
4306
 10
4941
 20
4322.5
 10
4941
 20
4339
 10
4968.5
 20
4339
 10
4996
 20
4339
 10
4996
 20
4322.5
 10
4996
 20
4306
 10
5026
 20
4306
 10
5056
 20
4306
 10
5056
 20
4322.5
 10
5056
 20
4339
 10
5083.5
 20
4339
 10
5111
 20
4339
 10
5111
 20
4322.5
 10
5111
 20
4306
 10
5141
 20
4306
 10
5171
 20
4306
 10
5171
 20
4322.5
 10
5171
 20
4339
 10
5198
 20
4339
 10
5225
 20
4339
 10
5225
 20
4311.5
 10
5225
 20
4284
 10
5208.5
 20
4284
 10
5192
 20
4284
 10
5192
 20
4253.5
 10
5192
 20
4223
 10
5208.5
 20
4223
 10
5225
 20
4223
 10
5225
 20
4195
 10
5225
 20
4167
 10
5208.5
 20
4167
 10
5192
 20
4167
 10
5192
 20
4137
 10
5192
 20
4107
 10
5208.5
 20
4107
 10
5225
 20
4107
 10
5225
 20
4079
 10
5225
 20
4051
 10
5208.5
 20
4051
 10
5192
 20
4051
 10
5192
 20
4020.5
 10
5192
 20
3990
 10
5208.5
 20
3990
 10
5225
 20
3990
 10
5225
 20
3962
 10
5225
 20
3934
 10
5208.5
 20
3934
 10
5192
 20
3934
 10
5192
 20
3904
 10
5192
 20
3874
 10
5208.5
 20
3874
 10
5225
 20
3874
 10
5225
 20
3846
 10
5225
 20
3818
 10
5208.5
 20
3818
 10
5192
 20
3818
 10
5192
 20
3787.5
 10
5192
 20
3757
 10
5208.5
 20
3757
 10
5225
 20
3757
 10
5225
 20
3729
 10
5225
 20
3701
 10
5208.5
 20
3701
 10
5192
 20
3701
 10
5192
 20
3671
 10
5192
 20
3641
 10
5208.5
 20
3641
 10
5225
 20
3641
 10
5225
 20
3613
 10
5225
 20
3585
 10
5208.5
 20
3585
 10
5192
 20
3585
 10
5192
 20
3555
 10
5192
 20
3525
 10
5208.5
 20
3525
 10
5225
 20
3525
 10
5225
 20
3496.5
 10
5225
 20
3468
 10
5208.5
 20
3468
 10
5192
 20
3468
 10
5192
 20
3438
 10
5192
 20
3408
 10
5208.5
 20
3408
 10
5225
 20
3408
 10
5225
 20
3380
 10
5225
 20
3352
 10
5208.5
 20
3352
 10
5192
 20
3352
 10
5192
 20
3322
 10
5192
 20
3292
 10
5208.5
 20
3292
 10
5225
 20
3292
 10
5225
 20
3264
 10
5225
 20
3236
 10
5208.5
 20
3236
 10
5192
 20
3236
 10
5192
 20
3205.5
 10
5192
 20
3175
 10
5208.5
 20
3175
 10
5225
 20
3175
 10
5225
 20
3147
 10
5225
 20
3119
 10
5208.5
 20
3119
 10
5192
 20
3119
 10
5192
 20
3089
 10
5192
 20
3059
 10
5208.5
 20
3059
 10
5225
 20
3059
 10
5225
 20
3031
 10
5225
 20
3003
 10
5208.5
 20
3003
 10
5192
 20
3003
 10
5192
 20
2972.5
 10
5192
 20
2942
 10
5208.5
 20
2942
 10
5225
 20
2942
 10
5225
 20
2914
 10
5225
 20
2886
 10
5208.5
 20
2886
 10
5192
 20
2886
 10
5192
 20
2856
 10
5192
 20
2826
 10
5208.5
 20
2826
 10
5225
 20
2826
 10
5225
 20
2798
 10
5225
 20
2770
 10
5208.5
 20
2770
 10
5192
 20
2770
 10
5192
 20
2739.5
 10
5192
 20
2709
 10
5208.5
 20
2709
 10
5225
 20
2709
 10
5225
 20
2681
 10
5225
 20
2653
 10
5208.5
 20
2653
 10
5192
 20
2653
 10
5192
 20
2623
 10
5192
 20
2593
 10
5208.5
 20
2593
 10
5225
 20
2593
 10
5225
 20
2565
 10
5225
 20
2537
 10
5198.024179
 20
2537
 10
5171.048358
 20
2537
 10
5170.774179
 20
2553.75
 10
5170.5
 20
2570.5
 10
5140.75
 20
2570.764881
 10
5111
 20
2571.029761
 10
5111
 20
2554.014881
 10
5111
 20
2537
 10
5083.5
 20
2537
 10
5056
 20
2537
 10
5056
 20
2554.014881
 10
5056
 20
2571.029761
 10
5026.25
 20
2570.764881
 10
4996.5
 20
2570.5
 10
4996.225748
 20
2553.733972
 10
4995.951497
 20
2536.967944
 10
4968.725748
 20
2537.233972
 10
4941.5
 20
2537.5
 10
4941.225821
 20
2554.25
 10
4940.951642
 20
2571
 10
4911.5
 20
2571
 10
4882.048358
 20
2571
 10
4881.774179
 20
2554.25
 10
4881.5
 20
2537.5
 10
4854.274252
 20
2537.233972
 10
4827.048503
 20
2536.967944
 10
4826.774252
 20
2553.733972
 10
4826.5
 20
2570.5
 10
4796.75
 20
2570.764881
 10
4767
 20
2571.029761
 10
4767
 20
2554.014881
 10
4767
 20
2537
 10
4739.5
 20
2537
 10
4712
 20
2537
 10
4712
 20
2554.014881
 10
4712
 20
2571.029761
 10
4682.25
 20
2570.764881
 10
4652.5
 20
2570.5
 10
4652.225821
 20
2553.75
 10
4651.951642
 20
2537
 10
4624.475821
 20
2537
 10
4597
 20
2537
 10
4597
 20
2554
 10
4597
 20
2571
 10
4567.524179
 20
2571
 10
4538.048358
 20
2571
 10
4537.774179
 20
2554.25
 10
4537.5
 20
2537.5
 10
4510
 20
2537.5
 10
4482.5
 20
2537.5
 10
4482.225821
 20
2554.25
 10
4481.951642
 20
2571
 10
4452.475821
 20
2571
 10
4423
 20
2571
 10
4423
 20
2554
 10
4423
 20
2537
 10
4395.5
 20
2537
 10
4368
 20
2537
 10
4368
 20
2554.014881
 10
4368
 20
2571.029761
 10
4338.25
 20
2570.764881
 10
4308.5
 20
2570.5
 10
4308.225821
 20
2553.75
 10
4307.951642
 20
2537
 10
4280.475821
 20
2537
 10
4253
 20
2537
 10
4253
 20
2554
 10
4253
 20
2571
 10
4223.524179
 20
2571
 10
4194.048358
 20
2571
 10
4193.774179
 20
2554.25
 10
4193.5
 20
2537.5
 10
4166
 20
2537.5
 10
4138.5
 20
2537.5
 10
4138.225821
 20
2554.25
 10
4137.951642
 20
2571
 10
4108.475821
 20
2571
 10
4079
 20
2571
 10
4079
 20
2554
 10
4079
 20
2537
 10
4051.524179
 20
2537
 10
4024.048358
 20
2537
 10
4023.774179
 20
2553.75
 10
4023.5
 20
2570.5
 10
3994
 20
2570.5
 10
3964.5
 20
2570.5
 10
3964.225821
 20
2553.75
 10
3963.951642
 20
2537
 10
3936.475821
 20
2537
 10
3909
 20
2537
 10
3909
 20
2554
 10
3909
 20
2571
 10
3879.524179
 20
2571
 10
3850.048358
 20
2571
 10
3849.774179
 20
2554.25
 10
3849.5
 20
2537.5
 10
3822
 20
2537.5
 10
3794.5
 20
2537.5
 10
3794.225821
 20
2554.25
 10
3793.951642
 20
2571
 10
3764.475821
 20
2571
 10
3735
 20
2571
 10
3735
 20
2554
 10
3735
 20
2537
 10
3707.524179
 20
2537
 10
3680.048358
 20
2537
 10
3679.774179
 20
2553.75
 10
3679.5
 20
2570.5
 10
3650
 20
2570.5
 10
3620.5
 20
2570.5
 10
3620.225821
 20
2553.75
 10
3619.951642
 20
2537
 10
3592.475821
 20
2537
 10
3565
 20
2537
 10
3565
 20
2554
 10
3565
 20
2571
 10
3535.524179
 20
2571
 10
3506.048358
 20
2571
 10
3505.774179
 20
2554.25
 10
3505.5
 20
2537.5
 10
3478
 20
2537.5
 10
3450.5
 20
2537.5
 10
3450.225821
 20
2554.25
 10
3449.951642
 20
2571
 10
3420.475821
 20
2571
 10
3391
 20
2571
 10
3391
 20
2554
 10
3391
 20
2537
 10
3363.524179
 20
2537
 10
3336.048358
 20
2537
 10
3335.774179
 20
2553.75
 10
3335.5
 20
2570.5
 10
3306
 20
2570.5
 10
3276.5
 20
2570.5
 10
3276.225821
 20
2553.75
 10
3275.951642
 20
2537
 10
3248.475821
 20
2537
 10
3221
 20
2537
 10
3221
 20
2554
 10
3221
 20
2571
 10
3191.524179
 20
2571
 10
3162.048358
 20
2571
 10
3161.774179
 20
2554.25
 10
3161.5
 20
2537.5
 10
3134
 20
2537.5
 10
3106.5
 20
2537.5
 10
3106.225821
 20
2554.25
 10
3105.951642
 20
2571
 10
3076.475821
 20
2571
 10
3047
 20
2571
 10
3047
 20
2554
 10
3047
 20
2537
 10
3019.524179
 20
2537
 10
2992.048358
 20
2537
 10
2991.774179
 20
2553.75
 10
2991.5
 20
2570.5
 10
2962
 20
2570.5
 10
2932.5
 20
2570.5
 10
2932.225821
 20
2553.75
 10
2931.951642
 20
2537
 10
2904.475821
 20
2537
 10
2877
 20
2537
 10
2877
 20
2554
 10
2877
 20
2571
 10
2847.524179
 20
2571
 10
2818.048358
 20
2571
 10
2817.774179
 20
2554.25
 10
2817.5
 20
2537.5
 10
2790
 20
2537.5
 10
2762.5
 20
2537.5
 10
2762.225821
 20
2554.25
 10
2761.951642
 20
2571
 10
2732.475821
 20
2571
 10
2703
 20
2571
 10
2703
 20
2553.983928
 10
2703
 20
2536.967856
 10
2675.75
 20
2537.233928
 10
2648.5
 20
2537.5
 10
2648.234181
 20
2565.25
 10
2647.968363
 20
2593
 10
2664.484181
 20
2593
 10
2681
 20
2593
 10
2681
 20
2623
 10
2681
 20
2653
 10
2664.5
 20
2653
 10
2648
 20
2653
 10
2648
 20
2681
 10
2648
 20
2709
 10
2664.5
 20
2709
 10
2681
 20
2709
 10
2681
 20
2739.5
 10
2681
 20
2770
 10
2664.5
 20
2770
 10
2648
 20
2770
 10
2648
 20
2798
 10
2648
 20
2826
 10
2664.5
 20
2826
 10
2681
 20
2826
 10
2681
 20
2856
 10
2681
 20
2886
 10
2664.5
 20
2886
 10
2648
 20
2886
 10
2648
 20
2914
 10
2648
 20
2942
 10
2664.5
 20
2942
 10
2681
 20
2942
 10
2681
 20
2972.5
 10
2681
 20
3003
 10
2664.5
 20
3003
 10
2648
 20
3003
 10
2648
 20
3031
 10
2648
 20
3059
 10
2664.5
 20
3059
 10
2681
 20
3059
 10
2681
 20
3089
 10
2681
 20
3119
 10
2664.5
 20
3119
 10
2648
 20
3119
 10
2648
 20
3147
 10
2648
 20
3175
 10
2664.5
 20
3175
 10
2681
 20
3175
 10
2681
 20
3205.5
 10
2681
 20
3236
 10
2664.5
 20
3236
 10
2648
 20
3236
 10
2648
 20
3264
 10
2648
 20
3292
 10
2664.5
 20
3292
 10
2681
 20
3292
 10
2681
 20
3322
 10
2681
 20
3352
 10
2664.5
 20
3352
 10
2648
 20
3352
 10
2648
 20
3380
 10
2648
 20
3408
 10
2664.5
 20
3408
 10
2681
 20
3408
 10
2681
 20
3437.975229
 10
2681
 20
3467.950457
 10
2664.75
 20
3468.225229
 10
2648.5
 20
3468.5
 10
2648.5
 20
3496.5
 10
2648.5
 20
3524.5
 10
2664.75
 20
3524.774771
 10
2681
 20
3525.049543
 10
2681
 20
3555.024771
 10
2681
 20
3585
 10
2664.5
 20
3585
 10
2648
 20
3585
 10
2648
 20
3613
 10
2648
 20
3641
 10
2664.5
 20
3641
 10
2681
 20
3641
 10
2681
 20
3670.975229
 10
2681
 20
3700.950457
 10
2664.75
 20
3701.225229
 10
2648.5
 20
3701.5
 10
2648.234181
 20
3729.25
 10
2647.968363
 20
3757
 10
2664.484181
 20
3757
 10
2681
 20
3757
 10
2681
 20
3787.5
 10
2681
 20
3818
 10
2664.5
 20
3818
 10
2648
 20
3818
 10
2648
 20
3846
 10
2648
 20
3874
 10
2664.5
 20
3874
 10
2681
 20
3874
 10
2681
 20
3904
 10
2681
 20
3934
 10
2664.5
 20
3934
 10
2648
 20
3934
 10
2648
 20
3962
 10
2648
 20
3990
 10
2664.5
 20
3990
 10
2681
 20
3990
 10
2681
 20
4020.5
 10
2681
 20
4051
 10
2664.5
 20
4051
 10
2648
 20
4051
 10
2648
 20
4079
 10
2648
 20
4107
 10
2664.5
 20
4107
 10
2681
 20
4107
 10
2681
 20
4137
 10
2681
 20
4167
 10
2664.5
 20
4167
 10
2648
 20
4167
 10
2648
 20
4195
 10
2648
 20
4223
 10
2664.5
 20
4223
 10
2681
 20
4223
 10
2681
 20
4253.5
 10
2681
 20
4284
 10
2664.5
 20
4284
 10
2648
 20
4284
 10
2648
 20
4311.5
 10
2648
 20
4339
 10
2675.5
 20
4339
 10
2703
 20
4339
  0
LWPOLYLINE
  5
50
100
AcDbEntity
  8
0
  6
ByLayer
 62
  256
370
   -1
100
AcDbPolyline
 90
  504
 70
    1
 43
0
 10
147
 20
2484.5
 10
147
 20
2468
 10
176.5
 20
2468
 10
206
 20
2468
 10
206
 20
2484.5
 10
206
 20
2501
 10
233.5
 20
2501
 10
261
 20
2501
 10
261
 20
2484.5
 10
261
 20
2468
 10
291
 20
2468
 10
321
 20
2468
 10
321
 20
2484.5
 10
321
 20
2501
 10
348.5
 20
2501
 10
376
 20
2501
 10
376
 20
2484.5
 10
376
 20
2468
 10
406
 20
2468
 10
436
 20
2468
 10
436
 20
2484.5
 10
436
 20
2501
 10
463.5
 20
2501
 10
491
 20
2501
 10
491
 20
2484.5
 10
491
 20
2468
 10
520.5
 20
2468
 10
550
 20
2468
 10
550
 20
2484.5
 10
550
 20
2501
 10
578
 20
2501
 10
606
 20
2501
 10
606
 20
2484.5
 10
606
 20
2468
 10
635.5
 20
2468
 10
665
 20
2468
 10
665
 20
2484.5
 10
665
 20
2501
 10
692.5
 20
2501
 10
720
 20
2501
 10
720
 20
2484.5
 10
720
 20
2468
 10
750
 20
2468
 10
780
 20
2468
 10
780
 20
2484.5
 10
780
 20
2501
 10
807.5
 20
2501
 10
835
 20
2501
 10
835
 20
2484.5
 10
835
 20
2468
 10
864.5
 20
2468
 10
894
 20
2468
 10
894
 20
2484.5
 10
894
 20
2501
 10
922
 20
2501
 10
950
 20
2501
 10
950
 20
2484.5
 10
950
 20
2468
 10
979.5
 20
2468
 10
1009
 20
2468
 10
1009
 20
2484.5
 10
1009
 20
2501
 10
1036.5
 20
2501
 10
1064
 20
2501
 10
1064
 20
2484.5
 10
1064
 20
2468
 10
1094
 20
2468
 10
1124
 20
2468
 10
1124
 20
2484.5
 10
1124
 20
2501
 10
1151.5
 20
2501
 10
1179
 20
2501
 10
1179
 20
2484.5
 10
1179
 20
2468
 10
1208.5
 20
2468
 10
1238
 20
2468
 10
1238
 20
2484.5
 10
1238
 20
2501
 10
1266
 20
2501
 10
1294
 20
2501
 10
1294
 20
2484.5
 10
1294
 20
2468
 10
1323.5
 20
2468
 10
1353
 20
2468
 10
1353
 20
2484.5
 10
1353
 20
2501
 10
1380.5
 20
2501
 10
1408
 20
2501
 10
1408
 20
2484.5
 10
1408
 20
2468
 10
1438
 20
2468
 10
1468
 20
2468
 10
1468
 20
2484.5
 10
1468
 20
2501
 10
1495.5
 20
2501
 10
1523
 20
2501
 10
1523
 20
2484.5
 10
1523
 20
2468
 10
1552.5
 20
2468
 10
1582
 20
2468
 10
1582
 20
2484.5
 10
1582
 20
2501
 10
1610
 20
2501
 10
1638
 20
2501
 10
1638
 20
2484.5
 10
1638
 20
2468
 10
1667.5
 20
2468
 10
1697
 20
2468
 10
1697
 20
2484.5
 10
1697
 20
2501
 10
1724.5
 20
2501
 10
1752
 20
2501
 10
1752
 20
2484.5
 10
1752
 20
2468
 10
1782
 20
2468
 10
1812
 20
2468
 10
1812
 20
2484.5
 10
1812
 20
2501
 10
1839.5
 20
2501
 10
1867
 20
2501
 10
1867
 20
2484.5
 10
1867
 20
2468
 10
1896.5
 20
2468
 10
1926
 20
2468
 10
1926
 20
2484.5
 10
1926
 20
2501
 10
1954
 20
2501
 10
1982
 20
2501
 10
1982
 20
2484.5
 10
1982
 20
2468
 10
2011.5
 20
2468
 10
2041
 20
2468
 10
2041
 20
2484.5
 10
2041
 20
2501
 10
2068.5
 20
2501
 10
2096
 20
2501
 10
2096
 20
2484.5
 10
2096
 20
2468
 10
2126
 20
2468
 10
2156
 20
2468
 10
2156
 20
2484.5
 10
2156
 20
2501
 10
2183.5
 20
2501
 10
2211
 20
2501
 10
2211
 20
2484.5
 10
2211
 20
2468
 10
2240.5
 20
2468
 10
2270
 20
2468
 10
2270
 20
2484.5
 10
2270
 20
2501
 10
2298
 20
2501
 10
2326
 20
2501
 10
2326
 20
2484.5
 10
2326
 20
2468
 10
2355.5
 20
2468
 10
2385
 20
2468
 10
2385
 20
2484.5
 10
2385
 20
2501
 10
2412.5
 20
2501
 10
2440
 20
2501
 10
2440
 20
2484.5
 10
2440
 20
2468
 10
2470
 20
2468
 10
2500
 20
2468
 10
2500
 20
2484.5
 10
2500
 20
2501
 10
2527.5
 20
2501
 10
2555
 20
2501
 10
2555
 20
2484.5
 10
2555
 20
2468
 10
2583.5
 20
2468
 10
2612
 20
2468
 10
2612
 20
2439
 10
2612
 20
2410
 10
2595.5
 20
2410
 10
2579
 20
2410
 10
2579
 20
2378.5
 10
2579
 20
2347
 10
2595.5
 20
2347
 10
2612
 20
2347
 10
2612
 20
2318
 10
2612
 20
2289
 10
2595.5
 20
2289
 10
2579
 20
2289
 10
2579
 20
2257.5
 10
2579
 20
2226
 10
2595.515105
 20
2226
 10
2612.030209
 20
2226
 10
2611.765105
 20
2196.75
 10
2611.5
 20
2167.5
 10
2595.25
 20
2167.225229
 10
2579
 20
2166.950457
 10
2579
 20
2136
 10
2579
 20
2105.049543
 10
2595.25
 20
2104.774771
 10
2611.5
 20
2104.5
 10
2611.765105
 20
2075.25
 10
2612.030209
 20
2046
 10
2595.515105
 20
2046
 10
2579
 20
2046
 10
2579
 20
2014.5
 10
2579
 20
1983
 10
2595.5
 20
1983
 10
2612
 20
1983
 10
2612
 20
1954
 10
2612
 20
1925
 10
2595.5
 20
1925
 10
2579
 20
1925
 10
2579
 20
1893.5
 10
2579
 20
1862
 10
2595.5
 20
1862
 10
2612
 20
1862
 10
2612
 20
1833
 10
2612
 20
1804
 10
2595.5
 20
1804
 10
2579
 20
1804
 10
2579
 20
1772.5
 10
2579
 20
1741
 10
2595.515105
 20
1741
 10
2612.030209
 20
1741
 10
2611.765105
 20
1711.75
 10
2611.5
 20
1682.5
 10
2595.25
 20
1682.225229
 10
2579
 20
1681.950457
 10
2579
 20
1650.975229
 10
2579
 20
1620
 10
2595.5
 20
1620
 10
2612
 20
1620
 10
2612
 20
1590.5
 10
2612
 20
1561
 10
2595.5
 20
1561
 10
2579
 20
1561
 10
2579
 20
1529.5
 10
2579
 20
1498
 10
2595.5
 20
1498
 10
2612
 20
1498
 10
2612
 20
1469
 10
2612
 20
1440
 10
2595.5
 20
1440
 10
2579
 20
1440
 10
2579
 20
1408.5
 10
2579
 20
1377
 10
2595.5
 20
1377
 10
2612
 20
1377
 10
2612
 20
1348
 10
2612
 20
1319
 10
2583.5
 20
1319
 10
2555
 20
1319
 10
2555
 20
1302.5
 10
2555
 20
1286
 10
2527.5
 20
1286
 10
2500
 20
1286
 10
2500
 20
1302.5
 10
2500
 20
1319
 10
2470
 20
1319
 10
2440
 20
1319
 10
2440
 20
1302.5
 10
2440
 20
1286
 10
2412.5
 20
1286
 10
2385
 20
1286
 10
2385
 20
1302.5
 10
2385
 20
1319
 10
2355.5
 20
1319
 10
2326
 20
1319
 10
2326
 20
1302.5
 10
2326
 20
1286
 10
2298
 20
1286
 10
2270
 20
1286
 10
2270
 20
1302.5
 10
2270
 20
1319
 10
2240.5
 20
1319
 10
2211
 20
1319
 10
2211
 20
1302.5
 10
2211
 20
1286
 10
2183.5
 20
1286
 10
2156
 20
1286
 10
2156
 20
1302.5
 10
2156
 20
1319
 10
2126
 20
1319
 10
2096
 20
1319
 10
2096
 20
1302.5
 10
2096
 20
1286
 10
2068.5
 20
1286
 10
2041
 20
1286
 10
2041
 20
1302.5
 10
2041
 20
1319
 10
2011.5
 20
1319
 10
1982
 20
1319
 10
1982
 20
1302.5
 10
1982
 20
1286
 10
1954
 20
1286
 10
1926
 20
1286
 10
1926
 20
1302.5
 10
1926
 20
1319
 10
1896.5
 20
1319
 10
1867
 20
1319
 10
1867
 20
1302.5
 10
1867
 20
1286
 10
1839.5
 20
1286
 10
1812
 20
1286
 10
1812
 20
1302.5
 10
1812
 20
1319
 10
1782
 20
1319
 10
1752
 20
1319
 10
1752
 20
1302.5
 10
1752
 20
1286
 10
1724.5
 20
1286
 10
1697
 20
1286
 10
1697
 20
1302.5
 10
1697
 20
1319
 10
1667.5
 20
1319
 10
1638
 20
1319
 10
1638
 20
1302.5
 10
1638
 20
1286
 10
1610
 20
1286
 10
1582
 20
1286
 10
1582
 20
1302.5
 10
1582
 20
1319
 10
1552.5
 20
1319
 10
1523
 20
1319
 10
1523
 20
1302.5
 10
1523
 20
1286
 10
1495.5
 20
1286
 10
1468
 20
1286
 10
1468
 20
1302.5
 10
1468
 20
1319
 10
1438
 20
1319
 10
1408
 20
1319
 10
1408
 20
1302.5
 10
1408
 20
1286
 10
1380.5
 20
1286
 10
1353
 20
1286
 10
1353
 20
1302.5
 10
1353
 20
1319
 10
1323.5
 20
1319
 10
1294
 20
1319
 10
1294
 20
1302.5
 10
1294
 20
1286
 10
1266
 20
1286
 10
1238
 20
1286
 10
1238
 20
1302.5
 10
1238
 20
1319
 10
1208.5
 20
1319
 10
1179
 20
1319
 10
1179
 20
1302.5
 10
1179
 20
1286
 10
1151.5
 20
1286
 10
1124
 20
1286
 10
1124
 20
1302.5
 10
1124
 20
1319
 10
1094
 20
1319
 10
1064
 20
1319
 10
1064
 20
1302.5
 10
1064
 20
1286
 10
1036.5
 20
1286
 10
1009
 20
1286
 10
1009
 20
1302.5
 10
1009
 20
1319
 10
979.524771
 20
1319
 10
950.049543
 20
1319
 10
949.774771
 20
1302.75
 10
949.5
 20
1286.5
 10
921.75
 20
1286.234181
 10
894
 20
1285.968363
 10
894
 20
1302.484181
 10
894
 20
1319
 10
864.5
 20
1319
 10
835
 20
1319
 10
835
 20
1302.5
 10
835
 20
1286
 10
807.5
 20
1286
 10
780
 20
1286
 10
780
 20
1302.5
 10
780
 20
1319
 10
750
 20
1319
 10
720
 20
1319
 10
720
 20
1302.5
 10
720
 20
1286
 10
692.5
 20
1286
 10
665
 20
1286
 10
665
 20
1302.5
 10
665
 20
1319
 10
635.524771
 20
1319
 10
606.049543
 20
1319
 10
605.774771
 20
1302.75
 10
605.5
 20
1286.5
 10
577.75
 20
1286.234181
 10
550
 20
1285.968363
 10
550
 20
1302.484181
 10
550
 20
1319
 10
520.5
 20
1319
 10
491
 20
1319
 10
491
 20
1302.5
 10
491
 20
1286
 10
463.5
 20
1286
 10
436
 20
1286
 10
436
 20
1302.5
 10
436
 20
1319
 10
406
 20
1319
 10
376
 20
1319
 10
376
 20
1302.5
 10
376
 20
1286
 10
348.5
 20
1286
 10
321
 20
1286
 10
321
 20
1302.5
 10
321
 20
1319
 10
291
 20
1319
 10
261
 20
1319
 10
261
 20
1302.5
 10
261
 20
1286
 10
233.5
 20
1286
 10
206
 20
1286
 10
206
 20
1302.5
 10
206
 20
1319
 10
176.5
 20
1319
 10
147
 20
1319
 10
147
 20
1302.5
 10
147
 20
1286
 10
119.5
 20
1286
 10
92
 20
1286
 10
92
 20
1302.5
 10
92
 20
1319
 10
63.5
 20
1319
 10
35
 20
1319
 10
35
 20
1348
 10
35
 20
1377
 10
51.5
 20
1377
 10
68
 20
1377
 10
68
 20
1408.5
 10
68
 20
1440
 10
51.5
 20
1440
 10
35
 20
1440
 10
35
 20
1469
 10
35
 20
1498
 10
51.5
 20
1498
 10
68
 20
1498
 10
68
 20
1529.5
 10
68
 20
1561
 10
51.5
 20
1561
 10
35
 20
1561
 10
35
 20
1590.5
 10
35
 20
1620
 10
51.5
 20
1620
 10
68
 20
1620
 10
68
 20
1651
 10
68
 20
1682
 10
51.5
 20
1682
 10
35
 20
1682
 10
35
 20
1711.5
 10
35
 20
1741
 10
51.5
 20
1741
 10
68
 20
1741
 10
68
 20
1772.5
 10
68
 20
1804
 10
51.5
 20
1804
 10
35
 20
1804
 10
35
 20
1833
 10
35
 20
1862
 10
51.5
 20
1862
 10
68
 20
1862
 10
68
 20
1893.5
 10
68
 20
1925
 10
51.5
 20
1925
 10
35
 20
1925
 10
35
 20
1954
 10
35
 20
1983
 10
51.5
 20
1983
 10
68
 20
1983
 10
68
 20
2014.5
 10
68
 20
2046
 10
51.5
 20
2046
 10
35
 20
2046
 10
35
 20
2075.5
 10
35
 20
2105
 10
51.5
 20
2105
 10
68
 20
2105
 10
68
 20
2136
 10
68
 20
2167
 10
51.5
 20
2167
 10
35
 20
2167
 10
35
 20
2196.5
 10
35
 20
2226
 10
51.5
 20
2226
 10
68
 20
2226
 10
68
 20
2257.5
 10
68
 20
2289
 10
51.5
 20
2289
 10
35
 20
2289
 10
35
 20
2318
 10
35
 20
2347
 10
51.5
 20
2347
 10
68
 20
2347
 10
68
 20
2378.5
 10
68
 20
2410
 10
51.5
 20
2410
 10
35
 20
2410
 10
35
 20
2439
 10
35
 20
2468
 10
63.5
 20
2468
 10
92
 20
2468
 10
92
 20
2484.5
 10
92
 20
2501
 10
119.5
 20
2501
 10
147
 20
2501
  0
LWPOLYLINE
  5
51
100
AcDbEntity
  8
0
  6
ByLayer
 62
  256
370
   -1
100
AcDbPolyline
 90
  504
 70
    1
 43
0
 10
2760
 20
2484.5
 10
2760
 20
2468
 10
2790
 20
2468
 10
2820
 20
2468
 10
2820
 20
2484.5
 10
2820
 20
2501
 10
2847.5
 20
2501
 10
2875
 20
2501
 10
2875
 20
2484.5
 10
2875
 20
2468
 10
2904.5
 20
2468
 10
2934
 20
2468
 10
2934
 20
2484.5
 10
2934
 20
2501
 10
2962
 20
2501
 10
2990
 20
2501
 10
2990
 20
2484.5
 10
2990
 20
2468
 10
3019.5
 20
2468
 10
3049
 20
2468
 10
3049
 20
2484.5
 10
3049
 20
2501
 10
3076.5
 20
2501
 10
3104
 20
2501
 10
3104
 20
2484.5
 10
3104
 20
2468
 10
3134
 20
2468
 10
3164
 20
2468
 10
3164
 20
2484.5
 10
3164
 20
2501
 10
3191.5
 20
2501
 10
3219
 20
2501
 10
3219
 20
2484.5
 10
3219
 20
2468
 10
3248.5
 20
2468
 10
3278
 20
2468
 10
3278
 20
2484.5
 10
3278
 20
2501
 10
3306
 20
2501
 10
3334
 20
2501
 10
3334
 20
2484.5
 10
3334
 20
2468
 10
3363.5
 20
2468
 10
3393
 20
2468
 10
3393
 20
2484.5
 10
3393
 20
2501
 10
3420.5
 20
2501
 10
3448
 20
2501
 10
3448
 20
2484.5
 10
3448
 20
2468
 10
3478
 20
2468
 10
3508
 20
2468
 10
3508
 20
2484.5
 10
3508
 20
2501
 10
3535.5
 20
2501
 10
3563
 20
2501
 10
3563
 20
2484.5
 10
3563
 20
2468
 10
3592.5
 20
2468
 10
3622
 20
2468
 10
3622
 20
2484.5
 10
3622
 20
2501
 10
3650
 20
2501
 10
3678
 20
2501
 10
3678
 20
2484.5
 10
3678
 20
2468
 10
3707.5
 20
2468
 10
3737
 20
2468
 10
3737
 20
2484.5
 10
3737
 20
2501
 10
3764.5
 20
2501
 10
3792
 20
2501
 10
3792
 20
2484.5
 10
3792
 20
2468
 10
3822
 20
2468
 10
3852
 20
2468
 10
3852
 20
2484.5
 10
3852
 20
2501
 10
3879.5
 20
2501
 10
3907
 20
2501
 10
3907
 20
2484.5
 10
3907
 20
2468
 10
3936.5
 20
2468
 10
3966
 20
2468
 10
3966
 20
2484.5
 10
3966
 20
2501
 10
3994
 20
2501
 10
4022
 20
2501
 10
4022
 20
2484.5
 10
4022
 20
2468
 10
4051.5
 20
2468
 10
4081
 20
2468
 10
4081
 20
2484.5
 10
4081
 20
2501
 10
4108.5
 20
2501
 10
4136
 20
2501
 10
4136
 20
2484.5
 10
4136
 20
2468
 10
4166
 20
2468
 10
4196
 20
2468
 10
4196
 20
2484.5
 10
4196
 20
2501
 10
4223.5
 20
2501
 10
4251
 20
2501
 10
4251
 20
2484.5
 10
4251
 20
2468
 10
4280.5
 20
2468
 10
4310
 20
2468
 10
4310
 20
2484.5
 10
4310
 20
2501
 10
4338
 20
2501
 10
4366
 20
2501
 10
4366
 20
2484.5
 10
4366
 20
2468
 10
4395.5
 20
2468
 10
4425
 20
2468
 10
4425
 20
2484.5
 10
4425
 20
2501
 10
4452.5
 20
2501
 10
4480
 20
2501
 10
4480
 20
2484.5
 10
4480
 20
2468
 10
4510
 20
2468
 10
4540
 20
2468
 10
4540
 20
2484.5
 10
4540
 20
2501
 10
4567.5
 20
2501
 10
4595
 20
2501
 10
4595
 20
2484.5
 10
4595
 20
2468
 10
4624.5
 20
2468
 10
4654
 20
2468
 10
4654
 20
2484.5
 10
4654
 20
2501
 10
4682
 20
2501
 10
4710
 20
2501
 10
4710
 20
2484.5
 10
4710
 20
2468
 10
4739.5
 20
2468
 10
4769
 20
2468
 10
4769
 20
2484.5
 10
4769
 20
2501
 10
4796.5
 20
2501
 10
4824
 20
2501
 10
4824
 20
2484.5
 10
4824
 20
2468
 10
4854
 20
2468
 10
4884
 20
2468
 10
4884
 20
2484.5
 10
4884
 20
2501
 10
4911.5
 20
2501
 10
4939
 20
2501
 10
4939
 20
2484.5
 10
4939
 20
2468
 10
4969
 20
2468
 10
4999
 20
2468
 10
4999
 20
2484.5
 10
4999
 20
2501
 10
5026.5
 20
2501
 10
5054
 20
2501
 10
5054
 20
2484.5
 10
5054
 20
2468
 10
5083.5
 20
2468
 10
5113
 20
2468
 10
5113
 20
2484.5
 10
5113
 20
2501
 10
5140.5
 20
2501
 10
5168
 20
2501
 10
5168
 20
2484.5
 10
5168
 20
2468
 10
5196.5
 20
2468
 10
5225
 20
2468
 10
5225
 20
2439
 10
5225
 20
2410
 10
5208.5
 20
2410
 10
5192
 20
2410
 10
5192
 20
2378.5
 10
5192
 20
2347
 10
5208.5
 20
2347
 10
5225
 20
2347
 10
5225
 20
2318
 10
5225
 20
2289
 10
5208.5
 20
2289
 10
5192
 20
2289
 10
5192
 20
2257.5
 10
5192
 20
2226
 10
5208.5
 20
2226
 10
5225
 20
2226
 10
5225
 20
2196.5
 10
5225
 20
2167
 10
5208.5
 20
2167
 10
5192
 20
2167
 10
5192
 20
2136
 10
5192
 20
2105
 10
5208.5
 20
2105
 10
5225
 20
2105
 10
5225
 20
2075.5
 10
5225
 20
2046
 10
5208.5
 20
2046
 10
5192
 20
2046
 10
5192
 20
2014.5
 10
5192
 20
1983
 10
5208.5
 20
1983
 10
5225
 20
1983
 10
5225
 20
1954
 10
5225
 20
1925
 10
5208.5
 20
1925
 10
5192
 20
1925
 10
5192
 20
1893.5
 10
5192
 20
1862
 10
5208.5
 20
1862
 10
5225
 20
1862
 10
5225
 20
1833
 10
5225
 20
1804
 10
5208.5
 20
1804
 10
5192
 20
1804
 10
5192
 20
1772.5
 10
5192
 20
1741
 10
5208.5
 20
1741
 10
5225
 20
1741
 10
5225
 20
1711.5
 10
5225
 20
1682
 10
5208.5
 20
1682
 10
5192
 20
1682
 10
5192
 20
1651
 10
5192
 20
1620
 10
5208.5
 20
1620
 10
5225
 20
1620
 10
5225
 20
1590.5
 10
5225
 20
1561
 10
5208.5
 20
1561
 10
5192
 20
1561
 10
5192
 20
1529.5
 10
5192
 20
1498
 10
5208.5
 20
1498
 10
5225
 20
1498
 10
5225
 20
1469
 10
5225
 20
1440
 10
5208.5
 20
1440
 10
5192
 20
1440
 10
5192
 20
1408.5
 10
5192
 20
1377
 10
5208.5
 20
1377
 10
5225
 20
1377
 10
5225
 20
1348
 10
5225
 20
1319
 10
5196.5
 20
1319
 10
5168
 20
1319
 10
5168
 20
1302.5
 10
5168
 20
1286
 10
5140.5
 20
1286
 10
5113
 20
1286
 10
5113
 20
1302.5
 10
5113
 20
1319
 10
5083.5
 20
1319
 10
5054
 20
1319
 10
5054
 20
1302.5
 10
5054
 20
1286
 10
5026.5
 20
1286
 10
4999
 20
1286
 10
4999
 20
1302.5
 10
4999
 20
1319
 10
4969
 20
1319
 10
4939
 20
1319
 10
4939
 20
1302.5
 10
4939
 20
1286
 10
4911.5
 20
1286
 10
4884
 20
1286
 10
4884
 20
1302.5
 10
4884
 20
1319
 10
4854
 20
1319
 10
4824
 20
1319
 10
4824
 20
1302.5
 10
4824
 20
1286
 10
4796.5
 20
1286
 10
4769
 20
1286
 10
4769
 20
1302.5
 10
4769
 20
1319
 10
4739.5
 20
1319
 10
4710
 20
1319
 10
4710
 20
1302.484181
 10
4710
 20
1285.968363
 10
4682.25
 20
1286.234181
 10
4654.5
 20
1286.5
 10
4654.225229
 20
1302.75
 10
4653.950457
 20
1319
 10
4624.475229
 20
1319
 10
4595
 20
1319
 10
4595
 20
1302.5
 10
4595
 20
1286
 10
4567.5
 20
1286
 10
4540
 20
1286
 10
4540
 20
1302.5
 10
4540
 20
1319
 10
4510
 20
1319
 10
4480
 20
1319
 10
4480
 20
1302.5
 10
4480
 20
1286
 10
4452.5
 20
1286
 10
4425
 20
1286
 10
4425
 20
1302.5
 10
4425
 20
1319
 10
4395.5
 20
1319
 10
4366
 20
1319
 10
4366
 20
1302.484181
 10
4366
 20
1285.968363
 10
4338.25
 20
1286.234181
 10
4310.5
 20
1286.5
 10
4310.225229
 20
1302.75
 10
4309.950457
 20
1319
 10
4280.475229
 20
1319
 10
4251
 20
1319
 10
4251
 20
1302.5
 10
4251
 20
1286
 10
4223.5
 20
1286
 10
4196
 20
1286
 10
4196
 20
1302.5
 10
4196
 20
1319
 10
4166
 20
1319
 10
4136
 20
1319
 10
4136
 20
1302.5
 10
4136
 20
1286
 10
4108.5
 20
1286
 10
4081
 20
1286
 10
4081
 20
1302.5
 10
4081
 20
1319
 10
4051.5
 20
1319
 10
4022
 20
1319
 10
4022
 20
1302.5
 10
4022
 20
1286
 10
3994
 20
1286
 10
3966
 20
1286
 10
3966
 20
1302.5
 10
3966
 20
1319
 10
3936.5
 20
1319
 10
3907
 20
1319
 10
3907
 20
1302.5
 10
3907
 20
1286
 10
3879.5
 20
1286
 10
3852
 20
1286
 10
3852
 20
1302.5
 10
3852
 20
1319
 10
3822
 20
1319
 10
3792
 20
1319
 10
3792
 20
1302.5
 10
3792
 20
1286
 10
3764.5
 20
1286
 10
3737
 20
1286
 10
3737
 20
1302.5
 10
3737
 20
1319
 10
3707.5
 20
1319
 10
3678
 20
1319
 10
3678
 20
1302.5
 10
3678
 20
1286
 10
3650
 20
1286
 10
3622
 20
1286
 10
3622
 20
1302.5
 10
3622
 20
1319
 10
3592.5
 20
1319
 10
3563
 20
1319
 10
3563
 20
1302.5
 10
3563
 20
1286
 10
3535.5
 20
1286
 10
3508
 20
1286
 10
3508
 20
1302.5
 10
3508
 20
1319
 10
3478
 20
1319
 10
3448
 20
1319
 10
3448
 20
1302.5
 10
3448
 20
1286
 10
3420.5
 20
1286
 10
3393
 20
1286
 10
3393
 20
1302.5
 10
3393
 20
1319
 10
3363.5
 20
1319
 10
3334
 20
1319
 10
3334
 20
1302.5
 10
3334
 20
1286
 10
3306
 20
1286
 10
3278
 20
1286
 10
3278
 20
1302.5
 10
3278
 20
1319
 10
3248.5
 20
1319
 10
3219
 20
1319
 10
3219
 20
1302.5
 10
3219
 20
1286
 10
3191.5
 20
1286
 10
3164
 20
1286
 10
3164
 20
1302.5
 10
3164
 20
1319
 10
3134
 20
1319
 10
3104
 20
1319
 10
3104
 20
1302.5
 10
3104
 20
1286
 10
3076.5
 20
1286
 10
3049
 20
1286
 10
3049
 20
1302.5
 10
3049
 20
1319
 10
3019.5
 20
1319
 10
2990
 20
1319
 10
2990
 20
1302.5
 10
2990
 20
1286
 10
2962
 20
1286
 10
2934
 20
1286
 10
2934
 20
1302.5
 10
2934
 20
1319
 10
2904.5
 20
1319
 10
2875
 20
1319
 10
2875
 20
1302.5
 10
2875
 20
1286
 10
2847.5
 20
1286
 10
2820
 20
1286
 10
2820
 20
1302.5
 10
2820
 20
1319
 10
2790
 20
1319
 10
2760
 20
1319
 10
2760
 20
1302.5
 10
2760
 20
1286
 10
2732.5
 20
1286
 10
2705
 20
1286
 10
2705
 20
1302.5
 10
2705
 20
1319
 10
2676.5
 20
1319
 10
2648
 20
1319
 10
2648
 20
1348
 10
2648
 20
1377
 10
2664.5
 20
1377
 10
2681
 20
1377
 10
2681
 20
1408.5
 10
2681
 20
1440
 10
2664.5
 20
1440
 10
2648
 20
1440
 10
2648
 20
1469
 10
2648
 20
1498
 10
2664.5
 20
1498
 10
2681
 20
1498
 10
2681
 20
1529.5
 10
2681
 20
1561
 10
2664.5
 20
1561
 10
2648
 20
1561
 10
2648
 20
1590.5
 10
2648
 20
1620
 10
2664.5
 20
1620
 10
2681
 20
1620
 10
2681
 20
1650.975229
 10
2681
 20
1681.950457
 10
2664.75
 20
1682.225229
 10
2648.5
 20
1682.5
 10
2648.234895
 20
1711.75
 10
2647.969791
 20
1741
 10
2664.484895
 20
1741
 10
2681
 20
1741
 10
2681
 20
1772.5
 10
2681
 20
1804
 10
2664.5
 20
1804
 10
2648
 20
1804
 10
2648
 20
1833
 10
2648
 20
1862
 10
2664.5
 20
1862
 10
2681
 20
1862
 10
2681
 20
1893.5
 10
2681
 20
1925
 10
2664.5
 20
1925
 10
2648
 20
1925
 10
2648
 20
1954
 10
2648
 20
1983
 10
2664.5
 20
1983
 10
2681
 20
1983
 10
2681
 20
2014.5
 10
2681
 20
2046
 10
2664.484895
 20
2046
 10
2647.969791
 20
2046
 10
2648.234895
 20
2075.25
 10
2648.5
 20
2104.5
 10
2664.75
 20
2104.774771
 10
2681
 20
2105.049543
 10
2681
 20
2136
 10
2681
 20
2166.950457
 10
2664.75
 20
2167.225229
 10
2648.5
 20
2167.5
 10
2648.234895
 20
2196.75
 10
2647.969791
 20
2226
 10
2664.484895
 20
2226
 10
2681
 20
2226
 10
2681
 20
2257.5
 10
2681
 20
2289
 10
2664.5
 20
2289
 10
2648
 20
2289
 10
2648
 20
2318
 10
2648
 20
2347
 10
2664.5
 20
2347
 10
2681
 20
2347
 10
2681
 20
2378.5
 10
2681
 20
2410
 10
2664.5
 20
2410
 10
2648
 20
2410
 10
2648
 20
2439
 10
2648
 20
2468
 10
2676.5
 20
2468
 10
2705
 20
2468
 10
2705
 20
2484.5
 10
2705
 20
2501
 10
2732.5
 20
2501
 10
2760
 20
2501
  0
LWPOLYLINE
  5
52
100
AcDbEntity
  8
0
  6
ByLayer
 62
  256
370
   -1
100
AcDbPolyline
 90
  392
 70
    1
 43
0
 10
148.774179
 20
1232.75
 10
149.048358
 20
1216
 10
179.024179
 20
1216
 10
209
 20
1216
 10
209
 20
1233
 10
209
 20
1250
 10
237
 20
1250
 10
265
 20
1250
 10
265
 20
1233
 10
265
 20
1216
 10
294.975821
 20
1216
 10
324.951642
 20
1216
 10
325.225821
 20
1232.75
 10
325.5
 20
1249.5
 10
353.22575
 20
1249.765776
 10
380.951499
 20
1250.031552
 10
381.22575
 20
1233.265776
 10
381.5
 20
1216.5
 10
411.5
 20
1216.5
 10
441.5
 20
1216.5
 10
441.774179
 20
1233.25
 10
442.048358
 20
1250
 10
470.024179
 20
1250
 10
498
 20
1250
 10
498
 20
1233
 10
498
 20
1216
 10
527.975821
 20
1216
 10
557.951642
 20
1216
 10
558.225821
 20
1232.75
 10
558.5
 20
1249.5
 10
586.2257499999999
 20
1249.765776
 10
613.951499
 20
1250.031552
 10
614.2257499999999
 20
1233.265776
 10
614.5
 20
1216.5
 10
644.5
 20
1216.5
 10
674.5
 20
1216.5
 10
674.774179
 20
1233.25
 10
675.048358
 20
1250
 10
703.024179
 20
1250
 10
731
 20
1250
 10
731
 20
1233
 10
731
 20
1216
 10
761
 20
1216
 10
791
 20
1216
 10
791
 20
1233
 10
791
 20
1250
 10
818.975821
 20
1250
 10
846.951642
 20
1250
 10
847.225821
 20
1233.25
 10
847.5
 20
1216.5
 10
877.5
 20
1216.5
 10
907.5
 20
1216.5
 10
907.774179
 20
1233.25
 10
908.048358
 20
1250
 10
936.024179
 20
1250
 10
964
 20
1250
 10
964
 20
1233
 10
964
 20
1216
 10
994
 20
1216
 10
1024
 20
1216
 10
1024
 20
1233
 10
1024
 20
1250
 10
1051.975821
 20
1250
 10
1079.951642
 20
1250
 10
1080.225821
 20
1233.25
 10
1080.5
 20
1216.5
 10
1110.5
 20
1216.5
 10
1140.5
 20
1216.5
 10
1140.77425
 20
1233.265776
 10
1141.048501
 20
1250.031552
 10
1168.77425
 20
1249.765776
 10
1196.5
 20
1249.5
 10
1196.774179
 20
1232.75
 10
1197.048358
 20
1216
 10
1227.024179
 20
1216
 10
1257
 20
1216
 10
1257
 20
1233
 10
1257
 20
1250
 10
1284.975821
 20
1250
 10
1312.951642
 20
1250
 10
1313.225821
 20
1233.25
 10
1313.5
 20
1216.5
 10
1343.5
 20
1216.5
 10
1373.5
 20
1216.5
 10
1373.77425
 20
1233.265776
 10
1374.048501
 20
1250.031552
 10
1401.77425
 20
1249.765776
 10
1429.5
 20
1249.5
 10
1429.774179
 20
1232.75
 10
1430.048358
 20
1216
 10
1460.024179
 20
1216
 10
1490
 20
1216
 10
1490
 20
1233
 10
1490
 20
1250
 10
1518
 20
1250
 10
1546
 20
1250
 10
1546
 20
1233
 10
1546
 20
1216
 10
1575.975821
 20
1216
 10
1605.951642
 20
1216
 10
1606.225821
 20
1232.75
 10
1606.5
 20
1249.5
 10
1634.22575
 20
1249.765776
 10
1661.951499
 20
1250.031552
 10
1662.22575
 20
1233.265776
 10
1662.5
 20
1216.5
 10
1692.5
 20
1216.5
 10
1722.5
 20
1216.5
 10
1722.774179
 20
1233.25
 10
1723.048358
 20
1250
 10
1751.024179
 20
1250
 10
1779
 20
1250
 10
1779
 20
1233
 10
1779
 20
1216
 10
1790.985119
 20
1216
 10
1802.970239
 20
1216
 10
1803.235119
 20
1186.25
 10
1803.5
 20
1156.5
 10
1820.25
 20
1156.225821
 10
1837
 20
1155.951642
 10
1837
 20
1126.975821
 10
1837
 20
1098
 10
1819.985753
 20
1098
 10
1802.971507
 20
1098
 10
1803.235753
 20
1066.75
 10
1803.5
 20
1035.5
 10
1820.25
 20
1035.225821
 10
1837
 20
1034.951642
 10
1837
 20
1006
 10
1837
 20
977.048358
 10
1820.25
 20
976.774179
 10
1803.5
 20
976.5
 10
1803.235753
 20
945.25
 10
1802.971507
 20
914
 10
1820.000858
 20
914
 10
1837.030209
 20
914
 10
1836.765105
 20
884.75
 10
1836.5
 20
855.5
 10
1819.75
 20
855.225821
 10
1803
 20
854.951642
 10
1803
 20
824
 10
1803
 20
793.048358
 10
1819.75
 20
792.774179
 10
1836.5
 20
792.5
 10
1836.5
 20
763.5
 10
1836.5
 20
734.5
 10
1819.735787
 20
734.225757
 10
1802.971575
 20
733.951513
 10
1803.235787
 20
702.725757
 10
1803.5
 20
671.5
 10
1820.25
 20
671.225821
 10
1837
 20
670.951642
 10
1837
 20
641.975821
 10
1837
 20
613
 10
1819.985753
 20
613
 10
1802.971507
 20
613
 10
1803.235753
 20
581.75
 10
1803.5
 20
550.5
 10
1820.25
 20
550.225821
 10
1837
 20
549.951642
 10
1837
 20
521
 10
1837
 20
492.048358
 10
1820.25
 20
491.774179
 10
1803.5
 20
491.5
 10
1803.235753
 20
460.25
 10
1802.971507
 20
429
 10
1819.985753
 20
429
 10
1837
 20
429
 10
1837
 20
400.024179
 10
1837
 20
371.048358
 10
1820.25
 20
370.774179
 10
1803.5
 20
370.5
 10
1803.235753
 20
339.25
 10
1802.971507
 20
308
 10
1820.000858
 20
308
 10
1837.030209
 20
308
 10
1836.765105
 20
278.75
 10
1836.5
 20
249.5
 10
1819.75
 20
249.225821
 10
1803
 20
248.951642
 10
1803
 20
218
 10
1803
 20
187.048358
 10
1819.75
 20
186.774179
 10
1836.5
 20
186.5
 10
1836.765105
 20
157.25
 10
1837.030209
 20
128
 10
1820.015105
 20
128
 10
1803
 20
128
 10
1803
 20
98
 10
1803
 20
68
 10
1791
 20
68
 10
1779
 20
68
 10
1779
 20
51.5
 10
1779
 20
35
 10
1751
 20
35
 10
1723
 20
35
 10
1723
 20
51.5
 10
1723
 20
68
 10
1692.5
 20
68
 10
1662
 20
68
 10
1662
 20
51.5
 10
1662
 20
35
 10
1634
 20
35
 10
1606
 20
35
 10
1606
 20
51.5
 10
1606
 20
68
 10
1576
 20
68
 10
1546
 20
68
 10
1546
 20
51.5
 10
1546
 20
35
 10
1518
 20
35
 10
1490
 20
35
 10
1490
 20
51.5
 10
1490
 20
68
 10
1460
 20
68
 10
1430
 20
68
 10
1430
 20
51.5
 10
1430
 20
35
 10
1402
 20
35
 10
1374
 20
35
 10
1374
 20
51.5
 10
1374
 20
68
 10
1343.5
 20
68
 10
1313
 20
68
 10
1313
 20
51.5
 10
1313
 20
35
 10
1285
 20
35
 10
1257
 20
35
 10
1257
 20
51.5
 10
1257
 20
68
 10
1227
 20
68
 10
1197
 20
68
 10
1197
 20
51.5
 10
1197
 20
35
 10
1169
 20
35
 10
1141
 20
35
 10
1141
 20
51.5
 10
1141
 20
68
 10
1110.5
 20
68
 10
1080
 20
68
 10
1080
 20
51.5
 10
1080
 20
35
 10
1052
 20
35
 10
1024
 20
35
 10
1024
 20
51.5
 10
1024
 20
68
 10
994
 20
68
 10
964
 20
68
 10
964
 20
51.5
 10
964
 20
35
 10
936
 20
35
 10
908
 20
35
 10
908
 20
51.5
 10
908
 20
68
 10
877.5
 20
68
 10
847
 20
68
 10
847
 20
51.5
 10
847
 20
35
 10
819
 20
35
 10
791
 20
35
 10
791
 20
51.5
 10
791
 20
68
 10
761
 20
68
 10
731
 20
68
 10
731
 20
51.5
 10
731
 20
35
 10
703
 20
35
 10
675
 20
35
 10
675
 20
51.5
 10
675
 20
68
 10
644.5
 20
68
 10
614
 20
68
 10
614
 20
51.5
 10
614
 20
35
 10
586
 20
35
 10
558
 20
35
 10
558
 20
51.5
 10
558
 20
68
 10
528
 20
68
 10
498
 20
68
 10
498
 20
51.5
 10
498
 20
35
 10
470
 20
35
 10
442
 20
35
 10
442
 20
51.5
 10
442
 20
68
 10
411.5
 20
68
 10
381
 20
68
 10
381
 20
51.5
 10
381
 20
35
 10
353
 20
35
 10
325
 20
35
 10
325
 20
51.5
 10
325
 20
68
 10
295
 20
68
 10
265
 20
68
 10
265
 20
51.5
 10
265
 20
35
 10
237
 20
35
 10
209
 20
35
 10
209
 20
51.5
 10
209
 20
68
 10
179
 20
68
 10
149
 20
68
 10
149
 20
51.5
 10
149
 20
35
 10
121
 20
35
 10
93
 20
35
 10
93
 20
51.5
 10
93
 20
68
 10
80.5
 20
68
 10
68
 20
68
 10
68
 20
98
 10
68
 20
128
 10
51.5
 20
128
 10
35
 20
128
 10
35
 20
157.5
 10
35
 20
187
 10
51.5
 20
187
 10
68
 20
187
 10
68
 20
218
 10
68
 20
249
 10
51.5
 20
249
 10
35
 20
249
 10
35
 20
278.5
 10
35
 20
308
 10
51.5
 20
308
 10
68
 20
308
 10
68
 20
339.5
 10
68
 20
371
 10
51.5
 20
371
 10
35
 20
371
 10
35
 20
400
 10
35
 20
429
 10
51.5
 20
429
 10
68
 20
429
 10
68
 20
460.5
 10
68
 20
492
 10
51.5
 20
492
 10
35
 20
492
 10
35
 20
521
 10
35
 20
550
 10
51.5
 20
550
 10
68
 20
550
 10
68
 20
581.5
 10
68
 20
613
 10
51.5
 20
613
 10
35
 20
613
 10
35
 20
642
 10
35
 20
671
 10
51.5
 20
671
 10
68
 20
671
 10
68
 20
702.5
 10
68
 20
734
 10
51.5
 20
734
 10
35
 20
734
 10
35
 20
763.5
 10
35
 20
793
 10
51.5
 20
793
 10
68
 20
793
 10
68
 20
824
 10
68
 20
855
 10
51.5
 20
855
 10
35
 20
855
 10
35
 20
884.5
 10
35
 20
914
 10
51.5
 20
914
 10
68
 20
914
 10
68
 20
945.5
 10
68
 20
977
 10
51.5
 20
977
 10
35
 20
977
 10
35
 20
1006
 10
35
 20
1035
 10
51.5
 20
1035
 10
68
 20
1035
 10
68
 20
1066.5
 10
68
 20
1098
 10
51.5
 20
1098
 10
35
 20
1098
 10
35
 20
1127
 10
35
 20
1156
 10
51.5
 20
1156
 10
68
 20
1156
 10
68
 20
1185.969221
 10
68
 20
1215.938442
 10
80.25
 20
1216.219221
 10
92.5
 20
1216.5
 10
92.77424999999999
 20
1233.265776
 10
93.048501
 20
1250.031552
 10
120.77425
 20
1249.765776
 10
148.5
 20
1249.5
  0
LWPOLYLINE
  5
53
100
AcDbEntity
  8
0
  6
ByLayer
 62
  256
370
   -1
100
AcDbPolyline
 90
  392
 70
    1
 43
0
 10
1987
 20
1233
 10
1987
 20
1216
 10
2017
 20
1216
 10
2047
 20
1216
 10
2047
 20
1233
 10
2047
 20
1250
 10
2074.975821
 20
1250
 10
2102.951642
 20
1250
 10
2103.225821
 20
1233.25
 10
2103.5
 20
1216.5
 10
2133.5
 20
1216.5
 10
2163.5
 20
1216.5
 10
2163.774179
 20
1233.25
 10
2164.048358
 20
1250
 10
2192.024179
 20
1250
 10
2220
 20
1250
 10
2220
 20
1233
 10
2220
 20
1216
 10
2250
 20
1216
 10
2280
 20
1216
 10
2280
 20
1233
 10
2280
 20
1250
 10
2307.975821
 20
1250
 10
2335.951642
 20
1250
 10
2336.225821
 20
1233.25
 10
2336.5
 20
1216.5
 10
2366.5
 20
1216.5
 10
2396.5
 20
1216.5
 10
2396.77425
 20
1233.265776
 10
2397.048501
 20
1250.031552
 10
2424.77425
 20
1249.765776
 10
2452.5
 20
1249.5
 10
2452.774179
 20
1232.75
 10
2453.048358
 20
1216
 10
2483.024179
 20
1216
 10
2513
 20
1216
 10
2513
 20
1233
 10
2513
 20
1250
 10
2540.975821
 20
1250
 10
2568.951642
 20
1250
 10
2569.225821
 20
1233.25
 10
2569.5
 20
1216.5
 10
2599.225754
 20
1216.235157
 10
2628.951508
 20
1215.970313
 10
2629.225754
 20
1232.735157
 10
2629.5
 20
1249.5
 10
2657.5
 20
1249.5
 10
2685.5
 20
1249.5
 10
2685.774246
 20
1232.735157
 10
2686.048492
 20
1215.970313
 10
2715.774246
 20
1216.235157
 10
2745.5
 20
1216.5
 10
2745.774179
 20
1233.25
 10
2746.048358
 20
1250
 10
2774.024179
 20
1250
 10
2802
 20
1250
 10
2802
 20
1233
 10
2802
 20
1216
 10
2831.975821
 20
1216
 10
2861.951642
 20
1216
 10
2862.225821
 20
1232.75
 10
2862.5
 20
1249.5
 10
2890.22575
 20
1249.765776
 10
2917.951499
 20
1250.031552
 10
2918.22575
 20
1233.265776
 10
2918.5
 20
1216.5
 10
2948.5
 20
1216.5
 10
2978.5
 20
1216.5
 10
2978.774179
 20
1233.25
 10
2979.048358
 20
1250
 10
3007.024179
 20
1250
 10
3035
 20
1250
 10
3035
 20
1233
 10
3035
 20
1216
 10
3065
 20
1216
 10
3095
 20
1216
 10
3095
 20
1233
 10
3095
 20
1250
 10
3122.975821
 20
1250
 10
3150.951642
 20
1250
 10
3151.225821
 20
1233.25
 10
3151.5
 20
1216.5
 10
3181.5
 20
1216.5
 10
3211.5
 20
1216.5
 10
3211.774179
 20
1233.25
 10
3212.048358
 20
1250
 10
3240.024179
 20
1250
 10
3268
 20
1250
 10
3268
 20
1233
 10
3268
 20
1216
 10
3298
 20
1216
 10
3328
 20
1216
 10
3328
 20
1233
 10
3328
 20
1250
 10
3355.975821
 20
1250
 10
3383.951642
 20
1250
 10
3384.225821
 20
1233.25
 10
3384.5
 20
1216.5
 10
3414.5
 20
1216.5
 10
3444.5
 20
1216.5
 10
3444.774179
 20
1233.25
 10
3445.048358
 20
1250
 10
3473.024179
 20
1250
 10
3501
 20
1250
 10
3501
 20
1233
 10
3501
 20
1216
 10
3531
 20
1216
 10
3561
 20
1216
 10
3561
 20
1233
 10
3561
 20
1250
 10
3588.975821
 20
1250
 10
3616.951642
 20
1250
 10
3617.225821
 20
1233.25
 10
3617.5
 20
1216.5
 10
3629.75
 20
1216.219221
 10
3642
 20
1215.938442
 10
3642
 20
1185.969221
 10
3642
 20
1156
 10
3658.5
 20
1156
 10
3675
 20
1156
 10
3675
 20
1127
 10
3675
 20
1098
 10
3658.5
 20
1098
 10
3642
 20
1098
 10
3642
 20
1066.5
 10
3642
 20
1035
 10
3658.5
 20
1035
 10
3675
 20
1035
 10
3675
 20
1006
 10
3675
 20
977
 10
3658.5
 20
977
 10
3642
 20
977
 10
3642
 20
945.5
 10
3642
 20
914
 10
3658.515105
 20
914
 10
3675.030209
 20
914
 10
3674.765105
 20
884.75
 10
3674.5
 20
855.5
 10
3658.25
 20
855.225229
 10
3642
 20
854.950457
 10
3642
 20
823.975229
 10
3642
 20
793
 10
3658.5
 20
793
 10
3675
 20
793
 10
3675
 20
763.5
 10
3675
 20
734
 10
3658.5
 20
734
 10
3642
 20
734
 10
3642
 20
702.5
 10
3642
 20
671
 10
3658.5
 20
671
 10
3675
 20
671
 10
3675
 20
642
 10
3675
 20
613
 10
3658.5
 20
613
 10
3642
 20
613
 10
3642
 20
581.5
 10
3642
 20
550
 10
3658.5
 20
550
 10
3675
 20
550
 10
3675
 20
521
 10
3675
 20
492
 10
3658.5
 20
492
 10
3642
 20
492
 10
3642
 20
460.5
 10
3642
 20
429
 10
3658.5
 20
429
 10
3675
 20
429
 10
3675
 20
400
 10
3675
 20
371
 10
3658.5
 20
371
 10
3642
 20
371
 10
3642
 20
339.5
 10
3642
 20
308
 10
3658.5
 20
308
 10
3675
 20
308
 10
3675
 20
278.5
 10
3675
 20
249
 10
3658.5
 20
249
 10
3642
 20
249
 10
3642
 20
218
 10
3642
 20
187
 10
3658.5
 20
187
 10
3675
 20
187
 10
3675
 20
157.5
 10
3675
 20
128
 10
3658.5
 20
128
 10
3642
 20
128
 10
3642
 20
98
 10
3642
 20
68
 10
3629.5
 20
68
 10
3617
 20
68
 10
3617
 20
51.5
 10
3617
 20
35
 10
3589
 20
35
 10
3561
 20
35
 10
3561
 20
51.5
 10
3561
 20
68
 10
3531
 20
68
 10
3501
 20
68
 10
3501
 20
51.5
 10
3501
 20
35
 10
3473
 20
35
 10
3445
 20
35
 10
3445
 20
51.5
 10
3445
 20
68
 10
3414.5
 20
68
 10
3384
 20
68
 10
3384
 20
51.5
 10
3384
 20
35
 10
3356
 20
35
 10
3328
 20
35
 10
3328
 20
51.5
 10
3328
 20
68
 10
3298
 20
68
 10
3268
 20
68
 10
3268
 20
51.5
 10
3268
 20
35
 10
3240
 20
35
 10
3212
 20
35
 10
3212
 20
51.5
 10
3212
 20
68
 10
3181.5
 20
68
 10
3151
 20
68
 10
3151
 20
51.5
 10
3151
 20
35
 10
3123
 20
35
 10
3095
 20
35
 10
3095
 20
51.5
 10
3095
 20
68
 10
3065
 20
68
 10
3035
 20
68
 10
3035
 20
51.5
 10
3035
 20
35
 10
3007
 20
35
 10
2979
 20
35
 10
2979
 20
51.5
 10
2979
 20
68
 10
2948.5
 20
68
 10
2918
 20
68
 10
2918
 20
51.5
 10
2918
 20
35
 10
2890
 20
35
 10
2862
 20
35
 10
2862
 20
51.5
 10
2862
 20
68
 10
2832
 20
68
 10
2802
 20
68
 10
2802
 20
51.5
 10
2802
 20
35
 10
2774
 20
35
 10
2746
 20
35
 10
2746
 20
51.5
 10
2746
 20
68
 10
2716
 20
68
 10
2686
 20
68
 10
2686
 20
51.5
 10
2686
 20
35
 10
2657.5
 20
35
 10
2629
 20
35
 10
2629
 20
51.5
 10
2629
 20
68
 10
2599
 20
68
 10
2569
 20
68
 10
2569
 20
51.5
 10
2569
 20
35
 10
2541
 20
35
 10
2513
 20
35
 10
2513
 20
51.5
 10
2513
 20
68
 10
2483
 20
68
 10
2453
 20
68
 10
2453
 20
51.5
 10
2453
 20
35
 10
2425
 20
35
 10
2397
 20
35
 10
2397
 20
51.5
 10
2397
 20
68
 10
2366.5
 20
68
 10
2336
 20
68
 10
2336
 20
51.5
 10
2336
 20
35
 10
2308
 20
35
 10
2280
 20
35
 10
2280
 20
51.5
 10
2280
 20
68
 10
2250
 20
68
 10
2220
 20
68
 10
2220
 20
51.5
 10
2220
 20
35
 10
2192
 20
35
 10
2164
 20
35
 10
2164
 20
51.5
 10
2164
 20
68
 10
2133.5
 20
68
 10
2103
 20
68
 10
2103
 20
51.5
 10
2103
 20
35
 10
2075
 20
35
 10
2047
 20
35
 10
2047
 20
51.5
 10
2047
 20
68
 10
2017
 20
68
 10
1987
 20
68
 10
1987
 20
51.5
 10
1987
 20
35
 10
1959
 20
35
 10
1931
 20
35
 10
1931
 20
51.5
 10
1931
 20
68
 10
1918.5
 20
68
 10
1906
 20
68
 10
1906
 20
98
 10
1906
 20
128
 10
1889.5
 20
128
 10
1873
 20
128
 10
1873
 20
157.5
 10
1873
 20
187
 10
1889.5
 20
187
 10
1906
 20
187
 10
1906
 20
218
 10
1906
 20
249
 10
1889.5
 20
249
 10
1873
 20
249
 10
1873
 20
278.5
 10
1873
 20
308
 10
1889.5
 20
308
 10
1906
 20
308
 10
1906
 20
339.5
 10
1906
 20
371
 10
1889.5
 20
371
 10
1873
 20
371
 10
1873
 20
400
 10
1873
 20
429
 10
1889.5
 20
429
 10
1906
 20
429
 10
1906
 20
460.5
 10
1906
 20
492
 10
1889.5
 20
492
 10
1873
 20
492
 10
1873
 20
521
 10
1873
 20
550
 10
1889.5
 20
550
 10
1906
 20
550
 10
1906
 20
581.5
 10
1906
 20
613
 10
1889.5
 20
613
 10
1873
 20
613
 10
1873
 20
642
 10
1873
 20
671
 10
1889.5
 20
671
 10
1906
 20
671
 10
1906
 20
702.5
 10
1906
 20
734
 10
1889.5
 20
734
 10
1873
 20
734
 10
1873
 20
763.5
 10
1873
 20
793
 10
1889.5
 20
793
 10
1906
 20
793
 10
1906
 20
824
 10
1906
 20
855
 10
1889.5
 20
855
 10
1873
 20
855
 10
1873
 20
884.5
 10
1873
 20
914
 10
1889.5
 20
914
 10
1906
 20
914
 10
1906
 20
945.5
 10
1906
 20
977
 10
1889.5
 20
977
 10
1873
 20
977
 10
1873
 20
1006
 10
1873
 20
1035
 10
1889.5
 20
1035
 10
1906
 20
1035
 10
1906
 20
1066.5
 10
1906
 20
1098
 10
1889.5
 20
1098
 10
1873
 20
1098
 10
1873
 20
1127
 10
1873
 20
1156
 10
1889.5
 20
1156
 10
1906
 20
1156
 10
1906
 20
1185.969221
 10
1906
 20
1215.938442
 10
1918.25
 20
1216.219221
 10
1930.5
 20
1216.5
 10
1930.774179
 20
1233.25
 10
1931.048358
 20
1250
 10
1959.024179
 20
1250
 10
1987
 20
1250
  0
ENDSEC
  0
SECTION
  2
OBJECTS
  0
DICTIONARY
  5
C
330
0
100
AcDbDictionary
281
    1
  3
ACAD_GROUP
350
D
  0
DICTIONARY
  5
D
330
C
100
AcDbDictionary
281
    1
  0
ENDSEC
  0
EOF
