<?xml version="1.0" encoding="UTF-8" standalone="no"?>
		<svg xmlns:dc="http://purl.org/dc/elements/1.1/" xmlns:cc="http://creativecommons.org/ns#" xmlns:rdf="http://www.w3.org/1999/02/22-rdf-syntax-ns#" xmlns:svg="http://www.w3.org/2000/svg" xmlns="http://www.w3.org/2000/svg" xmlns:sodipodi="http://sodipodi.sourceforge.net/DTD/sodipodi-0.dtd" xmlns:inkscape="http://www.inkscape.org/namespaces/inkscape" width="1683.0708661417323" height="1399.6062992125985" id="box" version="1.1" inkscape:version="0.48.3.1 r9886" sodipodi:docname="dessin.svg">
			<defs id="defs4"></defs>
			<sodipodi:namedview id="base" pagecolor="#ffffff" bordercolor="#666666" borderopacity="1.0" inkscape:pageopacity="0.0" inkscape:pageshadow="2" inkscape:document-units="mm" inkscape:current-layer="layer1" showgrid="false" fit-margin-top="0" fit-margin-left="0" fit-margin-right="0" fit-margin-bottom="0" units="mm" inkscape:window-maximized="1"></sodipodi:namedview>
			<metadata id="metadata7">
				<rdf:rdf>
					<cc:work rdf:about="">
						<dc:format>image/svg+xml</dc:format>
						<dc:type rdf:resource="http://purl.org/dc/dcmitype/StillImage"></dc:type>
						<dc:title></dc:title>
					</cc:work>
				</rdf:rdf>
			</metadata>
			<g inkscape:label="Calque 1" inkscape:groupmode="layer" id="layer1"><path style="fill:#ffffff;stroke:#ff0000" id="bottom" transform="translate(10.62992125984252,10.62992125984252)" d="m 0,0 18.523622047244096,0 0,10.62992125984252 17.99212598425197,0 0,-10.62992125984252 18.700787401574804,0 0,10.62992125984252 17.99212598425197,0 0,-10.62992125984252 18.700787401574804,0 0,10.62992125984252 17.99212598425197,0 0,-10.62992125984252 18.700787401574804,0 0,10.62992125984252 17.99212598425197,0 0,-10.62992125984252 18.700787401574804,0 0,10.62992125984252 17.99212598425197,0 0,-10.62992125984252 18.700787401574804,0 0,10.62992125984252 17.99212598425197,0 0,-10.62992125984252 18.700787401574804,0 0,10.62992125984252 17.99212598425197,0 0,-10.62992125984252 18.700787401574804,0 0,10.62992125984252 17.99212598425197,0 0,-10.62992125984252 18.700787401574804,0 0,10.62992125984252 17.99212598425197,0 0,-10.62992125984252 18.700787401574804,0 0,10.62992125984252 17.99212598425197,0 0,-10.62992125984252 18.700787401574804,0 0,10.62992125984252 17.99212598425197,0 0,-10.62992125984252 18.700787401574804,0 0,10.62992125984252 17.99212598425197,0 0,-10.62992125984252 18.700787401574804,0 0,10.62992125984252 17.99212598425197,0 0,-10.62992125984252 18.700787401574804,0 0,10.62992125984252 17.99212598425197,0 0,-10.62992125984252 18.700787401574804,0 0,10.62992125984252 17.99212598425197,0 0,-10.62992125984252 18.700787401574804,0 0,10.62992125984252 17.99212598425197,0 0,-10.62992125984252 18.700787401574804,0 0,10.62992125984252 17.99212598425197,0 0,-10.62992125984252 18.700787401574804,0 0,10.62992125984252 17.99212598425197,0 0,-10.62992125984252 18.700787401574804,0 0,10.62992125984252 17.99212598425197,0 0,-10.62992125984252 18.700787401574804,0 0,10.62992125984252 17.99212598425197,0 0,-10.62992125984252 18.700787401574804,0 0,10.62992125984252 17.99212598425197,0 0,-10.62992125984252 18.700787401574804,0 0,10.62992125984252 17.99212598425197,0 0,-10.62992125984252 18.523622047244096,0 0,18.808102616205232 -10.62992125984252,0 0,18.276606553213107 10.62992125984252,0 0,18.98526797053594 -10.62992125984252,0 0,18.276606553213107 10.62992125984252,0 0,18.98526797053594 -10.62992125984252,0 0,18.276606553213107 10.62992125984252,0 0,18.98526797053594 -10.62992125984252,0 0,18.276606553213107 10.62992125984252,0 0,18.98526797053594 -10.62992125984252,0 0,18.276606553213107 10.62992125984252,0 0,18.98526797053594 -10.62992125984252,0 0,18.276606553213107 10.62992125984252,0 0,18.98526797053594 -10.62992125984252,0 0,18.276606553213107 10.62992125984252,0 0,18.98526797053594 -10.62992125984252,0 0,18.276606553213107 10.62992125984252,0 0,18.98526797053594 -10.62992125984252,0 0,18.276606553213107 10.62992125984252,0 0,18.98526797053594 -10.62992125984252,0 0,18.276606553213107 10.62992125984252,0 0,18.98526797053594 -10.62992125984252,0 0,18.276606553213107 10.62992125984252,0 0,18.98526797053594 -10.62992125984252,0 0,18.276606553213107 10.62992125984252,0 0,18.98526797053594 -10.62992125984252,0 0,18.276606553213107 10.62992125984252,0 0,18.98526797053594 -10.62992125984252,0 0,18.276606553213107 10.62992125984252,0 0,18.98526797053594 -10.62992125984252,0 0,18.276606553213107 10.62992125984252,0 0,18.808102616205232 -18.523622047244096,0 0,-10.62992125984252 -17.99212598425197,0 0,10.62992125984252 -18.700787401574804,0 0,-10.62992125984252 -17.99212598425197,0 0,10.62992125984252 -18.700787401574804,0 0,-10.62992125984252 -17.99212598425197,0 0,10.62992125984252 -18.700787401574804,0 0,-10.62992125984252 -17.99212598425197,0 0,10.62992125984252 -18.700787401574804,0 0,-10.62992125984252 -17.99212598425197,0 0,10.62992125984252 -18.700787401574804,0 0,-10.62992125984252 -17.99212598425197,0 0,10.62992125984252 -18.700787401574804,0 0,-10.62992125984252 -17.99212598425197,0 0,10.62992125984252 -18.700787401574804,0 0,-10.62992125984252 -17.99212598425197,0 0,10.62992125984252 -18.700787401574804,0 0,-10.62992125984252 -17.99212598425197,0 0,10.62992125984252 -18.700787401574804,0 0,-10.62992125984252 -17.99212598425197,0 0,10.62992125984252 -18.700787401574804,0 0,-10.62992125984252 -17.99212598425197,0 0,10.62992125984252 -18.700787401574804,0 0,-10.62992125984252 -17.99212598425197,0 0,10.62992125984252 -18.700787401574804,0 0,-10.62992125984252 -17.99212598425197,0 0,10.62992125984252 -18.700787401574804,0 0,-10.62992125984252 -17.99212598425197,0 0,10.62992125984252 -18.700787401574804,0 0,-10.62992125984252 -17.99212598425197,0 0,10.62992125984252 -18.700787401574804,0 0,-10.62992125984252 -17.99212598425197,0 0,10.62992125984252 -18.700787401574804,0 0,-10.62992125984252 -17.99212598425197,0 0,10.62992125984252 -18.700787401574804,0 0,-10.62992125984252 -17.99212598425197,0 0,10.62992125984252 -18.700787401574804,0 0,-10.62992125984252 -17.99212598425197,0 0,10.62992125984252 -18.700787401574804,0 0,-10.62992125984252 -17.99212598425197,0 0,10.62992125984252 -18.700787401574804,0 0,-10.62992125984252 -17.99212598425197,0 0,10.62992125984252 -18.700787401574804,0 0,-10.62992125984252 -17.99212598425197,0 0,10.62992125984252 -18.523622047244096,0 0,-18.808102616205232 10.62992125984252,0 0,-18.276606553213107 -10.62992125984252,0 0,-18.98526797053594 10.62992125984252,0 0,-18.276606553213107 -10.62992125984252,0 0,-18.98526797053594 10.62992125984252,0 0,-18.276606553213107 -10.62992125984252,0 0,-18.98526797053594 10.62992125984252,0 0,-18.276606553213107 -10.62992125984252,0 0,-18.98526797053594 10.62992125984252,0 0,-18.276606553213107 -10.62992125984252,0 0,-18.98526797053594 10.62992125984252,0 0,-18.276606553213107 -10.62992125984252,0 0,-18.98526797053594 10.62992125984252,0 0,-18.276606553213107 -10.62992125984252,0 0,-18.98526797053594 10.62992125984252,0 0,-18.276606553213107 -10.62992125984252,0 0,-18.98526797053594 10.62992125984252,0 0,-18.276606553213107 -10.62992125984252,0 0,-18.98526797053594 10.62992125984252,0 0,-18.276606553213107 -10.62992125984252,0 0,-18.98526797053594 10.62992125984252,0 0,-18.276606553213107 -10.62992125984252,0 0,-18.98526797053594 10.62992125984252,0 0,-18.276606553213107 -10.62992125984252,0 0,-18.98526797053594 10.62992125984252,0 0,-18.276606553213107 -10.62992125984252,0 0,-18.98526797053594 10.62992125984252,0 0,-18.276606553213107 -10.62992125984252,0 0,-18.98526797053594 10.62992125984252,0 0,-18.276606553213107 -10.62992125984252,0 0,-18.808102616205232 z"></path><path style="fill:#ffffff;stroke:#ff0000" id="top" transform="translate(846.8503937007874,10.62992125984252)" d="m 0,0 18.523622047244096,0 0,10.62992125984252 17.99212598425197,0 0,-10.62992125984252 18.700787401574804,0 0,10.62992125984252 17.99212598425197,0 0,-10.62992125984252 18.700787401574804,0 0,10.62992125984252 17.99212598425197,0 0,-10.62992125984252 18.700787401574804,0 0,10.62992125984252 17.99212598425197,0 0,-10.62992125984252 18.700787401574804,0 0,10.62992125984252 17.99212598425197,0 0,-10.62992125984252 18.700787401574804,0 0,10.62992125984252 17.99212598425197,0 0,-10.62992125984252 18.700787401574804,0 0,10.62992125984252 17.99212598425197,0 0,-10.62992125984252 18.700787401574804,0 0,10.62992125984252 17.99212598425197,0 0,-10.62992125984252 18.700787401574804,0 0,10.62992125984252 17.99212598425197,0 0,-10.62992125984252 18.700787401574804,0 0,10.62992125984252 17.99212598425197,0 0,-10.62992125984252 18.700787401574804,0 0,10.62992125984252 17.99212598425197,0 0,-10.62992125984252 18.700787401574804,0 0,10.62992125984252 17.99212598425197,0 0,-10.62992125984252 18.700787401574804,0 0,10.62992125984252 17.99212598425197,0 0,-10.62992125984252 18.700787401574804,0 0,10.62992125984252 17.99212598425197,0 0,-10.62992125984252 18.700787401574804,0 0,10.62992125984252 17.99212598425197,0 0,-10.62992125984252 18.700787401574804,0 0,10.62992125984252 17.99212598425197,0 0,-10.62992125984252 18.700787401574804,0 0,10.62992125984252 17.99212598425197,0 0,-10.62992125984252 18.700787401574804,0 0,10.62992125984252 17.99212598425197,0 0,-10.62992125984252 18.700787401574804,0 0,10.62992125984252 17.99212598425197,0 0,-10.62992125984252 18.700787401574804,0 0,10.62992125984252 17.99212598425197,0 0,-10.62992125984252 18.700787401574804,0 0,10.62992125984252 17.99212598425197,0 0,-10.62992125984252 18.700787401574804,0 0,10.62992125984252 17.99212598425197,0 0,-10.62992125984252 18.523622047244096,0 0,18.808102616205232 -10.62992125984252,0 0,18.276606553213107 10.62992125984252,0 0,18.98526797053594 -10.62992125984252,0 0,18.276606553213107 10.62992125984252,0 0,18.98526797053594 -10.62992125984252,0 0,18.276606553213107 10.62992125984252,0 0,18.98526797053594 -10.62992125984252,0 0,18.276606553213107 10.62992125984252,0 0,18.98526797053594 -10.62992125984252,0 0,18.276606553213107 10.62992125984252,0 0,18.98526797053594 -10.62992125984252,0 0,18.276606553213107 10.62992125984252,0 0,18.98526797053594 -10.62992125984252,0 0,18.276606553213107 10.62992125984252,0 0,18.98526797053594 -10.62992125984252,0 0,18.276606553213107 10.62992125984252,0 0,18.98526797053594 -10.62992125984252,0 0,18.276606553213107 10.62992125984252,0 0,18.98526797053594 -10.62992125984252,0 0,18.276606553213107 10.62992125984252,0 0,18.98526797053594 -10.62992125984252,0 0,18.276606553213107 10.62992125984252,0 0,18.98526797053594 -10.62992125984252,0 0,18.276606553213107 10.62992125984252,0 0,18.98526797053594 -10.62992125984252,0 0,18.276606553213107 10.62992125984252,0 0,18.98526797053594 -10.62992125984252,0 0,18.276606553213107 10.62992125984252,0 0,18.98526797053594 -10.62992125984252,0 0,18.276606553213107 10.62992125984252,0 0,18.808102616205232 -18.523622047244096,0 0,-10.62992125984252 -17.99212598425197,0 0,10.62992125984252 -18.700787401574804,0 0,-10.62992125984252 -17.99212598425197,0 0,10.62992125984252 -18.700787401574804,0 0,-10.62992125984252 -17.99212598425197,0 0,10.62992125984252 -18.700787401574804,0 0,-10.62992125984252 -17.99212598425197,0 0,10.62992125984252 -18.700787401574804,0 0,-10.62992125984252 -17.99212598425197,0 0,10.62992125984252 -18.700787401574804,0 0,-10.62992125984252 -17.99212598425197,0 0,10.62992125984252 -18.700787401574804,0 0,-10.62992125984252 -17.99212598425197,0 0,10.62992125984252 -18.700787401574804,0 0,-10.62992125984252 -17.99212598425197,0 0,10.62992125984252 -18.700787401574804,0 0,-10.62992125984252 -17.99212598425197,0 0,10.62992125984252 -18.700787401574804,0 0,-10.62992125984252 -17.99212598425197,0 0,10.62992125984252 -18.700787401574804,0 0,-10.62992125984252 -17.99212598425197,0 0,10.62992125984252 -18.700787401574804,0 0,-10.62992125984252 -17.99212598425197,0 0,10.62992125984252 -18.700787401574804,0 0,-10.62992125984252 -17.99212598425197,0 0,10.62992125984252 -18.700787401574804,0 0,-10.62992125984252 -17.99212598425197,0 0,10.62992125984252 -18.700787401574804,0 0,-10.62992125984252 -17.99212598425197,0 0,10.62992125984252 -18.700787401574804,0 0,-10.62992125984252 -17.99212598425197,0 0,10.62992125984252 -18.700787401574804,0 0,-10.62992125984252 -17.99212598425197,0 0,10.62992125984252 -18.700787401574804,0 0,-10.62992125984252 -17.99212598425197,0 0,10.62992125984252 -18.700787401574804,0 0,-10.62992125984252 -17.99212598425197,0 0,10.62992125984252 -18.700787401574804,0 0,-10.62992125984252 -17.99212598425197,0 0,10.62992125984252 -18.700787401574804,0 0,-10.62992125984252 -17.99212598425197,0 0,10.62992125984252 -18.700787401574804,0 0,-10.62992125984252 -17.99212598425197,0 0,10.62992125984252 -18.523622047244096,0 0,-18.808102616205232 10.62992125984252,0 0,-18.276606553213107 -10.62992125984252,0 0,-18.98526797053594 10.62992125984252,0 0,-18.276606553213107 -10.62992125984252,0 0,-18.98526797053594 10.62992125984252,0 0,-18.276606553213107 -10.62992125984252,0 0,-18.98526797053594 10.62992125984252,0 0,-18.276606553213107 -10.62992125984252,0 0,-18.98526797053594 10.62992125984252,0 0,-18.276606553213107 -10.62992125984252,0 0,-18.98526797053594 10.62992125984252,0 0,-18.276606553213107 -10.62992125984252,0 0,-18.98526797053594 10.62992125984252,0 0,-18.276606553213107 -10.62992125984252,0 0,-18.98526797053594 10.62992125984252,0 0,-18.276606553213107 -10.62992125984252,0 0,-18.98526797053594 10.62992125984252,0 0,-18.276606553213107 -10.62992125984252,0 0,-18.98526797053594 10.62992125984252,0 0,-18.276606553213107 -10.62992125984252,0 0,-18.98526797053594 10.62992125984252,0 0,-18.276606553213107 -10.62992125984252,0 0,-18.98526797053594 10.62992125984252,0 0,-18.276606553213107 -10.62992125984252,0 0,-18.98526797053594 10.62992125984252,0 0,-18.276606553213107 -10.62992125984252,0 0,-18.98526797053594 10.62992125984252,0 0,-18.276606553213107 -10.62992125984252,0 0,-18.98526797053594 10.62992125984252,0 0,-18.276606553213107 -10.62992125984252,0 0,-18.808102616205232 z"></path><path style="fill:#ffffff;stroke:#ff0000" id="font" transform="translate(846.8503937007874,598.8188976377953)" d="m 0,10.62992125984252 18.16929133858268,0 0,-10.62992125984252 18.700787401574804,0 0,10.62992125984252 17.99212598425197,0 0,-10.62992125984252 18.700787401574804,0 0,10.62992125984252 17.99212598425197,0 0,-10.62992125984252 18.700787401574804,0 0,10.62992125984252 17.99212598425197,0 0,-10.62992125984252 18.700787401574804,0 0,10.62992125984252 17.99212598425197,0 0,-10.62992125984252 18.700787401574804,0 0,10.62992125984252 17.99212598425197,0 0,-10.62992125984252 18.700787401574804,0 0,10.62992125984252 17.99212598425197,0 0,-10.62992125984252 18.700787401574804,0 0,10.62992125984252 17.99212598425197,0 0,-10.62992125984252 18.700787401574804,0 0,10.62992125984252 17.99212598425197,0 0,-10.62992125984252 18.700787401574804,0 0,10.62992125984252 17.99212598425197,0 0,-10.62992125984252 18.700787401574804,0 0,10.62992125984252 17.99212598425197,0 0,-10.62992125984252 18.700787401574804,0 0,10.62992125984252 17.99212598425197,0 0,-10.62992125984252 18.700787401574804,0 0,10.62992125984252 17.99212598425197,0 0,-10.62992125984252 18.700787401574804,0 0,10.62992125984252 17.99212598425197,0 0,-10.62992125984252 18.700787401574804,0 0,10.62992125984252 17.99212598425197,0 0,-10.62992125984252 18.700787401574804,0 0,10.62992125984252 17.99212598425197,0 0,-10.62992125984252 18.700787401574804,0 0,10.62992125984252 17.99212598425197,0 0,-10.62992125984252 18.700787401574804,0 0,10.62992125984252 17.99212598425197,0 0,-10.62992125984252 18.700787401574804,0 0,10.62992125984252 17.99212598425197,0 0,-10.62992125984252 18.700787401574804,0 0,10.62992125984252 17.99212598425197,0 0,-10.62992125984252 18.700787401574804,0 0,10.62992125984252 17.99212598425197,0 0,-10.62992125984252 18.700787401574804,0 0,10.62992125984252 17.99212598425197,0 0,-10.62992125984252 18.700787401574804,0 0,10.62992125984252 18.16929133858268,0 0,19.57210940737671 -10.62992125984252,0 0,19.040613344384585 10.62992125984252,0 0,19.74927476170742 -10.62992125984252,0 0,19.040613344384585 10.62992125984252,0 0,19.74927476170742 -10.62992125984252,0 0,19.040613344384585 10.62992125984252,0 0,19.74927476170742 -10.62992125984252,0 0,19.040613344384585 10.62992125984252,0 0,19.74927476170742 -10.62992125984252,0 0,19.040613344384585 10.62992125984252,0 0,19.74927476170742 -10.62992125984252,0 0,19.040613344384585 10.62992125984252,0 0,19.74927476170742 -10.62992125984252,0 0,19.040613344384585 10.62992125984252,0 0,19.74927476170742 -10.62992125984252,0 0,19.040613344384585 10.62992125984252,0 0,19.74927476170742 -10.62992125984252,0 0,19.040613344384585 10.62992125984252,0 0,19.57210940737671 -18.16929133858268,0 0,10.62992125984252 -18.700787401574804,0 0,-10.62992125984252 -17.99212598425197,0 0,10.62992125984252 -18.700787401574804,0 0,-10.62992125984252 -17.99212598425197,0 0,10.62992125984252 -18.700787401574804,0 0,-10.62992125984252 -17.99212598425197,0 0,10.62992125984252 -18.700787401574804,0 0,-10.62992125984252 -17.99212598425197,0 0,10.62992125984252 -18.700787401574804,0 0,-10.62992125984252 -17.99212598425197,0 0,10.62992125984252 -18.700787401574804,0 0,-10.62992125984252 -17.99212598425197,0 0,10.62992125984252 -18.700787401574804,0 0,-10.62992125984252 -17.99212598425197,0 0,10.62992125984252 -18.700787401574804,0 0,-10.62992125984252 -17.99212598425197,0 0,10.62992125984252 -18.700787401574804,0 0,-10.62992125984252 -17.99212598425197,0 0,10.62992125984252 -18.700787401574804,0 0,-10.62992125984252 -17.99212598425197,0 0,10.62992125984252 -18.700787401574804,0 0,-10.62992125984252 -17.99212598425197,0 0,10.62992125984252 -18.700787401574804,0 0,-10.62992125984252 -17.99212598425197,0 0,10.62992125984252 -18.700787401574804,0 0,-10.62992125984252 -17.99212598425197,0 0,10.62992125984252 -18.700787401574804,0 0,-10.62992125984252 -17.99212598425197,0 0,10.62992125984252 -18.700787401574804,0 0,-10.62992125984252 -17.99212598425197,0 0,10.62992125984252 -18.700787401574804,0 0,-10.62992125984252 -17.99212598425197,0 0,10.62992125984252 -18.700787401574804,0 0,-10.62992125984252 -17.99212598425197,0 0,10.62992125984252 -18.700787401574804,0 0,-10.62992125984252 -17.99212598425197,0 0,10.62992125984252 -18.700787401574804,0 0,-10.62992125984252 -17.99212598425197,0 0,10.62992125984252 -18.700787401574804,0 0,-10.62992125984252 -17.99212598425197,0 0,10.62992125984252 -18.700787401574804,0 0,-10.62992125984252 -17.99212598425197,0 0,10.62992125984252 -18.700787401574804,0 0,-10.62992125984252 -18.16929133858268,0 0,-19.57210940737671 10.62992125984252,0 0,-19.040613344384585 -10.62992125984252,0 0,-19.74927476170742 10.62992125984252,0 0,-19.040613344384585 -10.62992125984252,0 0,-19.74927476170742 10.62992125984252,0 0,-19.040613344384585 -10.62992125984252,0 0,-19.74927476170742 10.62992125984252,0 0,-19.040613344384585 -10.62992125984252,0 0,-19.74927476170742 10.62992125984252,0 0,-19.040613344384585 -10.62992125984252,0 0,-19.74927476170742 10.62992125984252,0 0,-19.040613344384585 -10.62992125984252,0 0,-19.74927476170742 10.62992125984252,0 0,-19.040613344384585 -10.62992125984252,0 0,-19.74927476170742 10.62992125984252,0 0,-19.040613344384585 -10.62992125984252,0 0,-19.74927476170742 10.62992125984252,0 0,-19.040613344384585 -10.62992125984252,0 0,-19.57210940737671 z"></path><path style="fill:#ffffff;stroke:#ff0000" id="back" transform="translate(10.62992125984252,598.8188976377953)" d="m 0,10.62992125984252 18.16929133858268,0 0,-10.62992125984252 18.700787401574804,0 0,10.62992125984252 17.99212598425197,0 0,-10.62992125984252 18.700787401574804,0 0,10.62992125984252 17.99212598425197,0 0,-10.62992125984252 18.700787401574804,0 0,10.62992125984252 17.99212598425197,0 0,-10.62992125984252 18.700787401574804,0 0,10.62992125984252 17.99212598425197,0 0,-10.62992125984252 18.700787401574804,0 0,10.62992125984252 17.99212598425197,0 0,-10.62992125984252 18.700787401574804,0 0,10.62992125984252 17.99212598425197,0 0,-10.62992125984252 18.700787401574804,0 0,10.62992125984252 17.99212598425197,0 0,-10.62992125984252 18.700787401574804,0 0,10.62992125984252 17.99212598425197,0 0,-10.62992125984252 18.700787401574804,0 0,10.62992125984252 17.99212598425197,0 0,-10.62992125984252 18.700787401574804,0 0,10.62992125984252 17.99212598425197,0 0,-10.62992125984252 18.700787401574804,0 0,10.62992125984252 17.99212598425197,0 0,-10.62992125984252 18.700787401574804,0 0,10.62992125984252 17.99212598425197,0 0,-10.62992125984252 18.700787401574804,0 0,10.62992125984252 17.99212598425197,0 0,-10.62992125984252 18.700787401574804,0 0,10.62992125984252 17.99212598425197,0 0,-10.62992125984252 18.700787401574804,0 0,10.62992125984252 17.99212598425197,0 0,-10.62992125984252 18.700787401574804,0 0,10.62992125984252 17.99212598425197,0 0,-10.62992125984252 18.700787401574804,0 0,10.62992125984252 17.99212598425197,0 0,-10.62992125984252 18.700787401574804,0 0,10.62992125984252 17.99212598425197,0 0,-10.62992125984252 18.700787401574804,0 0,10.62992125984252 17.99212598425197,0 0,-10.62992125984252 18.700787401574804,0 0,10.62992125984252 17.99212598425197,0 0,-10.62992125984252 18.700787401574804,0 0,10.62992125984252 17.99212598425197,0 0,-10.62992125984252 18.700787401574804,0 0,10.62992125984252 18.16929133858268,0 0,19.57210940737671 -10.62992125984252,0 0,19.040613344384585 10.62992125984252,0 0,19.74927476170742 -10.62992125984252,0 0,19.040613344384585 10.62992125984252,0 0,19.74927476170742 -10.62992125984252,0 0,19.040613344384585 10.62992125984252,0 0,19.74927476170742 -10.62992125984252,0 0,19.040613344384585 10.62992125984252,0 0,19.74927476170742 -10.62992125984252,0 0,19.040613344384585 10.62992125984252,0 0,19.74927476170742 -10.62992125984252,0 0,19.040613344384585 10.62992125984252,0 0,19.74927476170742 -10.62992125984252,0 0,19.040613344384585 10.62992125984252,0 0,19.74927476170742 -10.62992125984252,0 0,19.040613344384585 10.62992125984252,0 0,19.74927476170742 -10.62992125984252,0 0,19.040613344384585 10.62992125984252,0 0,19.57210940737671 -18.16929133858268,0 0,10.62992125984252 -18.700787401574804,0 0,-10.62992125984252 -17.99212598425197,0 0,10.62992125984252 -18.700787401574804,0 0,-10.62992125984252 -17.99212598425197,0 0,10.62992125984252 -18.700787401574804,0 0,-10.62992125984252 -17.99212598425197,0 0,10.62992125984252 -18.700787401574804,0 0,-10.62992125984252 -17.99212598425197,0 0,10.62992125984252 -18.700787401574804,0 0,-10.62992125984252 -17.99212598425197,0 0,10.62992125984252 -18.700787401574804,0 0,-10.62992125984252 -17.99212598425197,0 0,10.62992125984252 -18.700787401574804,0 0,-10.62992125984252 -17.99212598425197,0 0,10.62992125984252 -18.700787401574804,0 0,-10.62992125984252 -17.99212598425197,0 0,10.62992125984252 -18.700787401574804,0 0,-10.62992125984252 -17.99212598425197,0 0,10.62992125984252 -18.700787401574804,0 0,-10.62992125984252 -17.99212598425197,0 0,10.62992125984252 -18.700787401574804,0 0,-10.62992125984252 -17.99212598425197,0 0,10.62992125984252 -18.700787401574804,0 0,-10.62992125984252 -17.99212598425197,0 0,10.62992125984252 -18.700787401574804,0 0,-10.62992125984252 -17.99212598425197,0 0,10.62992125984252 -18.700787401574804,0 0,-10.62992125984252 -17.99212598425197,0 0,10.62992125984252 -18.700787401574804,0 0,-10.62992125984252 -17.99212598425197,0 0,10.62992125984252 -18.700787401574804,0 0,-10.62992125984252 -17.99212598425197,0 0,10.62992125984252 -18.700787401574804,0 0,-10.62992125984252 -17.99212598425197,0 0,10.62992125984252 -18.700787401574804,0 0,-10.62992125984252 -17.99212598425197,0 0,10.62992125984252 -18.700787401574804,0 0,-10.62992125984252 -17.99212598425197,0 0,10.62992125984252 -18.700787401574804,0 0,-10.62992125984252 -17.99212598425197,0 0,10.62992125984252 -18.700787401574804,0 0,-10.62992125984252 -17.99212598425197,0 0,10.62992125984252 -18.700787401574804,0 0,-10.62992125984252 -18.16929133858268,0 0,-19.57210940737671 10.62992125984252,0 0,-19.040613344384585 -10.62992125984252,0 0,-19.74927476170742 10.62992125984252,0 0,-19.040613344384585 -10.62992125984252,0 0,-19.74927476170742 10.62992125984252,0 0,-19.040613344384585 -10.62992125984252,0 0,-19.74927476170742 10.62992125984252,0 0,-19.040613344384585 -10.62992125984252,0 0,-19.74927476170742 10.62992125984252,0 0,-19.040613344384585 -10.62992125984252,0 0,-19.74927476170742 10.62992125984252,0 0,-19.040613344384585 -10.62992125984252,0 0,-19.74927476170742 10.62992125984252,0 0,-19.040613344384585 -10.62992125984252,0 0,-19.74927476170742 10.62992125984252,0 0,-19.040613344384585 -10.62992125984252,0 0,-19.74927476170742 10.62992125984252,0 0,-19.040613344384585 -10.62992125984252,0 0,-19.57210940737671 z"></path><path style="fill:#ffffff;stroke:#ff0000" id="left_side" transform="translate(598.8188976377953,999.2125984251969)" d="m 10.62992125984252,10.62992125984252 7.8238506477012955,0 0,-10.62992125984252 18.98526797053594,0 0,10.62992125984252 18.276606553213107,0 0,-10.62992125984252 18.98526797053594,0 0,10.62992125984252 18.276606553213107,0 0,-10.62992125984252 18.98526797053594,0 0,10.62992125984252 18.276606553213107,0 0,-10.62992125984252 18.98526797053594,0 0,10.62992125984252 18.276606553213107,0 0,-10.62992125984252 18.98526797053594,0 0,10.62992125984252 18.276606553213107,0 0,-10.62992125984252 18.98526797053594,0 0,10.62992125984252 18.276606553213107,0 0,-10.62992125984252 18.98526797053594,0 0,10.62992125984252 18.276606553213107,0 0,-10.62992125984252 18.98526797053594,0 0,10.62992125984252 18.276606553213107,0 0,-10.62992125984252 18.98526797053594,0 0,10.62992125984252 18.276606553213107,0 0,-10.62992125984252 18.98526797053594,0 0,10.62992125984252 18.276606553213107,0 0,-10.62992125984252 18.98526797053594,0 0,10.62992125984252 18.276606553213107,0 0,-10.62992125984252 18.98526797053594,0 0,10.62992125984252 18.276606553213107,0 0,-10.62992125984252 18.98526797053594,0 0,10.62992125984252 18.276606553213107,0 0,-10.62992125984252 18.98526797053594,0 0,10.62992125984252 18.276606553213107,0 0,-10.62992125984252 18.98526797053594,0 0,10.62992125984252 7.8238506477012955,0 0,19.217778698715293 10.62992125984252,0 0,19.74927476170742 -10.62992125984252,0 0,19.040613344384585 10.62992125984252,0 0,19.74927476170742 -10.62992125984252,0 0,19.040613344384585 10.62992125984252,0 0,19.74927476170742 -10.62992125984252,0 0,19.040613344384585 10.62992125984252,0 0,19.74927476170742 -10.62992125984252,0 0,19.040613344384585 10.62992125984252,0 0,19.74927476170742 -10.62992125984252,0 0,19.040613344384585 10.62992125984252,0 0,19.74927476170742 -10.62992125984252,0 0,19.040613344384585 10.62992125984252,0 0,19.74927476170742 -10.62992125984252,0 0,19.040613344384585 10.62992125984252,0 0,19.74927476170742 -10.62992125984252,0 0,19.040613344384585 10.62992125984252,0 0,19.74927476170742 -10.62992125984252,0 0,19.217778698715293 -7.8238506477012955,0 0,10.62992125984252 -18.98526797053594,0 0,-10.62992125984252 -18.276606553213107,0 0,10.62992125984252 -18.98526797053594,0 0,-10.62992125984252 -18.276606553213107,0 0,10.62992125984252 -18.98526797053594,0 0,-10.62992125984252 -18.276606553213107,0 0,10.62992125984252 -18.98526797053594,0 0,-10.62992125984252 -18.276606553213107,0 0,10.62992125984252 -18.98526797053594,0 0,-10.62992125984252 -18.276606553213107,0 0,10.62992125984252 -18.98526797053594,0 0,-10.62992125984252 -18.276606553213107,0 0,10.62992125984252 -18.98526797053594,0 0,-10.62992125984252 -18.276606553213107,0 0,10.62992125984252 -18.98526797053594,0 0,-10.62992125984252 -18.276606553213107,0 0,10.62992125984252 -18.98526797053594,0 0,-10.62992125984252 -18.276606553213107,0 0,10.62992125984252 -18.98526797053594,0 0,-10.62992125984252 -18.276606553213107,0 0,10.62992125984252 -18.98526797053594,0 0,-10.62992125984252 -18.276606553213107,0 0,10.62992125984252 -18.98526797053594,0 0,-10.62992125984252 -18.276606553213107,0 0,10.62992125984252 -18.98526797053594,0 0,-10.62992125984252 -18.276606553213107,0 0,10.62992125984252 -18.98526797053594,0 0,-10.62992125984252 -18.276606553213107,0 0,10.62992125984252 -18.98526797053594,0 0,-10.62992125984252 -7.8238506477012955,0 0,-19.217778698715293 -10.62992125984252,0 0,-19.74927476170742 10.62992125984252,0 0,-19.040613344384585 -10.62992125984252,0 0,-19.74927476170742 10.62992125984252,0 0,-19.040613344384585 -10.62992125984252,0 0,-19.74927476170742 10.62992125984252,0 0,-19.040613344384585 -10.62992125984252,0 0,-19.74927476170742 10.62992125984252,0 0,-19.040613344384585 -10.62992125984252,0 0,-19.74927476170742 10.62992125984252,0 0,-19.040613344384585 -10.62992125984252,0 0,-19.74927476170742 10.62992125984252,0 0,-19.040613344384585 -10.62992125984252,0 0,-19.74927476170742 10.62992125984252,0 0,-19.040613344384585 -10.62992125984252,0 0,-19.74927476170742 10.62992125984252,0 0,-19.040613344384585 -10.62992125984252,0 0,-19.74927476170742 10.62992125984252,0 0,-19.217778698715293 z"></path><path style="fill:#ffffff;stroke:#ff0000" id="right_side" transform="translate(10.62992125984252,999.2125984251969)" d="m 10.62992125984252,10.62992125984252 7.8238506477012955,0 0,-10.62992125984252 18.98526797053594,0 0,10.62992125984252 18.276606553213107,0 0,-10.62992125984252 18.98526797053594,0 0,10.62992125984252 18.276606553213107,0 0,-10.62992125984252 18.98526797053594,0 0,10.62992125984252 18.276606553213107,0 0,-10.62992125984252 18.98526797053594,0 0,10.62992125984252 18.276606553213107,0 0,-10.62992125984252 18.98526797053594,0 0,10.62992125984252 18.276606553213107,0 0,-10.62992125984252 18.98526797053594,0 0,10.62992125984252 18.276606553213107,0 0,-10.62992125984252 18.98526797053594,0 0,10.62992125984252 18.276606553213107,0 0,-10.62992125984252 18.98526797053594,0 0,10.62992125984252 18.276606553213107,0 0,-10.62992125984252 18.98526797053594,0 0,10.62992125984252 18.276606553213107,0 0,-10.62992125984252 18.98526797053594,0 0,10.62992125984252 18.276606553213107,0 0,-10.62992125984252 18.98526797053594,0 0,10.62992125984252 18.276606553213107,0 0,-10.62992125984252 18.98526797053594,0 0,10.62992125984252 18.276606553213107,0 0,-10.62992125984252 18.98526797053594,0 0,10.62992125984252 18.276606553213107,0 0,-10.62992125984252 18.98526797053594,0 0,10.62992125984252 18.276606553213107,0 0,-10.62992125984252 18.98526797053594,0 0,10.62992125984252 7.8238506477012955,0 0,19.217778698715293 10.62992125984252,0 0,19.74927476170742 -10.62992125984252,0 0,19.040613344384585 10.62992125984252,0 0,19.74927476170742 -10.62992125984252,0 0,19.040613344384585 10.62992125984252,0 0,19.74927476170742 -10.62992125984252,0 0,19.040613344384585 10.62992125984252,0 0,19.74927476170742 -10.62992125984252,0 0,19.040613344384585 10.62992125984252,0 0,19.74927476170742 -10.62992125984252,0 0,19.040613344384585 10.62992125984252,0 0,19.74927476170742 -10.62992125984252,0 0,19.040613344384585 10.62992125984252,0 0,19.74927476170742 -10.62992125984252,0 0,19.040613344384585 10.62992125984252,0 0,19.74927476170742 -10.62992125984252,0 0,19.040613344384585 10.62992125984252,0 0,19.74927476170742 -10.62992125984252,0 0,19.217778698715293 -7.8238506477012955,0 0,10.62992125984252 -18.98526797053594,0 0,-10.62992125984252 -18.276606553213107,0 0,10.62992125984252 -18.98526797053594,0 0,-10.62992125984252 -18.276606553213107,0 0,10.62992125984252 -18.98526797053594,0 0,-10.62992125984252 -18.276606553213107,0 0,10.62992125984252 -18.98526797053594,0 0,-10.62992125984252 -18.276606553213107,0 0,10.62992125984252 -18.98526797053594,0 0,-10.62992125984252 -18.276606553213107,0 0,10.62992125984252 -18.98526797053594,0 0,-10.62992125984252 -18.276606553213107,0 0,10.62992125984252 -18.98526797053594,0 0,-10.62992125984252 -18.276606553213107,0 0,10.62992125984252 -18.98526797053594,0 0,-10.62992125984252 -18.276606553213107,0 0,10.62992125984252 -18.98526797053594,0 0,-10.62992125984252 -18.276606553213107,0 0,10.62992125984252 -18.98526797053594,0 0,-10.62992125984252 -18.276606553213107,0 0,10.62992125984252 -18.98526797053594,0 0,-10.62992125984252 -18.276606553213107,0 0,10.62992125984252 -18.98526797053594,0 0,-10.62992125984252 -18.276606553213107,0 0,10.62992125984252 -18.98526797053594,0 0,-10.62992125984252 -18.276606553213107,0 0,10.62992125984252 -18.98526797053594,0 0,-10.62992125984252 -18.276606553213107,0 0,10.62992125984252 -18.98526797053594,0 0,-10.62992125984252 -7.8238506477012955,0 0,-19.217778698715293 -10.62992125984252,0 0,-19.74927476170742 10.62992125984252,0 0,-19.040613344384585 -10.62992125984252,0 0,-19.74927476170742 10.62992125984252,0 0,-19.040613344384585 -10.62992125984252,0 0,-19.74927476170742 10.62992125984252,0 0,-19.040613344384585 -10.62992125984252,0 0,-19.74927476170742 10.62992125984252,0 0,-19.040613344384585 -10.62992125984252,0 0,-19.74927476170742 10.62992125984252,0 0,-19.040613344384585 -10.62992125984252,0 0,-19.74927476170742 10.62992125984252,0 0,-19.040613344384585 -10.62992125984252,0 0,-19.74927476170742 10.62992125984252,0 0,-19.040613344384585 -10.62992125984252,0 0,-19.74927476170742 10.62992125984252,0 0,-19.040613344384585 -10.62992125984252,0 0,-19.74927476170742 10.62992125984252,0 0,-19.217778698715293 z"></path></g>
		</svg>
	