  0
SECTION
  2
HEADER
  9
$ACADVER
  1
AC1006
  9
$EXTMIN
 10
0.000000
 20
0.000000
 30
0.000000
  9
$EXTMAX
 10
5260.000000
 20
4374.000000
 30
0.000000
  0
ENDSEC
  0
SECTION
  2
ENTITIES
  0
POLYLINE
  8
0
 66
1
 70
1
  0
VERTEX
  8
0
 10
0.000000
 20
2187.000000
 42
0.000000
  0
VERTEX
  8
0
 10
0.000000
 20
0.000000
 42
0.000000
  0
VERTEX
  8
0
 10
2630.000000
 20
0.000000
 42
0.000000
  0
VERTEX
  8
0
 10
5260.000000
 20
0.000000
 42
0.000000
  0
VERTEX
  8
0
 10
5260.000000
 20
2187.000000
 42
0.000000
  0
VERTEX
  8
0
 10
5260.000000
 20
4374.000000
 42
0.000000
  0
VERTEX
  8
0
 10
2630.000000
 20
4374.000000
 42
0.000000
  0
VERTEX
  8
0
 10
0.000000
 20
4374.000000
 42
0.000000
  0
SEQEND
  0
POLYLINE
  8
0
 66
1
 70
1
  0
VERTEX
  8
0
 10
89.000000
 20
4322.500000
 42
0.000000
  0
VERTEX
  8
0
 10
89.000000
 20
4306.000000
 42
0.000000
  0
VERTEX
  8
0
 10
119.000000
 20
4306.000000
 42
0.000000
  0
VERTEX
  8
0
 10
149.000000
 20
4306.000000
 42
0.000000
  0
VERTEX
  8
0
 10
149.000000
 20
4322.500000
 42
0.000000
  0
VERTEX
  8
0
 10
149.000000
 20
4339.000000
 42
0.000000
  0
VERTEX
  8
0
 10
176.500000
 20
4339.000000
 42
0.000000
  0
VERTEX
  8
0
 10
204.000000
 20
4339.000000
 42
0.000000
  0
VERTEX
  8
0
 10
204.000000
 20
4322.500000
 42
0.000000
  0
VERTEX
  8
0
 10
204.000000
 20
4306.000000
 42
0.000000
  0
VERTEX
  8
0
 10
234.000000
 20
4306.000000
 42
0.000000
  0
VERTEX
  8
0
 10
264.000000
 20
4306.000000
 42
0.000000
  0
VERTEX
  8
0
 10
264.000000
 20
4322.500000
 42
0.000000
  0
VERTEX
  8
0
 10
264.000000
 20
4339.000000
 42
0.000000
  0
VERTEX
  8
0
 10
291.500000
 20
4339.000000
 42
0.000000
  0
VERTEX
  8
0
 10
319.000000
 20
4339.000000
 42
0.000000
  0
VERTEX
  8
0
 10
319.000000
 20
4322.500000
 42
0.000000
  0
VERTEX
  8
0
 10
319.000000
 20
4306.000000
 42
0.000000
  0
VERTEX
  8
0
 10
348.500000
 20
4306.000000
 42
0.000000
  0
VERTEX
  8
0
 10
378.000000
 20
4306.000000
 42
0.000000
  0
VERTEX
  8
0
 10
378.000000
 20
4322.500000
 42
0.000000
  0
VERTEX
  8
0
 10
378.000000
 20
4339.000000
 42
0.000000
  0
VERTEX
  8
0
 10
405.500000
 20
4339.000000
 42
0.000000
  0
VERTEX
  8
0
 10
433.000000
 20
4339.000000
 42
0.000000
  0
VERTEX
  8
0
 10
433.000000
 20
4322.500000
 42
0.000000
  0
VERTEX
  8
0
 10
433.000000
 20
4306.000000
 42
0.000000
  0
VERTEX
  8
0
 10
463.000000
 20
4306.000000
 42
0.000000
  0
VERTEX
  8
0
 10
493.000000
 20
4306.000000
 42
0.000000
  0
VERTEX
  8
0
 10
493.000000
 20
4322.500000
 42
0.000000
  0
VERTEX
  8
0
 10
493.000000
 20
4339.000000
 42
0.000000
  0
VERTEX
  8
0
 10
520.500000
 20
4339.000000
 42
0.000000
  0
VERTEX
  8
0
 10
548.000000
 20
4339.000000
 42
0.000000
  0
VERTEX
  8
0
 10
548.000000
 20
4322.500000
 42
0.000000
  0
VERTEX
  8
0
 10
548.000000
 20
4306.000000
 42
0.000000
  0
VERTEX
  8
0
 10
578.000000
 20
4306.000000
 42
0.000000
  0
VERTEX
  8
0
 10
608.000000
 20
4306.000000
 42
0.000000
  0
VERTEX
  8
0
 10
608.000000
 20
4322.500000
 42
0.000000
  0
VERTEX
  8
0
 10
608.000000
 20
4339.000000
 42
0.000000
  0
VERTEX
  8
0
 10
635.500000
 20
4339.000000
 42
0.000000
  0
VERTEX
  8
0
 10
663.000000
 20
4339.000000
 42
0.000000
  0
VERTEX
  8
0
 10
663.000000
 20
4322.500000
 42
0.000000
  0
VERTEX
  8
0
 10
663.000000
 20
4306.000000
 42
0.000000
  0
VERTEX
  8
0
 10
692.500000
 20
4306.000000
 42
0.000000
  0
VERTEX
  8
0
 10
722.000000
 20
4306.000000
 42
0.000000
  0
VERTEX
  8
0
 10
722.000000
 20
4322.500000
 42
0.000000
  0
VERTEX
  8
0
 10
722.000000
 20
4339.000000
 42
0.000000
  0
VERTEX
  8
0
 10
750.000000
 20
4339.000000
 42
0.000000
  0
VERTEX
  8
0
 10
778.000000
 20
4339.000000
 42
0.000000
  0
VERTEX
  8
0
 10
778.000000
 20
4322.500000
 42
0.000000
  0
VERTEX
  8
0
 10
778.000000
 20
4306.000000
 42
0.000000
  0
VERTEX
  8
0
 10
807.500000
 20
4306.000000
 42
0.000000
  0
VERTEX
  8
0
 10
837.000000
 20
4306.000000
 42
0.000000
  0
VERTEX
  8
0
 10
837.000000
 20
4322.500000
 42
0.000000
  0
VERTEX
  8
0
 10
837.000000
 20
4339.000000
 42
0.000000
  0
VERTEX
  8
0
 10
864.500000
 20
4339.000000
 42
0.000000
  0
VERTEX
  8
0
 10
892.000000
 20
4339.000000
 42
0.000000
  0
VERTEX
  8
0
 10
892.000000
 20
4322.500000
 42
0.000000
  0
VERTEX
  8
0
 10
892.000000
 20
4306.000000
 42
0.000000
  0
VERTEX
  8
0
 10
922.000000
 20
4306.000000
 42
0.000000
  0
VERTEX
  8
0
 10
952.000000
 20
4306.000000
 42
0.000000
  0
VERTEX
  8
0
 10
952.000000
 20
4322.500000
 42
0.000000
  0
VERTEX
  8
0
 10
952.000000
 20
4339.000000
 42
0.000000
  0
VERTEX
  8
0
 10
979.500000
 20
4339.000000
 42
0.000000
  0
VERTEX
  8
0
 10
1007.000000
 20
4339.000000
 42
0.000000
  0
VERTEX
  8
0
 10
1007.000000
 20
4322.500000
 42
0.000000
  0
VERTEX
  8
0
 10
1007.000000
 20
4306.000000
 42
0.000000
  0
VERTEX
  8
0
 10
1036.500000
 20
4306.000000
 42
0.000000
  0
VERTEX
  8
0
 10
1066.000000
 20
4306.000000
 42
0.000000
  0
VERTEX
  8
0
 10
1066.000000
 20
4322.500000
 42
0.000000
  0
VERTEX
  8
0
 10
1066.000000
 20
4339.000000
 42
0.000000
  0
VERTEX
  8
0
 10
1094.000000
 20
4339.000000
 42
0.000000
  0
VERTEX
  8
0
 10
1122.000000
 20
4339.000000
 42
0.000000
  0
VERTEX
  8
0
 10
1122.000000
 20
4322.500000
 42
0.000000
  0
VERTEX
  8
0
 10
1122.000000
 20
4306.000000
 42
0.000000
  0
VERTEX
  8
0
 10
1151.500000
 20
4306.000000
 42
0.000000
  0
VERTEX
  8
0
 10
1181.000000
 20
4306.000000
 42
0.000000
  0
VERTEX
  8
0
 10
1181.000000
 20
4322.500000
 42
0.000000
  0
VERTEX
  8
0
 10
1181.000000
 20
4339.000000
 42
0.000000
  0
VERTEX
  8
0
 10
1208.500000
 20
4339.000000
 42
0.000000
  0
VERTEX
  8
0
 10
1236.000000
 20
4339.000000
 42
0.000000
  0
VERTEX
  8
0
 10
1236.000000
 20
4322.500000
 42
0.000000
  0
VERTEX
  8
0
 10
1236.000000
 20
4306.000000
 42
0.000000
  0
VERTEX
  8
0
 10
1266.000000
 20
4306.000000
 42
0.000000
  0
VERTEX
  8
0
 10
1296.000000
 20
4306.000000
 42
0.000000
  0
VERTEX
  8
0
 10
1296.000000
 20
4322.500000
 42
0.000000
  0
VERTEX
  8
0
 10
1296.000000
 20
4339.000000
 42
0.000000
  0
VERTEX
  8
0
 10
1323.500000
 20
4339.000000
 42
0.000000
  0
VERTEX
  8
0
 10
1351.000000
 20
4339.000000
 42
0.000000
  0
VERTEX
  8
0
 10
1351.000000
 20
4322.500000
 42
0.000000
  0
VERTEX
  8
0
 10
1351.000000
 20
4306.000000
 42
0.000000
  0
VERTEX
  8
0
 10
1380.500000
 20
4306.000000
 42
0.000000
  0
VERTEX
  8
0
 10
1410.000000
 20
4306.000000
 42
0.000000
  0
VERTEX
  8
0
 10
1410.000000
 20
4322.500000
 42
0.000000
  0
VERTEX
  8
0
 10
1410.000000
 20
4339.000000
 42
0.000000
  0
VERTEX
  8
0
 10
1438.000000
 20
4339.000000
 42
0.000000
  0
VERTEX
  8
0
 10
1466.000000
 20
4339.000000
 42
0.000000
  0
VERTEX
  8
0
 10
1466.000000
 20
4322.500000
 42
0.000000
  0
VERTEX
  8
0
 10
1466.000000
 20
4306.000000
 42
0.000000
  0
VERTEX
  8
0
 10
1495.500000
 20
4306.000000
 42
0.000000
  0
VERTEX
  8
0
 10
1525.000000
 20
4306.000000
 42
0.000000
  0
VERTEX
  8
0
 10
1525.000000
 20
4322.500000
 42
0.000000
  0
VERTEX
  8
0
 10
1525.000000
 20
4339.000000
 42
0.000000
  0
VERTEX
  8
0
 10
1552.500000
 20
4339.000000
 42
0.000000
  0
VERTEX
  8
0
 10
1580.000000
 20
4339.000000
 42
0.000000
  0
VERTEX
  8
0
 10
1580.000000
 20
4322.500000
 42
0.000000
  0
VERTEX
  8
0
 10
1580.000000
 20
4306.000000
 42
0.000000
  0
VERTEX
  8
0
 10
1610.000000
 20
4306.000000
 42
0.000000
  0
VERTEX
  8
0
 10
1640.000000
 20
4306.000000
 42
0.000000
  0
VERTEX
  8
0
 10
1640.000000
 20
4322.500000
 42
0.000000
  0
VERTEX
  8
0
 10
1640.000000
 20
4339.000000
 42
0.000000
  0
VERTEX
  8
0
 10
1667.500000
 20
4339.000000
 42
0.000000
  0
VERTEX
  8
0
 10
1695.000000
 20
4339.000000
 42
0.000000
  0
VERTEX
  8
0
 10
1695.000000
 20
4322.500000
 42
0.000000
  0
VERTEX
  8
0
 10
1695.000000
 20
4306.000000
 42
0.000000
  0
VERTEX
  8
0
 10
1724.500000
 20
4306.000000
 42
0.000000
  0
VERTEX
  8
0
 10
1754.000000
 20
4306.000000
 42
0.000000
  0
VERTEX
  8
0
 10
1754.000000
 20
4322.500000
 42
0.000000
  0
VERTEX
  8
0
 10
1754.000000
 20
4339.000000
 42
0.000000
  0
VERTEX
  8
0
 10
1782.000000
 20
4339.000000
 42
0.000000
  0
VERTEX
  8
0
 10
1810.000000
 20
4339.000000
 42
0.000000
  0
VERTEX
  8
0
 10
1810.000000
 20
4322.500000
 42
0.000000
  0
VERTEX
  8
0
 10
1810.000000
 20
4306.000000
 42
0.000000
  0
VERTEX
  8
0
 10
1839.500000
 20
4306.000000
 42
0.000000
  0
VERTEX
  8
0
 10
1869.000000
 20
4306.000000
 42
0.000000
  0
VERTEX
  8
0
 10
1869.000000
 20
4322.500000
 42
0.000000
  0
VERTEX
  8
0
 10
1869.000000
 20
4339.000000
 42
0.000000
  0
VERTEX
  8
0
 10
1896.500000
 20
4339.000000
 42
0.000000
  0
VERTEX
  8
0
 10
1924.000000
 20
4339.000000
 42
0.000000
  0
VERTEX
  8
0
 10
1924.000000
 20
4322.500000
 42
0.000000
  0
VERTEX
  8
0
 10
1924.000000
 20
4306.000000
 42
0.000000
  0
VERTEX
  8
0
 10
1954.000000
 20
4306.000000
 42
0.000000
  0
VERTEX
  8
0
 10
1984.000000
 20
4306.000000
 42
0.000000
  0
VERTEX
  8
0
 10
1984.000000
 20
4322.500000
 42
0.000000
  0
VERTEX
  8
0
 10
1984.000000
 20
4339.000000
 42
0.000000
  0
VERTEX
  8
0
 10
2011.500000
 20
4339.000000
 42
0.000000
  0
VERTEX
  8
0
 10
2039.000000
 20
4339.000000
 42
0.000000
  0
VERTEX
  8
0
 10
2039.000000
 20
4322.500000
 42
0.000000
  0
VERTEX
  8
0
 10
2039.000000
 20
4306.000000
 42
0.000000
  0
VERTEX
  8
0
 10
2068.500000
 20
4306.000000
 42
0.000000
  0
VERTEX
  8
0
 10
2098.000000
 20
4306.000000
 42
0.000000
  0
VERTEX
  8
0
 10
2098.000000
 20
4322.500000
 42
0.000000
  0
VERTEX
  8
0
 10
2098.000000
 20
4339.000000
 42
0.000000
  0
VERTEX
  8
0
 10
2126.000000
 20
4339.000000
 42
0.000000
  0
VERTEX
  8
0
 10
2154.000000
 20
4339.000000
 42
0.000000
  0
VERTEX
  8
0
 10
2154.000000
 20
4322.500000
 42
0.000000
  0
VERTEX
  8
0
 10
2154.000000
 20
4306.000000
 42
0.000000
  0
VERTEX
  8
0
 10
2183.500000
 20
4306.000000
 42
0.000000
  0
VERTEX
  8
0
 10
2213.000000
 20
4306.000000
 42
0.000000
  0
VERTEX
  8
0
 10
2213.000000
 20
4322.500000
 42
0.000000
  0
VERTEX
  8
0
 10
2213.000000
 20
4339.000000
 42
0.000000
  0
VERTEX
  8
0
 10
2240.500000
 20
4339.000000
 42
0.000000
  0
VERTEX
  8
0
 10
2268.000000
 20
4339.000000
 42
0.000000
  0
VERTEX
  8
0
 10
2268.000000
 20
4322.500000
 42
0.000000
  0
VERTEX
  8
0
 10
2268.000000
 20
4306.000000
 42
0.000000
  0
VERTEX
  8
0
 10
2298.000000
 20
4306.000000
 42
0.000000
  0
VERTEX
  8
0
 10
2328.000000
 20
4306.000000
 42
0.000000
  0
VERTEX
  8
0
 10
2328.000000
 20
4322.500000
 42
0.000000
  0
VERTEX
  8
0
 10
2328.000000
 20
4339.000000
 42
0.000000
  0
VERTEX
  8
0
 10
2355.500000
 20
4339.000000
 42
0.000000
  0
VERTEX
  8
0
 10
2383.000000
 20
4339.000000
 42
0.000000
  0
VERTEX
  8
0
 10
2383.000000
 20
4322.500000
 42
0.000000
  0
VERTEX
  8
0
 10
2383.000000
 20
4306.000000
 42
0.000000
  0
VERTEX
  8
0
 10
2412.500000
 20
4306.000000
 42
0.000000
  0
VERTEX
  8
0
 10
2442.000000
 20
4306.000000
 42
0.000000
  0
VERTEX
  8
0
 10
2442.000000
 20
4322.500000
 42
0.000000
  0
VERTEX
  8
0
 10
2442.000000
 20
4339.000000
 42
0.000000
  0
VERTEX
  8
0
 10
2470.000000
 20
4339.000000
 42
0.000000
  0
VERTEX
  8
0
 10
2498.000000
 20
4339.000000
 42
0.000000
  0
VERTEX
  8
0
 10
2498.000000
 20
4322.500000
 42
0.000000
  0
VERTEX
  8
0
 10
2498.000000
 20
4306.000000
 42
0.000000
  0
VERTEX
  8
0
 10
2527.500000
 20
4306.000000
 42
0.000000
  0
VERTEX
  8
0
 10
2557.000000
 20
4306.000000
 42
0.000000
  0
VERTEX
  8
0
 10
2557.000000
 20
4322.500000
 42
0.000000
  0
VERTEX
  8
0
 10
2557.000000
 20
4339.000000
 42
0.000000
  0
VERTEX
  8
0
 10
2584.500000
 20
4339.000000
 42
0.000000
  0
VERTEX
  8
0
 10
2612.000000
 20
4339.000000
 42
0.000000
  0
VERTEX
  8
0
 10
2612.000000
 20
4311.500000
 42
0.000000
  0
VERTEX
  8
0
 10
2612.000000
 20
4284.000000
 42
0.000000
  0
VERTEX
  8
0
 10
2595.500000
 20
4284.000000
 42
0.000000
  0
VERTEX
  8
0
 10
2579.000000
 20
4284.000000
 42
0.000000
  0
VERTEX
  8
0
 10
2579.000000
 20
4253.500000
 42
0.000000
  0
VERTEX
  8
0
 10
2579.000000
 20
4223.000000
 42
0.000000
  0
VERTEX
  8
0
 10
2595.500000
 20
4223.000000
 42
0.000000
  0
VERTEX
  8
0
 10
2612.000000
 20
4223.000000
 42
0.000000
  0
VERTEX
  8
0
 10
2612.000000
 20
4195.000000
 42
0.000000
  0
VERTEX
  8
0
 10
2612.000000
 20
4167.000000
 42
0.000000
  0
VERTEX
  8
0
 10
2595.500000
 20
4167.000000
 42
0.000000
  0
VERTEX
  8
0
 10
2579.000000
 20
4167.000000
 42
0.000000
  0
VERTEX
  8
0
 10
2579.000000
 20
4137.000000
 42
0.000000
  0
VERTEX
  8
0
 10
2579.000000
 20
4107.000000
 42
0.000000
  0
VERTEX
  8
0
 10
2595.500000
 20
4107.000000
 42
0.000000
  0
VERTEX
  8
0
 10
2612.000000
 20
4107.000000
 42
0.000000
  0
VERTEX
  8
0
 10
2612.000000
 20
4079.000000
 42
0.000000
  0
VERTEX
  8
0
 10
2612.000000
 20
4051.000000
 42
0.000000
  0
VERTEX
  8
0
 10
2595.500000
 20
4051.000000
 42
0.000000
  0
VERTEX
  8
0
 10
2579.000000
 20
4051.000000
 42
0.000000
  0
VERTEX
  8
0
 10
2579.000000
 20
4020.500000
 42
0.000000
  0
VERTEX
  8
0
 10
2579.000000
 20
3990.000000
 42
0.000000
  0
VERTEX
  8
0
 10
2595.500000
 20
3990.000000
 42
0.000000
  0
VERTEX
  8
0
 10
2612.000000
 20
3990.000000
 42
0.000000
  0
VERTEX
  8
0
 10
2612.000000
 20
3962.000000
 42
0.000000
  0
VERTEX
  8
0
 10
2612.000000
 20
3934.000000
 42
0.000000
  0
VERTEX
  8
0
 10
2595.500000
 20
3934.000000
 42
0.000000
  0
VERTEX
  8
0
 10
2579.000000
 20
3934.000000
 42
0.000000
  0
VERTEX
  8
0
 10
2579.000000
 20
3904.000000
 42
0.000000
  0
VERTEX
  8
0
 10
2579.000000
 20
3874.000000
 42
0.000000
  0
VERTEX
  8
0
 10
2595.500000
 20
3874.000000
 42
0.000000
  0
VERTEX
  8
0
 10
2612.000000
 20
3874.000000
 42
0.000000
  0
VERTEX
  8
0
 10
2612.000000
 20
3846.000000
 42
0.000000
  0
VERTEX
  8
0
 10
2612.000000
 20
3818.000000
 42
0.000000
  0
VERTEX
  8
0
 10
2595.500000
 20
3818.000000
 42
0.000000
  0
VERTEX
  8
0
 10
2579.000000
 20
3818.000000
 42
0.000000
  0
VERTEX
  8
0
 10
2579.000000
 20
3787.500000
 42
0.000000
  0
VERTEX
  8
0
 10
2579.000000
 20
3757.000000
 42
0.000000
  0
VERTEX
  8
0
 10
2595.515819
 20
3757.000000
 42
0.000000
  0
VERTEX
  8
0
 10
2612.031637
 20
3757.000000
 42
0.000000
  0
VERTEX
  8
0
 10
2611.765819
 20
3729.250000
 42
0.000000
  0
VERTEX
  8
0
 10
2611.500000
 20
3701.500000
 42
0.000000
  0
VERTEX
  8
0
 10
2595.250000
 20
3701.225229
 42
0.000000
  0
VERTEX
  8
0
 10
2579.000000
 20
3700.950457
 42
0.000000
  0
VERTEX
  8
0
 10
2579.000000
 20
3670.975229
 42
0.000000
  0
VERTEX
  8
0
 10
2579.000000
 20
3641.000000
 42
0.000000
  0
VERTEX
  8
0
 10
2595.500000
 20
3641.000000
 42
0.000000
  0
VERTEX
  8
0
 10
2612.000000
 20
3641.000000
 42
0.000000
  0
VERTEX
  8
0
 10
2612.000000
 20
3613.000000
 42
0.000000
  0
VERTEX
  8
0
 10
2612.000000
 20
3585.000000
 42
0.000000
  0
VERTEX
  8
0
 10
2595.500000
 20
3585.000000
 42
0.000000
  0
VERTEX
  8
0
 10
2579.000000
 20
3585.000000
 42
0.000000
  0
VERTEX
  8
0
 10
2579.000000
 20
3555.024771
 42
0.000000
  0
VERTEX
  8
0
 10
2579.000000
 20
3525.049543
 42
0.000000
  0
VERTEX
  8
0
 10
2595.250000
 20
3524.774771
 42
0.000000
  0
VERTEX
  8
0
 10
2611.500000
 20
3524.500000
 42
0.000000
  0
VERTEX
  8
0
 10
2611.500000
 20
3496.500000
 42
0.000000
  0
VERTEX
  8
0
 10
2611.500000
 20
3468.500000
 42
0.000000
  0
VERTEX
  8
0
 10
2595.250000
 20
3468.225229
 42
0.000000
  0
VERTEX
  8
0
 10
2579.000000
 20
3467.950457
 42
0.000000
  0
VERTEX
  8
0
 10
2579.000000
 20
3437.975229
 42
0.000000
  0
VERTEX
  8
0
 10
2579.000000
 20
3408.000000
 42
0.000000
  0
VERTEX
  8
0
 10
2595.500000
 20
3408.000000
 42
0.000000
  0
VERTEX
  8
0
 10
2612.000000
 20
3408.000000
 42
0.000000
  0
VERTEX
  8
0
 10
2612.000000
 20
3380.000000
 42
0.000000
  0
VERTEX
  8
0
 10
2612.000000
 20
3352.000000
 42
0.000000
  0
VERTEX
  8
0
 10
2595.500000
 20
3352.000000
 42
0.000000
  0
VERTEX
  8
0
 10
2579.000000
 20
3352.000000
 42
0.000000
  0
VERTEX
  8
0
 10
2579.000000
 20
3322.000000
 42
0.000000
  0
VERTEX
  8
0
 10
2579.000000
 20
3292.000000
 42
0.000000
  0
VERTEX
  8
0
 10
2595.500000
 20
3292.000000
 42
0.000000
  0
VERTEX
  8
0
 10
2612.000000
 20
3292.000000
 42
0.000000
  0
VERTEX
  8
0
 10
2612.000000
 20
3264.000000
 42
0.000000
  0
VERTEX
  8
0
 10
2612.000000
 20
3236.000000
 42
0.000000
  0
VERTEX
  8
0
 10
2595.500000
 20
3236.000000
 42
0.000000
  0
VERTEX
  8
0
 10
2579.000000
 20
3236.000000
 42
0.000000
  0
VERTEX
  8
0
 10
2579.000000
 20
3205.500000
 42
0.000000
  0
VERTEX
  8
0
 10
2579.000000
 20
3175.000000
 42
0.000000
  0
VERTEX
  8
0
 10
2595.500000
 20
3175.000000
 42
0.000000
  0
VERTEX
  8
0
 10
2612.000000
 20
3175.000000
 42
0.000000
  0
VERTEX
  8
0
 10
2612.000000
 20
3147.000000
 42
0.000000
  0
VERTEX
  8
0
 10
2612.000000
 20
3119.000000
 42
0.000000
  0
VERTEX
  8
0
 10
2595.500000
 20
3119.000000
 42
0.000000
  0
VERTEX
  8
0
 10
2579.000000
 20
3119.000000
 42
0.000000
  0
VERTEX
  8
0
 10
2579.000000
 20
3089.000000
 42
0.000000
  0
VERTEX
  8
0
 10
2579.000000
 20
3059.000000
 42
0.000000
  0
VERTEX
  8
0
 10
2595.500000
 20
3059.000000
 42
0.000000
  0
VERTEX
  8
0
 10
2612.000000
 20
3059.000000
 42
0.000000
  0
VERTEX
  8
0
 10
2612.000000
 20
3031.000000
 42
0.000000
  0
VERTEX
  8
0
 10
2612.000000
 20
3003.000000
 42
0.000000
  0
VERTEX
  8
0
 10
2595.500000
 20
3003.000000
 42
0.000000
  0
VERTEX
  8
0
 10
2579.000000
 20
3003.000000
 42
0.000000
  0
VERTEX
  8
0
 10
2579.000000
 20
2972.500000
 42
0.000000
  0
VERTEX
  8
0
 10
2579.000000
 20
2942.000000
 42
0.000000
  0
VERTEX
  8
0
 10
2595.500000
 20
2942.000000
 42
0.000000
  0
VERTEX
  8
0
 10
2612.000000
 20
2942.000000
 42
0.000000
  0
VERTEX
  8
0
 10
2612.000000
 20
2914.000000
 42
0.000000
  0
VERTEX
  8
0
 10
2612.000000
 20
2886.000000
 42
0.000000
  0
VERTEX
  8
0
 10
2595.500000
 20
2886.000000
 42
0.000000
  0
VERTEX
  8
0
 10
2579.000000
 20
2886.000000
 42
0.000000
  0
VERTEX
  8
0
 10
2579.000000
 20
2856.000000
 42
0.000000
  0
VERTEX
  8
0
 10
2579.000000
 20
2826.000000
 42
0.000000
  0
VERTEX
  8
0
 10
2595.500000
 20
2826.000000
 42
0.000000
  0
VERTEX
  8
0
 10
2612.000000
 20
2826.000000
 42
0.000000
  0
VERTEX
  8
0
 10
2612.000000
 20
2798.000000
 42
0.000000
  0
VERTEX
  8
0
 10
2612.000000
 20
2770.000000
 42
0.000000
  0
VERTEX
  8
0
 10
2595.500000
 20
2770.000000
 42
0.000000
  0
VERTEX
  8
0
 10
2579.000000
 20
2770.000000
 42
0.000000
  0
VERTEX
  8
0
 10
2579.000000
 20
2739.500000
 42
0.000000
  0
VERTEX
  8
0
 10
2579.000000
 20
2709.000000
 42
0.000000
  0
VERTEX
  8
0
 10
2595.500000
 20
2709.000000
 42
0.000000
  0
VERTEX
  8
0
 10
2612.000000
 20
2709.000000
 42
0.000000
  0
VERTEX
  8
0
 10
2612.000000
 20
2681.000000
 42
0.000000
  0
VERTEX
  8
0
 10
2612.000000
 20
2653.000000
 42
0.000000
  0
VERTEX
  8
0
 10
2595.500000
 20
2653.000000
 42
0.000000
  0
VERTEX
  8
0
 10
2579.000000
 20
2653.000000
 42
0.000000
  0
VERTEX
  8
0
 10
2579.000000
 20
2623.000000
 42
0.000000
  0
VERTEX
  8
0
 10
2579.000000
 20
2593.000000
 42
0.000000
  0
VERTEX
  8
0
 10
2595.515819
 20
2593.000000
 42
0.000000
  0
VERTEX
  8
0
 10
2612.031637
 20
2593.000000
 42
0.000000
  0
VERTEX
  8
0
 10
2611.765819
 20
2565.250000
 42
0.000000
  0
VERTEX
  8
0
 10
2611.500000
 20
2537.500000
 42
0.000000
  0
VERTEX
  8
0
 10
2584.250000
 20
2537.233928
 42
0.000000
  0
VERTEX
  8
0
 10
2557.000000
 20
2536.967856
 42
0.000000
  0
VERTEX
  8
0
 10
2557.000000
 20
2553.983928
 42
0.000000
  0
VERTEX
  8
0
 10
2557.000000
 20
2571.000000
 42
0.000000
  0
VERTEX
  8
0
 10
2527.524179
 20
2571.000000
 42
0.000000
  0
VERTEX
  8
0
 10
2498.048358
 20
2571.000000
 42
0.000000
  0
VERTEX
  8
0
 10
2497.774179
 20
2554.250000
 42
0.000000
  0
VERTEX
  8
0
 10
2497.500000
 20
2537.500000
 42
0.000000
  0
VERTEX
  8
0
 10
2470.000000
 20
2537.500000
 42
0.000000
  0
VERTEX
  8
0
 10
2442.500000
 20
2537.500000
 42
0.000000
  0
VERTEX
  8
0
 10
2442.225821
 20
2554.250000
 42
0.000000
  0
VERTEX
  8
0
 10
2441.951642
 20
2571.000000
 42
0.000000
  0
VERTEX
  8
0
 10
2412.475821
 20
2571.000000
 42
0.000000
  0
VERTEX
  8
0
 10
2383.000000
 20
2571.000000
 42
0.000000
  0
VERTEX
  8
0
 10
2383.000000
 20
2554.000000
 42
0.000000
  0
VERTEX
  8
0
 10
2383.000000
 20
2537.000000
 42
0.000000
  0
VERTEX
  8
0
 10
2355.524179
 20
2537.000000
 42
0.000000
  0
VERTEX
  8
0
 10
2328.048358
 20
2537.000000
 42
0.000000
  0
VERTEX
  8
0
 10
2327.774179
 20
2553.750000
 42
0.000000
  0
VERTEX
  8
0
 10
2327.500000
 20
2570.500000
 42
0.000000
  0
VERTEX
  8
0
 10
2298.000000
 20
2570.500000
 42
0.000000
  0
VERTEX
  8
0
 10
2268.500000
 20
2570.500000
 42
0.000000
  0
VERTEX
  8
0
 10
2268.225821
 20
2553.750000
 42
0.000000
  0
VERTEX
  8
0
 10
2267.951642
 20
2537.000000
 42
0.000000
  0
VERTEX
  8
0
 10
2240.475821
 20
2537.000000
 42
0.000000
  0
VERTEX
  8
0
 10
2213.000000
 20
2537.000000
 42
0.000000
  0
VERTEX
  8
0
 10
2213.000000
 20
2554.000000
 42
0.000000
  0
VERTEX
  8
0
 10
2213.000000
 20
2571.000000
 42
0.000000
  0
VERTEX
  8
0
 10
2183.524179
 20
2571.000000
 42
0.000000
  0
VERTEX
  8
0
 10
2154.048358
 20
2571.000000
 42
0.000000
  0
VERTEX
  8
0
 10
2153.774179
 20
2554.250000
 42
0.000000
  0
VERTEX
  8
0
 10
2153.500000
 20
2537.500000
 42
0.000000
  0
VERTEX
  8
0
 10
2126.000000
 20
2537.500000
 42
0.000000
  0
VERTEX
  8
0
 10
2098.500000
 20
2537.500000
 42
0.000000
  0
VERTEX
  8
0
 10
2098.225821
 20
2554.250000
 42
0.000000
  0
VERTEX
  8
0
 10
2097.951642
 20
2571.000000
 42
0.000000
  0
VERTEX
  8
0
 10
2068.475821
 20
2571.000000
 42
0.000000
  0
VERTEX
  8
0
 10
2039.000000
 20
2571.000000
 42
0.000000
  0
VERTEX
  8
0
 10
2039.000000
 20
2554.000000
 42
0.000000
  0
VERTEX
  8
0
 10
2039.000000
 20
2537.000000
 42
0.000000
  0
VERTEX
  8
0
 10
2011.524179
 20
2537.000000
 42
0.000000
  0
VERTEX
  8
0
 10
1984.048358
 20
2537.000000
 42
0.000000
  0
VERTEX
  8
0
 10
1983.774179
 20
2553.750000
 42
0.000000
  0
VERTEX
  8
0
 10
1983.500000
 20
2570.500000
 42
0.000000
  0
VERTEX
  8
0
 10
1954.000000
 20
2570.500000
 42
0.000000
  0
VERTEX
  8
0
 10
1924.500000
 20
2570.500000
 42
0.000000
  0
VERTEX
  8
0
 10
1924.225821
 20
2553.750000
 42
0.000000
  0
VERTEX
  8
0
 10
1923.951642
 20
2537.000000
 42
0.000000
  0
VERTEX
  8
0
 10
1896.475821
 20
2537.000000
 42
0.000000
  0
VERTEX
  8
0
 10
1869.000000
 20
2537.000000
 42
0.000000
  0
VERTEX
  8
0
 10
1869.000000
 20
2554.000000
 42
0.000000
  0
VERTEX
  8
0
 10
1869.000000
 20
2571.000000
 42
0.000000
  0
VERTEX
  8
0
 10
1839.524179
 20
2571.000000
 42
0.000000
  0
VERTEX
  8
0
 10
1810.048358
 20
2571.000000
 42
0.000000
  0
VERTEX
  8
0
 10
1809.774179
 20
2554.250000
 42
0.000000
  0
VERTEX
  8
0
 10
1809.500000
 20
2537.500000
 42
0.000000
  0
VERTEX
  8
0
 10
1782.000000
 20
2537.500000
 42
0.000000
  0
VERTEX
  8
0
 10
1754.500000
 20
2537.500000
 42
0.000000
  0
VERTEX
  8
0
 10
1754.225821
 20
2554.250000
 42
0.000000
  0
VERTEX
  8
0
 10
1753.951642
 20
2571.000000
 42
0.000000
  0
VERTEX
  8
0
 10
1724.475821
 20
2571.000000
 42
0.000000
  0
VERTEX
  8
0
 10
1695.000000
 20
2571.000000
 42
0.000000
  0
VERTEX
  8
0
 10
1695.000000
 20
2554.000000
 42
0.000000
  0
VERTEX
  8
0
 10
1695.000000
 20
2537.000000
 42
0.000000
  0
VERTEX
  8
0
 10
1667.524179
 20
2537.000000
 42
0.000000
  0
VERTEX
  8
0
 10
1640.048358
 20
2537.000000
 42
0.000000
  0
VERTEX
  8
0
 10
1639.774179
 20
2553.750000
 42
0.000000
  0
VERTEX
  8
0
 10
1639.500000
 20
2570.500000
 42
0.000000
  0
VERTEX
  8
0
 10
1610.000000
 20
2570.500000
 42
0.000000
  0
VERTEX
  8
0
 10
1580.500000
 20
2570.500000
 42
0.000000
  0
VERTEX
  8
0
 10
1580.225821
 20
2553.750000
 42
0.000000
  0
VERTEX
  8
0
 10
1579.951642
 20
2537.000000
 42
0.000000
  0
VERTEX
  8
0
 10
1552.475821
 20
2537.000000
 42
0.000000
  0
VERTEX
  8
0
 10
1525.000000
 20
2537.000000
 42
0.000000
  0
VERTEX
  8
0
 10
1525.000000
 20
2554.000000
 42
0.000000
  0
VERTEX
  8
0
 10
1525.000000
 20
2571.000000
 42
0.000000
  0
VERTEX
  8
0
 10
1495.524179
 20
2571.000000
 42
0.000000
  0
VERTEX
  8
0
 10
1466.048358
 20
2571.000000
 42
0.000000
  0
VERTEX
  8
0
 10
1465.774179
 20
2554.250000
 42
0.000000
  0
VERTEX
  8
0
 10
1465.500000
 20
2537.500000
 42
0.000000
  0
VERTEX
  8
0
 10
1438.000000
 20
2537.500000
 42
0.000000
  0
VERTEX
  8
0
 10
1410.500000
 20
2537.500000
 42
0.000000
  0
VERTEX
  8
0
 10
1410.225821
 20
2554.250000
 42
0.000000
  0
VERTEX
  8
0
 10
1409.951642
 20
2571.000000
 42
0.000000
  0
VERTEX
  8
0
 10
1380.475821
 20
2571.000000
 42
0.000000
  0
VERTEX
  8
0
 10
1351.000000
 20
2571.000000
 42
0.000000
  0
VERTEX
  8
0
 10
1351.000000
 20
2554.000000
 42
0.000000
  0
VERTEX
  8
0
 10
1351.000000
 20
2537.000000
 42
0.000000
  0
VERTEX
  8
0
 10
1323.524179
 20
2537.000000
 42
0.000000
  0
VERTEX
  8
0
 10
1296.048358
 20
2537.000000
 42
0.000000
  0
VERTEX
  8
0
 10
1295.774179
 20
2553.750000
 42
0.000000
  0
VERTEX
  8
0
 10
1295.500000
 20
2570.500000
 42
0.000000
  0
VERTEX
  8
0
 10
1266.000000
 20
2570.500000
 42
0.000000
  0
VERTEX
  8
0
 10
1236.500000
 20
2570.500000
 42
0.000000
  0
VERTEX
  8
0
 10
1236.225821
 20
2553.750000
 42
0.000000
  0
VERTEX
  8
0
 10
1235.951642
 20
2537.000000
 42
0.000000
  0
VERTEX
  8
0
 10
1208.475821
 20
2537.000000
 42
0.000000
  0
VERTEX
  8
0
 10
1181.000000
 20
2537.000000
 42
0.000000
  0
VERTEX
  8
0
 10
1181.000000
 20
2554.000000
 42
0.000000
  0
VERTEX
  8
0
 10
1181.000000
 20
2571.000000
 42
0.000000
  0
VERTEX
  8
0
 10
1151.524179
 20
2571.000000
 42
0.000000
  0
VERTEX
  8
0
 10
1122.048358
 20
2571.000000
 42
0.000000
  0
VERTEX
  8
0
 10
1121.774179
 20
2554.250000
 42
0.000000
  0
VERTEX
  8
0
 10
1121.500000
 20
2537.500000
 42
0.000000
  0
VERTEX
  8
0
 10
1094.000000
 20
2537.500000
 42
0.000000
  0
VERTEX
  8
0
 10
1066.500000
 20
2537.500000
 42
0.000000
  0
VERTEX
  8
0
 10
1066.225821
 20
2554.250000
 42
0.000000
  0
VERTEX
  8
0
 10
1065.951642
 20
2571.000000
 42
0.000000
  0
VERTEX
  8
0
 10
1036.475821
 20
2571.000000
 42
0.000000
  0
VERTEX
  8
0
 10
1007.000000
 20
2571.000000
 42
0.000000
  0
VERTEX
  8
0
 10
1007.000000
 20
2554.000000
 42
0.000000
  0
VERTEX
  8
0
 10
1007.000000
 20
2537.000000
 42
0.000000
  0
VERTEX
  8
0
 10
979.524179
 20
2537.000000
 42
0.000000
  0
VERTEX
  8
0
 10
952.048358
 20
2537.000000
 42
0.000000
  0
VERTEX
  8
0
 10
951.774179
 20
2553.750000
 42
0.000000
  0
VERTEX
  8
0
 10
951.500000
 20
2570.500000
 42
0.000000
  0
VERTEX
  8
0
 10
921.750000
 20
2570.764881
 42
0.000000
  0
VERTEX
  8
0
 10
892.000000
 20
2571.029761
 42
0.000000
  0
VERTEX
  8
0
 10
892.000000
 20
2554.014881
 42
0.000000
  0
VERTEX
  8
0
 10
892.000000
 20
2537.000000
 42
0.000000
  0
VERTEX
  8
0
 10
864.500000
 20
2537.000000
 42
0.000000
  0
VERTEX
  8
0
 10
837.000000
 20
2537.000000
 42
0.000000
  0
VERTEX
  8
0
 10
837.000000
 20
2554.000000
 42
0.000000
  0
VERTEX
  8
0
 10
837.000000
 20
2571.000000
 42
0.000000
  0
VERTEX
  8
0
 10
807.524179
 20
2571.000000
 42
0.000000
  0
VERTEX
  8
0
 10
778.048358
 20
2571.000000
 42
0.000000
  0
VERTEX
  8
0
 10
777.774179
 20
2554.250000
 42
0.000000
  0
VERTEX
  8
0
 10
777.500000
 20
2537.500000
 42
0.000000
  0
VERTEX
  8
0
 10
750.000000
 20
2537.500000
 42
0.000000
  0
VERTEX
  8
0
 10
722.500000
 20
2537.500000
 42
0.000000
  0
VERTEX
  8
0
 10
722.225821
 20
2554.250000
 42
0.000000
  0
VERTEX
  8
0
 10
721.951642
 20
2571.000000
 42
0.000000
  0
VERTEX
  8
0
 10
692.475821
 20
2571.000000
 42
0.000000
  0
VERTEX
  8
0
 10
663.000000
 20
2571.000000
 42
0.000000
  0
VERTEX
  8
0
 10
663.000000
 20
2554.000000
 42
0.000000
  0
VERTEX
  8
0
 10
663.000000
 20
2537.000000
 42
0.000000
  0
VERTEX
  8
0
 10
635.524179
 20
2537.000000
 42
0.000000
  0
VERTEX
  8
0
 10
608.048358
 20
2537.000000
 42
0.000000
  0
VERTEX
  8
0
 10
607.774179
 20
2553.750000
 42
0.000000
  0
VERTEX
  8
0
 10
607.500000
 20
2570.500000
 42
0.000000
  0
VERTEX
  8
0
 10
577.750000
 20
2570.764881
 42
0.000000
  0
VERTEX
  8
0
 10
548.000000
 20
2571.029761
 42
0.000000
  0
VERTEX
  8
0
 10
548.000000
 20
2554.014881
 42
0.000000
  0
VERTEX
  8
0
 10
548.000000
 20
2537.000000
 42
0.000000
  0
VERTEX
  8
0
 10
520.500000
 20
2537.000000
 42
0.000000
  0
VERTEX
  8
0
 10
493.000000
 20
2537.000000
 42
0.000000
  0
VERTEX
  8
0
 10
493.000000
 20
2554.014881
 42
0.000000
  0
VERTEX
  8
0
 10
493.000000
 20
2571.029761
 42
0.000000
  0
VERTEX
  8
0
 10
463.250000
 20
2570.764881
 42
0.000000
  0
VERTEX
  8
0
 10
433.500000
 20
2570.500000
 42
0.000000
  0
VERTEX
  8
0
 10
433.225748
 20
2553.733972
 42
0.000000
  0
VERTEX
  8
0
 10
432.951497
 20
2536.967944
 42
0.000000
  0
VERTEX
  8
0
 10
405.725748
 20
2537.233972
 42
0.000000
  0
VERTEX
  8
0
 10
378.500000
 20
2537.500000
 42
0.000000
  0
VERTEX
  8
0
 10
378.225821
 20
2554.250000
 42
0.000000
  0
VERTEX
  8
0
 10
377.951642
 20
2571.000000
 42
0.000000
  0
VERTEX
  8
0
 10
348.500000
 20
2571.000000
 42
0.000000
  0
VERTEX
  8
0
 10
319.048358
 20
2571.000000
 42
0.000000
  0
VERTEX
  8
0
 10
318.774179
 20
2554.250000
 42
0.000000
  0
VERTEX
  8
0
 10
318.500000
 20
2537.500000
 42
0.000000
  0
VERTEX
  8
0
 10
291.274252
 20
2537.233972
 42
0.000000
  0
VERTEX
  8
0
 10
264.048503
 20
2536.967944
 42
0.000000
  0
VERTEX
  8
0
 10
263.774252
 20
2553.733972
 42
0.000000
  0
VERTEX
  8
0
 10
263.500000
 20
2570.500000
 42
0.000000
  0
VERTEX
  8
0
 10
233.750000
 20
2570.764881
 42
0.000000
  0
VERTEX
  8
0
 10
204.000000
 20
2571.029761
 42
0.000000
  0
VERTEX
  8
0
 10
204.000000
 20
2554.014881
 42
0.000000
  0
VERTEX
  8
0
 10
204.000000
 20
2537.000000
 42
0.000000
  0
VERTEX
  8
0
 10
176.500000
 20
2537.000000
 42
0.000000
  0
VERTEX
  8
0
 10
149.000000
 20
2537.000000
 42
0.000000
  0
VERTEX
  8
0
 10
149.000000
 20
2554.014881
 42
0.000000
  0
VERTEX
  8
0
 10
149.000000
 20
2571.029761
 42
0.000000
  0
VERTEX
  8
0
 10
119.250000
 20
2570.764881
 42
0.000000
  0
VERTEX
  8
0
 10
89.500000
 20
2570.500000
 42
0.000000
  0
VERTEX
  8
0
 10
89.225821
 20
2553.750000
 42
0.000000
  0
VERTEX
  8
0
 10
88.951642
 20
2537.000000
 42
0.000000
  0
VERTEX
  8
0
 10
61.975821
 20
2537.000000
 42
0.000000
  0
VERTEX
  8
0
 10
35.000000
 20
2537.000000
 42
0.000000
  0
VERTEX
  8
0
 10
35.000000
 20
2565.000000
 42
0.000000
  0
VERTEX
  8
0
 10
35.000000
 20
2593.000000
 42
0.000000
  0
VERTEX
  8
0
 10
51.500000
 20
2593.000000
 42
0.000000
  0
VERTEX
  8
0
 10
68.000000
 20
2593.000000
 42
0.000000
  0
VERTEX
  8
0
 10
68.000000
 20
2623.000000
 42
0.000000
  0
VERTEX
  8
0
 10
68.000000
 20
2653.000000
 42
0.000000
  0
VERTEX
  8
0
 10
51.500000
 20
2653.000000
 42
0.000000
  0
VERTEX
  8
0
 10
35.000000
 20
2653.000000
 42
0.000000
  0
VERTEX
  8
0
 10
35.000000
 20
2681.000000
 42
0.000000
  0
VERTEX
  8
0
 10
35.000000
 20
2709.000000
 42
0.000000
  0
VERTEX
  8
0
 10
51.500000
 20
2709.000000
 42
0.000000
  0
VERTEX
  8
0
 10
68.000000
 20
2709.000000
 42
0.000000
  0
VERTEX
  8
0
 10
68.000000
 20
2739.500000
 42
0.000000
  0
VERTEX
  8
0
 10
68.000000
 20
2770.000000
 42
0.000000
  0
VERTEX
  8
0
 10
51.500000
 20
2770.000000
 42
0.000000
  0
VERTEX
  8
0
 10
35.000000
 20
2770.000000
 42
0.000000
  0
VERTEX
  8
0
 10
35.000000
 20
2798.000000
 42
0.000000
  0
VERTEX
  8
0
 10
35.000000
 20
2826.000000
 42
0.000000
  0
VERTEX
  8
0
 10
51.500000
 20
2826.000000
 42
0.000000
  0
VERTEX
  8
0
 10
68.000000
 20
2826.000000
 42
0.000000
  0
VERTEX
  8
0
 10
68.000000
 20
2856.000000
 42
0.000000
  0
VERTEX
  8
0
 10
68.000000
 20
2886.000000
 42
0.000000
  0
VERTEX
  8
0
 10
51.500000
 20
2886.000000
 42
0.000000
  0
VERTEX
  8
0
 10
35.000000
 20
2886.000000
 42
0.000000
  0
VERTEX
  8
0
 10
35.000000
 20
2914.000000
 42
0.000000
  0
VERTEX
  8
0
 10
35.000000
 20
2942.000000
 42
0.000000
  0
VERTEX
  8
0
 10
51.500000
 20
2942.000000
 42
0.000000
  0
VERTEX
  8
0
 10
68.000000
 20
2942.000000
 42
0.000000
  0
VERTEX
  8
0
 10
68.000000
 20
2972.500000
 42
0.000000
  0
VERTEX
  8
0
 10
68.000000
 20
3003.000000
 42
0.000000
  0
VERTEX
  8
0
 10
51.500000
 20
3003.000000
 42
0.000000
  0
VERTEX
  8
0
 10
35.000000
 20
3003.000000
 42
0.000000
  0
VERTEX
  8
0
 10
35.000000
 20
3031.000000
 42
0.000000
  0
VERTEX
  8
0
 10
35.000000
 20
3059.000000
 42
0.000000
  0
VERTEX
  8
0
 10
51.500000
 20
3059.000000
 42
0.000000
  0
VERTEX
  8
0
 10
68.000000
 20
3059.000000
 42
0.000000
  0
VERTEX
  8
0
 10
68.000000
 20
3089.000000
 42
0.000000
  0
VERTEX
  8
0
 10
68.000000
 20
3119.000000
 42
0.000000
  0
VERTEX
  8
0
 10
51.500000
 20
3119.000000
 42
0.000000
  0
VERTEX
  8
0
 10
35.000000
 20
3119.000000
 42
0.000000
  0
VERTEX
  8
0
 10
35.000000
 20
3147.000000
 42
0.000000
  0
VERTEX
  8
0
 10
35.000000
 20
3175.000000
 42
0.000000
  0
VERTEX
  8
0
 10
51.500000
 20
3175.000000
 42
0.000000
  0
VERTEX
  8
0
 10
68.000000
 20
3175.000000
 42
0.000000
  0
VERTEX
  8
0
 10
68.000000
 20
3205.500000
 42
0.000000
  0
VERTEX
  8
0
 10
68.000000
 20
3236.000000
 42
0.000000
  0
VERTEX
  8
0
 10
51.500000
 20
3236.000000
 42
0.000000
  0
VERTEX
  8
0
 10
35.000000
 20
3236.000000
 42
0.000000
  0
VERTEX
  8
0
 10
35.000000
 20
3264.000000
 42
0.000000
  0
VERTEX
  8
0
 10
35.000000
 20
3292.000000
 42
0.000000
  0
VERTEX
  8
0
 10
51.500000
 20
3292.000000
 42
0.000000
  0
VERTEX
  8
0
 10
68.000000
 20
3292.000000
 42
0.000000
  0
VERTEX
  8
0
 10
68.000000
 20
3322.000000
 42
0.000000
  0
VERTEX
  8
0
 10
68.000000
 20
3352.000000
 42
0.000000
  0
VERTEX
  8
0
 10
51.500000
 20
3352.000000
 42
0.000000
  0
VERTEX
  8
0
 10
35.000000
 20
3352.000000
 42
0.000000
  0
VERTEX
  8
0
 10
35.000000
 20
3380.000000
 42
0.000000
  0
VERTEX
  8
0
 10
35.000000
 20
3408.000000
 42
0.000000
  0
VERTEX
  8
0
 10
51.500000
 20
3408.000000
 42
0.000000
  0
VERTEX
  8
0
 10
68.000000
 20
3408.000000
 42
0.000000
  0
VERTEX
  8
0
 10
68.000000
 20
3438.000000
 42
0.000000
  0
VERTEX
  8
0
 10
68.000000
 20
3468.000000
 42
0.000000
  0
VERTEX
  8
0
 10
51.500000
 20
3468.000000
 42
0.000000
  0
VERTEX
  8
0
 10
35.000000
 20
3468.000000
 42
0.000000
  0
VERTEX
  8
0
 10
35.000000
 20
3496.500000
 42
0.000000
  0
VERTEX
  8
0
 10
35.000000
 20
3525.000000
 42
0.000000
  0
VERTEX
  8
0
 10
51.500000
 20
3525.000000
 42
0.000000
  0
VERTEX
  8
0
 10
68.000000
 20
3525.000000
 42
0.000000
  0
VERTEX
  8
0
 10
68.000000
 20
3555.000000
 42
0.000000
  0
VERTEX
  8
0
 10
68.000000
 20
3585.000000
 42
0.000000
  0
VERTEX
  8
0
 10
51.500000
 20
3585.000000
 42
0.000000
  0
VERTEX
  8
0
 10
35.000000
 20
3585.000000
 42
0.000000
  0
VERTEX
  8
0
 10
35.000000
 20
3613.000000
 42
0.000000
  0
VERTEX
  8
0
 10
35.000000
 20
3641.000000
 42
0.000000
  0
VERTEX
  8
0
 10
51.500000
 20
3641.000000
 42
0.000000
  0
VERTEX
  8
0
 10
68.000000
 20
3641.000000
 42
0.000000
  0
VERTEX
  8
0
 10
68.000000
 20
3671.000000
 42
0.000000
  0
VERTEX
  8
0
 10
68.000000
 20
3701.000000
 42
0.000000
  0
VERTEX
  8
0
 10
51.500000
 20
3701.000000
 42
0.000000
  0
VERTEX
  8
0
 10
35.000000
 20
3701.000000
 42
0.000000
  0
VERTEX
  8
0
 10
35.000000
 20
3729.000000
 42
0.000000
  0
VERTEX
  8
0
 10
35.000000
 20
3757.000000
 42
0.000000
  0
VERTEX
  8
0
 10
51.500000
 20
3757.000000
 42
0.000000
  0
VERTEX
  8
0
 10
68.000000
 20
3757.000000
 42
0.000000
  0
VERTEX
  8
0
 10
68.000000
 20
3787.500000
 42
0.000000
  0
VERTEX
  8
0
 10
68.000000
 20
3818.000000
 42
0.000000
  0
VERTEX
  8
0
 10
51.500000
 20
3818.000000
 42
0.000000
  0
VERTEX
  8
0
 10
35.000000
 20
3818.000000
 42
0.000000
  0
VERTEX
  8
0
 10
35.000000
 20
3846.000000
 42
0.000000
  0
VERTEX
  8
0
 10
35.000000
 20
3874.000000
 42
0.000000
  0
VERTEX
  8
0
 10
51.500000
 20
3874.000000
 42
0.000000
  0
VERTEX
  8
0
 10
68.000000
 20
3874.000000
 42
0.000000
  0
VERTEX
  8
0
 10
68.000000
 20
3904.000000
 42
0.000000
  0
VERTEX
  8
0
 10
68.000000
 20
3934.000000
 42
0.000000
  0
VERTEX
  8
0
 10
51.500000
 20
3934.000000
 42
0.000000
  0
VERTEX
  8
0
 10
35.000000
 20
3934.000000
 42
0.000000
  0
VERTEX
  8
0
 10
35.000000
 20
3962.000000
 42
0.000000
  0
VERTEX
  8
0
 10
35.000000
 20
3990.000000
 42
0.000000
  0
VERTEX
  8
0
 10
51.500000
 20
3990.000000
 42
0.000000
  0
VERTEX
  8
0
 10
68.000000
 20
3990.000000
 42
0.000000
  0
VERTEX
  8
0
 10
68.000000
 20
4020.500000
 42
0.000000
  0
VERTEX
  8
0
 10
68.000000
 20
4051.000000
 42
0.000000
  0
VERTEX
  8
0
 10
51.500000
 20
4051.000000
 42
0.000000
  0
VERTEX
  8
0
 10
35.000000
 20
4051.000000
 42
0.000000
  0
VERTEX
  8
0
 10
35.000000
 20
4079.000000
 42
0.000000
  0
VERTEX
  8
0
 10
35.000000
 20
4107.000000
 42
0.000000
  0
VERTEX
  8
0
 10
51.500000
 20
4107.000000
 42
0.000000
  0
VERTEX
  8
0
 10
68.000000
 20
4107.000000
 42
0.000000
  0
VERTEX
  8
0
 10
68.000000
 20
4137.000000
 42
0.000000
  0
VERTEX
  8
0
 10
68.000000
 20
4167.000000
 42
0.000000
  0
VERTEX
  8
0
 10
51.500000
 20
4167.000000
 42
0.000000
  0
VERTEX
  8
0
 10
35.000000
 20
4167.000000
 42
0.000000
  0
VERTEX
  8
0
 10
35.000000
 20
4195.000000
 42
0.000000
  0
VERTEX
  8
0
 10
35.000000
 20
4223.000000
 42
0.000000
  0
VERTEX
  8
0
 10
51.500000
 20
4223.000000
 42
0.000000
  0
VERTEX
  8
0
 10
68.000000
 20
4223.000000
 42
0.000000
  0
VERTEX
  8
0
 10
68.000000
 20
4253.500000
 42
0.000000
  0
VERTEX
  8
0
 10
68.000000
 20
4284.000000
 42
0.000000
  0
VERTEX
  8
0
 10
51.500000
 20
4284.000000
 42
0.000000
  0
VERTEX
  8
0
 10
35.000000
 20
4284.000000
 42
0.000000
  0
VERTEX
  8
0
 10
35.000000
 20
4311.500000
 42
0.000000
  0
VERTEX
  8
0
 10
35.000000
 20
4339.000000
 42
0.000000
  0
VERTEX
  8
0
 10
62.000000
 20
4339.000000
 42
0.000000
  0
VERTEX
  8
0
 10
89.000000
 20
4339.000000
 42
0.000000
  0
SEQEND
  0
POLYLINE
  8
0
 66
1
 70
1
  0
VERTEX
  8
0
 10
2703.000000
 20
4322.500000
 42
0.000000
  0
VERTEX
  8
0
 10
2703.000000
 20
4306.000000
 42
0.000000
  0
VERTEX
  8
0
 10
2732.500000
 20
4306.000000
 42
0.000000
  0
VERTEX
  8
0
 10
2762.000000
 20
4306.000000
 42
0.000000
  0
VERTEX
  8
0
 10
2762.000000
 20
4322.500000
 42
0.000000
  0
VERTEX
  8
0
 10
2762.000000
 20
4339.000000
 42
0.000000
  0
VERTEX
  8
0
 10
2790.000000
 20
4339.000000
 42
0.000000
  0
VERTEX
  8
0
 10
2818.000000
 20
4339.000000
 42
0.000000
  0
VERTEX
  8
0
 10
2818.000000
 20
4322.500000
 42
0.000000
  0
VERTEX
  8
0
 10
2818.000000
 20
4306.000000
 42
0.000000
  0
VERTEX
  8
0
 10
2847.500000
 20
4306.000000
 42
0.000000
  0
VERTEX
  8
0
 10
2877.000000
 20
4306.000000
 42
0.000000
  0
VERTEX
  8
0
 10
2877.000000
 20
4322.500000
 42
0.000000
  0
VERTEX
  8
0
 10
2877.000000
 20
4339.000000
 42
0.000000
  0
VERTEX
  8
0
 10
2904.500000
 20
4339.000000
 42
0.000000
  0
VERTEX
  8
0
 10
2932.000000
 20
4339.000000
 42
0.000000
  0
VERTEX
  8
0
 10
2932.000000
 20
4322.500000
 42
0.000000
  0
VERTEX
  8
0
 10
2932.000000
 20
4306.000000
 42
0.000000
  0
VERTEX
  8
0
 10
2962.000000
 20
4306.000000
 42
0.000000
  0
VERTEX
  8
0
 10
2992.000000
 20
4306.000000
 42
0.000000
  0
VERTEX
  8
0
 10
2992.000000
 20
4322.500000
 42
0.000000
  0
VERTEX
  8
0
 10
2992.000000
 20
4339.000000
 42
0.000000
  0
VERTEX
  8
0
 10
3019.500000
 20
4339.000000
 42
0.000000
  0
VERTEX
  8
0
 10
3047.000000
 20
4339.000000
 42
0.000000
  0
VERTEX
  8
0
 10
3047.000000
 20
4322.500000
 42
0.000000
  0
VERTEX
  8
0
 10
3047.000000
 20
4306.000000
 42
0.000000
  0
VERTEX
  8
0
 10
3076.500000
 20
4306.000000
 42
0.000000
  0
VERTEX
  8
0
 10
3106.000000
 20
4306.000000
 42
0.000000
  0
VERTEX
  8
0
 10
3106.000000
 20
4322.500000
 42
0.000000
  0
VERTEX
  8
0
 10
3106.000000
 20
4339.000000
 42
0.000000
  0
VERTEX
  8
0
 10
3134.000000
 20
4339.000000
 42
0.000000
  0
VERTEX
  8
0
 10
3162.000000
 20
4339.000000
 42
0.000000
  0
VERTEX
  8
0
 10
3162.000000
 20
4322.500000
 42
0.000000
  0
VERTEX
  8
0
 10
3162.000000
 20
4306.000000
 42
0.000000
  0
VERTEX
  8
0
 10
3191.500000
 20
4306.000000
 42
0.000000
  0
VERTEX
  8
0
 10
3221.000000
 20
4306.000000
 42
0.000000
  0
VERTEX
  8
0
 10
3221.000000
 20
4322.500000
 42
0.000000
  0
VERTEX
  8
0
 10
3221.000000
 20
4339.000000
 42
0.000000
  0
VERTEX
  8
0
 10
3248.500000
 20
4339.000000
 42
0.000000
  0
VERTEX
  8
0
 10
3276.000000
 20
4339.000000
 42
0.000000
  0
VERTEX
  8
0
 10
3276.000000
 20
4322.500000
 42
0.000000
  0
VERTEX
  8
0
 10
3276.000000
 20
4306.000000
 42
0.000000
  0
VERTEX
  8
0
 10
3306.000000
 20
4306.000000
 42
0.000000
  0
VERTEX
  8
0
 10
3336.000000
 20
4306.000000
 42
0.000000
  0
VERTEX
  8
0
 10
3336.000000
 20
4322.500000
 42
0.000000
  0
VERTEX
  8
0
 10
3336.000000
 20
4339.000000
 42
0.000000
  0
VERTEX
  8
0
 10
3363.500000
 20
4339.000000
 42
0.000000
  0
VERTEX
  8
0
 10
3391.000000
 20
4339.000000
 42
0.000000
  0
VERTEX
  8
0
 10
3391.000000
 20
4322.500000
 42
0.000000
  0
VERTEX
  8
0
 10
3391.000000
 20
4306.000000
 42
0.000000
  0
VERTEX
  8
0
 10
3420.500000
 20
4306.000000
 42
0.000000
  0
VERTEX
  8
0
 10
3450.000000
 20
4306.000000
 42
0.000000
  0
VERTEX
  8
0
 10
3450.000000
 20
4322.500000
 42
0.000000
  0
VERTEX
  8
0
 10
3450.000000
 20
4339.000000
 42
0.000000
  0
VERTEX
  8
0
 10
3478.000000
 20
4339.000000
 42
0.000000
  0
VERTEX
  8
0
 10
3506.000000
 20
4339.000000
 42
0.000000
  0
VERTEX
  8
0
 10
3506.000000
 20
4322.500000
 42
0.000000
  0
VERTEX
  8
0
 10
3506.000000
 20
4306.000000
 42
0.000000
  0
VERTEX
  8
0
 10
3535.500000
 20
4306.000000
 42
0.000000
  0
VERTEX
  8
0
 10
3565.000000
 20
4306.000000
 42
0.000000
  0
VERTEX
  8
0
 10
3565.000000
 20
4322.500000
 42
0.000000
  0
VERTEX
  8
0
 10
3565.000000
 20
4339.000000
 42
0.000000
  0
VERTEX
  8
0
 10
3592.500000
 20
4339.000000
 42
0.000000
  0
VERTEX
  8
0
 10
3620.000000
 20
4339.000000
 42
0.000000
  0
VERTEX
  8
0
 10
3620.000000
 20
4322.500000
 42
0.000000
  0
VERTEX
  8
0
 10
3620.000000
 20
4306.000000
 42
0.000000
  0
VERTEX
  8
0
 10
3650.000000
 20
4306.000000
 42
0.000000
  0
VERTEX
  8
0
 10
3680.000000
 20
4306.000000
 42
0.000000
  0
VERTEX
  8
0
 10
3680.000000
 20
4322.500000
 42
0.000000
  0
VERTEX
  8
0
 10
3680.000000
 20
4339.000000
 42
0.000000
  0
VERTEX
  8
0
 10
3707.500000
 20
4339.000000
 42
0.000000
  0
VERTEX
  8
0
 10
3735.000000
 20
4339.000000
 42
0.000000
  0
VERTEX
  8
0
 10
3735.000000
 20
4322.500000
 42
0.000000
  0
VERTEX
  8
0
 10
3735.000000
 20
4306.000000
 42
0.000000
  0
VERTEX
  8
0
 10
3764.500000
 20
4306.000000
 42
0.000000
  0
VERTEX
  8
0
 10
3794.000000
 20
4306.000000
 42
0.000000
  0
VERTEX
  8
0
 10
3794.000000
 20
4322.500000
 42
0.000000
  0
VERTEX
  8
0
 10
3794.000000
 20
4339.000000
 42
0.000000
  0
VERTEX
  8
0
 10
3822.000000
 20
4339.000000
 42
0.000000
  0
VERTEX
  8
0
 10
3850.000000
 20
4339.000000
 42
0.000000
  0
VERTEX
  8
0
 10
3850.000000
 20
4322.500000
 42
0.000000
  0
VERTEX
  8
0
 10
3850.000000
 20
4306.000000
 42
0.000000
  0
VERTEX
  8
0
 10
3879.500000
 20
4306.000000
 42
0.000000
  0
VERTEX
  8
0
 10
3909.000000
 20
4306.000000
 42
0.000000
  0
VERTEX
  8
0
 10
3909.000000
 20
4322.500000
 42
0.000000
  0
VERTEX
  8
0
 10
3909.000000
 20
4339.000000
 42
0.000000
  0
VERTEX
  8
0
 10
3936.500000
 20
4339.000000
 42
0.000000
  0
VERTEX
  8
0
 10
3964.000000
 20
4339.000000
 42
0.000000
  0
VERTEX
  8
0
 10
3964.000000
 20
4322.500000
 42
0.000000
  0
VERTEX
  8
0
 10
3964.000000
 20
4306.000000
 42
0.000000
  0
VERTEX
  8
0
 10
3994.000000
 20
4306.000000
 42
0.000000
  0
VERTEX
  8
0
 10
4024.000000
 20
4306.000000
 42
0.000000
  0
VERTEX
  8
0
 10
4024.000000
 20
4322.500000
 42
0.000000
  0
VERTEX
  8
0
 10
4024.000000
 20
4339.000000
 42
0.000000
  0
VERTEX
  8
0
 10
4051.500000
 20
4339.000000
 42
0.000000
  0
VERTEX
  8
0
 10
4079.000000
 20
4339.000000
 42
0.000000
  0
VERTEX
  8
0
 10
4079.000000
 20
4322.500000
 42
0.000000
  0
VERTEX
  8
0
 10
4079.000000
 20
4306.000000
 42
0.000000
  0
VERTEX
  8
0
 10
4108.500000
 20
4306.000000
 42
0.000000
  0
VERTEX
  8
0
 10
4138.000000
 20
4306.000000
 42
0.000000
  0
VERTEX
  8
0
 10
4138.000000
 20
4322.500000
 42
0.000000
  0
VERTEX
  8
0
 10
4138.000000
 20
4339.000000
 42
0.000000
  0
VERTEX
  8
0
 10
4166.000000
 20
4339.000000
 42
0.000000
  0
VERTEX
  8
0
 10
4194.000000
 20
4339.000000
 42
0.000000
  0
VERTEX
  8
0
 10
4194.000000
 20
4322.500000
 42
0.000000
  0
VERTEX
  8
0
 10
4194.000000
 20
4306.000000
 42
0.000000
  0
VERTEX
  8
0
 10
4223.500000
 20
4306.000000
 42
0.000000
  0
VERTEX
  8
0
 10
4253.000000
 20
4306.000000
 42
0.000000
  0
VERTEX
  8
0
 10
4253.000000
 20
4322.500000
 42
0.000000
  0
VERTEX
  8
0
 10
4253.000000
 20
4339.000000
 42
0.000000
  0
VERTEX
  8
0
 10
4280.500000
 20
4339.000000
 42
0.000000
  0
VERTEX
  8
0
 10
4308.000000
 20
4339.000000
 42
0.000000
  0
VERTEX
  8
0
 10
4308.000000
 20
4322.500000
 42
0.000000
  0
VERTEX
  8
0
 10
4308.000000
 20
4306.000000
 42
0.000000
  0
VERTEX
  8
0
 10
4338.000000
 20
4306.000000
 42
0.000000
  0
VERTEX
  8
0
 10
4368.000000
 20
4306.000000
 42
0.000000
  0
VERTEX
  8
0
 10
4368.000000
 20
4322.500000
 42
0.000000
  0
VERTEX
  8
0
 10
4368.000000
 20
4339.000000
 42
0.000000
  0
VERTEX
  8
0
 10
4395.500000
 20
4339.000000
 42
0.000000
  0
VERTEX
  8
0
 10
4423.000000
 20
4339.000000
 42
0.000000
  0
VERTEX
  8
0
 10
4423.000000
 20
4322.500000
 42
0.000000
  0
VERTEX
  8
0
 10
4423.000000
 20
4306.000000
 42
0.000000
  0
VERTEX
  8
0
 10
4452.500000
 20
4306.000000
 42
0.000000
  0
VERTEX
  8
0
 10
4482.000000
 20
4306.000000
 42
0.000000
  0
VERTEX
  8
0
 10
4482.000000
 20
4322.500000
 42
0.000000
  0
VERTEX
  8
0
 10
4482.000000
 20
4339.000000
 42
0.000000
  0
VERTEX
  8
0
 10
4510.000000
 20
4339.000000
 42
0.000000
  0
VERTEX
  8
0
 10
4538.000000
 20
4339.000000
 42
0.000000
  0
VERTEX
  8
0
 10
4538.000000
 20
4322.500000
 42
0.000000
  0
VERTEX
  8
0
 10
4538.000000
 20
4306.000000
 42
0.000000
  0
VERTEX
  8
0
 10
4567.500000
 20
4306.000000
 42
0.000000
  0
VERTEX
  8
0
 10
4597.000000
 20
4306.000000
 42
0.000000
  0
VERTEX
  8
0
 10
4597.000000
 20
4322.500000
 42
0.000000
  0
VERTEX
  8
0
 10
4597.000000
 20
4339.000000
 42
0.000000
  0
VERTEX
  8
0
 10
4624.500000
 20
4339.000000
 42
0.000000
  0
VERTEX
  8
0
 10
4652.000000
 20
4339.000000
 42
0.000000
  0
VERTEX
  8
0
 10
4652.000000
 20
4322.500000
 42
0.000000
  0
VERTEX
  8
0
 10
4652.000000
 20
4306.000000
 42
0.000000
  0
VERTEX
  8
0
 10
4682.000000
 20
4306.000000
 42
0.000000
  0
VERTEX
  8
0
 10
4712.000000
 20
4306.000000
 42
0.000000
  0
VERTEX
  8
0
 10
4712.000000
 20
4322.500000
 42
0.000000
  0
VERTEX
  8
0
 10
4712.000000
 20
4339.000000
 42
0.000000
  0
VERTEX
  8
0
 10
4739.500000
 20
4339.000000
 42
0.000000
  0
VERTEX
  8
0
 10
4767.000000
 20
4339.000000
 42
0.000000
  0
VERTEX
  8
0
 10
4767.000000
 20
4322.500000
 42
0.000000
  0
VERTEX
  8
0
 10
4767.000000
 20
4306.000000
 42
0.000000
  0
VERTEX
  8
0
 10
4797.000000
 20
4306.000000
 42
0.000000
  0
VERTEX
  8
0
 10
4827.000000
 20
4306.000000
 42
0.000000
  0
VERTEX
  8
0
 10
4827.000000
 20
4322.500000
 42
0.000000
  0
VERTEX
  8
0
 10
4827.000000
 20
4339.000000
 42
0.000000
  0
VERTEX
  8
0
 10
4854.500000
 20
4339.000000
 42
0.000000
  0
VERTEX
  8
0
 10
4882.000000
 20
4339.000000
 42
0.000000
  0
VERTEX
  8
0
 10
4882.000000
 20
4322.500000
 42
0.000000
  0
VERTEX
  8
0
 10
4882.000000
 20
4306.000000
 42
0.000000
  0
VERTEX
  8
0
 10
4911.500000
 20
4306.000000
 42
0.000000
  0
VERTEX
  8
0
 10
4941.000000
 20
4306.000000
 42
0.000000
  0
VERTEX
  8
0
 10
4941.000000
 20
4322.500000
 42
0.000000
  0
VERTEX
  8
0
 10
4941.000000
 20
4339.000000
 42
0.000000
  0
VERTEX
  8
0
 10
4968.500000
 20
4339.000000
 42
0.000000
  0
VERTEX
  8
0
 10
4996.000000
 20
4339.000000
 42
0.000000
  0
VERTEX
  8
0
 10
4996.000000
 20
4322.500000
 42
0.000000
  0
VERTEX
  8
0
 10
4996.000000
 20
4306.000000
 42
0.000000
  0
VERTEX
  8
0
 10
5026.000000
 20
4306.000000
 42
0.000000
  0
VERTEX
  8
0
 10
5056.000000
 20
4306.000000
 42
0.000000
  0
VERTEX
  8
0
 10
5056.000000
 20
4322.500000
 42
0.000000
  0
VERTEX
  8
0
 10
5056.000000
 20
4339.000000
 42
0.000000
  0
VERTEX
  8
0
 10
5083.500000
 20
4339.000000
 42
0.000000
  0
VERTEX
  8
0
 10
5111.000000
 20
4339.000000
 42
0.000000
  0
VERTEX
  8
0
 10
5111.000000
 20
4322.500000
 42
0.000000
  0
VERTEX
  8
0
 10
5111.000000
 20
4306.000000
 42
0.000000
  0
VERTEX
  8
0
 10
5141.000000
 20
4306.000000
 42
0.000000
  0
VERTEX
  8
0
 10
5171.000000
 20
4306.000000
 42
0.000000
  0
VERTEX
  8
0
 10
5171.000000
 20
4322.500000
 42
0.000000
  0
VERTEX
  8
0
 10
5171.000000
 20
4339.000000
 42
0.000000
  0
VERTEX
  8
0
 10
5198.000000
 20
4339.000000
 42
0.000000
  0
VERTEX
  8
0
 10
5225.000000
 20
4339.000000
 42
0.000000
  0
VERTEX
  8
0
 10
5225.000000
 20
4311.500000
 42
0.000000
  0
VERTEX
  8
0
 10
5225.000000
 20
4284.000000
 42
0.000000
  0
VERTEX
  8
0
 10
5208.500000
 20
4284.000000
 42
0.000000
  0
VERTEX
  8
0
 10
5192.000000
 20
4284.000000
 42
0.000000
  0
VERTEX
  8
0
 10
5192.000000
 20
4253.500000
 42
0.000000
  0
VERTEX
  8
0
 10
5192.000000
 20
4223.000000
 42
0.000000
  0
VERTEX
  8
0
 10
5208.500000
 20
4223.000000
 42
0.000000
  0
VERTEX
  8
0
 10
5225.000000
 20
4223.000000
 42
0.000000
  0
VERTEX
  8
0
 10
5225.000000
 20
4195.000000
 42
0.000000
  0
VERTEX
  8
0
 10
5225.000000
 20
4167.000000
 42
0.000000
  0
VERTEX
  8
0
 10
5208.500000
 20
4167.000000
 42
0.000000
  0
VERTEX
  8
0
 10
5192.000000
 20
4167.000000
 42
0.000000
  0
VERTEX
  8
0
 10
5192.000000
 20
4137.000000
 42
0.000000
  0
VERTEX
  8
0
 10
5192.000000
 20
4107.000000
 42
0.000000
  0
VERTEX
  8
0
 10
5208.500000
 20
4107.000000
 42
0.000000
  0
VERTEX
  8
0
 10
5225.000000
 20
4107.000000
 42
0.000000
  0
VERTEX
  8
0
 10
5225.000000
 20
4079.000000
 42
0.000000
  0
VERTEX
  8
0
 10
5225.000000
 20
4051.000000
 42
0.000000
  0
VERTEX
  8
0
 10
5208.500000
 20
4051.000000
 42
0.000000
  0
VERTEX
  8
0
 10
5192.000000
 20
4051.000000
 42
0.000000
  0
VERTEX
  8
0
 10
5192.000000
 20
4020.500000
 42
0.000000
  0
VERTEX
  8
0
 10
5192.000000
 20
3990.000000
 42
0.000000
  0
VERTEX
  8
0
 10
5208.500000
 20
3990.000000
 42
0.000000
  0
VERTEX
  8
0
 10
5225.000000
 20
3990.000000
 42
0.000000
  0
VERTEX
  8
0
 10
5225.000000
 20
3962.000000
 42
0.000000
  0
VERTEX
  8
0
 10
5225.000000
 20
3934.000000
 42
0.000000
  0
VERTEX
  8
0
 10
5208.500000
 20
3934.000000
 42
0.000000
  0
VERTEX
  8
0
 10
5192.000000
 20
3934.000000
 42
0.000000
  0
VERTEX
  8
0
 10
5192.000000
 20
3904.000000
 42
0.000000
  0
VERTEX
  8
0
 10
5192.000000
 20
3874.000000
 42
0.000000
  0
VERTEX
  8
0
 10
5208.500000
 20
3874.000000
 42
0.000000
  0
VERTEX
  8
0
 10
5225.000000
 20
3874.000000
 42
0.000000
  0
VERTEX
  8
0
 10
5225.000000
 20
3846.000000
 42
0.000000
  0
VERTEX
  8
0
 10
5225.000000
 20
3818.000000
 42
0.000000
  0
VERTEX
  8
0
 10
5208.500000
 20
3818.000000
 42
0.000000
  0
VERTEX
  8
0
 10
5192.000000
 20
3818.000000
 42
0.000000
  0
VERTEX
  8
0
 10
5192.000000
 20
3787.500000
 42
0.000000
  0
VERTEX
  8
0
 10
5192.000000
 20
3757.000000
 42
0.000000
  0
VERTEX
  8
0
 10
5208.500000
 20
3757.000000
 42
0.000000
  0
VERTEX
  8
0
 10
5225.000000
 20
3757.000000
 42
0.000000
  0
VERTEX
  8
0
 10
5225.000000
 20
3729.000000
 42
0.000000
  0
VERTEX
  8
0
 10
5225.000000
 20
3701.000000
 42
0.000000
  0
VERTEX
  8
0
 10
5208.500000
 20
3701.000000
 42
0.000000
  0
VERTEX
  8
0
 10
5192.000000
 20
3701.000000
 42
0.000000
  0
VERTEX
  8
0
 10
5192.000000
 20
3671.000000
 42
0.000000
  0
VERTEX
  8
0
 10
5192.000000
 20
3641.000000
 42
0.000000
  0
VERTEX
  8
0
 10
5208.500000
 20
3641.000000
 42
0.000000
  0
VERTEX
  8
0
 10
5225.000000
 20
3641.000000
 42
0.000000
  0
VERTEX
  8
0
 10
5225.000000
 20
3613.000000
 42
0.000000
  0
VERTEX
  8
0
 10
5225.000000
 20
3585.000000
 42
0.000000
  0
VERTEX
  8
0
 10
5208.500000
 20
3585.000000
 42
0.000000
  0
VERTEX
  8
0
 10
5192.000000
 20
3585.000000
 42
0.000000
  0
VERTEX
  8
0
 10
5192.000000
 20
3555.000000
 42
0.000000
  0
VERTEX
  8
0
 10
5192.000000
 20
3525.000000
 42
0.000000
  0
VERTEX
  8
0
 10
5208.500000
 20
3525.000000
 42
0.000000
  0
VERTEX
  8
0
 10
5225.000000
 20
3525.000000
 42
0.000000
  0
VERTEX
  8
0
 10
5225.000000
 20
3496.500000
 42
0.000000
  0
VERTEX
  8
0
 10
5225.000000
 20
3468.000000
 42
0.000000
  0
VERTEX
  8
0
 10
5208.500000
 20
3468.000000
 42
0.000000
  0
VERTEX
  8
0
 10
5192.000000
 20
3468.000000
 42
0.000000
  0
VERTEX
  8
0
 10
5192.000000
 20
3438.000000
 42
0.000000
  0
VERTEX
  8
0
 10
5192.000000
 20
3408.000000
 42
0.000000
  0
VERTEX
  8
0
 10
5208.500000
 20
3408.000000
 42
0.000000
  0
VERTEX
  8
0
 10
5225.000000
 20
3408.000000
 42
0.000000
  0
VERTEX
  8
0
 10
5225.000000
 20
3380.000000
 42
0.000000
  0
VERTEX
  8
0
 10
5225.000000
 20
3352.000000
 42
0.000000
  0
VERTEX
  8
0
 10
5208.500000
 20
3352.000000
 42
0.000000
  0
VERTEX
  8
0
 10
5192.000000
 20
3352.000000
 42
0.000000
  0
VERTEX
  8
0
 10
5192.000000
 20
3322.000000
 42
0.000000
  0
VERTEX
  8
0
 10
5192.000000
 20
3292.000000
 42
0.000000
  0
VERTEX
  8
0
 10
5208.500000
 20
3292.000000
 42
0.000000
  0
VERTEX
  8
0
 10
5225.000000
 20
3292.000000
 42
0.000000
  0
VERTEX
  8
0
 10
5225.000000
 20
3264.000000
 42
0.000000
  0
VERTEX
  8
0
 10
5225.000000
 20
3236.000000
 42
0.000000
  0
VERTEX
  8
0
 10
5208.500000
 20
3236.000000
 42
0.000000
  0
VERTEX
  8
0
 10
5192.000000
 20
3236.000000
 42
0.000000
  0
VERTEX
  8
0
 10
5192.000000
 20
3205.500000
 42
0.000000
  0
VERTEX
  8
0
 10
5192.000000
 20
3175.000000
 42
0.000000
  0
VERTEX
  8
0
 10
5208.500000
 20
3175.000000
 42
0.000000
  0
VERTEX
  8
0
 10
5225.000000
 20
3175.000000
 42
0.000000
  0
VERTEX
  8
0
 10
5225.000000
 20
3147.000000
 42
0.000000
  0
VERTEX
  8
0
 10
5225.000000
 20
3119.000000
 42
0.000000
  0
VERTEX
  8
0
 10
5208.500000
 20
3119.000000
 42
0.000000
  0
VERTEX
  8
0
 10
5192.000000
 20
3119.000000
 42
0.000000
  0
VERTEX
  8
0
 10
5192.000000
 20
3089.000000
 42
0.000000
  0
VERTEX
  8
0
 10
5192.000000
 20
3059.000000
 42
0.000000
  0
VERTEX
  8
0
 10
5208.500000
 20
3059.000000
 42
0.000000
  0
VERTEX
  8
0
 10
5225.000000
 20
3059.000000
 42
0.000000
  0
VERTEX
  8
0
 10
5225.000000
 20
3031.000000
 42
0.000000
  0
VERTEX
  8
0
 10
5225.000000
 20
3003.000000
 42
0.000000
  0
VERTEX
  8
0
 10
5208.500000
 20
3003.000000
 42
0.000000
  0
VERTEX
  8
0
 10
5192.000000
 20
3003.000000
 42
0.000000
  0
VERTEX
  8
0
 10
5192.000000
 20
2972.500000
 42
0.000000
  0
VERTEX
  8
0
 10
5192.000000
 20
2942.000000
 42
0.000000
  0
VERTEX
  8
0
 10
5208.500000
 20
2942.000000
 42
0.000000
  0
VERTEX
  8
0
 10
5225.000000
 20
2942.000000
 42
0.000000
  0
VERTEX
  8
0
 10
5225.000000
 20
2914.000000
 42
0.000000
  0
VERTEX
  8
0
 10
5225.000000
 20
2886.000000
 42
0.000000
  0
VERTEX
  8
0
 10
5208.500000
 20
2886.000000
 42
0.000000
  0
VERTEX
  8
0
 10
5192.000000
 20
2886.000000
 42
0.000000
  0
VERTEX
  8
0
 10
5192.000000
 20
2856.000000
 42
0.000000
  0
VERTEX
  8
0
 10
5192.000000
 20
2826.000000
 42
0.000000
  0
VERTEX
  8
0
 10
5208.500000
 20
2826.000000
 42
0.000000
  0
VERTEX
  8
0
 10
5225.000000
 20
2826.000000
 42
0.000000
  0
VERTEX
  8
0
 10
5225.000000
 20
2798.000000
 42
0.000000
  0
VERTEX
  8
0
 10
5225.000000
 20
2770.000000
 42
0.000000
  0
VERTEX
  8
0
 10
5208.500000
 20
2770.000000
 42
0.000000
  0
VERTEX
  8
0
 10
5192.000000
 20
2770.000000
 42
0.000000
  0
VERTEX
  8
0
 10
5192.000000
 20
2739.500000
 42
0.000000
  0
VERTEX
  8
0
 10
5192.000000
 20
2709.000000
 42
0.000000
  0
VERTEX
  8
0
 10
5208.500000
 20
2709.000000
 42
0.000000
  0
VERTEX
  8
0
 10
5225.000000
 20
2709.000000
 42
0.000000
  0
VERTEX
  8
0
 10
5225.000000
 20
2681.000000
 42
0.000000
  0
VERTEX
  8
0
 10
5225.000000
 20
2653.000000
 42
0.000000
  0
VERTEX
  8
0
 10
5208.500000
 20
2653.000000
 42
0.000000
  0
VERTEX
  8
0
 10
5192.000000
 20
2653.000000
 42
0.000000
  0
VERTEX
  8
0
 10
5192.000000
 20
2623.000000
 42
0.000000
  0
VERTEX
  8
0
 10
5192.000000
 20
2593.000000
 42
0.000000
  0
VERTEX
  8
0
 10
5208.500000
 20
2593.000000
 42
0.000000
  0
VERTEX
  8
0
 10
5225.000000
 20
2593.000000
 42
0.000000
  0
VERTEX
  8
0
 10
5225.000000
 20
2565.000000
 42
0.000000
  0
VERTEX
  8
0
 10
5225.000000
 20
2537.000000
 42
0.000000
  0
VERTEX
  8
0
 10
5198.024179
 20
2537.000000
 42
0.000000
  0
VERTEX
  8
0
 10
5171.048358
 20
2537.000000
 42
0.000000
  0
VERTEX
  8
0
 10
5170.774179
 20
2553.750000
 42
0.000000
  0
VERTEX
  8
0
 10
5170.500000
 20
2570.500000
 42
0.000000
  0
VERTEX
  8
0
 10
5140.750000
 20
2570.764881
 42
0.000000
  0
VERTEX
  8
0
 10
5111.000000
 20
2571.029761
 42
0.000000
  0
VERTEX
  8
0
 10
5111.000000
 20
2554.014881
 42
0.000000
  0
VERTEX
  8
0
 10
5111.000000
 20
2537.000000
 42
0.000000
  0
VERTEX
  8
0
 10
5083.500000
 20
2537.000000
 42
0.000000
  0
VERTEX
  8
0
 10
5056.000000
 20
2537.000000
 42
0.000000
  0
VERTEX
  8
0
 10
5056.000000
 20
2554.014881
 42
0.000000
  0
VERTEX
  8
0
 10
5056.000000
 20
2571.029761
 42
0.000000
  0
VERTEX
  8
0
 10
5026.250000
 20
2570.764881
 42
0.000000
  0
VERTEX
  8
0
 10
4996.500000
 20
2570.500000
 42
0.000000
  0
VERTEX
  8
0
 10
4996.225748
 20
2553.733972
 42
0.000000
  0
VERTEX
  8
0
 10
4995.951497
 20
2536.967944
 42
0.000000
  0
VERTEX
  8
0
 10
4968.725748
 20
2537.233972
 42
0.000000
  0
VERTEX
  8
0
 10
4941.500000
 20
2537.500000
 42
0.000000
  0
VERTEX
  8
0
 10
4941.225821
 20
2554.250000
 42
0.000000
  0
VERTEX
  8
0
 10
4940.951642
 20
2571.000000
 42
0.000000
  0
VERTEX
  8
0
 10
4911.500000
 20
2571.000000
 42
0.000000
  0
VERTEX
  8
0
 10
4882.048358
 20
2571.000000
 42
0.000000
  0
VERTEX
  8
0
 10
4881.774179
 20
2554.250000
 42
0.000000
  0
VERTEX
  8
0
 10
4881.500000
 20
2537.500000
 42
0.000000
  0
VERTEX
  8
0
 10
4854.274252
 20
2537.233972
 42
0.000000
  0
VERTEX
  8
0
 10
4827.048503
 20
2536.967944
 42
0.000000
  0
VERTEX
  8
0
 10
4826.774252
 20
2553.733972
 42
0.000000
  0
VERTEX
  8
0
 10
4826.500000
 20
2570.500000
 42
0.000000
  0
VERTEX
  8
0
 10
4796.750000
 20
2570.764881
 42
0.000000
  0
VERTEX
  8
0
 10
4767.000000
 20
2571.029761
 42
0.000000
  0
VERTEX
  8
0
 10
4767.000000
 20
2554.014881
 42
0.000000
  0
VERTEX
  8
0
 10
4767.000000
 20
2537.000000
 42
0.000000
  0
VERTEX
  8
0
 10
4739.500000
 20
2537.000000
 42
0.000000
  0
VERTEX
  8
0
 10
4712.000000
 20
2537.000000
 42
0.000000
  0
VERTEX
  8
0
 10
4712.000000
 20
2554.014881
 42
0.000000
  0
VERTEX
  8
0
 10
4712.000000
 20
2571.029761
 42
0.000000
  0
VERTEX
  8
0
 10
4682.250000
 20
2570.764881
 42
0.000000
  0
VERTEX
  8
0
 10
4652.500000
 20
2570.500000
 42
0.000000
  0
VERTEX
  8
0
 10
4652.225821
 20
2553.750000
 42
0.000000
  0
VERTEX
  8
0
 10
4651.951642
 20
2537.000000
 42
0.000000
  0
VERTEX
  8
0
 10
4624.475821
 20
2537.000000
 42
0.000000
  0
VERTEX
  8
0
 10
4597.000000
 20
2537.000000
 42
0.000000
  0
VERTEX
  8
0
 10
4597.000000
 20
2554.000000
 42
0.000000
  0
VERTEX
  8
0
 10
4597.000000
 20
2571.000000
 42
0.000000
  0
VERTEX
  8
0
 10
4567.524179
 20
2571.000000
 42
0.000000
  0
VERTEX
  8
0
 10
4538.048358
 20
2571.000000
 42
0.000000
  0
VERTEX
  8
0
 10
4537.774179
 20
2554.250000
 42
0.000000
  0
VERTEX
  8
0
 10
4537.500000
 20
2537.500000
 42
0.000000
  0
VERTEX
  8
0
 10
4510.000000
 20
2537.500000
 42
0.000000
  0
VERTEX
  8
0
 10
4482.500000
 20
2537.500000
 42
0.000000
  0
VERTEX
  8
0
 10
4482.225821
 20
2554.250000
 42
0.000000
  0
VERTEX
  8
0
 10
4481.951642
 20
2571.000000
 42
0.000000
  0
VERTEX
  8
0
 10
4452.475821
 20
2571.000000
 42
0.000000
  0
VERTEX
  8
0
 10
4423.000000
 20
2571.000000
 42
0.000000
  0
VERTEX
  8
0
 10
4423.000000
 20
2554.000000
 42
0.000000
  0
VERTEX
  8
0
 10
4423.000000
 20
2537.000000
 42
0.000000
  0
VERTEX
  8
0
 10
4395.500000
 20
2537.000000
 42
0.000000
  0
VERTEX
  8
0
 10
4368.000000
 20
2537.000000
 42
0.000000
  0
VERTEX
  8
0
 10
4368.000000
 20
2554.014881
 42
0.000000
  0
VERTEX
  8
0
 10
4368.000000
 20
2571.029761
 42
0.000000
  0
VERTEX
  8
0
 10
4338.250000
 20
2570.764881
 42
0.000000
  0
VERTEX
  8
0
 10
4308.500000
 20
2570.500000
 42
0.000000
  0
VERTEX
  8
0
 10
4308.225821
 20
2553.750000
 42
0.000000
  0
VERTEX
  8
0
 10
4307.951642
 20
2537.000000
 42
0.000000
  0
VERTEX
  8
0
 10
4280.475821
 20
2537.000000
 42
0.000000
  0
VERTEX
  8
0
 10
4253.000000
 20
2537.000000
 42
0.000000
  0
VERTEX
  8
0
 10
4253.000000
 20
2554.000000
 42
0.000000
  0
VERTEX
  8
0
 10
4253.000000
 20
2571.000000
 42
0.000000
  0
VERTEX
  8
0
 10
4223.524179
 20
2571.000000
 42
0.000000
  0
VERTEX
  8
0
 10
4194.048358
 20
2571.000000
 42
0.000000
  0
VERTEX
  8
0
 10
4193.774179
 20
2554.250000
 42
0.000000
  0
VERTEX
  8
0
 10
4193.500000
 20
2537.500000
 42
0.000000
  0
VERTEX
  8
0
 10
4166.000000
 20
2537.500000
 42
0.000000
  0
VERTEX
  8
0
 10
4138.500000
 20
2537.500000
 42
0.000000
  0
VERTEX
  8
0
 10
4138.225821
 20
2554.250000
 42
0.000000
  0
VERTEX
  8
0
 10
4137.951642
 20
2571.000000
 42
0.000000
  0
VERTEX
  8
0
 10
4108.475821
 20
2571.000000
 42
0.000000
  0
VERTEX
  8
0
 10
4079.000000
 20
2571.000000
 42
0.000000
  0
VERTEX
  8
0
 10
4079.000000
 20
2554.000000
 42
0.000000
  0
VERTEX
  8
0
 10
4079.000000
 20
2537.000000
 42
0.000000
  0
VERTEX
  8
0
 10
4051.524179
 20
2537.000000
 42
0.000000
  0
VERTEX
  8
0
 10
4024.048358
 20
2537.000000
 42
0.000000
  0
VERTEX
  8
0
 10
4023.774179
 20
2553.750000
 42
0.000000
  0
VERTEX
  8
0
 10
4023.500000
 20
2570.500000
 42
0.000000
  0
VERTEX
  8
0
 10
3994.000000
 20
2570.500000
 42
0.000000
  0
VERTEX
  8
0
 10
3964.500000
 20
2570.500000
 42
0.000000
  0
VERTEX
  8
0
 10
3964.225821
 20
2553.750000
 42
0.000000
  0
VERTEX
  8
0
 10
3963.951642
 20
2537.000000
 42
0.000000
  0
VERTEX
  8
0
 10
3936.475821
 20
2537.000000
 42
0.000000
  0
VERTEX
  8
0
 10
3909.000000
 20
2537.000000
 42
0.000000
  0
VERTEX
  8
0
 10
3909.000000
 20
2554.000000
 42
0.000000
  0
VERTEX
  8
0
 10
3909.000000
 20
2571.000000
 42
0.000000
  0
VERTEX
  8
0
 10
3879.524179
 20
2571.000000
 42
0.000000
  0
VERTEX
  8
0
 10
3850.048358
 20
2571.000000
 42
0.000000
  0
VERTEX
  8
0
 10
3849.774179
 20
2554.250000
 42
0.000000
  0
VERTEX
  8
0
 10
3849.500000
 20
2537.500000
 42
0.000000
  0
VERTEX
  8
0
 10
3822.000000
 20
2537.500000
 42
0.000000
  0
VERTEX
  8
0
 10
3794.500000
 20
2537.500000
 42
0.000000
  0
VERTEX
  8
0
 10
3794.225821
 20
2554.250000
 42
0.000000
  0
VERTEX
  8
0
 10
3793.951642
 20
2571.000000
 42
0.000000
  0
VERTEX
  8
0
 10
3764.475821
 20
2571.000000
 42
0.000000
  0
VERTEX
  8
0
 10
3735.000000
 20
2571.000000
 42
0.000000
  0
VERTEX
  8
0
 10
3735.000000
 20
2554.000000
 42
0.000000
  0
VERTEX
  8
0
 10
3735.000000
 20
2537.000000
 42
0.000000
  0
VERTEX
  8
0
 10
3707.524179
 20
2537.000000
 42
0.000000
  0
VERTEX
  8
0
 10
3680.048358
 20
2537.000000
 42
0.000000
  0
VERTEX
  8
0
 10
3679.774179
 20
2553.750000
 42
0.000000
  0
VERTEX
  8
0
 10
3679.500000
 20
2570.500000
 42
0.000000
  0
VERTEX
  8
0
 10
3650.000000
 20
2570.500000
 42
0.000000
  0
VERTEX
  8
0
 10
3620.500000
 20
2570.500000
 42
0.000000
  0
VERTEX
  8
0
 10
3620.225821
 20
2553.750000
 42
0.000000
  0
VERTEX
  8
0
 10
3619.951642
 20
2537.000000
 42
0.000000
  0
VERTEX
  8
0
 10
3592.475821
 20
2537.000000
 42
0.000000
  0
VERTEX
  8
0
 10
3565.000000
 20
2537.000000
 42
0.000000
  0
VERTEX
  8
0
 10
3565.000000
 20
2554.000000
 42
0.000000
  0
VERTEX
  8
0
 10
3565.000000
 20
2571.000000
 42
0.000000
  0
VERTEX
  8
0
 10
3535.524179
 20
2571.000000
 42
0.000000
  0
VERTEX
  8
0
 10
3506.048358
 20
2571.000000
 42
0.000000
  0
VERTEX
  8
0
 10
3505.774179
 20
2554.250000
 42
0.000000
  0
VERTEX
  8
0
 10
3505.500000
 20
2537.500000
 42
0.000000
  0
VERTEX
  8
0
 10
3478.000000
 20
2537.500000
 42
0.000000
  0
VERTEX
  8
0
 10
3450.500000
 20
2537.500000
 42
0.000000
  0
VERTEX
  8
0
 10
3450.225821
 20
2554.250000
 42
0.000000
  0
VERTEX
  8
0
 10
3449.951642
 20
2571.000000
 42
0.000000
  0
VERTEX
  8
0
 10
3420.475821
 20
2571.000000
 42
0.000000
  0
VERTEX
  8
0
 10
3391.000000
 20
2571.000000
 42
0.000000
  0
VERTEX
  8
0
 10
3391.000000
 20
2554.000000
 42
0.000000
  0
VERTEX
  8
0
 10
3391.000000
 20
2537.000000
 42
0.000000
  0
VERTEX
  8
0
 10
3363.524179
 20
2537.000000
 42
0.000000
  0
VERTEX
  8
0
 10
3336.048358
 20
2537.000000
 42
0.000000
  0
VERTEX
  8
0
 10
3335.774179
 20
2553.750000
 42
0.000000
  0
VERTEX
  8
0
 10
3335.500000
 20
2570.500000
 42
0.000000
  0
VERTEX
  8
0
 10
3306.000000
 20
2570.500000
 42
0.000000
  0
VERTEX
  8
0
 10
3276.500000
 20
2570.500000
 42
0.000000
  0
VERTEX
  8
0
 10
3276.225821
 20
2553.750000
 42
0.000000
  0
VERTEX
  8
0
 10
3275.951642
 20
2537.000000
 42
0.000000
  0
VERTEX
  8
0
 10
3248.475821
 20
2537.000000
 42
0.000000
  0
VERTEX
  8
0
 10
3221.000000
 20
2537.000000
 42
0.000000
  0
VERTEX
  8
0
 10
3221.000000
 20
2554.000000
 42
0.000000
  0
VERTEX
  8
0
 10
3221.000000
 20
2571.000000
 42
0.000000
  0
VERTEX
  8
0
 10
3191.524179
 20
2571.000000
 42
0.000000
  0
VERTEX
  8
0
 10
3162.048358
 20
2571.000000
 42
0.000000
  0
VERTEX
  8
0
 10
3161.774179
 20
2554.250000
 42
0.000000
  0
VERTEX
  8
0
 10
3161.500000
 20
2537.500000
 42
0.000000
  0
VERTEX
  8
0
 10
3134.000000
 20
2537.500000
 42
0.000000
  0
VERTEX
  8
0
 10
3106.500000
 20
2537.500000
 42
0.000000
  0
VERTEX
  8
0
 10
3106.225821
 20
2554.250000
 42
0.000000
  0
VERTEX
  8
0
 10
3105.951642
 20
2571.000000
 42
0.000000
  0
VERTEX
  8
0
 10
3076.475821
 20
2571.000000
 42
0.000000
  0
VERTEX
  8
0
 10
3047.000000
 20
2571.000000
 42
0.000000
  0
VERTEX
  8
0
 10
3047.000000
 20
2554.000000
 42
0.000000
  0
VERTEX
  8
0
 10
3047.000000
 20
2537.000000
 42
0.000000
  0
VERTEX
  8
0
 10
3019.524179
 20
2537.000000
 42
0.000000
  0
VERTEX
  8
0
 10
2992.048358
 20
2537.000000
 42
0.000000
  0
VERTEX
  8
0
 10
2991.774179
 20
2553.750000
 42
0.000000
  0
VERTEX
  8
0
 10
2991.500000
 20
2570.500000
 42
0.000000
  0
VERTEX
  8
0
 10
2962.000000
 20
2570.500000
 42
0.000000
  0
VERTEX
  8
0
 10
2932.500000
 20
2570.500000
 42
0.000000
  0
VERTEX
  8
0
 10
2932.225821
 20
2553.750000
 42
0.000000
  0
VERTEX
  8
0
 10
2931.951642
 20
2537.000000
 42
0.000000
  0
VERTEX
  8
0
 10
2904.475821
 20
2537.000000
 42
0.000000
  0
VERTEX
  8
0
 10
2877.000000
 20
2537.000000
 42
0.000000
  0
VERTEX
  8
0
 10
2877.000000
 20
2554.000000
 42
0.000000
  0
VERTEX
  8
0
 10
2877.000000
 20
2571.000000
 42
0.000000
  0
VERTEX
  8
0
 10
2847.524179
 20
2571.000000
 42
0.000000
  0
VERTEX
  8
0
 10
2818.048358
 20
2571.000000
 42
0.000000
  0
VERTEX
  8
0
 10
2817.774179
 20
2554.250000
 42
0.000000
  0
VERTEX
  8
0
 10
2817.500000
 20
2537.500000
 42
0.000000
  0
VERTEX
  8
0
 10
2790.000000
 20
2537.500000
 42
0.000000
  0
VERTEX
  8
0
 10
2762.500000
 20
2537.500000
 42
0.000000
  0
VERTEX
  8
0
 10
2762.225821
 20
2554.250000
 42
0.000000
  0
VERTEX
  8
0
 10
2761.951642
 20
2571.000000
 42
0.000000
  0
VERTEX
  8
0
 10
2732.475821
 20
2571.000000
 42
0.000000
  0
VERTEX
  8
0
 10
2703.000000
 20
2571.000000
 42
0.000000
  0
VERTEX
  8
0
 10
2703.000000
 20
2553.983928
 42
0.000000
  0
VERTEX
  8
0
 10
2703.000000
 20
2536.967856
 42
0.000000
  0
VERTEX
  8
0
 10
2675.750000
 20
2537.233928
 42
0.000000
  0
VERTEX
  8
0
 10
2648.500000
 20
2537.500000
 42
0.000000
  0
VERTEX
  8
0
 10
2648.234181
 20
2565.250000
 42
0.000000
  0
VERTEX
  8
0
 10
2647.968363
 20
2593.000000
 42
0.000000
  0
VERTEX
  8
0
 10
2664.484181
 20
2593.000000
 42
0.000000
  0
VERTEX
  8
0
 10
2681.000000
 20
2593.000000
 42
0.000000
  0
VERTEX
  8
0
 10
2681.000000
 20
2623.000000
 42
0.000000
  0
VERTEX
  8
0
 10
2681.000000
 20
2653.000000
 42
0.000000
  0
VERTEX
  8
0
 10
2664.500000
 20
2653.000000
 42
0.000000
  0
VERTEX
  8
0
 10
2648.000000
 20
2653.000000
 42
0.000000
  0
VERTEX
  8
0
 10
2648.000000
 20
2681.000000
 42
0.000000
  0
VERTEX
  8
0
 10
2648.000000
 20
2709.000000
 42
0.000000
  0
VERTEX
  8
0
 10
2664.500000
 20
2709.000000
 42
0.000000
  0
VERTEX
  8
0
 10
2681.000000
 20
2709.000000
 42
0.000000
  0
VERTEX
  8
0
 10
2681.000000
 20
2739.500000
 42
0.000000
  0
VERTEX
  8
0
 10
2681.000000
 20
2770.000000
 42
0.000000
  0
VERTEX
  8
0
 10
2664.500000
 20
2770.000000
 42
0.000000
  0
VERTEX
  8
0
 10
2648.000000
 20
2770.000000
 42
0.000000
  0
VERTEX
  8
0
 10
2648.000000
 20
2798.000000
 42
0.000000
  0
VERTEX
  8
0
 10
2648.000000
 20
2826.000000
 42
0.000000
  0
VERTEX
  8
0
 10
2664.500000
 20
2826.000000
 42
0.000000
  0
VERTEX
  8
0
 10
2681.000000
 20
2826.000000
 42
0.000000
  0
VERTEX
  8
0
 10
2681.000000
 20
2856.000000
 42
0.000000
  0
VERTEX
  8
0
 10
2681.000000
 20
2886.000000
 42
0.000000
  0
VERTEX
  8
0
 10
2664.500000
 20
2886.000000
 42
0.000000
  0
VERTEX
  8
0
 10
2648.000000
 20
2886.000000
 42
0.000000
  0
VERTEX
  8
0
 10
2648.000000
 20
2914.000000
 42
0.000000
  0
VERTEX
  8
0
 10
2648.000000
 20
2942.000000
 42
0.000000
  0
VERTEX
  8
0
 10
2664.500000
 20
2942.000000
 42
0.000000
  0
VERTEX
  8
0
 10
2681.000000
 20
2942.000000
 42
0.000000
  0
VERTEX
  8
0
 10
2681.000000
 20
2972.500000
 42
0.000000
  0
VERTEX
  8
0
 10
2681.000000
 20
3003.000000
 42
0.000000
  0
VERTEX
  8
0
 10
2664.500000
 20
3003.000000
 42
0.000000
  0
VERTEX
  8
0
 10
2648.000000
 20
3003.000000
 42
0.000000
  0
VERTEX
  8
0
 10
2648.000000
 20
3031.000000
 42
0.000000
  0
VERTEX
  8
0
 10
2648.000000
 20
3059.000000
 42
0.000000
  0
VERTEX
  8
0
 10
2664.500000
 20
3059.000000
 42
0.000000
  0
VERTEX
  8
0
 10
2681.000000
 20
3059.000000
 42
0.000000
  0
VERTEX
  8
0
 10
2681.000000
 20
3089.000000
 42
0.000000
  0
VERTEX
  8
0
 10
2681.000000
 20
3119.000000
 42
0.000000
  0
VERTEX
  8
0
 10
2664.500000
 20
3119.000000
 42
0.000000
  0
VERTEX
  8
0
 10
2648.000000
 20
3119.000000
 42
0.000000
  0
VERTEX
  8
0
 10
2648.000000
 20
3147.000000
 42
0.000000
  0
VERTEX
  8
0
 10
2648.000000
 20
3175.000000
 42
0.000000
  0
VERTEX
  8
0
 10
2664.500000
 20
3175.000000
 42
0.000000
  0
VERTEX
  8
0
 10
2681.000000
 20
3175.000000
 42
0.000000
  0
VERTEX
  8
0
 10
2681.000000
 20
3205.500000
 42
0.000000
  0
VERTEX
  8
0
 10
2681.000000
 20
3236.000000
 42
0.000000
  0
VERTEX
  8
0
 10
2664.500000
 20
3236.000000
 42
0.000000
  0
VERTEX
  8
0
 10
2648.000000
 20
3236.000000
 42
0.000000
  0
VERTEX
  8
0
 10
2648.000000
 20
3264.000000
 42
0.000000
  0
VERTEX
  8
0
 10
2648.000000
 20
3292.000000
 42
0.000000
  0
VERTEX
  8
0
 10
2664.500000
 20
3292.000000
 42
0.000000
  0
VERTEX
  8
0
 10
2681.000000
 20
3292.000000
 42
0.000000
  0
VERTEX
  8
0
 10
2681.000000
 20
3322.000000
 42
0.000000
  0
VERTEX
  8
0
 10
2681.000000
 20
3352.000000
 42
0.000000
  0
VERTEX
  8
0
 10
2664.500000
 20
3352.000000
 42
0.000000
  0
VERTEX
  8
0
 10
2648.000000
 20
3352.000000
 42
0.000000
  0
VERTEX
  8
0
 10
2648.000000
 20
3380.000000
 42
0.000000
  0
VERTEX
  8
0
 10
2648.000000
 20
3408.000000
 42
0.000000
  0
VERTEX
  8
0
 10
2664.500000
 20
3408.000000
 42
0.000000
  0
VERTEX
  8
0
 10
2681.000000
 20
3408.000000
 42
0.000000
  0
VERTEX
  8
0
 10
2681.000000
 20
3437.975229
 42
0.000000
  0
VERTEX
  8
0
 10
2681.000000
 20
3467.950457
 42
0.000000
  0
VERTEX
  8
0
 10
2664.750000
 20
3468.225229
 42
0.000000
  0
VERTEX
  8
0
 10
2648.500000
 20
3468.500000
 42
0.000000
  0
VERTEX
  8
0
 10
2648.500000
 20
3496.500000
 42
0.000000
  0
VERTEX
  8
0
 10
2648.500000
 20
3524.500000
 42
0.000000
  0
VERTEX
  8
0
 10
2664.750000
 20
3524.774771
 42
0.000000
  0
VERTEX
  8
0
 10
2681.000000
 20
3525.049543
 42
0.000000
  0
VERTEX
  8
0
 10
2681.000000
 20
3555.024771
 42
0.000000
  0
VERTEX
  8
0
 10
2681.000000
 20
3585.000000
 42
0.000000
  0
VERTEX
  8
0
 10
2664.500000
 20
3585.000000
 42
0.000000
  0
VERTEX
  8
0
 10
2648.000000
 20
3585.000000
 42
0.000000
  0
VERTEX
  8
0
 10
2648.000000
 20
3613.000000
 42
0.000000
  0
VERTEX
  8
0
 10
2648.000000
 20
3641.000000
 42
0.000000
  0
VERTEX
  8
0
 10
2664.500000
 20
3641.000000
 42
0.000000
  0
VERTEX
  8
0
 10
2681.000000
 20
3641.000000
 42
0.000000
  0
VERTEX
  8
0
 10
2681.000000
 20
3670.975229
 42
0.000000
  0
VERTEX
  8
0
 10
2681.000000
 20
3700.950457
 42
0.000000
  0
VERTEX
  8
0
 10
2664.750000
 20
3701.225229
 42
0.000000
  0
VERTEX
  8
0
 10
2648.500000
 20
3701.500000
 42
0.000000
  0
VERTEX
  8
0
 10
2648.234181
 20
3729.250000
 42
0.000000
  0
VERTEX
  8
0
 10
2647.968363
 20
3757.000000
 42
0.000000
  0
VERTEX
  8
0
 10
2664.484181
 20
3757.000000
 42
0.000000
  0
VERTEX
  8
0
 10
2681.000000
 20
3757.000000
 42
0.000000
  0
VERTEX
  8
0
 10
2681.000000
 20
3787.500000
 42
0.000000
  0
VERTEX
  8
0
 10
2681.000000
 20
3818.000000
 42
0.000000
  0
VERTEX
  8
0
 10
2664.500000
 20
3818.000000
 42
0.000000
  0
VERTEX
  8
0
 10
2648.000000
 20
3818.000000
 42
0.000000
  0
VERTEX
  8
0
 10
2648.000000
 20
3846.000000
 42
0.000000
  0
VERTEX
  8
0
 10
2648.000000
 20
3874.000000
 42
0.000000
  0
VERTEX
  8
0
 10
2664.500000
 20
3874.000000
 42
0.000000
  0
VERTEX
  8
0
 10
2681.000000
 20
3874.000000
 42
0.000000
  0
VERTEX
  8
0
 10
2681.000000
 20
3904.000000
 42
0.000000
  0
VERTEX
  8
0
 10
2681.000000
 20
3934.000000
 42
0.000000
  0
VERTEX
  8
0
 10
2664.500000
 20
3934.000000
 42
0.000000
  0
VERTEX
  8
0
 10
2648.000000
 20
3934.000000
 42
0.000000
  0
VERTEX
  8
0
 10
2648.000000
 20
3962.000000
 42
0.000000
  0
VERTEX
  8
0
 10
2648.000000
 20
3990.000000
 42
0.000000
  0
VERTEX
  8
0
 10
2664.500000
 20
3990.000000
 42
0.000000
  0
VERTEX
  8
0
 10
2681.000000
 20
3990.000000
 42
0.000000
  0
VERTEX
  8
0
 10
2681.000000
 20
4020.500000
 42
0.000000
  0
VERTEX
  8
0
 10
2681.000000
 20
4051.000000
 42
0.000000
  0
VERTEX
  8
0
 10
2664.500000
 20
4051.000000
 42
0.000000
  0
VERTEX
  8
0
 10
2648.000000
 20
4051.000000
 42
0.000000
  0
VERTEX
  8
0
 10
2648.000000
 20
4079.000000
 42
0.000000
  0
VERTEX
  8
0
 10
2648.000000
 20
4107.000000
 42
0.000000
  0
VERTEX
  8
0
 10
2664.500000
 20
4107.000000
 42
0.000000
  0
VERTEX
  8
0
 10
2681.000000
 20
4107.000000
 42
0.000000
  0
VERTEX
  8
0
 10
2681.000000
 20
4137.000000
 42
0.000000
  0
VERTEX
  8
0
 10
2681.000000
 20
4167.000000
 42
0.000000
  0
VERTEX
  8
0
 10
2664.500000
 20
4167.000000
 42
0.000000
  0
VERTEX
  8
0
 10
2648.000000
 20
4167.000000
 42
0.000000
  0
VERTEX
  8
0
 10
2648.000000
 20
4195.000000
 42
0.000000
  0
VERTEX
  8
0
 10
2648.000000
 20
4223.000000
 42
0.000000
  0
VERTEX
  8
0
 10
2664.500000
 20
4223.000000
 42
0.000000
  0
VERTEX
  8
0
 10
2681.000000
 20
4223.000000
 42
0.000000
  0
VERTEX
  8
0
 10
2681.000000
 20
4253.500000
 42
0.000000
  0
VERTEX
  8
0
 10
2681.000000
 20
4284.000000
 42
0.000000
  0
VERTEX
  8
0
 10
2664.500000
 20
4284.000000
 42
0.000000
  0
VERTEX
  8
0
 10
2648.000000
 20
4284.000000
 42
0.000000
  0
VERTEX
  8
0
 10
2648.000000
 20
4311.500000
 42
0.000000
  0
VERTEX
  8
0
 10
2648.000000
 20
4339.000000
 42
0.000000
  0
VERTEX
  8
0
 10
2675.500000
 20
4339.000000
 42
0.000000
  0
VERTEX
  8
0
 10
2703.000000
 20
4339.000000
 42
0.000000
  0
SEQEND
  0
POLYLINE
  8
0
 66
1
 70
1
  0
VERTEX
  8
0
 10
147.000000
 20
2484.500000
 42
0.000000
  0
VERTEX
  8
0
 10
147.000000
 20
2468.000000
 42
0.000000
  0
VERTEX
  8
0
 10
176.500000
 20
2468.000000
 42
0.000000
  0
VERTEX
  8
0
 10
206.000000
 20
2468.000000
 42
0.000000
  0
VERTEX
  8
0
 10
206.000000
 20
2484.500000
 42
0.000000
  0
VERTEX
  8
0
 10
206.000000
 20
2501.000000
 42
0.000000
  0
VERTEX
  8
0
 10
233.500000
 20
2501.000000
 42
0.000000
  0
VERTEX
  8
0
 10
261.000000
 20
2501.000000
 42
0.000000
  0
VERTEX
  8
0
 10
261.000000
 20
2484.500000
 42
0.000000
  0
VERTEX
  8
0
 10
261.000000
 20
2468.000000
 42
0.000000
  0
VERTEX
  8
0
 10
291.000000
 20
2468.000000
 42
0.000000
  0
VERTEX
  8
0
 10
321.000000
 20
2468.000000
 42
0.000000
  0
VERTEX
  8
0
 10
321.000000
 20
2484.500000
 42
0.000000
  0
VERTEX
  8
0
 10
321.000000
 20
2501.000000
 42
0.000000
  0
VERTEX
  8
0
 10
348.500000
 20
2501.000000
 42
0.000000
  0
VERTEX
  8
0
 10
376.000000
 20
2501.000000
 42
0.000000
  0
VERTEX
  8
0
 10
376.000000
 20
2484.500000
 42
0.000000
  0
VERTEX
  8
0
 10
376.000000
 20
2468.000000
 42
0.000000
  0
VERTEX
  8
0
 10
406.000000
 20
2468.000000
 42
0.000000
  0
VERTEX
  8
0
 10
436.000000
 20
2468.000000
 42
0.000000
  0
VERTEX
  8
0
 10
436.000000
 20
2484.500000
 42
0.000000
  0
VERTEX
  8
0
 10
436.000000
 20
2501.000000
 42
0.000000
  0
VERTEX
  8
0
 10
463.500000
 20
2501.000000
 42
0.000000
  0
VERTEX
  8
0
 10
491.000000
 20
2501.000000
 42
0.000000
  0
VERTEX
  8
0
 10
491.000000
 20
2484.500000
 42
0.000000
  0
VERTEX
  8
0
 10
491.000000
 20
2468.000000
 42
0.000000
  0
VERTEX
  8
0
 10
520.500000
 20
2468.000000
 42
0.000000
  0
VERTEX
  8
0
 10
550.000000
 20
2468.000000
 42
0.000000
  0
VERTEX
  8
0
 10
550.000000
 20
2484.500000
 42
0.000000
  0
VERTEX
  8
0
 10
550.000000
 20
2501.000000
 42
0.000000
  0
VERTEX
  8
0
 10
578.000000
 20
2501.000000
 42
0.000000
  0
VERTEX
  8
0
 10
606.000000
 20
2501.000000
 42
0.000000
  0
VERTEX
  8
0
 10
606.000000
 20
2484.500000
 42
0.000000
  0
VERTEX
  8
0
 10
606.000000
 20
2468.000000
 42
0.000000
  0
VERTEX
  8
0
 10
635.500000
 20
2468.000000
 42
0.000000
  0
VERTEX
  8
0
 10
665.000000
 20
2468.000000
 42
0.000000
  0
VERTEX
  8
0
 10
665.000000
 20
2484.500000
 42
0.000000
  0
VERTEX
  8
0
 10
665.000000
 20
2501.000000
 42
0.000000
  0
VERTEX
  8
0
 10
692.500000
 20
2501.000000
 42
0.000000
  0
VERTEX
  8
0
 10
720.000000
 20
2501.000000
 42
0.000000
  0
VERTEX
  8
0
 10
720.000000
 20
2484.500000
 42
0.000000
  0
VERTEX
  8
0
 10
720.000000
 20
2468.000000
 42
0.000000
  0
VERTEX
  8
0
 10
750.000000
 20
2468.000000
 42
0.000000
  0
VERTEX
  8
0
 10
780.000000
 20
2468.000000
 42
0.000000
  0
VERTEX
  8
0
 10
780.000000
 20
2484.500000
 42
0.000000
  0
VERTEX
  8
0
 10
780.000000
 20
2501.000000
 42
0.000000
  0
VERTEX
  8
0
 10
807.500000
 20
2501.000000
 42
0.000000
  0
VERTEX
  8
0
 10
835.000000
 20
2501.000000
 42
0.000000
  0
VERTEX
  8
0
 10
835.000000
 20
2484.500000
 42
0.000000
  0
VERTEX
  8
0
 10
835.000000
 20
2468.000000
 42
0.000000
  0
VERTEX
  8
0
 10
864.500000
 20
2468.000000
 42
0.000000
  0
VERTEX
  8
0
 10
894.000000
 20
2468.000000
 42
0.000000
  0
VERTEX
  8
0
 10
894.000000
 20
2484.500000
 42
0.000000
  0
VERTEX
  8
0
 10
894.000000
 20
2501.000000
 42
0.000000
  0
VERTEX
  8
0
 10
922.000000
 20
2501.000000
 42
0.000000
  0
VERTEX
  8
0
 10
950.000000
 20
2501.000000
 42
0.000000
  0
VERTEX
  8
0
 10
950.000000
 20
2484.500000
 42
0.000000
  0
VERTEX
  8
0
 10
950.000000
 20
2468.000000
 42
0.000000
  0
VERTEX
  8
0
 10
979.500000
 20
2468.000000
 42
0.000000
  0
VERTEX
  8
0
 10
1009.000000
 20
2468.000000
 42
0.000000
  0
VERTEX
  8
0
 10
1009.000000
 20
2484.500000
 42
0.000000
  0
VERTEX
  8
0
 10
1009.000000
 20
2501.000000
 42
0.000000
  0
VERTEX
  8
0
 10
1036.500000
 20
2501.000000
 42
0.000000
  0
VERTEX
  8
0
 10
1064.000000
 20
2501.000000
 42
0.000000
  0
VERTEX
  8
0
 10
1064.000000
 20
2484.500000
 42
0.000000
  0
VERTEX
  8
0
 10
1064.000000
 20
2468.000000
 42
0.000000
  0
VERTEX
  8
0
 10
1094.000000
 20
2468.000000
 42
0.000000
  0
VERTEX
  8
0
 10
1124.000000
 20
2468.000000
 42
0.000000
  0
VERTEX
  8
0
 10
1124.000000
 20
2484.500000
 42
0.000000
  0
VERTEX
  8
0
 10
1124.000000
 20
2501.000000
 42
0.000000
  0
VERTEX
  8
0
 10
1151.500000
 20
2501.000000
 42
0.000000
  0
VERTEX
  8
0
 10
1179.000000
 20
2501.000000
 42
0.000000
  0
VERTEX
  8
0
 10
1179.000000
 20
2484.500000
 42
0.000000
  0
VERTEX
  8
0
 10
1179.000000
 20
2468.000000
 42
0.000000
  0
VERTEX
  8
0
 10
1208.500000
 20
2468.000000
 42
0.000000
  0
VERTEX
  8
0
 10
1238.000000
 20
2468.000000
 42
0.000000
  0
VERTEX
  8
0
 10
1238.000000
 20
2484.500000
 42
0.000000
  0
VERTEX
  8
0
 10
1238.000000
 20
2501.000000
 42
0.000000
  0
VERTEX
  8
0
 10
1266.000000
 20
2501.000000
 42
0.000000
  0
VERTEX
  8
0
 10
1294.000000
 20
2501.000000
 42
0.000000
  0
VERTEX
  8
0
 10
1294.000000
 20
2484.500000
 42
0.000000
  0
VERTEX
  8
0
 10
1294.000000
 20
2468.000000
 42
0.000000
  0
VERTEX
  8
0
 10
1323.500000
 20
2468.000000
 42
0.000000
  0
VERTEX
  8
0
 10
1353.000000
 20
2468.000000
 42
0.000000
  0
VERTEX
  8
0
 10
1353.000000
 20
2484.500000
 42
0.000000
  0
VERTEX
  8
0
 10
1353.000000
 20
2501.000000
 42
0.000000
  0
VERTEX
  8
0
 10
1380.500000
 20
2501.000000
 42
0.000000
  0
VERTEX
  8
0
 10
1408.000000
 20
2501.000000
 42
0.000000
  0
VERTEX
  8
0
 10
1408.000000
 20
2484.500000
 42
0.000000
  0
VERTEX
  8
0
 10
1408.000000
 20
2468.000000
 42
0.000000
  0
VERTEX
  8
0
 10
1438.000000
 20
2468.000000
 42
0.000000
  0
VERTEX
  8
0
 10
1468.000000
 20
2468.000000
 42
0.000000
  0
VERTEX
  8
0
 10
1468.000000
 20
2484.500000
 42
0.000000
  0
VERTEX
  8
0
 10
1468.000000
 20
2501.000000
 42
0.000000
  0
VERTEX
  8
0
 10
1495.500000
 20
2501.000000
 42
0.000000
  0
VERTEX
  8
0
 10
1523.000000
 20
2501.000000
 42
0.000000
  0
VERTEX
  8
0
 10
1523.000000
 20
2484.500000
 42
0.000000
  0
VERTEX
  8
0
 10
1523.000000
 20
2468.000000
 42
0.000000
  0
VERTEX
  8
0
 10
1552.500000
 20
2468.000000
 42
0.000000
  0
VERTEX
  8
0
 10
1582.000000
 20
2468.000000
 42
0.000000
  0
VERTEX
  8
0
 10
1582.000000
 20
2484.500000
 42
0.000000
  0
VERTEX
  8
0
 10
1582.000000
 20
2501.000000
 42
0.000000
  0
VERTEX
  8
0
 10
1610.000000
 20
2501.000000
 42
0.000000
  0
VERTEX
  8
0
 10
1638.000000
 20
2501.000000
 42
0.000000
  0
VERTEX
  8
0
 10
1638.000000
 20
2484.500000
 42
0.000000
  0
VERTEX
  8
0
 10
1638.000000
 20
2468.000000
 42
0.000000
  0
VERTEX
  8
0
 10
1667.500000
 20
2468.000000
 42
0.000000
  0
VERTEX
  8
0
 10
1697.000000
 20
2468.000000
 42
0.000000
  0
VERTEX
  8
0
 10
1697.000000
 20
2484.500000
 42
0.000000
  0
VERTEX
  8
0
 10
1697.000000
 20
2501.000000
 42
0.000000
  0
VERTEX
  8
0
 10
1724.500000
 20
2501.000000
 42
0.000000
  0
VERTEX
  8
0
 10
1752.000000
 20
2501.000000
 42
0.000000
  0
VERTEX
  8
0
 10
1752.000000
 20
2484.500000
 42
0.000000
  0
VERTEX
  8
0
 10
1752.000000
 20
2468.000000
 42
0.000000
  0
VERTEX
  8
0
 10
1782.000000
 20
2468.000000
 42
0.000000
  0
VERTEX
  8
0
 10
1812.000000
 20
2468.000000
 42
0.000000
  0
VERTEX
  8
0
 10
1812.000000
 20
2484.500000
 42
0.000000
  0
VERTEX
  8
0
 10
1812.000000
 20
2501.000000
 42
0.000000
  0
VERTEX
  8
0
 10
1839.500000
 20
2501.000000
 42
0.000000
  0
VERTEX
  8
0
 10
1867.000000
 20
2501.000000
 42
0.000000
  0
VERTEX
  8
0
 10
1867.000000
 20
2484.500000
 42
0.000000
  0
VERTEX
  8
0
 10
1867.000000
 20
2468.000000
 42
0.000000
  0
VERTEX
  8
0
 10
1896.500000
 20
2468.000000
 42
0.000000
  0
VERTEX
  8
0
 10
1926.000000
 20
2468.000000
 42
0.000000
  0
VERTEX
  8
0
 10
1926.000000
 20
2484.500000
 42
0.000000
  0
VERTEX
  8
0
 10
1926.000000
 20
2501.000000
 42
0.000000
  0
VERTEX
  8
0
 10
1954.000000
 20
2501.000000
 42
0.000000
  0
VERTEX
  8
0
 10
1982.000000
 20
2501.000000
 42
0.000000
  0
VERTEX
  8
0
 10
1982.000000
 20
2484.500000
 42
0.000000
  0
VERTEX
  8
0
 10
1982.000000
 20
2468.000000
 42
0.000000
  0
VERTEX
  8
0
 10
2011.500000
 20
2468.000000
 42
0.000000
  0
VERTEX
  8
0
 10
2041.000000
 20
2468.000000
 42
0.000000
  0
VERTEX
  8
0
 10
2041.000000
 20
2484.500000
 42
0.000000
  0
VERTEX
  8
0
 10
2041.000000
 20
2501.000000
 42
0.000000
  0
VERTEX
  8
0
 10
2068.500000
 20
2501.000000
 42
0.000000
  0
VERTEX
  8
0
 10
2096.000000
 20
2501.000000
 42
0.000000
  0
VERTEX
  8
0
 10
2096.000000
 20
2484.500000
 42
0.000000
  0
VERTEX
  8
0
 10
2096.000000
 20
2468.000000
 42
0.000000
  0
VERTEX
  8
0
 10
2126.000000
 20
2468.000000
 42
0.000000
  0
VERTEX
  8
0
 10
2156.000000
 20
2468.000000
 42
0.000000
  0
VERTEX
  8
0
 10
2156.000000
 20
2484.500000
 42
0.000000
  0
VERTEX
  8
0
 10
2156.000000
 20
2501.000000
 42
0.000000
  0
VERTEX
  8
0
 10
2183.500000
 20
2501.000000
 42
0.000000
  0
VERTEX
  8
0
 10
2211.000000
 20
2501.000000
 42
0.000000
  0
VERTEX
  8
0
 10
2211.000000
 20
2484.500000
 42
0.000000
  0
VERTEX
  8
0
 10
2211.000000
 20
2468.000000
 42
0.000000
  0
VERTEX
  8
0
 10
2240.500000
 20
2468.000000
 42
0.000000
  0
VERTEX
  8
0
 10
2270.000000
 20
2468.000000
 42
0.000000
  0
VERTEX
  8
0
 10
2270.000000
 20
2484.500000
 42
0.000000
  0
VERTEX
  8
0
 10
2270.000000
 20
2501.000000
 42
0.000000
  0
VERTEX
  8
0
 10
2298.000000
 20
2501.000000
 42
0.000000
  0
VERTEX
  8
0
 10
2326.000000
 20
2501.000000
 42
0.000000
  0
VERTEX
  8
0
 10
2326.000000
 20
2484.500000
 42
0.000000
  0
VERTEX
  8
0
 10
2326.000000
 20
2468.000000
 42
0.000000
  0
VERTEX
  8
0
 10
2355.500000
 20
2468.000000
 42
0.000000
  0
VERTEX
  8
0
 10
2385.000000
 20
2468.000000
 42
0.000000
  0
VERTEX
  8
0
 10
2385.000000
 20
2484.500000
 42
0.000000
  0
VERTEX
  8
0
 10
2385.000000
 20
2501.000000
 42
0.000000
  0
VERTEX
  8
0
 10
2412.500000
 20
2501.000000
 42
0.000000
  0
VERTEX
  8
0
 10
2440.000000
 20
2501.000000
 42
0.000000
  0
VERTEX
  8
0
 10
2440.000000
 20
2484.500000
 42
0.000000
  0
VERTEX
  8
0
 10
2440.000000
 20
2468.000000
 42
0.000000
  0
VERTEX
  8
0
 10
2470.000000
 20
2468.000000
 42
0.000000
  0
VERTEX
  8
0
 10
2500.000000
 20
2468.000000
 42
0.000000
  0
VERTEX
  8
0
 10
2500.000000
 20
2484.500000
 42
0.000000
  0
VERTEX
  8
0
 10
2500.000000
 20
2501.000000
 42
0.000000
  0
VERTEX
  8
0
 10
2527.500000
 20
2501.000000
 42
0.000000
  0
VERTEX
  8
0
 10
2555.000000
 20
2501.000000
 42
0.000000
  0
VERTEX
  8
0
 10
2555.000000
 20
2484.500000
 42
0.000000
  0
VERTEX
  8
0
 10
2555.000000
 20
2468.000000
 42
0.000000
  0
VERTEX
  8
0
 10
2583.500000
 20
2468.000000
 42
0.000000
  0
VERTEX
  8
0
 10
2612.000000
 20
2468.000000
 42
0.000000
  0
VERTEX
  8
0
 10
2612.000000
 20
2439.000000
 42
0.000000
  0
VERTEX
  8
0
 10
2612.000000
 20
2410.000000
 42
0.000000
  0
VERTEX
  8
0
 10
2595.500000
 20
2410.000000
 42
0.000000
  0
VERTEX
  8
0
 10
2579.000000
 20
2410.000000
 42
0.000000
  0
VERTEX
  8
0
 10
2579.000000
 20
2378.500000
 42
0.000000
  0
VERTEX
  8
0
 10
2579.000000
 20
2347.000000
 42
0.000000
  0
VERTEX
  8
0
 10
2595.500000
 20
2347.000000
 42
0.000000
  0
VERTEX
  8
0
 10
2612.000000
 20
2347.000000
 42
0.000000
  0
VERTEX
  8
0
 10
2612.000000
 20
2318.000000
 42
0.000000
  0
VERTEX
  8
0
 10
2612.000000
 20
2289.000000
 42
0.000000
  0
VERTEX
  8
0
 10
2595.500000
 20
2289.000000
 42
0.000000
  0
VERTEX
  8
0
 10
2579.000000
 20
2289.000000
 42
0.000000
  0
VERTEX
  8
0
 10
2579.000000
 20
2257.500000
 42
0.000000
  0
VERTEX
  8
0
 10
2579.000000
 20
2226.000000
 42
0.000000
  0
VERTEX
  8
0
 10
2595.515105
 20
2226.000000
 42
0.000000
  0
VERTEX
  8
0
 10
2612.030209
 20
2226.000000
 42
0.000000
  0
VERTEX
  8
0
 10
2611.765105
 20
2196.750000
 42
0.000000
  0
VERTEX
  8
0
 10
2611.500000
 20
2167.500000
 42
0.000000
  0
VERTEX
  8
0
 10
2595.250000
 20
2167.225229
 42
0.000000
  0
VERTEX
  8
0
 10
2579.000000
 20
2166.950457
 42
0.000000
  0
VERTEX
  8
0
 10
2579.000000
 20
2136.000000
 42
0.000000
  0
VERTEX
  8
0
 10
2579.000000
 20
2105.049543
 42
0.000000
  0
VERTEX
  8
0
 10
2595.250000
 20
2104.774771
 42
0.000000
  0
VERTEX
  8
0
 10
2611.500000
 20
2104.500000
 42
0.000000
  0
VERTEX
  8
0
 10
2611.765105
 20
2075.250000
 42
0.000000
  0
VERTEX
  8
0
 10
2612.030209
 20
2046.000000
 42
0.000000
  0
VERTEX
  8
0
 10
2595.515105
 20
2046.000000
 42
0.000000
  0
VERTEX
  8
0
 10
2579.000000
 20
2046.000000
 42
0.000000
  0
VERTEX
  8
0
 10
2579.000000
 20
2014.500000
 42
0.000000
  0
VERTEX
  8
0
 10
2579.000000
 20
1983.000000
 42
0.000000
  0
VERTEX
  8
0
 10
2595.500000
 20
1983.000000
 42
0.000000
  0
VERTEX
  8
0
 10
2612.000000
 20
1983.000000
 42
0.000000
  0
VERTEX
  8
0
 10
2612.000000
 20
1954.000000
 42
0.000000
  0
VERTEX
  8
0
 10
2612.000000
 20
1925.000000
 42
0.000000
  0
VERTEX
  8
0
 10
2595.500000
 20
1925.000000
 42
0.000000
  0
VERTEX
  8
0
 10
2579.000000
 20
1925.000000
 42
0.000000
  0
VERTEX
  8
0
 10
2579.000000
 20
1893.500000
 42
0.000000
  0
VERTEX
  8
0
 10
2579.000000
 20
1862.000000
 42
0.000000
  0
VERTEX
  8
0
 10
2595.500000
 20
1862.000000
 42
0.000000
  0
VERTEX
  8
0
 10
2612.000000
 20
1862.000000
 42
0.000000
  0
VERTEX
  8
0
 10
2612.000000
 20
1833.000000
 42
0.000000
  0
VERTEX
  8
0
 10
2612.000000
 20
1804.000000
 42
0.000000
  0
VERTEX
  8
0
 10
2595.500000
 20
1804.000000
 42
0.000000
  0
VERTEX
  8
0
 10
2579.000000
 20
1804.000000
 42
0.000000
  0
VERTEX
  8
0
 10
2579.000000
 20
1772.500000
 42
0.000000
  0
VERTEX
  8
0
 10
2579.000000
 20
1741.000000
 42
0.000000
  0
VERTEX
  8
0
 10
2595.515105
 20
1741.000000
 42
0.000000
  0
VERTEX
  8
0
 10
2612.030209
 20
1741.000000
 42
0.000000
  0
VERTEX
  8
0
 10
2611.765105
 20
1711.750000
 42
0.000000
  0
VERTEX
  8
0
 10
2611.500000
 20
1682.500000
 42
0.000000
  0
VERTEX
  8
0
 10
2595.250000
 20
1682.225229
 42
0.000000
  0
VERTEX
  8
0
 10
2579.000000
 20
1681.950457
 42
0.000000
  0
VERTEX
  8
0
 10
2579.000000
 20
1650.975229
 42
0.000000
  0
VERTEX
  8
0
 10
2579.000000
 20
1620.000000
 42
0.000000
  0
VERTEX
  8
0
 10
2595.500000
 20
1620.000000
 42
0.000000
  0
VERTEX
  8
0
 10
2612.000000
 20
1620.000000
 42
0.000000
  0
VERTEX
  8
0
 10
2612.000000
 20
1590.500000
 42
0.000000
  0
VERTEX
  8
0
 10
2612.000000
 20
1561.000000
 42
0.000000
  0
VERTEX
  8
0
 10
2595.500000
 20
1561.000000
 42
0.000000
  0
VERTEX
  8
0
 10
2579.000000
 20
1561.000000
 42
0.000000
  0
VERTEX
  8
0
 10
2579.000000
 20
1529.500000
 42
0.000000
  0
VERTEX
  8
0
 10
2579.000000
 20
1498.000000
 42
0.000000
  0
VERTEX
  8
0
 10
2595.500000
 20
1498.000000
 42
0.000000
  0
VERTEX
  8
0
 10
2612.000000
 20
1498.000000
 42
0.000000
  0
VERTEX
  8
0
 10
2612.000000
 20
1469.000000
 42
0.000000
  0
VERTEX
  8
0
 10
2612.000000
 20
1440.000000
 42
0.000000
  0
VERTEX
  8
0
 10
2595.500000
 20
1440.000000
 42
0.000000
  0
VERTEX
  8
0
 10
2579.000000
 20
1440.000000
 42
0.000000
  0
VERTEX
  8
0
 10
2579.000000
 20
1408.500000
 42
0.000000
  0
VERTEX
  8
0
 10
2579.000000
 20
1377.000000
 42
0.000000
  0
VERTEX
  8
0
 10
2595.500000
 20
1377.000000
 42
0.000000
  0
VERTEX
  8
0
 10
2612.000000
 20
1377.000000
 42
0.000000
  0
VERTEX
  8
0
 10
2612.000000
 20
1348.000000
 42
0.000000
  0
VERTEX
  8
0
 10
2612.000000
 20
1319.000000
 42
0.000000
  0
VERTEX
  8
0
 10
2583.500000
 20
1319.000000
 42
0.000000
  0
VERTEX
  8
0
 10
2555.000000
 20
1319.000000
 42
0.000000
  0
VERTEX
  8
0
 10
2555.000000
 20
1302.500000
 42
0.000000
  0
VERTEX
  8
0
 10
2555.000000
 20
1286.000000
 42
0.000000
  0
VERTEX
  8
0
 10
2527.500000
 20
1286.000000
 42
0.000000
  0
VERTEX
  8
0
 10
2500.000000
 20
1286.000000
 42
0.000000
  0
VERTEX
  8
0
 10
2500.000000
 20
1302.500000
 42
0.000000
  0
VERTEX
  8
0
 10
2500.000000
 20
1319.000000
 42
0.000000
  0
VERTEX
  8
0
 10
2470.000000
 20
1319.000000
 42
0.000000
  0
VERTEX
  8
0
 10
2440.000000
 20
1319.000000
 42
0.000000
  0
VERTEX
  8
0
 10
2440.000000
 20
1302.500000
 42
0.000000
  0
VERTEX
  8
0
 10
2440.000000
 20
1286.000000
 42
0.000000
  0
VERTEX
  8
0
 10
2412.500000
 20
1286.000000
 42
0.000000
  0
VERTEX
  8
0
 10
2385.000000
 20
1286.000000
 42
0.000000
  0
VERTEX
  8
0
 10
2385.000000
 20
1302.500000
 42
0.000000
  0
VERTEX
  8
0
 10
2385.000000
 20
1319.000000
 42
0.000000
  0
VERTEX
  8
0
 10
2355.500000
 20
1319.000000
 42
0.000000
  0
VERTEX
  8
0
 10
2326.000000
 20
1319.000000
 42
0.000000
  0
VERTEX
  8
0
 10
2326.000000
 20
1302.500000
 42
0.000000
  0
VERTEX
  8
0
 10
2326.000000
 20
1286.000000
 42
0.000000
  0
VERTEX
  8
0
 10
2298.000000
 20
1286.000000
 42
0.000000
  0
VERTEX
  8
0
 10
2270.000000
 20
1286.000000
 42
0.000000
  0
VERTEX
  8
0
 10
2270.000000
 20
1302.500000
 42
0.000000
  0
VERTEX
  8
0
 10
2270.000000
 20
1319.000000
 42
0.000000
  0
VERTEX
  8
0
 10
2240.500000
 20
1319.000000
 42
0.000000
  0
VERTEX
  8
0
 10
2211.000000
 20
1319.000000
 42
0.000000
  0
VERTEX
  8
0
 10
2211.000000
 20
1302.500000
 42
0.000000
  0
VERTEX
  8
0
 10
2211.000000
 20
1286.000000
 42
0.000000
  0
VERTEX
  8
0
 10
2183.500000
 20
1286.000000
 42
0.000000
  0
VERTEX
  8
0
 10
2156.000000
 20
1286.000000
 42
0.000000
  0
VERTEX
  8
0
 10
2156.000000
 20
1302.500000
 42
0.000000
  0
VERTEX
  8
0
 10
2156.000000
 20
1319.000000
 42
0.000000
  0
VERTEX
  8
0
 10
2126.000000
 20
1319.000000
 42
0.000000
  0
VERTEX
  8
0
 10
2096.000000
 20
1319.000000
 42
0.000000
  0
VERTEX
  8
0
 10
2096.000000
 20
1302.500000
 42
0.000000
  0
VERTEX
  8
0
 10
2096.000000
 20
1286.000000
 42
0.000000
  0
VERTEX
  8
0
 10
2068.500000
 20
1286.000000
 42
0.000000
  0
VERTEX
  8
0
 10
2041.000000
 20
1286.000000
 42
0.000000
  0
VERTEX
  8
0
 10
2041.000000
 20
1302.500000
 42
0.000000
  0
VERTEX
  8
0
 10
2041.000000
 20
1319.000000
 42
0.000000
  0
VERTEX
  8
0
 10
2011.500000
 20
1319.000000
 42
0.000000
  0
VERTEX
  8
0
 10
1982.000000
 20
1319.000000
 42
0.000000
  0
VERTEX
  8
0
 10
1982.000000
 20
1302.500000
 42
0.000000
  0
VERTEX
  8
0
 10
1982.000000
 20
1286.000000
 42
0.000000
  0
VERTEX
  8
0
 10
1954.000000
 20
1286.000000
 42
0.000000
  0
VERTEX
  8
0
 10
1926.000000
 20
1286.000000
 42
0.000000
  0
VERTEX
  8
0
 10
1926.000000
 20
1302.500000
 42
0.000000
  0
VERTEX
  8
0
 10
1926.000000
 20
1319.000000
 42
0.000000
  0
VERTEX
  8
0
 10
1896.500000
 20
1319.000000
 42
0.000000
  0
VERTEX
  8
0
 10
1867.000000
 20
1319.000000
 42
0.000000
  0
VERTEX
  8
0
 10
1867.000000
 20
1302.500000
 42
0.000000
  0
VERTEX
  8
0
 10
1867.000000
 20
1286.000000
 42
0.000000
  0
VERTEX
  8
0
 10
1839.500000
 20
1286.000000
 42
0.000000
  0
VERTEX
  8
0
 10
1812.000000
 20
1286.000000
 42
0.000000
  0
VERTEX
  8
0
 10
1812.000000
 20
1302.500000
 42
0.000000
  0
VERTEX
  8
0
 10
1812.000000
 20
1319.000000
 42
0.000000
  0
VERTEX
  8
0
 10
1782.000000
 20
1319.000000
 42
0.000000
  0
VERTEX
  8
0
 10
1752.000000
 20
1319.000000
 42
0.000000
  0
VERTEX
  8
0
 10
1752.000000
 20
1302.500000
 42
0.000000
  0
VERTEX
  8
0
 10
1752.000000
 20
1286.000000
 42
0.000000
  0
VERTEX
  8
0
 10
1724.500000
 20
1286.000000
 42
0.000000
  0
VERTEX
  8
0
 10
1697.000000
 20
1286.000000
 42
0.000000
  0
VERTEX
  8
0
 10
1697.000000
 20
1302.500000
 42
0.000000
  0
VERTEX
  8
0
 10
1697.000000
 20
1319.000000
 42
0.000000
  0
VERTEX
  8
0
 10
1667.500000
 20
1319.000000
 42
0.000000
  0
VERTEX
  8
0
 10
1638.000000
 20
1319.000000
 42
0.000000
  0
VERTEX
  8
0
 10
1638.000000
 20
1302.500000
 42
0.000000
  0
VERTEX
  8
0
 10
1638.000000
 20
1286.000000
 42
0.000000
  0
VERTEX
  8
0
 10
1610.000000
 20
1286.000000
 42
0.000000
  0
VERTEX
  8
0
 10
1582.000000
 20
1286.000000
 42
0.000000
  0
VERTEX
  8
0
 10
1582.000000
 20
1302.500000
 42
0.000000
  0
VERTEX
  8
0
 10
1582.000000
 20
1319.000000
 42
0.000000
  0
VERTEX
  8
0
 10
1552.500000
 20
1319.000000
 42
0.000000
  0
VERTEX
  8
0
 10
1523.000000
 20
1319.000000
 42
0.000000
  0
VERTEX
  8
0
 10
1523.000000
 20
1302.500000
 42
0.000000
  0
VERTEX
  8
0
 10
1523.000000
 20
1286.000000
 42
0.000000
  0
VERTEX
  8
0
 10
1495.500000
 20
1286.000000
 42
0.000000
  0
VERTEX
  8
0
 10
1468.000000
 20
1286.000000
 42
0.000000
  0
VERTEX
  8
0
 10
1468.000000
 20
1302.500000
 42
0.000000
  0
VERTEX
  8
0
 10
1468.000000
 20
1319.000000
 42
0.000000
  0
VERTEX
  8
0
 10
1438.000000
 20
1319.000000
 42
0.000000
  0
VERTEX
  8
0
 10
1408.000000
 20
1319.000000
 42
0.000000
  0
VERTEX
  8
0
 10
1408.000000
 20
1302.500000
 42
0.000000
  0
VERTEX
  8
0
 10
1408.000000
 20
1286.000000
 42
0.000000
  0
VERTEX
  8
0
 10
1380.500000
 20
1286.000000
 42
0.000000
  0
VERTEX
  8
0
 10
1353.000000
 20
1286.000000
 42
0.000000
  0
VERTEX
  8
0
 10
1353.000000
 20
1302.500000
 42
0.000000
  0
VERTEX
  8
0
 10
1353.000000
 20
1319.000000
 42
0.000000
  0
VERTEX
  8
0
 10
1323.500000
 20
1319.000000
 42
0.000000
  0
VERTEX
  8
0
 10
1294.000000
 20
1319.000000
 42
0.000000
  0
VERTEX
  8
0
 10
1294.000000
 20
1302.500000
 42
0.000000
  0
VERTEX
  8
0
 10
1294.000000
 20
1286.000000
 42
0.000000
  0
VERTEX
  8
0
 10
1266.000000
 20
1286.000000
 42
0.000000
  0
VERTEX
  8
0
 10
1238.000000
 20
1286.000000
 42
0.000000
  0
VERTEX
  8
0
 10
1238.000000
 20
1302.500000
 42
0.000000
  0
VERTEX
  8
0
 10
1238.000000
 20
1319.000000
 42
0.000000
  0
VERTEX
  8
0
 10
1208.500000
 20
1319.000000
 42
0.000000
  0
VERTEX
  8
0
 10
1179.000000
 20
1319.000000
 42
0.000000
  0
VERTEX
  8
0
 10
1179.000000
 20
1302.500000
 42
0.000000
  0
VERTEX
  8
0
 10
1179.000000
 20
1286.000000
 42
0.000000
  0
VERTEX
  8
0
 10
1151.500000
 20
1286.000000
 42
0.000000
  0
VERTEX
  8
0
 10
1124.000000
 20
1286.000000
 42
0.000000
  0
VERTEX
  8
0
 10
1124.000000
 20
1302.500000
 42
0.000000
  0
VERTEX
  8
0
 10
1124.000000
 20
1319.000000
 42
0.000000
  0
VERTEX
  8
0
 10
1094.000000
 20
1319.000000
 42
0.000000
  0
VERTEX
  8
0
 10
1064.000000
 20
1319.000000
 42
0.000000
  0
VERTEX
  8
0
 10
1064.000000
 20
1302.500000
 42
0.000000
  0
VERTEX
  8
0
 10
1064.000000
 20
1286.000000
 42
0.000000
  0
VERTEX
  8
0
 10
1036.500000
 20
1286.000000
 42
0.000000
  0
VERTEX
  8
0
 10
1009.000000
 20
1286.000000
 42
0.000000
  0
VERTEX
  8
0
 10
1009.000000
 20
1302.500000
 42
0.000000
  0
VERTEX
  8
0
 10
1009.000000
 20
1319.000000
 42
0.000000
  0
VERTEX
  8
0
 10
979.524771
 20
1319.000000
 42
0.000000
  0
VERTEX
  8
0
 10
950.049543
 20
1319.000000
 42
0.000000
  0
VERTEX
  8
0
 10
949.774771
 20
1302.750000
 42
0.000000
  0
VERTEX
  8
0
 10
949.500000
 20
1286.500000
 42
0.000000
  0
VERTEX
  8
0
 10
921.750000
 20
1286.234181
 42
0.000000
  0
VERTEX
  8
0
 10
894.000000
 20
1285.968363
 42
0.000000
  0
VERTEX
  8
0
 10
894.000000
 20
1302.484181
 42
0.000000
  0
VERTEX
  8
0
 10
894.000000
 20
1319.000000
 42
0.000000
  0
VERTEX
  8
0
 10
864.500000
 20
1319.000000
 42
0.000000
  0
VERTEX
  8
0
 10
835.000000
 20
1319.000000
 42
0.000000
  0
VERTEX
  8
0
 10
835.000000
 20
1302.500000
 42
0.000000
  0
VERTEX
  8
0
 10
835.000000
 20
1286.000000
 42
0.000000
  0
VERTEX
  8
0
 10
807.500000
 20
1286.000000
 42
0.000000
  0
VERTEX
  8
0
 10
780.000000
 20
1286.000000
 42
0.000000
  0
VERTEX
  8
0
 10
780.000000
 20
1302.500000
 42
0.000000
  0
VERTEX
  8
0
 10
780.000000
 20
1319.000000
 42
0.000000
  0
VERTEX
  8
0
 10
750.000000
 20
1319.000000
 42
0.000000
  0
VERTEX
  8
0
 10
720.000000
 20
1319.000000
 42
0.000000
  0
VERTEX
  8
0
 10
720.000000
 20
1302.500000
 42
0.000000
  0
VERTEX
  8
0
 10
720.000000
 20
1286.000000
 42
0.000000
  0
VERTEX
  8
0
 10
692.500000
 20
1286.000000
 42
0.000000
  0
VERTEX
  8
0
 10
665.000000
 20
1286.000000
 42
0.000000
  0
VERTEX
  8
0
 10
665.000000
 20
1302.500000
 42
0.000000
  0
VERTEX
  8
0
 10
665.000000
 20
1319.000000
 42
0.000000
  0
VERTEX
  8
0
 10
635.524771
 20
1319.000000
 42
0.000000
  0
VERTEX
  8
0
 10
606.049543
 20
1319.000000
 42
0.000000
  0
VERTEX
  8
0
 10
605.774771
 20
1302.750000
 42
0.000000
  0
VERTEX
  8
0
 10
605.500000
 20
1286.500000
 42
0.000000
  0
VERTEX
  8
0
 10
577.750000
 20
1286.234181
 42
0.000000
  0
VERTEX
  8
0
 10
550.000000
 20
1285.968363
 42
0.000000
  0
VERTEX
  8
0
 10
550.000000
 20
1302.484181
 42
0.000000
  0
VERTEX
  8
0
 10
550.000000
 20
1319.000000
 42
0.000000
  0
VERTEX
  8
0
 10
520.500000
 20
1319.000000
 42
0.000000
  0
VERTEX
  8
0
 10
491.000000
 20
1319.000000
 42
0.000000
  0
VERTEX
  8
0
 10
491.000000
 20
1302.500000
 42
0.000000
  0
VERTEX
  8
0
 10
491.000000
 20
1286.000000
 42
0.000000
  0
VERTEX
  8
0
 10
463.500000
 20
1286.000000
 42
0.000000
  0
VERTEX
  8
0
 10
436.000000
 20
1286.000000
 42
0.000000
  0
VERTEX
  8
0
 10
436.000000
 20
1302.500000
 42
0.000000
  0
VERTEX
  8
0
 10
436.000000
 20
1319.000000
 42
0.000000
  0
VERTEX
  8
0
 10
406.000000
 20
1319.000000
 42
0.000000
  0
VERTEX
  8
0
 10
376.000000
 20
1319.000000
 42
0.000000
  0
VERTEX
  8
0
 10
376.000000
 20
1302.500000
 42
0.000000
  0
VERTEX
  8
0
 10
376.000000
 20
1286.000000
 42
0.000000
  0
VERTEX
  8
0
 10
348.500000
 20
1286.000000
 42
0.000000
  0
VERTEX
  8
0
 10
321.000000
 20
1286.000000
 42
0.000000
  0
VERTEX
  8
0
 10
321.000000
 20
1302.500000
 42
0.000000
  0
VERTEX
  8
0
 10
321.000000
 20
1319.000000
 42
0.000000
  0
VERTEX
  8
0
 10
291.000000
 20
1319.000000
 42
0.000000
  0
VERTEX
  8
0
 10
261.000000
 20
1319.000000
 42
0.000000
  0
VERTEX
  8
0
 10
261.000000
 20
1302.500000
 42
0.000000
  0
VERTEX
  8
0
 10
261.000000
 20
1286.000000
 42
0.000000
  0
VERTEX
  8
0
 10
233.500000
 20
1286.000000
 42
0.000000
  0
VERTEX
  8
0
 10
206.000000
 20
1286.000000
 42
0.000000
  0
VERTEX
  8
0
 10
206.000000
 20
1302.500000
 42
0.000000
  0
VERTEX
  8
0
 10
206.000000
 20
1319.000000
 42
0.000000
  0
VERTEX
  8
0
 10
176.500000
 20
1319.000000
 42
0.000000
  0
VERTEX
  8
0
 10
147.000000
 20
1319.000000
 42
0.000000
  0
VERTEX
  8
0
 10
147.000000
 20
1302.500000
 42
0.000000
  0
VERTEX
  8
0
 10
147.000000
 20
1286.000000
 42
0.000000
  0
VERTEX
  8
0
 10
119.500000
 20
1286.000000
 42
0.000000
  0
VERTEX
  8
0
 10
92.000000
 20
1286.000000
 42
0.000000
  0
VERTEX
  8
0
 10
92.000000
 20
1302.500000
 42
0.000000
  0
VERTEX
  8
0
 10
92.000000
 20
1319.000000
 42
0.000000
  0
VERTEX
  8
0
 10
63.500000
 20
1319.000000
 42
0.000000
  0
VERTEX
  8
0
 10
35.000000
 20
1319.000000
 42
0.000000
  0
VERTEX
  8
0
 10
35.000000
 20
1348.000000
 42
0.000000
  0
VERTEX
  8
0
 10
35.000000
 20
1377.000000
 42
0.000000
  0
VERTEX
  8
0
 10
51.500000
 20
1377.000000
 42
0.000000
  0
VERTEX
  8
0
 10
68.000000
 20
1377.000000
 42
0.000000
  0
VERTEX
  8
0
 10
68.000000
 20
1408.500000
 42
0.000000
  0
VERTEX
  8
0
 10
68.000000
 20
1440.000000
 42
0.000000
  0
VERTEX
  8
0
 10
51.500000
 20
1440.000000
 42
0.000000
  0
VERTEX
  8
0
 10
35.000000
 20
1440.000000
 42
0.000000
  0
VERTEX
  8
0
 10
35.000000
 20
1469.000000
 42
0.000000
  0
VERTEX
  8
0
 10
35.000000
 20
1498.000000
 42
0.000000
  0
VERTEX
  8
0
 10
51.500000
 20
1498.000000
 42
0.000000
  0
VERTEX
  8
0
 10
68.000000
 20
1498.000000
 42
0.000000
  0
VERTEX
  8
0
 10
68.000000
 20
1529.500000
 42
0.000000
  0
VERTEX
  8
0
 10
68.000000
 20
1561.000000
 42
0.000000
  0
VERTEX
  8
0
 10
51.500000
 20
1561.000000
 42
0.000000
  0
VERTEX
  8
0
 10
35.000000
 20
1561.000000
 42
0.000000
  0
VERTEX
  8
0
 10
35.000000
 20
1590.500000
 42
0.000000
  0
VERTEX
  8
0
 10
35.000000
 20
1620.000000
 42
0.000000
  0
VERTEX
  8
0
 10
51.500000
 20
1620.000000
 42
0.000000
  0
VERTEX
  8
0
 10
68.000000
 20
1620.000000
 42
0.000000
  0
VERTEX
  8
0
 10
68.000000
 20
1651.000000
 42
0.000000
  0
VERTEX
  8
0
 10
68.000000
 20
1682.000000
 42
0.000000
  0
VERTEX
  8
0
 10
51.500000
 20
1682.000000
 42
0.000000
  0
VERTEX
  8
0
 10
35.000000
 20
1682.000000
 42
0.000000
  0
VERTEX
  8
0
 10
35.000000
 20
1711.500000
 42
0.000000
  0
VERTEX
  8
0
 10
35.000000
 20
1741.000000
 42
0.000000
  0
VERTEX
  8
0
 10
51.500000
 20
1741.000000
 42
0.000000
  0
VERTEX
  8
0
 10
68.000000
 20
1741.000000
 42
0.000000
  0
VERTEX
  8
0
 10
68.000000
 20
1772.500000
 42
0.000000
  0
VERTEX
  8
0
 10
68.000000
 20
1804.000000
 42
0.000000
  0
VERTEX
  8
0
 10
51.500000
 20
1804.000000
 42
0.000000
  0
VERTEX
  8
0
 10
35.000000
 20
1804.000000
 42
0.000000
  0
VERTEX
  8
0
 10
35.000000
 20
1833.000000
 42
0.000000
  0
VERTEX
  8
0
 10
35.000000
 20
1862.000000
 42
0.000000
  0
VERTEX
  8
0
 10
51.500000
 20
1862.000000
 42
0.000000
  0
VERTEX
  8
0
 10
68.000000
 20
1862.000000
 42
0.000000
  0
VERTEX
  8
0
 10
68.000000
 20
1893.500000
 42
0.000000
  0
VERTEX
  8
0
 10
68.000000
 20
1925.000000
 42
0.000000
  0
VERTEX
  8
0
 10
51.500000
 20
1925.000000
 42
0.000000
  0
VERTEX
  8
0
 10
35.000000
 20
1925.000000
 42
0.000000
  0
VERTEX
  8
0
 10
35.000000
 20
1954.000000
 42
0.000000
  0
VERTEX
  8
0
 10
35.000000
 20
1983.000000
 42
0.000000
  0
VERTEX
  8
0
 10
51.500000
 20
1983.000000
 42
0.000000
  0
VERTEX
  8
0
 10
68.000000
 20
1983.000000
 42
0.000000
  0
VERTEX
  8
0
 10
68.000000
 20
2014.500000
 42
0.000000
  0
VERTEX
  8
0
 10
68.000000
 20
2046.000000
 42
0.000000
  0
VERTEX
  8
0
 10
51.500000
 20
2046.000000
 42
0.000000
  0
VERTEX
  8
0
 10
35.000000
 20
2046.000000
 42
0.000000
  0
VERTEX
  8
0
 10
35.000000
 20
2075.500000
 42
0.000000
  0
VERTEX
  8
0
 10
35.000000
 20
2105.000000
 42
0.000000
  0
VERTEX
  8
0
 10
51.500000
 20
2105.000000
 42
0.000000
  0
VERTEX
  8
0
 10
68.000000
 20
2105.000000
 42
0.000000
  0
VERTEX
  8
0
 10
68.000000
 20
2136.000000
 42
0.000000
  0
VERTEX
  8
0
 10
68.000000
 20
2167.000000
 42
0.000000
  0
VERTEX
  8
0
 10
51.500000
 20
2167.000000
 42
0.000000
  0
VERTEX
  8
0
 10
35.000000
 20
2167.000000
 42
0.000000
  0
VERTEX
  8
0
 10
35.000000
 20
2196.500000
 42
0.000000
  0
VERTEX
  8
0
 10
35.000000
 20
2226.000000
 42
0.000000
  0
VERTEX
  8
0
 10
51.500000
 20
2226.000000
 42
0.000000
  0
VERTEX
  8
0
 10
68.000000
 20
2226.000000
 42
0.000000
  0
VERTEX
  8
0
 10
68.000000
 20
2257.500000
 42
0.000000
  0
VERTEX
  8
0
 10
68.000000
 20
2289.000000
 42
0.000000
  0
VERTEX
  8
0
 10
51.500000
 20
2289.000000
 42
0.000000
  0
VERTEX
  8
0
 10
35.000000
 20
2289.000000
 42
0.000000
  0
VERTEX
  8
0
 10
35.000000
 20
2318.000000
 42
0.000000
  0
VERTEX
  8
0
 10
35.000000
 20
2347.000000
 42
0.000000
  0
VERTEX
  8
0
 10
51.500000
 20
2347.000000
 42
0.000000
  0
VERTEX
  8
0
 10
68.000000
 20
2347.000000
 42
0.000000
  0
VERTEX
  8
0
 10
68.000000
 20
2378.500000
 42
0.000000
  0
VERTEX
  8
0
 10
68.000000
 20
2410.000000
 42
0.000000
  0
VERTEX
  8
0
 10
51.500000
 20
2410.000000
 42
0.000000
  0
VERTEX
  8
0
 10
35.000000
 20
2410.000000
 42
0.000000
  0
VERTEX
  8
0
 10
35.000000
 20
2439.000000
 42
0.000000
  0
VERTEX
  8
0
 10
35.000000
 20
2468.000000
 42
0.000000
  0
VERTEX
  8
0
 10
63.500000
 20
2468.000000
 42
0.000000
  0
VERTEX
  8
0
 10
92.000000
 20
2468.000000
 42
0.000000
  0
VERTEX
  8
0
 10
92.000000
 20
2484.500000
 42
0.000000
  0
VERTEX
  8
0
 10
92.000000
 20
2501.000000
 42
0.000000
  0
VERTEX
  8
0
 10
119.500000
 20
2501.000000
 42
0.000000
  0
VERTEX
  8
0
 10
147.000000
 20
2501.000000
 42
0.000000
  0
SEQEND
  0
POLYLINE
  8
0
 66
1
 70
1
  0
VERTEX
  8
0
 10
2760.000000
 20
2484.500000
 42
0.000000
  0
VERTEX
  8
0
 10
2760.000000
 20
2468.000000
 42
0.000000
  0
VERTEX
  8
0
 10
2790.000000
 20
2468.000000
 42
0.000000
  0
VERTEX
  8
0
 10
2820.000000
 20
2468.000000
 42
0.000000
  0
VERTEX
  8
0
 10
2820.000000
 20
2484.500000
 42
0.000000
  0
VERTEX
  8
0
 10
2820.000000
 20
2501.000000
 42
0.000000
  0
VERTEX
  8
0
 10
2847.500000
 20
2501.000000
 42
0.000000
  0
VERTEX
  8
0
 10
2875.000000
 20
2501.000000
 42
0.000000
  0
VERTEX
  8
0
 10
2875.000000
 20
2484.500000
 42
0.000000
  0
VERTEX
  8
0
 10
2875.000000
 20
2468.000000
 42
0.000000
  0
VERTEX
  8
0
 10
2904.500000
 20
2468.000000
 42
0.000000
  0
VERTEX
  8
0
 10
2934.000000
 20
2468.000000
 42
0.000000
  0
VERTEX
  8
0
 10
2934.000000
 20
2484.500000
 42
0.000000
  0
VERTEX
  8
0
 10
2934.000000
 20
2501.000000
 42
0.000000
  0
VERTEX
  8
0
 10
2962.000000
 20
2501.000000
 42
0.000000
  0
VERTEX
  8
0
 10
2990.000000
 20
2501.000000
 42
0.000000
  0
VERTEX
  8
0
 10
2990.000000
 20
2484.500000
 42
0.000000
  0
VERTEX
  8
0
 10
2990.000000
 20
2468.000000
 42
0.000000
  0
VERTEX
  8
0
 10
3019.500000
 20
2468.000000
 42
0.000000
  0
VERTEX
  8
0
 10
3049.000000
 20
2468.000000
 42
0.000000
  0
VERTEX
  8
0
 10
3049.000000
 20
2484.500000
 42
0.000000
  0
VERTEX
  8
0
 10
3049.000000
 20
2501.000000
 42
0.000000
  0
VERTEX
  8
0
 10
3076.500000
 20
2501.000000
 42
0.000000
  0
VERTEX
  8
0
 10
3104.000000
 20
2501.000000
 42
0.000000
  0
VERTEX
  8
0
 10
3104.000000
 20
2484.500000
 42
0.000000
  0
VERTEX
  8
0
 10
3104.000000
 20
2468.000000
 42
0.000000
  0
VERTEX
  8
0
 10
3134.000000
 20
2468.000000
 42
0.000000
  0
VERTEX
  8
0
 10
3164.000000
 20
2468.000000
 42
0.000000
  0
VERTEX
  8
0
 10
3164.000000
 20
2484.500000
 42
0.000000
  0
VERTEX
  8
0
 10
3164.000000
 20
2501.000000
 42
0.000000
  0
VERTEX
  8
0
 10
3191.500000
 20
2501.000000
 42
0.000000
  0
VERTEX
  8
0
 10
3219.000000
 20
2501.000000
 42
0.000000
  0
VERTEX
  8
0
 10
3219.000000
 20
2484.500000
 42
0.000000
  0
VERTEX
  8
0
 10
3219.000000
 20
2468.000000
 42
0.000000
  0
VERTEX
  8
0
 10
3248.500000
 20
2468.000000
 42
0.000000
  0
VERTEX
  8
0
 10
3278.000000
 20
2468.000000
 42
0.000000
  0
VERTEX
  8
0
 10
3278.000000
 20
2484.500000
 42
0.000000
  0
VERTEX
  8
0
 10
3278.000000
 20
2501.000000
 42
0.000000
  0
VERTEX
  8
0
 10
3306.000000
 20
2501.000000
 42
0.000000
  0
VERTEX
  8
0
 10
3334.000000
 20
2501.000000
 42
0.000000
  0
VERTEX
  8
0
 10
3334.000000
 20
2484.500000
 42
0.000000
  0
VERTEX
  8
0
 10
3334.000000
 20
2468.000000
 42
0.000000
  0
VERTEX
  8
0
 10
3363.500000
 20
2468.000000
 42
0.000000
  0
VERTEX
  8
0
 10
3393.000000
 20
2468.000000
 42
0.000000
  0
VERTEX
  8
0
 10
3393.000000
 20
2484.500000
 42
0.000000
  0
VERTEX
  8
0
 10
3393.000000
 20
2501.000000
 42
0.000000
  0
VERTEX
  8
0
 10
3420.500000
 20
2501.000000
 42
0.000000
  0
VERTEX
  8
0
 10
3448.000000
 20
2501.000000
 42
0.000000
  0
VERTEX
  8
0
 10
3448.000000
 20
2484.500000
 42
0.000000
  0
VERTEX
  8
0
 10
3448.000000
 20
2468.000000
 42
0.000000
  0
VERTEX
  8
0
 10
3478.000000
 20
2468.000000
 42
0.000000
  0
VERTEX
  8
0
 10
3508.000000
 20
2468.000000
 42
0.000000
  0
VERTEX
  8
0
 10
3508.000000
 20
2484.500000
 42
0.000000
  0
VERTEX
  8
0
 10
3508.000000
 20
2501.000000
 42
0.000000
  0
VERTEX
  8
0
 10
3535.500000
 20
2501.000000
 42
0.000000
  0
VERTEX
  8
0
 10
3563.000000
 20
2501.000000
 42
0.000000
  0
VERTEX
  8
0
 10
3563.000000
 20
2484.500000
 42
0.000000
  0
VERTEX
  8
0
 10
3563.000000
 20
2468.000000
 42
0.000000
  0
VERTEX
  8
0
 10
3592.500000
 20
2468.000000
 42
0.000000
  0
VERTEX
  8
0
 10
3622.000000
 20
2468.000000
 42
0.000000
  0
VERTEX
  8
0
 10
3622.000000
 20
2484.500000
 42
0.000000
  0
VERTEX
  8
0
 10
3622.000000
 20
2501.000000
 42
0.000000
  0
VERTEX
  8
0
 10
3650.000000
 20
2501.000000
 42
0.000000
  0
VERTEX
  8
0
 10
3678.000000
 20
2501.000000
 42
0.000000
  0
VERTEX
  8
0
 10
3678.000000
 20
2484.500000
 42
0.000000
  0
VERTEX
  8
0
 10
3678.000000
 20
2468.000000
 42
0.000000
  0
VERTEX
  8
0
 10
3707.500000
 20
2468.000000
 42
0.000000
  0
VERTEX
  8
0
 10
3737.000000
 20
2468.000000
 42
0.000000
  0
VERTEX
  8
0
 10
3737.000000
 20
2484.500000
 42
0.000000
  0
VERTEX
  8
0
 10
3737.000000
 20
2501.000000
 42
0.000000
  0
VERTEX
  8
0
 10
3764.500000
 20
2501.000000
 42
0.000000
  0
VERTEX
  8
0
 10
3792.000000
 20
2501.000000
 42
0.000000
  0
VERTEX
  8
0
 10
3792.000000
 20
2484.500000
 42
0.000000
  0
VERTEX
  8
0
 10
3792.000000
 20
2468.000000
 42
0.000000
  0
VERTEX
  8
0
 10
3822.000000
 20
2468.000000
 42
0.000000
  0
VERTEX
  8
0
 10
3852.000000
 20
2468.000000
 42
0.000000
  0
VERTEX
  8
0
 10
3852.000000
 20
2484.500000
 42
0.000000
  0
VERTEX
  8
0
 10
3852.000000
 20
2501.000000
 42
0.000000
  0
VERTEX
  8
0
 10
3879.500000
 20
2501.000000
 42
0.000000
  0
VERTEX
  8
0
 10
3907.000000
 20
2501.000000
 42
0.000000
  0
VERTEX
  8
0
 10
3907.000000
 20
2484.500000
 42
0.000000
  0
VERTEX
  8
0
 10
3907.000000
 20
2468.000000
 42
0.000000
  0
VERTEX
  8
0
 10
3936.500000
 20
2468.000000
 42
0.000000
  0
VERTEX
  8
0
 10
3966.000000
 20
2468.000000
 42
0.000000
  0
VERTEX
  8
0
 10
3966.000000
 20
2484.500000
 42
0.000000
  0
VERTEX
  8
0
 10
3966.000000
 20
2501.000000
 42
0.000000
  0
VERTEX
  8
0
 10
3994.000000
 20
2501.000000
 42
0.000000
  0
VERTEX
  8
0
 10
4022.000000
 20
2501.000000
 42
0.000000
  0
VERTEX
  8
0
 10
4022.000000
 20
2484.500000
 42
0.000000
  0
VERTEX
  8
0
 10
4022.000000
 20
2468.000000
 42
0.000000
  0
VERTEX
  8
0
 10
4051.500000
 20
2468.000000
 42
0.000000
  0
VERTEX
  8
0
 10
4081.000000
 20
2468.000000
 42
0.000000
  0
VERTEX
  8
0
 10
4081.000000
 20
2484.500000
 42
0.000000
  0
VERTEX
  8
0
 10
4081.000000
 20
2501.000000
 42
0.000000
  0
VERTEX
  8
0
 10
4108.500000
 20
2501.000000
 42
0.000000
  0
VERTEX
  8
0
 10
4136.000000
 20
2501.000000
 42
0.000000
  0
VERTEX
  8
0
 10
4136.000000
 20
2484.500000
 42
0.000000
  0
VERTEX
  8
0
 10
4136.000000
 20
2468.000000
 42
0.000000
  0
VERTEX
  8
0
 10
4166.000000
 20
2468.000000
 42
0.000000
  0
VERTEX
  8
0
 10
4196.000000
 20
2468.000000
 42
0.000000
  0
VERTEX
  8
0
 10
4196.000000
 20
2484.500000
 42
0.000000
  0
VERTEX
  8
0
 10
4196.000000
 20
2501.000000
 42
0.000000
  0
VERTEX
  8
0
 10
4223.500000
 20
2501.000000
 42
0.000000
  0
VERTEX
  8
0
 10
4251.000000
 20
2501.000000
 42
0.000000
  0
VERTEX
  8
0
 10
4251.000000
 20
2484.500000
 42
0.000000
  0
VERTEX
  8
0
 10
4251.000000
 20
2468.000000
 42
0.000000
  0
VERTEX
  8
0
 10
4280.500000
 20
2468.000000
 42
0.000000
  0
VERTEX
  8
0
 10
4310.000000
 20
2468.000000
 42
0.000000
  0
VERTEX
  8
0
 10
4310.000000
 20
2484.500000
 42
0.000000
  0
VERTEX
  8
0
 10
4310.000000
 20
2501.000000
 42
0.000000
  0
VERTEX
  8
0
 10
4338.000000
 20
2501.000000
 42
0.000000
  0
VERTEX
  8
0
 10
4366.000000
 20
2501.000000
 42
0.000000
  0
VERTEX
  8
0
 10
4366.000000
 20
2484.500000
 42
0.000000
  0
VERTEX
  8
0
 10
4366.000000
 20
2468.000000
 42
0.000000
  0
VERTEX
  8
0
 10
4395.500000
 20
2468.000000
 42
0.000000
  0
VERTEX
  8
0
 10
4425.000000
 20
2468.000000
 42
0.000000
  0
VERTEX
  8
0
 10
4425.000000
 20
2484.500000
 42
0.000000
  0
VERTEX
  8
0
 10
4425.000000
 20
2501.000000
 42
0.000000
  0
VERTEX
  8
0
 10
4452.500000
 20
2501.000000
 42
0.000000
  0
VERTEX
  8
0
 10
4480.000000
 20
2501.000000
 42
0.000000
  0
VERTEX
  8
0
 10
4480.000000
 20
2484.500000
 42
0.000000
  0
VERTEX
  8
0
 10
4480.000000
 20
2468.000000
 42
0.000000
  0
VERTEX
  8
0
 10
4510.000000
 20
2468.000000
 42
0.000000
  0
VERTEX
  8
0
 10
4540.000000
 20
2468.000000
 42
0.000000
  0
VERTEX
  8
0
 10
4540.000000
 20
2484.500000
 42
0.000000
  0
VERTEX
  8
0
 10
4540.000000
 20
2501.000000
 42
0.000000
  0
VERTEX
  8
0
 10
4567.500000
 20
2501.000000
 42
0.000000
  0
VERTEX
  8
0
 10
4595.000000
 20
2501.000000
 42
0.000000
  0
VERTEX
  8
0
 10
4595.000000
 20
2484.500000
 42
0.000000
  0
VERTEX
  8
0
 10
4595.000000
 20
2468.000000
 42
0.000000
  0
VERTEX
  8
0
 10
4624.500000
 20
2468.000000
 42
0.000000
  0
VERTEX
  8
0
 10
4654.000000
 20
2468.000000
 42
0.000000
  0
VERTEX
  8
0
 10
4654.000000
 20
2484.500000
 42
0.000000
  0
VERTEX
  8
0
 10
4654.000000
 20
2501.000000
 42
0.000000
  0
VERTEX
  8
0
 10
4682.000000
 20
2501.000000
 42
0.000000
  0
VERTEX
  8
0
 10
4710.000000
 20
2501.000000
 42
0.000000
  0
VERTEX
  8
0
 10
4710.000000
 20
2484.500000
 42
0.000000
  0
VERTEX
  8
0
 10
4710.000000
 20
2468.000000
 42
0.000000
  0
VERTEX
  8
0
 10
4739.500000
 20
2468.000000
 42
0.000000
  0
VERTEX
  8
0
 10
4769.000000
 20
2468.000000
 42
0.000000
  0
VERTEX
  8
0
 10
4769.000000
 20
2484.500000
 42
0.000000
  0
VERTEX
  8
0
 10
4769.000000
 20
2501.000000
 42
0.000000
  0
VERTEX
  8
0
 10
4796.500000
 20
2501.000000
 42
0.000000
  0
VERTEX
  8
0
 10
4824.000000
 20
2501.000000
 42
0.000000
  0
VERTEX
  8
0
 10
4824.000000
 20
2484.500000
 42
0.000000
  0
VERTEX
  8
0
 10
4824.000000
 20
2468.000000
 42
0.000000
  0
VERTEX
  8
0
 10
4854.000000
 20
2468.000000
 42
0.000000
  0
VERTEX
  8
0
 10
4884.000000
 20
2468.000000
 42
0.000000
  0
VERTEX
  8
0
 10
4884.000000
 20
2484.500000
 42
0.000000
  0
VERTEX
  8
0
 10
4884.000000
 20
2501.000000
 42
0.000000
  0
VERTEX
  8
0
 10
4911.500000
 20
2501.000000
 42
0.000000
  0
VERTEX
  8
0
 10
4939.000000
 20
2501.000000
 42
0.000000
  0
VERTEX
  8
0
 10
4939.000000
 20
2484.500000
 42
0.000000
  0
VERTEX
  8
0
 10
4939.000000
 20
2468.000000
 42
0.000000
  0
VERTEX
  8
0
 10
4969.000000
 20
2468.000000
 42
0.000000
  0
VERTEX
  8
0
 10
4999.000000
 20
2468.000000
 42
0.000000
  0
VERTEX
  8
0
 10
4999.000000
 20
2484.500000
 42
0.000000
  0
VERTEX
  8
0
 10
4999.000000
 20
2501.000000
 42
0.000000
  0
VERTEX
  8
0
 10
5026.500000
 20
2501.000000
 42
0.000000
  0
VERTEX
  8
0
 10
5054.000000
 20
2501.000000
 42
0.000000
  0
VERTEX
  8
0
 10
5054.000000
 20
2484.500000
 42
0.000000
  0
VERTEX
  8
0
 10
5054.000000
 20
2468.000000
 42
0.000000
  0
VERTEX
  8
0
 10
5083.500000
 20
2468.000000
 42
0.000000
  0
VERTEX
  8
0
 10
5113.000000
 20
2468.000000
 42
0.000000
  0
VERTEX
  8
0
 10
5113.000000
 20
2484.500000
 42
0.000000
  0
VERTEX
  8
0
 10
5113.000000
 20
2501.000000
 42
0.000000
  0
VERTEX
  8
0
 10
5140.500000
 20
2501.000000
 42
0.000000
  0
VERTEX
  8
0
 10
5168.000000
 20
2501.000000
 42
0.000000
  0
VERTEX
  8
0
 10
5168.000000
 20
2484.500000
 42
0.000000
  0
VERTEX
  8
0
 10
5168.000000
 20
2468.000000
 42
0.000000
  0
VERTEX
  8
0
 10
5196.500000
 20
2468.000000
 42
0.000000
  0
VERTEX
  8
0
 10
5225.000000
 20
2468.000000
 42
0.000000
  0
VERTEX
  8
0
 10
5225.000000
 20
2439.000000
 42
0.000000
  0
VERTEX
  8
0
 10
5225.000000
 20
2410.000000
 42
0.000000
  0
VERTEX
  8
0
 10
5208.500000
 20
2410.000000
 42
0.000000
  0
VERTEX
  8
0
 10
5192.000000
 20
2410.000000
 42
0.000000
  0
VERTEX
  8
0
 10
5192.000000
 20
2378.500000
 42
0.000000
  0
VERTEX
  8
0
 10
5192.000000
 20
2347.000000
 42
0.000000
  0
VERTEX
  8
0
 10
5208.500000
 20
2347.000000
 42
0.000000
  0
VERTEX
  8
0
 10
5225.000000
 20
2347.000000
 42
0.000000
  0
VERTEX
  8
0
 10
5225.000000
 20
2318.000000
 42
0.000000
  0
VERTEX
  8
0
 10
5225.000000
 20
2289.000000
 42
0.000000
  0
VERTEX
  8
0
 10
5208.500000
 20
2289.000000
 42
0.000000
  0
VERTEX
  8
0
 10
5192.000000
 20
2289.000000
 42
0.000000
  0
VERTEX
  8
0
 10
5192.000000
 20
2257.500000
 42
0.000000
  0
VERTEX
  8
0
 10
5192.000000
 20
2226.000000
 42
0.000000
  0
VERTEX
  8
0
 10
5208.500000
 20
2226.000000
 42
0.000000
  0
VERTEX
  8
0
 10
5225.000000
 20
2226.000000
 42
0.000000
  0
VERTEX
  8
0
 10
5225.000000
 20
2196.500000
 42
0.000000
  0
VERTEX
  8
0
 10
5225.000000
 20
2167.000000
 42
0.000000
  0
VERTEX
  8
0
 10
5208.500000
 20
2167.000000
 42
0.000000
  0
VERTEX
  8
0
 10
5192.000000
 20
2167.000000
 42
0.000000
  0
VERTEX
  8
0
 10
5192.000000
 20
2136.000000
 42
0.000000
  0
VERTEX
  8
0
 10
5192.000000
 20
2105.000000
 42
0.000000
  0
VERTEX
  8
0
 10
5208.500000
 20
2105.000000
 42
0.000000
  0
VERTEX
  8
0
 10
5225.000000
 20
2105.000000
 42
0.000000
  0
VERTEX
  8
0
 10
5225.000000
 20
2075.500000
 42
0.000000
  0
VERTEX
  8
0
 10
5225.000000
 20
2046.000000
 42
0.000000
  0
VERTEX
  8
0
 10
5208.500000
 20
2046.000000
 42
0.000000
  0
VERTEX
  8
0
 10
5192.000000
 20
2046.000000
 42
0.000000
  0
VERTEX
  8
0
 10
5192.000000
 20
2014.500000
 42
0.000000
  0
VERTEX
  8
0
 10
5192.000000
 20
1983.000000
 42
0.000000
  0
VERTEX
  8
0
 10
5208.500000
 20
1983.000000
 42
0.000000
  0
VERTEX
  8
0
 10
5225.000000
 20
1983.000000
 42
0.000000
  0
VERTEX
  8
0
 10
5225.000000
 20
1954.000000
 42
0.000000
  0
VERTEX
  8
0
 10
5225.000000
 20
1925.000000
 42
0.000000
  0
VERTEX
  8
0
 10
5208.500000
 20
1925.000000
 42
0.000000
  0
VERTEX
  8
0
 10
5192.000000
 20
1925.000000
 42
0.000000
  0
VERTEX
  8
0
 10
5192.000000
 20
1893.500000
 42
0.000000
  0
VERTEX
  8
0
 10
5192.000000
 20
1862.000000
 42
0.000000
  0
VERTEX
  8
0
 10
5208.500000
 20
1862.000000
 42
0.000000
  0
VERTEX
  8
0
 10
5225.000000
 20
1862.000000
 42
0.000000
  0
VERTEX
  8
0
 10
5225.000000
 20
1833.000000
 42
0.000000
  0
VERTEX
  8
0
 10
5225.000000
 20
1804.000000
 42
0.000000
  0
VERTEX
  8
0
 10
5208.500000
 20
1804.000000
 42
0.000000
  0
VERTEX
  8
0
 10
5192.000000
 20
1804.000000
 42
0.000000
  0
VERTEX
  8
0
 10
5192.000000
 20
1772.500000
 42
0.000000
  0
VERTEX
  8
0
 10
5192.000000
 20
1741.000000
 42
0.000000
  0
VERTEX
  8
0
 10
5208.500000
 20
1741.000000
 42
0.000000
  0
VERTEX
  8
0
 10
5225.000000
 20
1741.000000
 42
0.000000
  0
VERTEX
  8
0
 10
5225.000000
 20
1711.500000
 42
0.000000
  0
VERTEX
  8
0
 10
5225.000000
 20
1682.000000
 42
0.000000
  0
VERTEX
  8
0
 10
5208.500000
 20
1682.000000
 42
0.000000
  0
VERTEX
  8
0
 10
5192.000000
 20
1682.000000
 42
0.000000
  0
VERTEX
  8
0
 10
5192.000000
 20
1651.000000
 42
0.000000
  0
VERTEX
  8
0
 10
5192.000000
 20
1620.000000
 42
0.000000
  0
VERTEX
  8
0
 10
5208.500000
 20
1620.000000
 42
0.000000
  0
VERTEX
  8
0
 10
5225.000000
 20
1620.000000
 42
0.000000
  0
VERTEX
  8
0
 10
5225.000000
 20
1590.500000
 42
0.000000
  0
VERTEX
  8
0
 10
5225.000000
 20
1561.000000
 42
0.000000
  0
VERTEX
  8
0
 10
5208.500000
 20
1561.000000
 42
0.000000
  0
VERTEX
  8
0
 10
5192.000000
 20
1561.000000
 42
0.000000
  0
VERTEX
  8
0
 10
5192.000000
 20
1529.500000
 42
0.000000
  0
VERTEX
  8
0
 10
5192.000000
 20
1498.000000
 42
0.000000
  0
VERTEX
  8
0
 10
5208.500000
 20
1498.000000
 42
0.000000
  0
VERTEX
  8
0
 10
5225.000000
 20
1498.000000
 42
0.000000
  0
VERTEX
  8
0
 10
5225.000000
 20
1469.000000
 42
0.000000
  0
VERTEX
  8
0
 10
5225.000000
 20
1440.000000
 42
0.000000
  0
VERTEX
  8
0
 10
5208.500000
 20
1440.000000
 42
0.000000
  0
VERTEX
  8
0
 10
5192.000000
 20
1440.000000
 42
0.000000
  0
VERTEX
  8
0
 10
5192.000000
 20
1408.500000
 42
0.000000
  0
VERTEX
  8
0
 10
5192.000000
 20
1377.000000
 42
0.000000
  0
VERTEX
  8
0
 10
5208.500000
 20
1377.000000
 42
0.000000
  0
VERTEX
  8
0
 10
5225.000000
 20
1377.000000
 42
0.000000
  0
VERTEX
  8
0
 10
5225.000000
 20
1348.000000
 42
0.000000
  0
VERTEX
  8
0
 10
5225.000000
 20
1319.000000
 42
0.000000
  0
VERTEX
  8
0
 10
5196.500000
 20
1319.000000
 42
0.000000
  0
VERTEX
  8
0
 10
5168.000000
 20
1319.000000
 42
0.000000
  0
VERTEX
  8
0
 10
5168.000000
 20
1302.500000
 42
0.000000
  0
VERTEX
  8
0
 10
5168.000000
 20
1286.000000
 42
0.000000
  0
VERTEX
  8
0
 10
5140.500000
 20
1286.000000
 42
0.000000
  0
VERTEX
  8
0
 10
5113.000000
 20
1286.000000
 42
0.000000
  0
VERTEX
  8
0
 10
5113.000000
 20
1302.500000
 42
0.000000
  0
VERTEX
  8
0
 10
5113.000000
 20
1319.000000
 42
0.000000
  0
VERTEX
  8
0
 10
5083.500000
 20
1319.000000
 42
0.000000
  0
VERTEX
  8
0
 10
5054.000000
 20
1319.000000
 42
0.000000
  0
VERTEX
  8
0
 10
5054.000000
 20
1302.500000
 42
0.000000
  0
VERTEX
  8
0
 10
5054.000000
 20
1286.000000
 42
0.000000
  0
VERTEX
  8
0
 10
5026.500000
 20
1286.000000
 42
0.000000
  0
VERTEX
  8
0
 10
4999.000000
 20
1286.000000
 42
0.000000
  0
VERTEX
  8
0
 10
4999.000000
 20
1302.500000
 42
0.000000
  0
VERTEX
  8
0
 10
4999.000000
 20
1319.000000
 42
0.000000
  0
VERTEX
  8
0
 10
4969.000000
 20
1319.000000
 42
0.000000
  0
VERTEX
  8
0
 10
4939.000000
 20
1319.000000
 42
0.000000
  0
VERTEX
  8
0
 10
4939.000000
 20
1302.500000
 42
0.000000
  0
VERTEX
  8
0
 10
4939.000000
 20
1286.000000
 42
0.000000
  0
VERTEX
  8
0
 10
4911.500000
 20
1286.000000
 42
0.000000
  0
VERTEX
  8
0
 10
4884.000000
 20
1286.000000
 42
0.000000
  0
VERTEX
  8
0
 10
4884.000000
 20
1302.500000
 42
0.000000
  0
VERTEX
  8
0
 10
4884.000000
 20
1319.000000
 42
0.000000
  0
VERTEX
  8
0
 10
4854.000000
 20
1319.000000
 42
0.000000
  0
VERTEX
  8
0
 10
4824.000000
 20
1319.000000
 42
0.000000
  0
VERTEX
  8
0
 10
4824.000000
 20
1302.500000
 42
0.000000
  0
VERTEX
  8
0
 10
4824.000000
 20
1286.000000
 42
0.000000
  0
VERTEX
  8
0
 10
4796.500000
 20
1286.000000
 42
0.000000
  0
VERTEX
  8
0
 10
4769.000000
 20
1286.000000
 42
0.000000
  0
VERTEX
  8
0
 10
4769.000000
 20
1302.500000
 42
0.000000
  0
VERTEX
  8
0
 10
4769.000000
 20
1319.000000
 42
0.000000
  0
VERTEX
  8
0
 10
4739.500000
 20
1319.000000
 42
0.000000
  0
VERTEX
  8
0
 10
4710.000000
 20
1319.000000
 42
0.000000
  0
VERTEX
  8
0
 10
4710.000000
 20
1302.484181
 42
0.000000
  0
VERTEX
  8
0
 10
4710.000000
 20
1285.968363
 42
0.000000
  0
VERTEX
  8
0
 10
4682.250000
 20
1286.234181
 42
0.000000
  0
VERTEX
  8
0
 10
4654.500000
 20
1286.500000
 42
0.000000
  0
VERTEX
  8
0
 10
4654.225229
 20
1302.750000
 42
0.000000
  0
VERTEX
  8
0
 10
4653.950457
 20
1319.000000
 42
0.000000
  0
VERTEX
  8
0
 10
4624.475229
 20
1319.000000
 42
0.000000
  0
VERTEX
  8
0
 10
4595.000000
 20
1319.000000
 42
0.000000
  0
VERTEX
  8
0
 10
4595.000000
 20
1302.500000
 42
0.000000
  0
VERTEX
  8
0
 10
4595.000000
 20
1286.000000
 42
0.000000
  0
VERTEX
  8
0
 10
4567.500000
 20
1286.000000
 42
0.000000
  0
VERTEX
  8
0
 10
4540.000000
 20
1286.000000
 42
0.000000
  0
VERTEX
  8
0
 10
4540.000000
 20
1302.500000
 42
0.000000
  0
VERTEX
  8
0
 10
4540.000000
 20
1319.000000
 42
0.000000
  0
VERTEX
  8
0
 10
4510.000000
 20
1319.000000
 42
0.000000
  0
VERTEX
  8
0
 10
4480.000000
 20
1319.000000
 42
0.000000
  0
VERTEX
  8
0
 10
4480.000000
 20
1302.500000
 42
0.000000
  0
VERTEX
  8
0
 10
4480.000000
 20
1286.000000
 42
0.000000
  0
VERTEX
  8
0
 10
4452.500000
 20
1286.000000
 42
0.000000
  0
VERTEX
  8
0
 10
4425.000000
 20
1286.000000
 42
0.000000
  0
VERTEX
  8
0
 10
4425.000000
 20
1302.500000
 42
0.000000
  0
VERTEX
  8
0
 10
4425.000000
 20
1319.000000
 42
0.000000
  0
VERTEX
  8
0
 10
4395.500000
 20
1319.000000
 42
0.000000
  0
VERTEX
  8
0
 10
4366.000000
 20
1319.000000
 42
0.000000
  0
VERTEX
  8
0
 10
4366.000000
 20
1302.484181
 42
0.000000
  0
VERTEX
  8
0
 10
4366.000000
 20
1285.968363
 42
0.000000
  0
VERTEX
  8
0
 10
4338.250000
 20
1286.234181
 42
0.000000
  0
VERTEX
  8
0
 10
4310.500000
 20
1286.500000
 42
0.000000
  0
VERTEX
  8
0
 10
4310.225229
 20
1302.750000
 42
0.000000
  0
VERTEX
  8
0
 10
4309.950457
 20
1319.000000
 42
0.000000
  0
VERTEX
  8
0
 10
4280.475229
 20
1319.000000
 42
0.000000
  0
VERTEX
  8
0
 10
4251.000000
 20
1319.000000
 42
0.000000
  0
VERTEX
  8
0
 10
4251.000000
 20
1302.500000
 42
0.000000
  0
VERTEX
  8
0
 10
4251.000000
 20
1286.000000
 42
0.000000
  0
VERTEX
  8
0
 10
4223.500000
 20
1286.000000
 42
0.000000
  0
VERTEX
  8
0
 10
4196.000000
 20
1286.000000
 42
0.000000
  0
VERTEX
  8
0
 10
4196.000000
 20
1302.500000
 42
0.000000
  0
VERTEX
  8
0
 10
4196.000000
 20
1319.000000
 42
0.000000
  0
VERTEX
  8
0
 10
4166.000000
 20
1319.000000
 42
0.000000
  0
VERTEX
  8
0
 10
4136.000000
 20
1319.000000
 42
0.000000
  0
VERTEX
  8
0
 10
4136.000000
 20
1302.500000
 42
0.000000
  0
VERTEX
  8
0
 10
4136.000000
 20
1286.000000
 42
0.000000
  0
VERTEX
  8
0
 10
4108.500000
 20
1286.000000
 42
0.000000
  0
VERTEX
  8
0
 10
4081.000000
 20
1286.000000
 42
0.000000
  0
VERTEX
  8
0
 10
4081.000000
 20
1302.500000
 42
0.000000
  0
VERTEX
  8
0
 10
4081.000000
 20
1319.000000
 42
0.000000
  0
VERTEX
  8
0
 10
4051.500000
 20
1319.000000
 42
0.000000
  0
VERTEX
  8
0
 10
4022.000000
 20
1319.000000
 42
0.000000
  0
VERTEX
  8
0
 10
4022.000000
 20
1302.500000
 42
0.000000
  0
VERTEX
  8
0
 10
4022.000000
 20
1286.000000
 42
0.000000
  0
VERTEX
  8
0
 10
3994.000000
 20
1286.000000
 42
0.000000
  0
VERTEX
  8
0
 10
3966.000000
 20
1286.000000
 42
0.000000
  0
VERTEX
  8
0
 10
3966.000000
 20
1302.500000
 42
0.000000
  0
VERTEX
  8
0
 10
3966.000000
 20
1319.000000
 42
0.000000
  0
VERTEX
  8
0
 10
3936.500000
 20
1319.000000
 42
0.000000
  0
VERTEX
  8
0
 10
3907.000000
 20
1319.000000
 42
0.000000
  0
VERTEX
  8
0
 10
3907.000000
 20
1302.500000
 42
0.000000
  0
VERTEX
  8
0
 10
3907.000000
 20
1286.000000
 42
0.000000
  0
VERTEX
  8
0
 10
3879.500000
 20
1286.000000
 42
0.000000
  0
VERTEX
  8
0
 10
3852.000000
 20
1286.000000
 42
0.000000
  0
VERTEX
  8
0
 10
3852.000000
 20
1302.500000
 42
0.000000
  0
VERTEX
  8
0
 10
3852.000000
 20
1319.000000
 42
0.000000
  0
VERTEX
  8
0
 10
3822.000000
 20
1319.000000
 42
0.000000
  0
VERTEX
  8
0
 10
3792.000000
 20
1319.000000
 42
0.000000
  0
VERTEX
  8
0
 10
3792.000000
 20
1302.500000
 42
0.000000
  0
VERTEX
  8
0
 10
3792.000000
 20
1286.000000
 42
0.000000
  0
VERTEX
  8
0
 10
3764.500000
 20
1286.000000
 42
0.000000
  0
VERTEX
  8
0
 10
3737.000000
 20
1286.000000
 42
0.000000
  0
VERTEX
  8
0
 10
3737.000000
 20
1302.500000
 42
0.000000
  0
VERTEX
  8
0
 10
3737.000000
 20
1319.000000
 42
0.000000
  0
VERTEX
  8
0
 10
3707.500000
 20
1319.000000
 42
0.000000
  0
VERTEX
  8
0
 10
3678.000000
 20
1319.000000
 42
0.000000
  0
VERTEX
  8
0
 10
3678.000000
 20
1302.500000
 42
0.000000
  0
VERTEX
  8
0
 10
3678.000000
 20
1286.000000
 42
0.000000
  0
VERTEX
  8
0
 10
3650.000000
 20
1286.000000
 42
0.000000
  0
VERTEX
  8
0
 10
3622.000000
 20
1286.000000
 42
0.000000
  0
VERTEX
  8
0
 10
3622.000000
 20
1302.500000
 42
0.000000
  0
VERTEX
  8
0
 10
3622.000000
 20
1319.000000
 42
0.000000
  0
VERTEX
  8
0
 10
3592.500000
 20
1319.000000
 42
0.000000
  0
VERTEX
  8
0
 10
3563.000000
 20
1319.000000
 42
0.000000
  0
VERTEX
  8
0
 10
3563.000000
 20
1302.500000
 42
0.000000
  0
VERTEX
  8
0
 10
3563.000000
 20
1286.000000
 42
0.000000
  0
VERTEX
  8
0
 10
3535.500000
 20
1286.000000
 42
0.000000
  0
VERTEX
  8
0
 10
3508.000000
 20
1286.000000
 42
0.000000
  0
VERTEX
  8
0
 10
3508.000000
 20
1302.500000
 42
0.000000
  0
VERTEX
  8
0
 10
3508.000000
 20
1319.000000
 42
0.000000
  0
VERTEX
  8
0
 10
3478.000000
 20
1319.000000
 42
0.000000
  0
VERTEX
  8
0
 10
3448.000000
 20
1319.000000
 42
0.000000
  0
VERTEX
  8
0
 10
3448.000000
 20
1302.500000
 42
0.000000
  0
VERTEX
  8
0
 10
3448.000000
 20
1286.000000
 42
0.000000
  0
VERTEX
  8
0
 10
3420.500000
 20
1286.000000
 42
0.000000
  0
VERTEX
  8
0
 10
3393.000000
 20
1286.000000
 42
0.000000
  0
VERTEX
  8
0
 10
3393.000000
 20
1302.500000
 42
0.000000
  0
VERTEX
  8
0
 10
3393.000000
 20
1319.000000
 42
0.000000
  0
VERTEX
  8
0
 10
3363.500000
 20
1319.000000
 42
0.000000
  0
VERTEX
  8
0
 10
3334.000000
 20
1319.000000
 42
0.000000
  0
VERTEX
  8
0
 10
3334.000000
 20
1302.500000
 42
0.000000
  0
VERTEX
  8
0
 10
3334.000000
 20
1286.000000
 42
0.000000
  0
VERTEX
  8
0
 10
3306.000000
 20
1286.000000
 42
0.000000
  0
VERTEX
  8
0
 10
3278.000000
 20
1286.000000
 42
0.000000
  0
VERTEX
  8
0
 10
3278.000000
 20
1302.500000
 42
0.000000
  0
VERTEX
  8
0
 10
3278.000000
 20
1319.000000
 42
0.000000
  0
VERTEX
  8
0
 10
3248.500000
 20
1319.000000
 42
0.000000
  0
VERTEX
  8
0
 10
3219.000000
 20
1319.000000
 42
0.000000
  0
VERTEX
  8
0
 10
3219.000000
 20
1302.500000
 42
0.000000
  0
VERTEX
  8
0
 10
3219.000000
 20
1286.000000
 42
0.000000
  0
VERTEX
  8
0
 10
3191.500000
 20
1286.000000
 42
0.000000
  0
VERTEX
  8
0
 10
3164.000000
 20
1286.000000
 42
0.000000
  0
VERTEX
  8
0
 10
3164.000000
 20
1302.500000
 42
0.000000
  0
VERTEX
  8
0
 10
3164.000000
 20
1319.000000
 42
0.000000
  0
VERTEX
  8
0
 10
3134.000000
 20
1319.000000
 42
0.000000
  0
VERTEX
  8
0
 10
3104.000000
 20
1319.000000
 42
0.000000
  0
VERTEX
  8
0
 10
3104.000000
 20
1302.500000
 42
0.000000
  0
VERTEX
  8
0
 10
3104.000000
 20
1286.000000
 42
0.000000
  0
VERTEX
  8
0
 10
3076.500000
 20
1286.000000
 42
0.000000
  0
VERTEX
  8
0
 10
3049.000000
 20
1286.000000
 42
0.000000
  0
VERTEX
  8
0
 10
3049.000000
 20
1302.500000
 42
0.000000
  0
VERTEX
  8
0
 10
3049.000000
 20
1319.000000
 42
0.000000
  0
VERTEX
  8
0
 10
3019.500000
 20
1319.000000
 42
0.000000
  0
VERTEX
  8
0
 10
2990.000000
 20
1319.000000
 42
0.000000
  0
VERTEX
  8
0
 10
2990.000000
 20
1302.500000
 42
0.000000
  0
VERTEX
  8
0
 10
2990.000000
 20
1286.000000
 42
0.000000
  0
VERTEX
  8
0
 10
2962.000000
 20
1286.000000
 42
0.000000
  0
VERTEX
  8
0
 10
2934.000000
 20
1286.000000
 42
0.000000
  0
VERTEX
  8
0
 10
2934.000000
 20
1302.500000
 42
0.000000
  0
VERTEX
  8
0
 10
2934.000000
 20
1319.000000
 42
0.000000
  0
VERTEX
  8
0
 10
2904.500000
 20
1319.000000
 42
0.000000
  0
VERTEX
  8
0
 10
2875.000000
 20
1319.000000
 42
0.000000
  0
VERTEX
  8
0
 10
2875.000000
 20
1302.500000
 42
0.000000
  0
VERTEX
  8
0
 10
2875.000000
 20
1286.000000
 42
0.000000
  0
VERTEX
  8
0
 10
2847.500000
 20
1286.000000
 42
0.000000
  0
VERTEX
  8
0
 10
2820.000000
 20
1286.000000
 42
0.000000
  0
VERTEX
  8
0
 10
2820.000000
 20
1302.500000
 42
0.000000
  0
VERTEX
  8
0
 10
2820.000000
 20
1319.000000
 42
0.000000
  0
VERTEX
  8
0
 10
2790.000000
 20
1319.000000
 42
0.000000
  0
VERTEX
  8
0
 10
2760.000000
 20
1319.000000
 42
0.000000
  0
VERTEX
  8
0
 10
2760.000000
 20
1302.500000
 42
0.000000
  0
VERTEX
  8
0
 10
2760.000000
 20
1286.000000
 42
0.000000
  0
VERTEX
  8
0
 10
2732.500000
 20
1286.000000
 42
0.000000
  0
VERTEX
  8
0
 10
2705.000000
 20
1286.000000
 42
0.000000
  0
VERTEX
  8
0
 10
2705.000000
 20
1302.500000
 42
0.000000
  0
VERTEX
  8
0
 10
2705.000000
 20
1319.000000
 42
0.000000
  0
VERTEX
  8
0
 10
2676.500000
 20
1319.000000
 42
0.000000
  0
VERTEX
  8
0
 10
2648.000000
 20
1319.000000
 42
0.000000
  0
VERTEX
  8
0
 10
2648.000000
 20
1348.000000
 42
0.000000
  0
VERTEX
  8
0
 10
2648.000000
 20
1377.000000
 42
0.000000
  0
VERTEX
  8
0
 10
2664.500000
 20
1377.000000
 42
0.000000
  0
VERTEX
  8
0
 10
2681.000000
 20
1377.000000
 42
0.000000
  0
VERTEX
  8
0
 10
2681.000000
 20
1408.500000
 42
0.000000
  0
VERTEX
  8
0
 10
2681.000000
 20
1440.000000
 42
0.000000
  0
VERTEX
  8
0
 10
2664.500000
 20
1440.000000
 42
0.000000
  0
VERTEX
  8
0
 10
2648.000000
 20
1440.000000
 42
0.000000
  0
VERTEX
  8
0
 10
2648.000000
 20
1469.000000
 42
0.000000
  0
VERTEX
  8
0
 10
2648.000000
 20
1498.000000
 42
0.000000
  0
VERTEX
  8
0
 10
2664.500000
 20
1498.000000
 42
0.000000
  0
VERTEX
  8
0
 10
2681.000000
 20
1498.000000
 42
0.000000
  0
VERTEX
  8
0
 10
2681.000000
 20
1529.500000
 42
0.000000
  0
VERTEX
  8
0
 10
2681.000000
 20
1561.000000
 42
0.000000
  0
VERTEX
  8
0
 10
2664.500000
 20
1561.000000
 42
0.000000
  0
VERTEX
  8
0
 10
2648.000000
 20
1561.000000
 42
0.000000
  0
VERTEX
  8
0
 10
2648.000000
 20
1590.500000
 42
0.000000
  0
VERTEX
  8
0
 10
2648.000000
 20
1620.000000
 42
0.000000
  0
VERTEX
  8
0
 10
2664.500000
 20
1620.000000
 42
0.000000
  0
VERTEX
  8
0
 10
2681.000000
 20
1620.000000
 42
0.000000
  0
VERTEX
  8
0
 10
2681.000000
 20
1650.975229
 42
0.000000
  0
VERTEX
  8
0
 10
2681.000000
 20
1681.950457
 42
0.000000
  0
VERTEX
  8
0
 10
2664.750000
 20
1682.225229
 42
0.000000
  0
VERTEX
  8
0
 10
2648.500000
 20
1682.500000
 42
0.000000
  0
VERTEX
  8
0
 10
2648.234895
 20
1711.750000
 42
0.000000
  0
VERTEX
  8
0
 10
2647.969791
 20
1741.000000
 42
0.000000
  0
VERTEX
  8
0
 10
2664.484895
 20
1741.000000
 42
0.000000
  0
VERTEX
  8
0
 10
2681.000000
 20
1741.000000
 42
0.000000
  0
VERTEX
  8
0
 10
2681.000000
 20
1772.500000
 42
0.000000
  0
VERTEX
  8
0
 10
2681.000000
 20
1804.000000
 42
0.000000
  0
VERTEX
  8
0
 10
2664.500000
 20
1804.000000
 42
0.000000
  0
VERTEX
  8
0
 10
2648.000000
 20
1804.000000
 42
0.000000
  0
VERTEX
  8
0
 10
2648.000000
 20
1833.000000
 42
0.000000
  0
VERTEX
  8
0
 10
2648.000000
 20
1862.000000
 42
0.000000
  0
VERTEX
  8
0
 10
2664.500000
 20
1862.000000
 42
0.000000
  0
VERTEX
  8
0
 10
2681.000000
 20
1862.000000
 42
0.000000
  0
VERTEX
  8
0
 10
2681.000000
 20
1893.500000
 42
0.000000
  0
VERTEX
  8
0
 10
2681.000000
 20
1925.000000
 42
0.000000
  0
VERTEX
  8
0
 10
2664.500000
 20
1925.000000
 42
0.000000
  0
VERTEX
  8
0
 10
2648.000000
 20
1925.000000
 42
0.000000
  0
VERTEX
  8
0
 10
2648.000000
 20
1954.000000
 42
0.000000
  0
VERTEX
  8
0
 10
2648.000000
 20
1983.000000
 42
0.000000
  0
VERTEX
  8
0
 10
2664.500000
 20
1983.000000
 42
0.000000
  0
VERTEX
  8
0
 10
2681.000000
 20
1983.000000
 42
0.000000
  0
VERTEX
  8
0
 10
2681.000000
 20
2014.500000
 42
0.000000
  0
VERTEX
  8
0
 10
2681.000000
 20
2046.000000
 42
0.000000
  0
VERTEX
  8
0
 10
2664.484895
 20
2046.000000
 42
0.000000
  0
VERTEX
  8
0
 10
2647.969791
 20
2046.000000
 42
0.000000
  0
VERTEX
  8
0
 10
2648.234895
 20
2075.250000
 42
0.000000
  0
VERTEX
  8
0
 10
2648.500000
 20
2104.500000
 42
0.000000
  0
VERTEX
  8
0
 10
2664.750000
 20
2104.774771
 42
0.000000
  0
VERTEX
  8
0
 10
2681.000000
 20
2105.049543
 42
0.000000
  0
VERTEX
  8
0
 10
2681.000000
 20
2136.000000
 42
0.000000
  0
VERTEX
  8
0
 10
2681.000000
 20
2166.950457
 42
0.000000
  0
VERTEX
  8
0
 10
2664.750000
 20
2167.225229
 42
0.000000
  0
VERTEX
  8
0
 10
2648.500000
 20
2167.500000
 42
0.000000
  0
VERTEX
  8
0
 10
2648.234895
 20
2196.750000
 42
0.000000
  0
VERTEX
  8
0
 10
2647.969791
 20
2226.000000
 42
0.000000
  0
VERTEX
  8
0
 10
2664.484895
 20
2226.000000
 42
0.000000
  0
VERTEX
  8
0
 10
2681.000000
 20
2226.000000
 42
0.000000
  0
VERTEX
  8
0
 10
2681.000000
 20
2257.500000
 42
0.000000
  0
VERTEX
  8
0
 10
2681.000000
 20
2289.000000
 42
0.000000
  0
VERTEX
  8
0
 10
2664.500000
 20
2289.000000
 42
0.000000
  0
VERTEX
  8
0
 10
2648.000000
 20
2289.000000
 42
0.000000
  0
VERTEX
  8
0
 10
2648.000000
 20
2318.000000
 42
0.000000
  0
VERTEX
  8
0
 10
2648.000000
 20
2347.000000
 42
0.000000
  0
VERTEX
  8
0
 10
2664.500000
 20
2347.000000
 42
0.000000
  0
VERTEX
  8
0
 10
2681.000000
 20
2347.000000
 42
0.000000
  0
VERTEX
  8
0
 10
2681.000000
 20
2378.500000
 42
0.000000
  0
VERTEX
  8
0
 10
2681.000000
 20
2410.000000
 42
0.000000
  0
VERTEX
  8
0
 10
2664.500000
 20
2410.000000
 42
0.000000
  0
VERTEX
  8
0
 10
2648.000000
 20
2410.000000
 42
0.000000
  0
VERTEX
  8
0
 10
2648.000000
 20
2439.000000
 42
0.000000
  0
VERTEX
  8
0
 10
2648.000000
 20
2468.000000
 42
0.000000
  0
VERTEX
  8
0
 10
2676.500000
 20
2468.000000
 42
0.000000
  0
VERTEX
  8
0
 10
2705.000000
 20
2468.000000
 42
0.000000
  0
VERTEX
  8
0
 10
2705.000000
 20
2484.500000
 42
0.000000
  0
VERTEX
  8
0
 10
2705.000000
 20
2501.000000
 42
0.000000
  0
VERTEX
  8
0
 10
2732.500000
 20
2501.000000
 42
0.000000
  0
VERTEX
  8
0
 10
2760.000000
 20
2501.000000
 42
0.000000
  0
SEQEND
  0
POLYLINE
  8
0
 66
1
 70
1
  0
VERTEX
  8
0
 10
148.774179
 20
1232.750000
 42
0.000000
  0
VERTEX
  8
0
 10
149.048358
 20
1216.000000
 42
0.000000
  0
VERTEX
  8
0
 10
179.024179
 20
1216.000000
 42
0.000000
  0
VERTEX
  8
0
 10
209.000000
 20
1216.000000
 42
0.000000
  0
VERTEX
  8
0
 10
209.000000
 20
1233.000000
 42
0.000000
  0
VERTEX
  8
0
 10
209.000000
 20
1250.000000
 42
0.000000
  0
VERTEX
  8
0
 10
237.000000
 20
1250.000000
 42
0.000000
  0
VERTEX
  8
0
 10
265.000000
 20
1250.000000
 42
0.000000
  0
VERTEX
  8
0
 10
265.000000
 20
1233.000000
 42
0.000000
  0
VERTEX
  8
0
 10
265.000000
 20
1216.000000
 42
0.000000
  0
VERTEX
  8
0
 10
294.975821
 20
1216.000000
 42
0.000000
  0
VERTEX
  8
0
 10
324.951642
 20
1216.000000
 42
0.000000
  0
VERTEX
  8
0
 10
325.225821
 20
1232.750000
 42
0.000000
  0
VERTEX
  8
0
 10
325.500000
 20
1249.500000
 42
0.000000
  0
VERTEX
  8
0
 10
353.225750
 20
1249.765776
 42
0.000000
  0
VERTEX
  8
0
 10
380.951499
 20
1250.031552
 42
0.000000
  0
VERTEX
  8
0
 10
381.225750
 20
1233.265776
 42
0.000000
  0
VERTEX
  8
0
 10
381.500000
 20
1216.500000
 42
0.000000
  0
VERTEX
  8
0
 10
411.500000
 20
1216.500000
 42
0.000000
  0
VERTEX
  8
0
 10
441.500000
 20
1216.500000
 42
0.000000
  0
VERTEX
  8
0
 10
441.774179
 20
1233.250000
 42
0.000000
  0
VERTEX
  8
0
 10
442.048358
 20
1250.000000
 42
0.000000
  0
VERTEX
  8
0
 10
470.024179
 20
1250.000000
 42
0.000000
  0
VERTEX
  8
0
 10
498.000000
 20
1250.000000
 42
0.000000
  0
VERTEX
  8
0
 10
498.000000
 20
1233.000000
 42
0.000000
  0
VERTEX
  8
0
 10
498.000000
 20
1216.000000
 42
0.000000
  0
VERTEX
  8
0
 10
527.975821
 20
1216.000000
 42
0.000000
  0
VERTEX
  8
0
 10
557.951642
 20
1216.000000
 42
0.000000
  0
VERTEX
  8
0
 10
558.225821
 20
1232.750000
 42
0.000000
  0
VERTEX
  8
0
 10
558.500000
 20
1249.500000
 42
0.000000
  0
VERTEX
  8
0
 10
586.225750
 20
1249.765776
 42
0.000000
  0
VERTEX
  8
0
 10
613.951499
 20
1250.031552
 42
0.000000
  0
VERTEX
  8
0
 10
614.225750
 20
1233.265776
 42
0.000000
  0
VERTEX
  8
0
 10
614.500000
 20
1216.500000
 42
0.000000
  0
VERTEX
  8
0
 10
644.500000
 20
1216.500000
 42
0.000000
  0
VERTEX
  8
0
 10
674.500000
 20
1216.500000
 42
0.000000
  0
VERTEX
  8
0
 10
674.774179
 20
1233.250000
 42
0.000000
  0
VERTEX
  8
0
 10
675.048358
 20
1250.000000
 42
0.000000
  0
VERTEX
  8
0
 10
703.024179
 20
1250.000000
 42
0.000000
  0
VERTEX
  8
0
 10
731.000000
 20
1250.000000
 42
0.000000
  0
VERTEX
  8
0
 10
731.000000
 20
1233.000000
 42
0.000000
  0
VERTEX
  8
0
 10
731.000000
 20
1216.000000
 42
0.000000
  0
VERTEX
  8
0
 10
761.000000
 20
1216.000000
 42
0.000000
  0
VERTEX
  8
0
 10
791.000000
 20
1216.000000
 42
0.000000
  0
VERTEX
  8
0
 10
791.000000
 20
1233.000000
 42
0.000000
  0
VERTEX
  8
0
 10
791.000000
 20
1250.000000
 42
0.000000
  0
VERTEX
  8
0
 10
818.975821
 20
1250.000000
 42
0.000000
  0
VERTEX
  8
0
 10
846.951642
 20
1250.000000
 42
0.000000
  0
VERTEX
  8
0
 10
847.225821
 20
1233.250000
 42
0.000000
  0
VERTEX
  8
0
 10
847.500000
 20
1216.500000
 42
0.000000
  0
VERTEX
  8
0
 10
877.500000
 20
1216.500000
 42
0.000000
  0
VERTEX
  8
0
 10
907.500000
 20
1216.500000
 42
0.000000
  0
VERTEX
  8
0
 10
907.774179
 20
1233.250000
 42
0.000000
  0
VERTEX
  8
0
 10
908.048358
 20
1250.000000
 42
0.000000
  0
VERTEX
  8
0
 10
936.024179
 20
1250.000000
 42
0.000000
  0
VERTEX
  8
0
 10
964.000000
 20
1250.000000
 42
0.000000
  0
VERTEX
  8
0
 10
964.000000
 20
1233.000000
 42
0.000000
  0
VERTEX
  8
0
 10
964.000000
 20
1216.000000
 42
0.000000
  0
VERTEX
  8
0
 10
994.000000
 20
1216.000000
 42
0.000000
  0
VERTEX
  8
0
 10
1024.000000
 20
1216.000000
 42
0.000000
  0
VERTEX
  8
0
 10
1024.000000
 20
1233.000000
 42
0.000000
  0
VERTEX
  8
0
 10
1024.000000
 20
1250.000000
 42
0.000000
  0
VERTEX
  8
0
 10
1051.975821
 20
1250.000000
 42
0.000000
  0
VERTEX
  8
0
 10
1079.951642
 20
1250.000000
 42
0.000000
  0
VERTEX
  8
0
 10
1080.225821
 20
1233.250000
 42
0.000000
  0
VERTEX
  8
0
 10
1080.500000
 20
1216.500000
 42
0.000000
  0
VERTEX
  8
0
 10
1110.500000
 20
1216.500000
 42
0.000000
  0
VERTEX
  8
0
 10
1140.500000
 20
1216.500000
 42
0.000000
  0
VERTEX
  8
0
 10
1140.774250
 20
1233.265776
 42
0.000000
  0
VERTEX
  8
0
 10
1141.048501
 20
1250.031552
 42
0.000000
  0
VERTEX
  8
0
 10
1168.774250
 20
1249.765776
 42
0.000000
  0
VERTEX
  8
0
 10
1196.500000
 20
1249.500000
 42
0.000000
  0
VERTEX
  8
0
 10
1196.774179
 20
1232.750000
 42
0.000000
  0
VERTEX
  8
0
 10
1197.048358
 20
1216.000000
 42
0.000000
  0
VERTEX
  8
0
 10
1227.024179
 20
1216.000000
 42
0.000000
  0
VERTEX
  8
0
 10
1257.000000
 20
1216.000000
 42
0.000000
  0
VERTEX
  8
0
 10
1257.000000
 20
1233.000000
 42
0.000000
  0
VERTEX
  8
0
 10
1257.000000
 20
1250.000000
 42
0.000000
  0
VERTEX
  8
0
 10
1284.975821
 20
1250.000000
 42
0.000000
  0
VERTEX
  8
0
 10
1312.951642
 20
1250.000000
 42
0.000000
  0
VERTEX
  8
0
 10
1313.225821
 20
1233.250000
 42
0.000000
  0
VERTEX
  8
0
 10
1313.500000
 20
1216.500000
 42
0.000000
  0
VERTEX
  8
0
 10
1343.500000
 20
1216.500000
 42
0.000000
  0
VERTEX
  8
0
 10
1373.500000
 20
1216.500000
 42
0.000000
  0
VERTEX
  8
0
 10
1373.774250
 20
1233.265776
 42
0.000000
  0
VERTEX
  8
0
 10
1374.048501
 20
1250.031552
 42
0.000000
  0
VERTEX
  8
0
 10
1401.774250
 20
1249.765776
 42
0.000000
  0
VERTEX
  8
0
 10
1429.500000
 20
1249.500000
 42
0.000000
  0
VERTEX
  8
0
 10
1429.774179
 20
1232.750000
 42
0.000000
  0
VERTEX
  8
0
 10
1430.048358
 20
1216.000000
 42
0.000000
  0
VERTEX
  8
0
 10
1460.024179
 20
1216.000000
 42
0.000000
  0
VERTEX
  8
0
 10
1490.000000
 20
1216.000000
 42
0.000000
  0
VERTEX
  8
0
 10
1490.000000
 20
1233.000000
 42
0.000000
  0
VERTEX
  8
0
 10
1490.000000
 20
1250.000000
 42
0.000000
  0
VERTEX
  8
0
 10
1518.000000
 20
1250.000000
 42
0.000000
  0
VERTEX
  8
0
 10
1546.000000
 20
1250.000000
 42
0.000000
  0
VERTEX
  8
0
 10
1546.000000
 20
1233.000000
 42
0.000000
  0
VERTEX
  8
0
 10
1546.000000
 20
1216.000000
 42
0.000000
  0
VERTEX
  8
0
 10
1575.975821
 20
1216.000000
 42
0.000000
  0
VERTEX
  8
0
 10
1605.951642
 20
1216.000000
 42
0.000000
  0
VERTEX
  8
0
 10
1606.225821
 20
1232.750000
 42
0.000000
  0
VERTEX
  8
0
 10
1606.500000
 20
1249.500000
 42
0.000000
  0
VERTEX
  8
0
 10
1634.225750
 20
1249.765776
 42
0.000000
  0
VERTEX
  8
0
 10
1661.951499
 20
1250.031552
 42
0.000000
  0
VERTEX
  8
0
 10
1662.225750
 20
1233.265776
 42
0.000000
  0
VERTEX
  8
0
 10
1662.500000
 20
1216.500000
 42
0.000000
  0
VERTEX
  8
0
 10
1692.500000
 20
1216.500000
 42
0.000000
  0
VERTEX
  8
0
 10
1722.500000
 20
1216.500000
 42
0.000000
  0
VERTEX
  8
0
 10
1722.774179
 20
1233.250000
 42
0.000000
  0
VERTEX
  8
0
 10
1723.048358
 20
1250.000000
 42
0.000000
  0
VERTEX
  8
0
 10
1751.024179
 20
1250.000000
 42
0.000000
  0
VERTEX
  8
0
 10
1779.000000
 20
1250.000000
 42
0.000000
  0
VERTEX
  8
0
 10
1779.000000
 20
1233.000000
 42
0.000000
  0
VERTEX
  8
0
 10
1779.000000
 20
1216.000000
 42
0.000000
  0
VERTEX
  8
0
 10
1790.985119
 20
1216.000000
 42
0.000000
  0
VERTEX
  8
0
 10
1802.970239
 20
1216.000000
 42
0.000000
  0
VERTEX
  8
0
 10
1803.235119
 20
1186.250000
 42
0.000000
  0
VERTEX
  8
0
 10
1803.500000
 20
1156.500000
 42
0.000000
  0
VERTEX
  8
0
 10
1820.250000
 20
1156.225821
 42
0.000000
  0
VERTEX
  8
0
 10
1837.000000
 20
1155.951642
 42
0.000000
  0
VERTEX
  8
0
 10
1837.000000
 20
1126.975821
 42
0.000000
  0
VERTEX
  8
0
 10
1837.000000
 20
1098.000000
 42
0.000000
  0
VERTEX
  8
0
 10
1819.985753
 20
1098.000000
 42
0.000000
  0
VERTEX
  8
0
 10
1802.971507
 20
1098.000000
 42
0.000000
  0
VERTEX
  8
0
 10
1803.235753
 20
1066.750000
 42
0.000000
  0
VERTEX
  8
0
 10
1803.500000
 20
1035.500000
 42
0.000000
  0
VERTEX
  8
0
 10
1820.250000
 20
1035.225821
 42
0.000000
  0
VERTEX
  8
0
 10
1837.000000
 20
1034.951642
 42
0.000000
  0
VERTEX
  8
0
 10
1837.000000
 20
1006.000000
 42
0.000000
  0
VERTEX
  8
0
 10
1837.000000
 20
977.048358
 42
0.000000
  0
VERTEX
  8
0
 10
1820.250000
 20
976.774179
 42
0.000000
  0
VERTEX
  8
0
 10
1803.500000
 20
976.500000
 42
0.000000
  0
VERTEX
  8
0
 10
1803.235753
 20
945.250000
 42
0.000000
  0
VERTEX
  8
0
 10
1802.971507
 20
914.000000
 42
0.000000
  0
VERTEX
  8
0
 10
1820.000858
 20
914.000000
 42
0.000000
  0
VERTEX
  8
0
 10
1837.030209
 20
914.000000
 42
0.000000
  0
VERTEX
  8
0
 10
1836.765105
 20
884.750000
 42
0.000000
  0
VERTEX
  8
0
 10
1836.500000
 20
855.500000
 42
0.000000
  0
VERTEX
  8
0
 10
1819.750000
 20
855.225821
 42
0.000000
  0
VERTEX
  8
0
 10
1803.000000
 20
854.951642
 42
0.000000
  0
VERTEX
  8
0
 10
1803.000000
 20
824.000000
 42
0.000000
  0
VERTEX
  8
0
 10
1803.000000
 20
793.048358
 42
0.000000
  0
VERTEX
  8
0
 10
1819.750000
 20
792.774179
 42
0.000000
  0
VERTEX
  8
0
 10
1836.500000
 20
792.500000
 42
0.000000
  0
VERTEX
  8
0
 10
1836.500000
 20
763.500000
 42
0.000000
  0
VERTEX
  8
0
 10
1836.500000
 20
734.500000
 42
0.000000
  0
VERTEX
  8
0
 10
1819.735787
 20
734.225757
 42
0.000000
  0
VERTEX
  8
0
 10
1802.971575
 20
733.951513
 42
0.000000
  0
VERTEX
  8
0
 10
1803.235787
 20
702.725757
 42
0.000000
  0
VERTEX
  8
0
 10
1803.500000
 20
671.500000
 42
0.000000
  0
VERTEX
  8
0
 10
1820.250000
 20
671.225821
 42
0.000000
  0
VERTEX
  8
0
 10
1837.000000
 20
670.951642
 42
0.000000
  0
VERTEX
  8
0
 10
1837.000000
 20
641.975821
 42
0.000000
  0
VERTEX
  8
0
 10
1837.000000
 20
613.000000
 42
0.000000
  0
VERTEX
  8
0
 10
1819.985753
 20
613.000000
 42
0.000000
  0
VERTEX
  8
0
 10
1802.971507
 20
613.000000
 42
0.000000
  0
VERTEX
  8
0
 10
1803.235753
 20
581.750000
 42
0.000000
  0
VERTEX
  8
0
 10
1803.500000
 20
550.500000
 42
0.000000
  0
VERTEX
  8
0
 10
1820.250000
 20
550.225821
 42
0.000000
  0
VERTEX
  8
0
 10
1837.000000
 20
549.951642
 42
0.000000
  0
VERTEX
  8
0
 10
1837.000000
 20
521.000000
 42
0.000000
  0
VERTEX
  8
0
 10
1837.000000
 20
492.048358
 42
0.000000
  0
VERTEX
  8
0
 10
1820.250000
 20
491.774179
 42
0.000000
  0
VERTEX
  8
0
 10
1803.500000
 20
491.500000
 42
0.000000
  0
VERTEX
  8
0
 10
1803.235753
 20
460.250000
 42
0.000000
  0
VERTEX
  8
0
 10
1802.971507
 20
429.000000
 42
0.000000
  0
VERTEX
  8
0
 10
1819.985753
 20
429.000000
 42
0.000000
  0
VERTEX
  8
0
 10
1837.000000
 20
429.000000
 42
0.000000
  0
VERTEX
  8
0
 10
1837.000000
 20
400.024179
 42
0.000000
  0
VERTEX
  8
0
 10
1837.000000
 20
371.048358
 42
0.000000
  0
VERTEX
  8
0
 10
1820.250000
 20
370.774179
 42
0.000000
  0
VERTEX
  8
0
 10
1803.500000
 20
370.500000
 42
0.000000
  0
VERTEX
  8
0
 10
1803.235753
 20
339.250000
 42
0.000000
  0
VERTEX
  8
0
 10
1802.971507
 20
308.000000
 42
0.000000
  0
VERTEX
  8
0
 10
1820.000858
 20
308.000000
 42
0.000000
  0
VERTEX
  8
0
 10
1837.030209
 20
308.000000
 42
0.000000
  0
VERTEX
  8
0
 10
1836.765105
 20
278.750000
 42
0.000000
  0
VERTEX
  8
0
 10
1836.500000
 20
249.500000
 42
0.000000
  0
VERTEX
  8
0
 10
1819.750000
 20
249.225821
 42
0.000000
  0
VERTEX
  8
0
 10
1803.000000
 20
248.951642
 42
0.000000
  0
VERTEX
  8
0
 10
1803.000000
 20
218.000000
 42
0.000000
  0
VERTEX
  8
0
 10
1803.000000
 20
187.048358
 42
0.000000
  0
VERTEX
  8
0
 10
1819.750000
 20
186.774179
 42
0.000000
  0
VERTEX
  8
0
 10
1836.500000
 20
186.500000
 42
0.000000
  0
VERTEX
  8
0
 10
1836.765105
 20
157.250000
 42
0.000000
  0
VERTEX
  8
0
 10
1837.030209
 20
128.000000
 42
0.000000
  0
VERTEX
  8
0
 10
1820.015105
 20
128.000000
 42
0.000000
  0
VERTEX
  8
0
 10
1803.000000
 20
128.000000
 42
0.000000
  0
VERTEX
  8
0
 10
1803.000000
 20
98.000000
 42
0.000000
  0
VERTEX
  8
0
 10
1803.000000
 20
68.000000
 42
0.000000
  0
VERTEX
  8
0
 10
1791.000000
 20
68.000000
 42
0.000000
  0
VERTEX
  8
0
 10
1779.000000
 20
68.000000
 42
0.000000
  0
VERTEX
  8
0
 10
1779.000000
 20
51.500000
 42
0.000000
  0
VERTEX
  8
0
 10
1779.000000
 20
35.000000
 42
0.000000
  0
VERTEX
  8
0
 10
1751.000000
 20
35.000000
 42
0.000000
  0
VERTEX
  8
0
 10
1723.000000
 20
35.000000
 42
0.000000
  0
VERTEX
  8
0
 10
1723.000000
 20
51.500000
 42
0.000000
  0
VERTEX
  8
0
 10
1723.000000
 20
68.000000
 42
0.000000
  0
VERTEX
  8
0
 10
1692.500000
 20
68.000000
 42
0.000000
  0
VERTEX
  8
0
 10
1662.000000
 20
68.000000
 42
0.000000
  0
VERTEX
  8
0
 10
1662.000000
 20
51.500000
 42
0.000000
  0
VERTEX
  8
0
 10
1662.000000
 20
35.000000
 42
0.000000
  0
VERTEX
  8
0
 10
1634.000000
 20
35.000000
 42
0.000000
  0
VERTEX
  8
0
 10
1606.000000
 20
35.000000
 42
0.000000
  0
VERTEX
  8
0
 10
1606.000000
 20
51.500000
 42
0.000000
  0
VERTEX
  8
0
 10
1606.000000
 20
68.000000
 42
0.000000
  0
VERTEX
  8
0
 10
1576.000000
 20
68.000000
 42
0.000000
  0
VERTEX
  8
0
 10
1546.000000
 20
68.000000
 42
0.000000
  0
VERTEX
  8
0
 10
1546.000000
 20
51.500000
 42
0.000000
  0
VERTEX
  8
0
 10
1546.000000
 20
35.000000
 42
0.000000
  0
VERTEX
  8
0
 10
1518.000000
 20
35.000000
 42
0.000000
  0
VERTEX
  8
0
 10
1490.000000
 20
35.000000
 42
0.000000
  0
VERTEX
  8
0
 10
1490.000000
 20
51.500000
 42
0.000000
  0
VERTEX
  8
0
 10
1490.000000
 20
68.000000
 42
0.000000
  0
VERTEX
  8
0
 10
1460.000000
 20
68.000000
 42
0.000000
  0
VERTEX
  8
0
 10
1430.000000
 20
68.000000
 42
0.000000
  0
VERTEX
  8
0
 10
1430.000000
 20
51.500000
 42
0.000000
  0
VERTEX
  8
0
 10
1430.000000
 20
35.000000
 42
0.000000
  0
VERTEX
  8
0
 10
1402.000000
 20
35.000000
 42
0.000000
  0
VERTEX
  8
0
 10
1374.000000
 20
35.000000
 42
0.000000
  0
VERTEX
  8
0
 10
1374.000000
 20
51.500000
 42
0.000000
  0
VERTEX
  8
0
 10
1374.000000
 20
68.000000
 42
0.000000
  0
VERTEX
  8
0
 10
1343.500000
 20
68.000000
 42
0.000000
  0
VERTEX
  8
0
 10
1313.000000
 20
68.000000
 42
0.000000
  0
VERTEX
  8
0
 10
1313.000000
 20
51.500000
 42
0.000000
  0
VERTEX
  8
0
 10
1313.000000
 20
35.000000
 42
0.000000
  0
VERTEX
  8
0
 10
1285.000000
 20
35.000000
 42
0.000000
  0
VERTEX
  8
0
 10
1257.000000
 20
35.000000
 42
0.000000
  0
VERTEX
  8
0
 10
1257.000000
 20
51.500000
 42
0.000000
  0
VERTEX
  8
0
 10
1257.000000
 20
68.000000
 42
0.000000
  0
VERTEX
  8
0
 10
1227.000000
 20
68.000000
 42
0.000000
  0
VERTEX
  8
0
 10
1197.000000
 20
68.000000
 42
0.000000
  0
VERTEX
  8
0
 10
1197.000000
 20
51.500000
 42
0.000000
  0
VERTEX
  8
0
 10
1197.000000
 20
35.000000
 42
0.000000
  0
VERTEX
  8
0
 10
1169.000000
 20
35.000000
 42
0.000000
  0
VERTEX
  8
0
 10
1141.000000
 20
35.000000
 42
0.000000
  0
VERTEX
  8
0
 10
1141.000000
 20
51.500000
 42
0.000000
  0
VERTEX
  8
0
 10
1141.000000
 20
68.000000
 42
0.000000
  0
VERTEX
  8
0
 10
1110.500000
 20
68.000000
 42
0.000000
  0
VERTEX
  8
0
 10
1080.000000
 20
68.000000
 42
0.000000
  0
VERTEX
  8
0
 10
1080.000000
 20
51.500000
 42
0.000000
  0
VERTEX
  8
0
 10
1080.000000
 20
35.000000
 42
0.000000
  0
VERTEX
  8
0
 10
1052.000000
 20
35.000000
 42
0.000000
  0
VERTEX
  8
0
 10
1024.000000
 20
35.000000
 42
0.000000
  0
VERTEX
  8
0
 10
1024.000000
 20
51.500000
 42
0.000000
  0
VERTEX
  8
0
 10
1024.000000
 20
68.000000
 42
0.000000
  0
VERTEX
  8
0
 10
994.000000
 20
68.000000
 42
0.000000
  0
VERTEX
  8
0
 10
964.000000
 20
68.000000
 42
0.000000
  0
VERTEX
  8
0
 10
964.000000
 20
51.500000
 42
0.000000
  0
VERTEX
  8
0
 10
964.000000
 20
35.000000
 42
0.000000
  0
VERTEX
  8
0
 10
936.000000
 20
35.000000
 42
0.000000
  0
VERTEX
  8
0
 10
908.000000
 20
35.000000
 42
0.000000
  0
VERTEX
  8
0
 10
908.000000
 20
51.500000
 42
0.000000
  0
VERTEX
  8
0
 10
908.000000
 20
68.000000
 42
0.000000
  0
VERTEX
  8
0
 10
877.500000
 20
68.000000
 42
0.000000
  0
VERTEX
  8
0
 10
847.000000
 20
68.000000
 42
0.000000
  0
VERTEX
  8
0
 10
847.000000
 20
51.500000
 42
0.000000
  0
VERTEX
  8
0
 10
847.000000
 20
35.000000
 42
0.000000
  0
VERTEX
  8
0
 10
819.000000
 20
35.000000
 42
0.000000
  0
VERTEX
  8
0
 10
791.000000
 20
35.000000
 42
0.000000
  0
VERTEX
  8
0
 10
791.000000
 20
51.500000
 42
0.000000
  0
VERTEX
  8
0
 10
791.000000
 20
68.000000
 42
0.000000
  0
VERTEX
  8
0
 10
761.000000
 20
68.000000
 42
0.000000
  0
VERTEX
  8
0
 10
731.000000
 20
68.000000
 42
0.000000
  0
VERTEX
  8
0
 10
731.000000
 20
51.500000
 42
0.000000
  0
VERTEX
  8
0
 10
731.000000
 20
35.000000
 42
0.000000
  0
VERTEX
  8
0
 10
703.000000
 20
35.000000
 42
0.000000
  0
VERTEX
  8
0
 10
675.000000
 20
35.000000
 42
0.000000
  0
VERTEX
  8
0
 10
675.000000
 20
51.500000
 42
0.000000
  0
VERTEX
  8
0
 10
675.000000
 20
68.000000
 42
0.000000
  0
VERTEX
  8
0
 10
644.500000
 20
68.000000
 42
0.000000
  0
VERTEX
  8
0
 10
614.000000
 20
68.000000
 42
0.000000
  0
VERTEX
  8
0
 10
614.000000
 20
51.500000
 42
0.000000
  0
VERTEX
  8
0
 10
614.000000
 20
35.000000
 42
0.000000
  0
VERTEX
  8
0
 10
586.000000
 20
35.000000
 42
0.000000
  0
VERTEX
  8
0
 10
558.000000
 20
35.000000
 42
0.000000
  0
VERTEX
  8
0
 10
558.000000
 20
51.500000
 42
0.000000
  0
VERTEX
  8
0
 10
558.000000
 20
68.000000
 42
0.000000
  0
VERTEX
  8
0
 10
528.000000
 20
68.000000
 42
0.000000
  0
VERTEX
  8
0
 10
498.000000
 20
68.000000
 42
0.000000
  0
VERTEX
  8
0
 10
498.000000
 20
51.500000
 42
0.000000
  0
VERTEX
  8
0
 10
498.000000
 20
35.000000
 42
0.000000
  0
VERTEX
  8
0
 10
470.000000
 20
35.000000
 42
0.000000
  0
VERTEX
  8
0
 10
442.000000
 20
35.000000
 42
0.000000
  0
VERTEX
  8
0
 10
442.000000
 20
51.500000
 42
0.000000
  0
VERTEX
  8
0
 10
442.000000
 20
68.000000
 42
0.000000
  0
VERTEX
  8
0
 10
411.500000
 20
68.000000
 42
0.000000
  0
VERTEX
  8
0
 10
381.000000
 20
68.000000
 42
0.000000
  0
VERTEX
  8
0
 10
381.000000
 20
51.500000
 42
0.000000
  0
VERTEX
  8
0
 10
381.000000
 20
35.000000
 42
0.000000
  0
VERTEX
  8
0
 10
353.000000
 20
35.000000
 42
0.000000
  0
VERTEX
  8
0
 10
325.000000
 20
35.000000
 42
0.000000
  0
VERTEX
  8
0
 10
325.000000
 20
51.500000
 42
0.000000
  0
VERTEX
  8
0
 10
325.000000
 20
68.000000
 42
0.000000
  0
VERTEX
  8
0
 10
295.000000
 20
68.000000
 42
0.000000
  0
VERTEX
  8
0
 10
265.000000
 20
68.000000
 42
0.000000
  0
VERTEX
  8
0
 10
265.000000
 20
51.500000
 42
0.000000
  0
VERTEX
  8
0
 10
265.000000
 20
35.000000
 42
0.000000
  0
VERTEX
  8
0
 10
237.000000
 20
35.000000
 42
0.000000
  0
VERTEX
  8
0
 10
209.000000
 20
35.000000
 42
0.000000
  0
VERTEX
  8
0
 10
209.000000
 20
51.500000
 42
0.000000
  0
VERTEX
  8
0
 10
209.000000
 20
68.000000
 42
0.000000
  0
VERTEX
  8
0
 10
179.000000
 20
68.000000
 42
0.000000
  0
VERTEX
  8
0
 10
149.000000
 20
68.000000
 42
0.000000
  0
VERTEX
  8
0
 10
149.000000
 20
51.500000
 42
0.000000
  0
VERTEX
  8
0
 10
149.000000
 20
35.000000
 42
0.000000
  0
VERTEX
  8
0
 10
121.000000
 20
35.000000
 42
0.000000
  0
VERTEX
  8
0
 10
93.000000
 20
35.000000
 42
0.000000
  0
VERTEX
  8
0
 10
93.000000
 20
51.500000
 42
0.000000
  0
VERTEX
  8
0
 10
93.000000
 20
68.000000
 42
0.000000
  0
VERTEX
  8
0
 10
80.500000
 20
68.000000
 42
0.000000
  0
VERTEX
  8
0
 10
68.000000
 20
68.000000
 42
0.000000
  0
VERTEX
  8
0
 10
68.000000
 20
98.000000
 42
0.000000
  0
VERTEX
  8
0
 10
68.000000
 20
128.000000
 42
0.000000
  0
VERTEX
  8
0
 10
51.500000
 20
128.000000
 42
0.000000
  0
VERTEX
  8
0
 10
35.000000
 20
128.000000
 42
0.000000
  0
VERTEX
  8
0
 10
35.000000
 20
157.500000
 42
0.000000
  0
VERTEX
  8
0
 10
35.000000
 20
187.000000
 42
0.000000
  0
VERTEX
  8
0
 10
51.500000
 20
187.000000
 42
0.000000
  0
VERTEX
  8
0
 10
68.000000
 20
187.000000
 42
0.000000
  0
VERTEX
  8
0
 10
68.000000
 20
218.000000
 42
0.000000
  0
VERTEX
  8
0
 10
68.000000
 20
249.000000
 42
0.000000
  0
VERTEX
  8
0
 10
51.500000
 20
249.000000
 42
0.000000
  0
VERTEX
  8
0
 10
35.000000
 20
249.000000
 42
0.000000
  0
VERTEX
  8
0
 10
35.000000
 20
278.500000
 42
0.000000
  0
VERTEX
  8
0
 10
35.000000
 20
308.000000
 42
0.000000
  0
VERTEX
  8
0
 10
51.500000
 20
308.000000
 42
0.000000
  0
VERTEX
  8
0
 10
68.000000
 20
308.000000
 42
0.000000
  0
VERTEX
  8
0
 10
68.000000
 20
339.500000
 42
0.000000
  0
VERTEX
  8
0
 10
68.000000
 20
371.000000
 42
0.000000
  0
VERTEX
  8
0
 10
51.500000
 20
371.000000
 42
0.000000
  0
VERTEX
  8
0
 10
35.000000
 20
371.000000
 42
0.000000
  0
VERTEX
  8
0
 10
35.000000
 20
400.000000
 42
0.000000
  0
VERTEX
  8
0
 10
35.000000
 20
429.000000
 42
0.000000
  0
VERTEX
  8
0
 10
51.500000
 20
429.000000
 42
0.000000
  0
VERTEX
  8
0
 10
68.000000
 20
429.000000
 42
0.000000
  0
VERTEX
  8
0
 10
68.000000
 20
460.500000
 42
0.000000
  0
VERTEX
  8
0
 10
68.000000
 20
492.000000
 42
0.000000
  0
VERTEX
  8
0
 10
51.500000
 20
492.000000
 42
0.000000
  0
VERTEX
  8
0
 10
35.000000
 20
492.000000
 42
0.000000
  0
VERTEX
  8
0
 10
35.000000
 20
521.000000
 42
0.000000
  0
VERTEX
  8
0
 10
35.000000
 20
550.000000
 42
0.000000
  0
VERTEX
  8
0
 10
51.500000
 20
550.000000
 42
0.000000
  0
VERTEX
  8
0
 10
68.000000
 20
550.000000
 42
0.000000
  0
VERTEX
  8
0
 10
68.000000
 20
581.500000
 42
0.000000
  0
VERTEX
  8
0
 10
68.000000
 20
613.000000
 42
0.000000
  0
VERTEX
  8
0
 10
51.500000
 20
613.000000
 42
0.000000
  0
VERTEX
  8
0
 10
35.000000
 20
613.000000
 42
0.000000
  0
VERTEX
  8
0
 10
35.000000
 20
642.000000
 42
0.000000
  0
VERTEX
  8
0
 10
35.000000
 20
671.000000
 42
0.000000
  0
VERTEX
  8
0
 10
51.500000
 20
671.000000
 42
0.000000
  0
VERTEX
  8
0
 10
68.000000
 20
671.000000
 42
0.000000
  0
VERTEX
  8
0
 10
68.000000
 20
702.500000
 42
0.000000
  0
VERTEX
  8
0
 10
68.000000
 20
734.000000
 42
0.000000
  0
VERTEX
  8
0
 10
51.500000
 20
734.000000
 42
0.000000
  0
VERTEX
  8
0
 10
35.000000
 20
734.000000
 42
0.000000
  0
VERTEX
  8
0
 10
35.000000
 20
763.500000
 42
0.000000
  0
VERTEX
  8
0
 10
35.000000
 20
793.000000
 42
0.000000
  0
VERTEX
  8
0
 10
51.500000
 20
793.000000
 42
0.000000
  0
VERTEX
  8
0
 10
68.000000
 20
793.000000
 42
0.000000
  0
VERTEX
  8
0
 10
68.000000
 20
824.000000
 42
0.000000
  0
VERTEX
  8
0
 10
68.000000
 20
855.000000
 42
0.000000
  0
VERTEX
  8
0
 10
51.500000
 20
855.000000
 42
0.000000
  0
VERTEX
  8
0
 10
35.000000
 20
855.000000
 42
0.000000
  0
VERTEX
  8
0
 10
35.000000
 20
884.500000
 42
0.000000
  0
VERTEX
  8
0
 10
35.000000
 20
914.000000
 42
0.000000
  0
VERTEX
  8
0
 10
51.500000
 20
914.000000
 42
0.000000
  0
VERTEX
  8
0
 10
68.000000
 20
914.000000
 42
0.000000
  0
VERTEX
  8
0
 10
68.000000
 20
945.500000
 42
0.000000
  0
VERTEX
  8
0
 10
68.000000
 20
977.000000
 42
0.000000
  0
VERTEX
  8
0
 10
51.500000
 20
977.000000
 42
0.000000
  0
VERTEX
  8
0
 10
35.000000
 20
977.000000
 42
0.000000
  0
VERTEX
  8
0
 10
35.000000
 20
1006.000000
 42
0.000000
  0
VERTEX
  8
0
 10
35.000000
 20
1035.000000
 42
0.000000
  0
VERTEX
  8
0
 10
51.500000
 20
1035.000000
 42
0.000000
  0
VERTEX
  8
0
 10
68.000000
 20
1035.000000
 42
0.000000
  0
VERTEX
  8
0
 10
68.000000
 20
1066.500000
 42
0.000000
  0
VERTEX
  8
0
 10
68.000000
 20
1098.000000
 42
0.000000
  0
VERTEX
  8
0
 10
51.500000
 20
1098.000000
 42
0.000000
  0
VERTEX
  8
0
 10
35.000000
 20
1098.000000
 42
0.000000
  0
VERTEX
  8
0
 10
35.000000
 20
1127.000000
 42
0.000000
  0
VERTEX
  8
0
 10
35.000000
 20
1156.000000
 42
0.000000
  0
VERTEX
  8
0
 10
51.500000
 20
1156.000000
 42
0.000000
  0
VERTEX
  8
0
 10
68.000000
 20
1156.000000
 42
0.000000
  0
VERTEX
  8
0
 10
68.000000
 20
1185.969221
 42
0.000000
  0
VERTEX
  8
0
 10
68.000000
 20
1215.938442
 42
0.000000
  0
VERTEX
  8
0
 10
80.250000
 20
1216.219221
 42
0.000000
  0
VERTEX
  8
0
 10
92.500000
 20
1216.500000
 42
0.000000
  0
VERTEX
  8
0
 10
92.774250
 20
1233.265776
 42
0.000000
  0
VERTEX
  8
0
 10
93.048501
 20
1250.031552
 42
0.000000
  0
VERTEX
  8
0
 10
120.774250
 20
1249.765776
 42
0.000000
  0
VERTEX
  8
0
 10
148.500000
 20
1249.500000
 42
0.000000
  0
SEQEND
  0
POLYLINE
  8
0
 66
1
 70
1
  0
VERTEX
  8
0
 10
1987.000000
 20
1233.000000
 42
0.000000
  0
VERTEX
  8
0
 10
1987.000000
 20
1216.000000
 42
0.000000
  0
VERTEX
  8
0
 10
2017.000000
 20
1216.000000
 42
0.000000
  0
VERTEX
  8
0
 10
2047.000000
 20
1216.000000
 42
0.000000
  0
VERTEX
  8
0
 10
2047.000000
 20
1233.000000
 42
0.000000
  0
VERTEX
  8
0
 10
2047.000000
 20
1250.000000
 42
0.000000
  0
VERTEX
  8
0
 10
2074.975821
 20
1250.000000
 42
0.000000
  0
VERTEX
  8
0
 10
2102.951642
 20
1250.000000
 42
0.000000
  0
VERTEX
  8
0
 10
2103.225821
 20
1233.250000
 42
0.000000
  0
VERTEX
  8
0
 10
2103.500000
 20
1216.500000
 42
0.000000
  0
VERTEX
  8
0
 10
2133.500000
 20
1216.500000
 42
0.000000
  0
VERTEX
  8
0
 10
2163.500000
 20
1216.500000
 42
0.000000
  0
VERTEX
  8
0
 10
2163.774179
 20
1233.250000
 42
0.000000
  0
VERTEX
  8
0
 10
2164.048358
 20
1250.000000
 42
0.000000
  0
VERTEX
  8
0
 10
2192.024179
 20
1250.000000
 42
0.000000
  0
VERTEX
  8
0
 10
2220.000000
 20
1250.000000
 42
0.000000
  0
VERTEX
  8
0
 10
2220.000000
 20
1233.000000
 42
0.000000
  0
VERTEX
  8
0
 10
2220.000000
 20
1216.000000
 42
0.000000
  0
VERTEX
  8
0
 10
2250.000000
 20
1216.000000
 42
0.000000
  0
VERTEX
  8
0
 10
2280.000000
 20
1216.000000
 42
0.000000
  0
VERTEX
  8
0
 10
2280.000000
 20
1233.000000
 42
0.000000
  0
VERTEX
  8
0
 10
2280.000000
 20
1250.000000
 42
0.000000
  0
VERTEX
  8
0
 10
2307.975821
 20
1250.000000
 42
0.000000
  0
VERTEX
  8
0
 10
2335.951642
 20
1250.000000
 42
0.000000
  0
VERTEX
  8
0
 10
2336.225821
 20
1233.250000
 42
0.000000
  0
VERTEX
  8
0
 10
2336.500000
 20
1216.500000
 42
0.000000
  0
VERTEX
  8
0
 10
2366.500000
 20
1216.500000
 42
0.000000
  0
VERTEX
  8
0
 10
2396.500000
 20
1216.500000
 42
0.000000
  0
VERTEX
  8
0
 10
2396.774250
 20
1233.265776
 42
0.000000
  0
VERTEX
  8
0
 10
2397.048501
 20
1250.031552
 42
0.000000
  0
VERTEX
  8
0
 10
2424.774250
 20
1249.765776
 42
0.000000
  0
VERTEX
  8
0
 10
2452.500000
 20
1249.500000
 42
0.000000
  0
VERTEX
  8
0
 10
2452.774179
 20
1232.750000
 42
0.000000
  0
VERTEX
  8
0
 10
2453.048358
 20
1216.000000
 42
0.000000
  0
VERTEX
  8
0
 10
2483.024179
 20
1216.000000
 42
0.000000
  0
VERTEX
  8
0
 10
2513.000000
 20
1216.000000
 42
0.000000
  0
VERTEX
  8
0
 10
2513.000000
 20
1233.000000
 42
0.000000
  0
VERTEX
  8
0
 10
2513.000000
 20
1250.000000
 42
0.000000
  0
VERTEX
  8
0
 10
2540.975821
 20
1250.000000
 42
0.000000
  0
VERTEX
  8
0
 10
2568.951642
 20
1250.000000
 42
0.000000
  0
VERTEX
  8
0
 10
2569.225821
 20
1233.250000
 42
0.000000
  0
VERTEX
  8
0
 10
2569.500000
 20
1216.500000
 42
0.000000
  0
VERTEX
  8
0
 10
2599.225754
 20
1216.235157
 42
0.000000
  0
VERTEX
  8
0
 10
2628.951508
 20
1215.970313
 42
0.000000
  0
VERTEX
  8
0
 10
2629.225754
 20
1232.735157
 42
0.000000
  0
VERTEX
  8
0
 10
2629.500000
 20
1249.500000
 42
0.000000
  0
VERTEX
  8
0
 10
2657.500000
 20
1249.500000
 42
0.000000
  0
VERTEX
  8
0
 10
2685.500000
 20
1249.500000
 42
0.000000
  0
VERTEX
  8
0
 10
2685.774246
 20
1232.735157
 42
0.000000
  0
VERTEX
  8
0
 10
2686.048492
 20
1215.970313
 42
0.000000
  0
VERTEX
  8
0
 10
2715.774246
 20
1216.235157
 42
0.000000
  0
VERTEX
  8
0
 10
2745.500000
 20
1216.500000
 42
0.000000
  0
VERTEX
  8
0
 10
2745.774179
 20
1233.250000
 42
0.000000
  0
VERTEX
  8
0
 10
2746.048358
 20
1250.000000
 42
0.000000
  0
VERTEX
  8
0
 10
2774.024179
 20
1250.000000
 42
0.000000
  0
VERTEX
  8
0
 10
2802.000000
 20
1250.000000
 42
0.000000
  0
VERTEX
  8
0
 10
2802.000000
 20
1233.000000
 42
0.000000
  0
VERTEX
  8
0
 10
2802.000000
 20
1216.000000
 42
0.000000
  0
VERTEX
  8
0
 10
2831.975821
 20
1216.000000
 42
0.000000
  0
VERTEX
  8
0
 10
2861.951642
 20
1216.000000
 42
0.000000
  0
VERTEX
  8
0
 10
2862.225821
 20
1232.750000
 42
0.000000
  0
VERTEX
  8
0
 10
2862.500000
 20
1249.500000
 42
0.000000
  0
VERTEX
  8
0
 10
2890.225750
 20
1249.765776
 42
0.000000
  0
VERTEX
  8
0
 10
2917.951499
 20
1250.031552
 42
0.000000
  0
VERTEX
  8
0
 10
2918.225750
 20
1233.265776
 42
0.000000
  0
VERTEX
  8
0
 10
2918.500000
 20
1216.500000
 42
0.000000
  0
VERTEX
  8
0
 10
2948.500000
 20
1216.500000
 42
0.000000
  0
VERTEX
  8
0
 10
2978.500000
 20
1216.500000
 42
0.000000
  0
VERTEX
  8
0
 10
2978.774179
 20
1233.250000
 42
0.000000
  0
VERTEX
  8
0
 10
2979.048358
 20
1250.000000
 42
0.000000
  0
VERTEX
  8
0
 10
3007.024179
 20
1250.000000
 42
0.000000
  0
VERTEX
  8
0
 10
3035.000000
 20
1250.000000
 42
0.000000
  0
VERTEX
  8
0
 10
3035.000000
 20
1233.000000
 42
0.000000
  0
VERTEX
  8
0
 10
3035.000000
 20
1216.000000
 42
0.000000
  0
VERTEX
  8
0
 10
3065.000000
 20
1216.000000
 42
0.000000
  0
VERTEX
  8
0
 10
3095.000000
 20
1216.000000
 42
0.000000
  0
VERTEX
  8
0
 10
3095.000000
 20
1233.000000
 42
0.000000
  0
VERTEX
  8
0
 10
3095.000000
 20
1250.000000
 42
0.000000
  0
VERTEX
  8
0
 10
3122.975821
 20
1250.000000
 42
0.000000
  0
VERTEX
  8
0
 10
3150.951642
 20
1250.000000
 42
0.000000
  0
VERTEX
  8
0
 10
3151.225821
 20
1233.250000
 42
0.000000
  0
VERTEX
  8
0
 10
3151.500000
 20
1216.500000
 42
0.000000
  0
VERTEX
  8
0
 10
3181.500000
 20
1216.500000
 42
0.000000
  0
VERTEX
  8
0
 10
3211.500000
 20
1216.500000
 42
0.000000
  0
VERTEX
  8
0
 10
3211.774179
 20
1233.250000
 42
0.000000
  0
VERTEX
  8
0
 10
3212.048358
 20
1250.000000
 42
0.000000
  0
VERTEX
  8
0
 10
3240.024179
 20
1250.000000
 42
0.000000
  0
VERTEX
  8
0
 10
3268.000000
 20
1250.000000
 42
0.000000
  0
VERTEX
  8
0
 10
3268.000000
 20
1233.000000
 42
0.000000
  0
VERTEX
  8
0
 10
3268.000000
 20
1216.000000
 42
0.000000
  0
VERTEX
  8
0
 10
3298.000000
 20
1216.000000
 42
0.000000
  0
VERTEX
  8
0
 10
3328.000000
 20
1216.000000
 42
0.000000
  0
VERTEX
  8
0
 10
3328.000000
 20
1233.000000
 42
0.000000
  0
VERTEX
  8
0
 10
3328.000000
 20
1250.000000
 42
0.000000
  0
VERTEX
  8
0
 10
3355.975821
 20
1250.000000
 42
0.000000
  0
VERTEX
  8
0
 10
3383.951642
 20
1250.000000
 42
0.000000
  0
VERTEX
  8
0
 10
3384.225821
 20
1233.250000
 42
0.000000
  0
VERTEX
  8
0
 10
3384.500000
 20
1216.500000
 42
0.000000
  0
VERTEX
  8
0
 10
3414.500000
 20
1216.500000
 42
0.000000
  0
VERTEX
  8
0
 10
3444.500000
 20
1216.500000
 42
0.000000
  0
VERTEX
  8
0
 10
3444.774179
 20
1233.250000
 42
0.000000
  0
VERTEX
  8
0
 10
3445.048358
 20
1250.000000
 42
0.000000
  0
VERTEX
  8
0
 10
3473.024179
 20
1250.000000
 42
0.000000
  0
VERTEX
  8
0
 10
3501.000000
 20
1250.000000
 42
0.000000
  0
VERTEX
  8
0
 10
3501.000000
 20
1233.000000
 42
0.000000
  0
VERTEX
  8
0
 10
3501.000000
 20
1216.000000
 42
0.000000
  0
VERTEX
  8
0
 10
3531.000000
 20
1216.000000
 42
0.000000
  0
VERTEX
  8
0
 10
3561.000000
 20
1216.000000
 42
0.000000
  0
VERTEX
  8
0
 10
3561.000000
 20
1233.000000
 42
0.000000
  0
VERTEX
  8
0
 10
3561.000000
 20
1250.000000
 42
0.000000
  0
VERTEX
  8
0
 10
3588.975821
 20
1250.000000
 42
0.000000
  0
VERTEX
  8
0
 10
3616.951642
 20
1250.000000
 42
0.000000
  0
VERTEX
  8
0
 10
3617.225821
 20
1233.250000
 42
0.000000
  0
VERTEX
  8
0
 10
3617.500000
 20
1216.500000
 42
0.000000
  0
VERTEX
  8
0
 10
3629.750000
 20
1216.219221
 42
0.000000
  0
VERTEX
  8
0
 10
3642.000000
 20
1215.938442
 42
0.000000
  0
VERTEX
  8
0
 10
3642.000000
 20
1185.969221
 42
0.000000
  0
VERTEX
  8
0
 10
3642.000000
 20
1156.000000
 42
0.000000
  0
VERTEX
  8
0
 10
3658.500000
 20
1156.000000
 42
0.000000
  0
VERTEX
  8
0
 10
3675.000000
 20
1156.000000
 42
0.000000
  0
VERTEX
  8
0
 10
3675.000000
 20
1127.000000
 42
0.000000
  0
VERTEX
  8
0
 10
3675.000000
 20
1098.000000
 42
0.000000
  0
VERTEX
  8
0
 10
3658.500000
 20
1098.000000
 42
0.000000
  0
VERTEX
  8
0
 10
3642.000000
 20
1098.000000
 42
0.000000
  0
VERTEX
  8
0
 10
3642.000000
 20
1066.500000
 42
0.000000
  0
VERTEX
  8
0
 10
3642.000000
 20
1035.000000
 42
0.000000
  0
VERTEX
  8
0
 10
3658.500000
 20
1035.000000
 42
0.000000
  0
VERTEX
  8
0
 10
3675.000000
 20
1035.000000
 42
0.000000
  0
VERTEX
  8
0
 10
3675.000000
 20
1006.000000
 42
0.000000
  0
VERTEX
  8
0
 10
3675.000000
 20
977.000000
 42
0.000000
  0
VERTEX
  8
0
 10
3658.500000
 20
977.000000
 42
0.000000
  0
VERTEX
  8
0
 10
3642.000000
 20
977.000000
 42
0.000000
  0
VERTEX
  8
0
 10
3642.000000
 20
945.500000
 42
0.000000
  0
VERTEX
  8
0
 10
3642.000000
 20
914.000000
 42
0.000000
  0
VERTEX
  8
0
 10
3658.515105
 20
914.000000
 42
0.000000
  0
VERTEX
  8
0
 10
3675.030209
 20
914.000000
 42
0.000000
  0
VERTEX
  8
0
 10
3674.765105
 20
884.750000
 42
0.000000
  0
VERTEX
  8
0
 10
3674.500000
 20
855.500000
 42
0.000000
  0
VERTEX
  8
0
 10
3658.250000
 20
855.225229
 42
0.000000
  0
VERTEX
  8
0
 10
3642.000000
 20
854.950457
 42
0.000000
  0
VERTEX
  8
0
 10
3642.000000
 20
823.975229
 42
0.000000
  0
VERTEX
  8
0
 10
3642.000000
 20
793.000000
 42
0.000000
  0
VERTEX
  8
0
 10
3658.500000
 20
793.000000
 42
0.000000
  0
VERTEX
  8
0
 10
3675.000000
 20
793.000000
 42
0.000000
  0
VERTEX
  8
0
 10
3675.000000
 20
763.500000
 42
0.000000
  0
VERTEX
  8
0
 10
3675.000000
 20
734.000000
 42
0.000000
  0
VERTEX
  8
0
 10
3658.500000
 20
734.000000
 42
0.000000
  0
VERTEX
  8
0
 10
3642.000000
 20
734.000000
 42
0.000000
  0
VERTEX
  8
0
 10
3642.000000
 20
702.500000
 42
0.000000
  0
VERTEX
  8
0
 10
3642.000000
 20
671.000000
 42
0.000000
  0
VERTEX
  8
0
 10
3658.500000
 20
671.000000
 42
0.000000
  0
VERTEX
  8
0
 10
3675.000000
 20
671.000000
 42
0.000000
  0
VERTEX
  8
0
 10
3675.000000
 20
642.000000
 42
0.000000
  0
VERTEX
  8
0
 10
3675.000000
 20
613.000000
 42
0.000000
  0
VERTEX
  8
0
 10
3658.500000
 20
613.000000
 42
0.000000
  0
VERTEX
  8
0
 10
3642.000000
 20
613.000000
 42
0.000000
  0
VERTEX
  8
0
 10
3642.000000
 20
581.500000
 42
0.000000
  0
VERTEX
  8
0
 10
3642.000000
 20
550.000000
 42
0.000000
  0
VERTEX
  8
0
 10
3658.500000
 20
550.000000
 42
0.000000
  0
VERTEX
  8
0
 10
3675.000000
 20
550.000000
 42
0.000000
  0
VERTEX
  8
0
 10
3675.000000
 20
521.000000
 42
0.000000
  0
VERTEX
  8
0
 10
3675.000000
 20
492.000000
 42
0.000000
  0
VERTEX
  8
0
 10
3658.500000
 20
492.000000
 42
0.000000
  0
VERTEX
  8
0
 10
3642.000000
 20
492.000000
 42
0.000000
  0
VERTEX
  8
0
 10
3642.000000
 20
460.500000
 42
0.000000
  0
VERTEX
  8
0
 10
3642.000000
 20
429.000000
 42
0.000000
  0
VERTEX
  8
0
 10
3658.500000
 20
429.000000
 42
0.000000
  0
VERTEX
  8
0
 10
3675.000000
 20
429.000000
 42
0.000000
  0
VERTEX
  8
0
 10
3675.000000
 20
400.000000
 42
0.000000
  0
VERTEX
  8
0
 10
3675.000000
 20
371.000000
 42
0.000000
  0
VERTEX
  8
0
 10
3658.500000
 20
371.000000
 42
0.000000
  0
VERTEX
  8
0
 10
3642.000000
 20
371.000000
 42
0.000000
  0
VERTEX
  8
0
 10
3642.000000
 20
339.500000
 42
0.000000
  0
VERTEX
  8
0
 10
3642.000000
 20
308.000000
 42
0.000000
  0
VERTEX
  8
0
 10
3658.500000
 20
308.000000
 42
0.000000
  0
VERTEX
  8
0
 10
3675.000000
 20
308.000000
 42
0.000000
  0
VERTEX
  8
0
 10
3675.000000
 20
278.500000
 42
0.000000
  0
VERTEX
  8
0
 10
3675.000000
 20
249.000000
 42
0.000000
  0
VERTEX
  8
0
 10
3658.500000
 20
249.000000
 42
0.000000
  0
VERTEX
  8
0
 10
3642.000000
 20
249.000000
 42
0.000000
  0
VERTEX
  8
0
 10
3642.000000
 20
218.000000
 42
0.000000
  0
VERTEX
  8
0
 10
3642.000000
 20
187.000000
 42
0.000000
  0
VERTEX
  8
0
 10
3658.500000
 20
187.000000
 42
0.000000
  0
VERTEX
  8
0
 10
3675.000000
 20
187.000000
 42
0.000000
  0
VERTEX
  8
0
 10
3675.000000
 20
157.500000
 42
0.000000
  0
VERTEX
  8
0
 10
3675.000000
 20
128.000000
 42
0.000000
  0
VERTEX
  8
0
 10
3658.500000
 20
128.000000
 42
0.000000
  0
VERTEX
  8
0
 10
3642.000000
 20
128.000000
 42
0.000000
  0
VERTEX
  8
0
 10
3642.000000
 20
98.000000
 42
0.000000
  0
VERTEX
  8
0
 10
3642.000000
 20
68.000000
 42
0.000000
  0
VERTEX
  8
0
 10
3629.500000
 20
68.000000
 42
0.000000
  0
VERTEX
  8
0
 10
3617.000000
 20
68.000000
 42
0.000000
  0
VERTEX
  8
0
 10
3617.000000
 20
51.500000
 42
0.000000
  0
VERTEX
  8
0
 10
3617.000000
 20
35.000000
 42
0.000000
  0
VERTEX
  8
0
 10
3589.000000
 20
35.000000
 42
0.000000
  0
VERTEX
  8
0
 10
3561.000000
 20
35.000000
 42
0.000000
  0
VERTEX
  8
0
 10
3561.000000
 20
51.500000
 42
0.000000
  0
VERTEX
  8
0
 10
3561.000000
 20
68.000000
 42
0.000000
  0
VERTEX
  8
0
 10
3531.000000
 20
68.000000
 42
0.000000
  0
VERTEX
  8
0
 10
3501.000000
 20
68.000000
 42
0.000000
  0
VERTEX
  8
0
 10
3501.000000
 20
51.500000
 42
0.000000
  0
VERTEX
  8
0
 10
3501.000000
 20
35.000000
 42
0.000000
  0
VERTEX
  8
0
 10
3473.000000
 20
35.000000
 42
0.000000
  0
VERTEX
  8
0
 10
3445.000000
 20
35.000000
 42
0.000000
  0
VERTEX
  8
0
 10
3445.000000
 20
51.500000
 42
0.000000
  0
VERTEX
  8
0
 10
3445.000000
 20
68.000000
 42
0.000000
  0
VERTEX
  8
0
 10
3414.500000
 20
68.000000
 42
0.000000
  0
VERTEX
  8
0
 10
3384.000000
 20
68.000000
 42
0.000000
  0
VERTEX
  8
0
 10
3384.000000
 20
51.500000
 42
0.000000
  0
VERTEX
  8
0
 10
3384.000000
 20
35.000000
 42
0.000000
  0
VERTEX
  8
0
 10
3356.000000
 20
35.000000
 42
0.000000
  0
VERTEX
  8
0
 10
3328.000000
 20
35.000000
 42
0.000000
  0
VERTEX
  8
0
 10
3328.000000
 20
51.500000
 42
0.000000
  0
VERTEX
  8
0
 10
3328.000000
 20
68.000000
 42
0.000000
  0
VERTEX
  8
0
 10
3298.000000
 20
68.000000
 42
0.000000
  0
VERTEX
  8
0
 10
3268.000000
 20
68.000000
 42
0.000000
  0
VERTEX
  8
0
 10
3268.000000
 20
51.500000
 42
0.000000
  0
VERTEX
  8
0
 10
3268.000000
 20
35.000000
 42
0.000000
  0
VERTEX
  8
0
 10
3240.000000
 20
35.000000
 42
0.000000
  0
VERTEX
  8
0
 10
3212.000000
 20
35.000000
 42
0.000000
  0
VERTEX
  8
0
 10
3212.000000
 20
51.500000
 42
0.000000
  0
VERTEX
  8
0
 10
3212.000000
 20
68.000000
 42
0.000000
  0
VERTEX
  8
0
 10
3181.500000
 20
68.000000
 42
0.000000
  0
VERTEX
  8
0
 10
3151.000000
 20
68.000000
 42
0.000000
  0
VERTEX
  8
0
 10
3151.000000
 20
51.500000
 42
0.000000
  0
VERTEX
  8
0
 10
3151.000000
 20
35.000000
 42
0.000000
  0
VERTEX
  8
0
 10
3123.000000
 20
35.000000
 42
0.000000
  0
VERTEX
  8
0
 10
3095.000000
 20
35.000000
 42
0.000000
  0
VERTEX
  8
0
 10
3095.000000
 20
51.500000
 42
0.000000
  0
VERTEX
  8
0
 10
3095.000000
 20
68.000000
 42
0.000000
  0
VERTEX
  8
0
 10
3065.000000
 20
68.000000
 42
0.000000
  0
VERTEX
  8
0
 10
3035.000000
 20
68.000000
 42
0.000000
  0
VERTEX
  8
0
 10
3035.000000
 20
51.500000
 42
0.000000
  0
VERTEX
  8
0
 10
3035.000000
 20
35.000000
 42
0.000000
  0
VERTEX
  8
0
 10
3007.000000
 20
35.000000
 42
0.000000
  0
VERTEX
  8
0
 10
2979.000000
 20
35.000000
 42
0.000000
  0
VERTEX
  8
0
 10
2979.000000
 20
51.500000
 42
0.000000
  0
VERTEX
  8
0
 10
2979.000000
 20
68.000000
 42
0.000000
  0
VERTEX
  8
0
 10
2948.500000
 20
68.000000
 42
0.000000
  0
VERTEX
  8
0
 10
2918.000000
 20
68.000000
 42
0.000000
  0
VERTEX
  8
0
 10
2918.000000
 20
51.500000
 42
0.000000
  0
VERTEX
  8
0
 10
2918.000000
 20
35.000000
 42
0.000000
  0
VERTEX
  8
0
 10
2890.000000
 20
35.000000
 42
0.000000
  0
VERTEX
  8
0
 10
2862.000000
 20
35.000000
 42
0.000000
  0
VERTEX
  8
0
 10
2862.000000
 20
51.500000
 42
0.000000
  0
VERTEX
  8
0
 10
2862.000000
 20
68.000000
 42
0.000000
  0
VERTEX
  8
0
 10
2832.000000
 20
68.000000
 42
0.000000
  0
VERTEX
  8
0
 10
2802.000000
 20
68.000000
 42
0.000000
  0
VERTEX
  8
0
 10
2802.000000
 20
51.500000
 42
0.000000
  0
VERTEX
  8
0
 10
2802.000000
 20
35.000000
 42
0.000000
  0
VERTEX
  8
0
 10
2774.000000
 20
35.000000
 42
0.000000
  0
VERTEX
  8
0
 10
2746.000000
 20
35.000000
 42
0.000000
  0
VERTEX
  8
0
 10
2746.000000
 20
51.500000
 42
0.000000
  0
VERTEX
  8
0
 10
2746.000000
 20
68.000000
 42
0.000000
  0
VERTEX
  8
0
 10
2716.000000
 20
68.000000
 42
0.000000
  0
VERTEX
  8
0
 10
2686.000000
 20
68.000000
 42
0.000000
  0
VERTEX
  8
0
 10
2686.000000
 20
51.500000
 42
0.000000
  0
VERTEX
  8
0
 10
2686.000000
 20
35.000000
 42
0.000000
  0
VERTEX
  8
0
 10
2657.500000
 20
35.000000
 42
0.000000
  0
VERTEX
  8
0
 10
2629.000000
 20
35.000000
 42
0.000000
  0
VERTEX
  8
0
 10
2629.000000
 20
51.500000
 42
0.000000
  0
VERTEX
  8
0
 10
2629.000000
 20
68.000000
 42
0.000000
  0
VERTEX
  8
0
 10
2599.000000
 20
68.000000
 42
0.000000
  0
VERTEX
  8
0
 10
2569.000000
 20
68.000000
 42
0.000000
  0
VERTEX
  8
0
 10
2569.000000
 20
51.500000
 42
0.000000
  0
VERTEX
  8
0
 10
2569.000000
 20
35.000000
 42
0.000000
  0
VERTEX
  8
0
 10
2541.000000
 20
35.000000
 42
0.000000
  0
VERTEX
  8
0
 10
2513.000000
 20
35.000000
 42
0.000000
  0
VERTEX
  8
0
 10
2513.000000
 20
51.500000
 42
0.000000
  0
VERTEX
  8
0
 10
2513.000000
 20
68.000000
 42
0.000000
  0
VERTEX
  8
0
 10
2483.000000
 20
68.000000
 42
0.000000
  0
VERTEX
  8
0
 10
2453.000000
 20
68.000000
 42
0.000000
  0
VERTEX
  8
0
 10
2453.000000
 20
51.500000
 42
0.000000
  0
VERTEX
  8
0
 10
2453.000000
 20
35.000000
 42
0.000000
  0
VERTEX
  8
0
 10
2425.000000
 20
35.000000
 42
0.000000
  0
VERTEX
  8
0
 10
2397.000000
 20
35.000000
 42
0.000000
  0
VERTEX
  8
0
 10
2397.000000
 20
51.500000
 42
0.000000
  0
VERTEX
  8
0
 10
2397.000000
 20
68.000000
 42
0.000000
  0
VERTEX
  8
0
 10
2366.500000
 20
68.000000
 42
0.000000
  0
VERTEX
  8
0
 10
2336.000000
 20
68.000000
 42
0.000000
  0
VERTEX
  8
0
 10
2336.000000
 20
51.500000
 42
0.000000
  0
VERTEX
  8
0
 10
2336.000000
 20
35.000000
 42
0.000000
  0
VERTEX
  8
0
 10
2308.000000
 20
35.000000
 42
0.000000
  0
VERTEX
  8
0
 10
2280.000000
 20
35.000000
 42
0.000000
  0
VERTEX
  8
0
 10
2280.000000
 20
51.500000
 42
0.000000
  0
VERTEX
  8
0
 10
2280.000000
 20
68.000000
 42
0.000000
  0
VERTEX
  8
0
 10
2250.000000
 20
68.000000
 42
0.000000
  0
VERTEX
  8
0
 10
2220.000000
 20
68.000000
 42
0.000000
  0
VERTEX
  8
0
 10
2220.000000
 20
51.500000
 42
0.000000
  0
VERTEX
  8
0
 10
2220.000000
 20
35.000000
 42
0.000000
  0
VERTEX
  8
0
 10
2192.000000
 20
35.000000
 42
0.000000
  0
VERTEX
  8
0
 10
2164.000000
 20
35.000000
 42
0.000000
  0
VERTEX
  8
0
 10
2164.000000
 20
51.500000
 42
0.000000
  0
VERTEX
  8
0
 10
2164.000000
 20
68.000000
 42
0.000000
  0
VERTEX
  8
0
 10
2133.500000
 20
68.000000
 42
0.000000
  0
VERTEX
  8
0
 10
2103.000000
 20
68.000000
 42
0.000000
  0
VERTEX
  8
0
 10
2103.000000
 20
51.500000
 42
0.000000
  0
VERTEX
  8
0
 10
2103.000000
 20
35.000000
 42
0.000000
  0
VERTEX
  8
0
 10
2075.000000
 20
35.000000
 42
0.000000
  0
VERTEX
  8
0
 10
2047.000000
 20
35.000000
 42
0.000000
  0
VERTEX
  8
0
 10
2047.000000
 20
51.500000
 42
0.000000
  0
VERTEX
  8
0
 10
2047.000000
 20
68.000000
 42
0.000000
  0
VERTEX
  8
0
 10
2017.000000
 20
68.000000
 42
0.000000
  0
VERTEX
  8
0
 10
1987.000000
 20
68.000000
 42
0.000000
  0
VERTEX
  8
0
 10
1987.000000
 20
51.500000
 42
0.000000
  0
VERTEX
  8
0
 10
1987.000000
 20
35.000000
 42
0.000000
  0
VERTEX
  8
0
 10
1959.000000
 20
35.000000
 42
0.000000
  0
VERTEX
  8
0
 10
1931.000000
 20
35.000000
 42
0.000000
  0
VERTEX
  8
0
 10
1931.000000
 20
51.500000
 42
0.000000
  0
VERTEX
  8
0
 10
1931.000000
 20
68.000000
 42
0.000000
  0
VERTEX
  8
0
 10
1918.500000
 20
68.000000
 42
0.000000
  0
VERTEX
  8
0
 10
1906.000000
 20
68.000000
 42
0.000000
  0
VERTEX
  8
0
 10
1906.000000
 20
98.000000
 42
0.000000
  0
VERTEX
  8
0
 10
1906.000000
 20
128.000000
 42
0.000000
  0
VERTEX
  8
0
 10
1889.500000
 20
128.000000
 42
0.000000
  0
VERTEX
  8
0
 10
1873.000000
 20
128.000000
 42
0.000000
  0
VERTEX
  8
0
 10
1873.000000
 20
157.500000
 42
0.000000
  0
VERTEX
  8
0
 10
1873.000000
 20
187.000000
 42
0.000000
  0
VERTEX
  8
0
 10
1889.500000
 20
187.000000
 42
0.000000
  0
VERTEX
  8
0
 10
1906.000000
 20
187.000000
 42
0.000000
  0
VERTEX
  8
0
 10
1906.000000
 20
218.000000
 42
0.000000
  0
VERTEX
  8
0
 10
1906.000000
 20
249.000000
 42
0.000000
  0
VERTEX
  8
0
 10
1889.500000
 20
249.000000
 42
0.000000
  0
VERTEX
  8
0
 10
1873.000000
 20
249.000000
 42
0.000000
  0
VERTEX
  8
0
 10
1873.000000
 20
278.500000
 42
0.000000
  0
VERTEX
  8
0
 10
1873.000000
 20
308.000000
 42
0.000000
  0
VERTEX
  8
0
 10
1889.500000
 20
308.000000
 42
0.000000
  0
VERTEX
  8
0
 10
1906.000000
 20
308.000000
 42
0.000000
  0
VERTEX
  8
0
 10
1906.000000
 20
339.500000
 42
0.000000
  0
VERTEX
  8
0
 10
1906.000000
 20
371.000000
 42
0.000000
  0
VERTEX
  8
0
 10
1889.500000
 20
371.000000
 42
0.000000
  0
VERTEX
  8
0
 10
1873.000000
 20
371.000000
 42
0.000000
  0
VERTEX
  8
0
 10
1873.000000
 20
400.000000
 42
0.000000
  0
VERTEX
  8
0
 10
1873.000000
 20
429.000000
 42
0.000000
  0
VERTEX
  8
0
 10
1889.500000
 20
429.000000
 42
0.000000
  0
VERTEX
  8
0
 10
1906.000000
 20
429.000000
 42
0.000000
  0
VERTEX
  8
0
 10
1906.000000
 20
460.500000
 42
0.000000
  0
VERTEX
  8
0
 10
1906.000000
 20
492.000000
 42
0.000000
  0
VERTEX
  8
0
 10
1889.500000
 20
492.000000
 42
0.000000
  0
VERTEX
  8
0
 10
1873.000000
 20
492.000000
 42
0.000000
  0
VERTEX
  8
0
 10
1873.000000
 20
521.000000
 42
0.000000
  0
VERTEX
  8
0
 10
1873.000000
 20
550.000000
 42
0.000000
  0
VERTEX
  8
0
 10
1889.500000
 20
550.000000
 42
0.000000
  0
VERTEX
  8
0
 10
1906.000000
 20
550.000000
 42
0.000000
  0
VERTEX
  8
0
 10
1906.000000
 20
581.500000
 42
0.000000
  0
VERTEX
  8
0
 10
1906.000000
 20
613.000000
 42
0.000000
  0
VERTEX
  8
0
 10
1889.500000
 20
613.000000
 42
0.000000
  0
VERTEX
  8
0
 10
1873.000000
 20
613.000000
 42
0.000000
  0
VERTEX
  8
0
 10
1873.000000
 20
642.000000
 42
0.000000
  0
VERTEX
  8
0
 10
1873.000000
 20
671.000000
 42
0.000000
  0
VERTEX
  8
0
 10
1889.500000
 20
671.000000
 42
0.000000
  0
VERTEX
  8
0
 10
1906.000000
 20
671.000000
 42
0.000000
  0
VERTEX
  8
0
 10
1906.000000
 20
702.500000
 42
0.000000
  0
VERTEX
  8
0
 10
1906.000000
 20
734.000000
 42
0.000000
  0
VERTEX
  8
0
 10
1889.500000
 20
734.000000
 42
0.000000
  0
VERTEX
  8
0
 10
1873.000000
 20
734.000000
 42
0.000000
  0
VERTEX
  8
0
 10
1873.000000
 20
763.500000
 42
0.000000
  0
VERTEX
  8
0
 10
1873.000000
 20
793.000000
 42
0.000000
  0
VERTEX
  8
0
 10
1889.500000
 20
793.000000
 42
0.000000
  0
VERTEX
  8
0
 10
1906.000000
 20
793.000000
 42
0.000000
  0
VERTEX
  8
0
 10
1906.000000
 20
824.000000
 42
0.000000
  0
VERTEX
  8
0
 10
1906.000000
 20
855.000000
 42
0.000000
  0
VERTEX
  8
0
 10
1889.500000
 20
855.000000
 42
0.000000
  0
VERTEX
  8
0
 10
1873.000000
 20
855.000000
 42
0.000000
  0
VERTEX
  8
0
 10
1873.000000
 20
884.500000
 42
0.000000
  0
VERTEX
  8
0
 10
1873.000000
 20
914.000000
 42
0.000000
  0
VERTEX
  8
0
 10
1889.500000
 20
914.000000
 42
0.000000
  0
VERTEX
  8
0
 10
1906.000000
 20
914.000000
 42
0.000000
  0
VERTEX
  8
0
 10
1906.000000
 20
945.500000
 42
0.000000
  0
VERTEX
  8
0
 10
1906.000000
 20
977.000000
 42
0.000000
  0
VERTEX
  8
0
 10
1889.500000
 20
977.000000
 42
0.000000
  0
VERTEX
  8
0
 10
1873.000000
 20
977.000000
 42
0.000000
  0
VERTEX
  8
0
 10
1873.000000
 20
1006.000000
 42
0.000000
  0
VERTEX
  8
0
 10
1873.000000
 20
1035.000000
 42
0.000000
  0
VERTEX
  8
0
 10
1889.500000
 20
1035.000000
 42
0.000000
  0
VERTEX
  8
0
 10
1906.000000
 20
1035.000000
 42
0.000000
  0
VERTEX
  8
0
 10
1906.000000
 20
1066.500000
 42
0.000000
  0
VERTEX
  8
0
 10
1906.000000
 20
1098.000000
 42
0.000000
  0
VERTEX
  8
0
 10
1889.500000
 20
1098.000000
 42
0.000000
  0
VERTEX
  8
0
 10
1873.000000
 20
1098.000000
 42
0.000000
  0
VERTEX
  8
0
 10
1873.000000
 20
1127.000000
 42
0.000000
  0
VERTEX
  8
0
 10
1873.000000
 20
1156.000000
 42
0.000000
  0
VERTEX
  8
0
 10
1889.500000
 20
1156.000000
 42
0.000000
  0
VERTEX
  8
0
 10
1906.000000
 20
1156.000000
 42
0.000000
  0
VERTEX
  8
0
 10
1906.000000
 20
1185.969221
 42
0.000000
  0
VERTEX
  8
0
 10
1906.000000
 20
1215.938442
 42
0.000000
  0
VERTEX
  8
0
 10
1918.250000
 20
1216.219221
 42
0.000000
  0
VERTEX
  8
0
 10
1930.500000
 20
1216.500000
 42
0.000000
  0
VERTEX
  8
0
 10
1930.774179
 20
1233.250000
 42
0.000000
  0
VERTEX
  8
0
 10
1931.048358
 20
1250.000000
 42
0.000000
  0
VERTEX
  8
0
 10
1959.024179
 20
1250.000000
 42
0.000000
  0
VERTEX
  8
0
 10
1987.000000
 20
1250.000000
 42
0.000000
  0
SEQEND
  0
ENDSEC
  0
EOF
